%
M48
METRIC,000.000
T01C0.41
T02C0.79
T03C0.81
T04C0.99
T05C0.99
T06C1.14
T07C1.30
T08C1.40
T09C2.01
T10C2.31
T11C6.10
T12C1.24
%
T01
X040944Y024968
X042494Y028389
X043040Y027398
X040944Y075438
X042494Y078859
X043040Y077868
X091414Y024968
X092964Y028389
X093510Y027398
X091414Y075438
X092964Y078859
X093510Y077868
T02
X040093Y007950
X040093Y006350
X040093Y004749
X041292Y007150
X041292Y005549
X040093Y058420
X040093Y056820
X040093Y055219
X041292Y057620
X041292Y056019
X090563Y007950
X090563Y006350
X090563Y004749
X091762Y007150
X091762Y005549
X090563Y058420
X090563Y056820
X090563Y055219
X091762Y057620
X091762Y056019
T03
X007653Y010413
X007653Y007874
X009652Y010413
X009652Y007874
X007653Y060884
X007653Y058344
X009652Y060884
X009652Y058344
X058123Y010413
X058123Y007874
X060122Y010413
X060122Y007874
X058123Y060884
X058123Y058344
X060122Y060884
X060122Y058344
T04
X017779Y025400
X017779Y022860
X020320Y033019
X020320Y030479
X020320Y025400
X020320Y022860
X022860Y033019
X022860Y030479
X022860Y025400
X022860Y022860
X027940Y033019
X027940Y030479
X027940Y025400
X027940Y022860
X027940Y020320
X030479Y033019
X030479Y030479
X030479Y025400
X030479Y022860
X030479Y020320
X034290Y033019
X034290Y030479
X034290Y025400
X034290Y022860
X036830Y033019
X036830Y030479
X036830Y025400
X036830Y022860
X036830Y017779
X036830Y015239
X039370Y033019
X039370Y030479
X039370Y025400
X039370Y022860
X039370Y017779
X039370Y015239
X041910Y017779
X041910Y015239
X044449Y017779
X044449Y015239
X017779Y075870
X017779Y073330
X020320Y083490
X020320Y080950
X020320Y075870
X020320Y073330
X022860Y083490
X022860Y080950
X022860Y075870
X022860Y073330
X027940Y083490
X027940Y080950
X027940Y075870
X027940Y073330
X027940Y070790
X030479Y083490
X030479Y080950
X030479Y075870
X030479Y073330
X030479Y070790
X034290Y083490
X034290Y080950
X034290Y075870
X034290Y073330
X036830Y083490
X036830Y080950
X036830Y075870
X036830Y073330
X036830Y068250
X036830Y065710
X039370Y083490
X039370Y080950
X039370Y075870
X039370Y073330
X039370Y068250
X039370Y065710
X041910Y068250
X041910Y065710
X044449Y068250
X044449Y065710
X021590Y063297
X024130Y063297
X026162Y063297
X028701Y063297
X068250Y025400
X068250Y022860
X070790Y033019
X070790Y030479
X070790Y025400
X070790Y022860
X073330Y033019
X073330Y030479
X073330Y025400
X073330Y022860
X078410Y033019
X078410Y030479
X078410Y025400
X078410Y022860
X078410Y020320
X080950Y033019
X080950Y030479
X080950Y025400
X080950Y022860
X080950Y020320
X084760Y033019
X084760Y030479
X084760Y025400
X084760Y022860
X087300Y033019
X087300Y030479
X087300Y025400
X087300Y022860
X087300Y017779
X087300Y015239
X089840Y033019
X089840Y030479
X089840Y025400
X089840Y022860
X089840Y017779
X089840Y015239
X092380Y017779
X092380Y015239
X094920Y017779
X094920Y015239
X072060Y012827
X074600Y012827
X076632Y012827
X079172Y012827
X068250Y075870
X068250Y073330
X070790Y083490
X070790Y080950
X070790Y075870
X070790Y073330
X073330Y083490
X073330Y080950
X073330Y075870
X073330Y073330
X078410Y083490
X078410Y080950
X078410Y075870
X078410Y073330
X078410Y070790
X080950Y083490
X080950Y080950
X080950Y075870
X080950Y073330
X080950Y070790
X084760Y083490
X084760Y080950
X084760Y075870
X084760Y073330
X087300Y083490
X087300Y080950
X087300Y075870
X087300Y073330
X087300Y068250
X087300Y065710
X089840Y083490
X089840Y080950
X089840Y075870
X089840Y073330
X089840Y068250
X089840Y065710
X092380Y068250
X092380Y065710
X094920Y068250
X094920Y065710
X072060Y063297
X074600Y063297
X076632Y063297
X079172Y063297
X007820Y078140G85X007820Y076141
X009822Y072441G85X011821Y072441
X013820Y078140G85X013820Y076141
X058290Y027670G85X058290Y025671
X060292Y021971G85X062291Y021971
X064290Y027670G85X064290Y025671
X058290Y078140G85X058290Y076141
X060292Y072441G85X062291Y072441
X064290Y078140G85X064290Y076141
T05
X021590Y012827
X024130Y012827
X026162Y012827
X028701Y012827
X007820Y027670G85X007820Y025671
X009822Y021971G85X011821Y021971
X013820Y027670G85X013820Y025671
T06
X021650Y004831
X024150Y004831
X026149Y004831
X028651Y004831
X021650Y055301
X024150Y055301
X026149Y055301
X028651Y055301
X072120Y004831
X074620Y004831
X076619Y004831
X079121Y004831
X072120Y055301
X074620Y055301
X076619Y055301
X079121Y055301
T07
X005080Y043101
X005080Y038099
X005080Y093571
X005080Y088570
X055550Y043101
X055550Y038099
X055550Y093571
X055550Y088570
T08
X019448Y003705G85X019448Y001755
X030850Y003705G85X030850Y001755
X019448Y054175G85X019448Y052225
X030850Y054175G85X030850Y052225
X069918Y003705G85X069918Y001755
X081320Y003705G85X081320Y001755
X069918Y054175G85X069918Y052225
X081320Y054175G85X081320Y052225
T09
X040993Y010050
X040993Y002649
X045742Y010050
X045742Y002649
X040993Y060520
X040993Y053119
X045742Y060520
X045742Y053119
X091463Y010050
X091463Y002649
X096212Y010050
X096212Y002649
X091463Y060520
X091463Y053119
X096212Y060520
X096212Y053119
T10
X004953Y015143
X004953Y003144
X018034Y010160
X031750Y010160
X004953Y065613
X004953Y053614
X018034Y060630
X031750Y060630
X055423Y015143
X055423Y003144
X068504Y010160
X082220Y010160
X055423Y065613
X055423Y053614
X068504Y060630
X082220Y060630
T11
X022860Y041910
X041910Y041910
X022860Y092380
X041910Y092380
X073330Y041910
X092380Y041910
X073330Y092380
X092380Y092380
T12
X022900Y002730
X027398Y002730
X022900Y053200
X027398Y053200
X073370Y002730
X077868Y002730
X073370Y053200
X077868Y053200
M30