%MOIN*%
%OFA0B0*%
%FSLAX46Y46*%
%IPPOS*%
%LPD*%
%ADD10C,0.0039370078740157488*%
%ADD11C,0.062992125984251982*%
%ADD12O,0.07874015748031496X0.15551181102362208*%
%ADD13C,0.4*%
%ADD14C,0.1063*%
%ADD15C,0.060000000000000005*%
%ADD16R,0.066929133858267723X0.066929133858267723*%
%ADD17O,0.066929133858267723X0.066929133858267723*%
%ADD18R,0.1378X0.1378*%
%ADD19R,0.027559055118110236X0.051181102362204731*%
%ADD20R,0.051181102362204731X0.027559055118110236*%
%ADD21C,0.0470472440944882*%
%ADD22C,0.11023622047244094*%
%ADD23C,0.11810000000000001*%
%ADD24C,0.0591*%
%ADD25C,0.0984251968503937*%
%ADD26R,0.0984251968503937X0.0984251968503937*%
%ADD27R,0.0543X0.0177*%
%ADD28R,0.0827X0.058*%
%ADD29R,0.0747X0.0935*%
%ADD30R,0.0747X0.046200000000000005*%
%ADD41C,0.0039370078740157488*%
%ADD42C,0.062992125984251982*%
%ADD43O,0.07874015748031496X0.15551181102362208*%
%ADD44C,0.4*%
%ADD45C,0.1063*%
%ADD46C,0.060000000000000005*%
%ADD47R,0.066929133858267723X0.066929133858267723*%
%ADD48O,0.066929133858267723X0.066929133858267723*%
%ADD49R,0.1378X0.1378*%
%ADD50R,0.027559055118110236X0.051181102362204731*%
%ADD51R,0.051181102362204731X0.027559055118110236*%
%ADD52C,0.0470472440944882*%
%ADD53C,0.11023622047244094*%
%ADD54C,0.11810000000000001*%
%ADD55C,0.0591*%
%ADD56C,0.0984251968503937*%
%ADD57R,0.0984251968503937X0.0984251968503937*%
%ADD58R,0.0543X0.0177*%
%ADD59R,0.0827X0.058*%
%ADD60R,0.0747X0.0935*%
%ADD61R,0.0747X0.046200000000000005*%
%ADD62C,0.0039370078740157488*%
%ADD63C,0.062992125984251982*%
%ADD64O,0.07874015748031496X0.15551181102362208*%
%ADD65C,0.4*%
%ADD66C,0.1063*%
%ADD67C,0.060000000000000005*%
%ADD68R,0.066929133858267723X0.066929133858267723*%
%ADD69O,0.066929133858267723X0.066929133858267723*%
%ADD70R,0.1378X0.1378*%
%ADD71R,0.027559055118110236X0.051181102362204731*%
%ADD72R,0.051181102362204731X0.027559055118110236*%
%ADD73C,0.0470472440944882*%
%ADD74C,0.11023622047244094*%
%ADD75C,0.11810000000000001*%
%ADD76C,0.0591*%
%ADD77C,0.0984251968503937*%
%ADD78R,0.0984251968503937X0.0984251968503937*%
%ADD79R,0.0543X0.0177*%
%ADD80R,0.0827X0.058*%
%ADD81R,0.0747X0.0935*%
%ADD82R,0.0747X0.046200000000000005*%
%ADD83C,0.0039370078740157488*%
%ADD84C,0.062992125984251982*%
%ADD85O,0.07874015748031496X0.15551181102362208*%
%ADD86C,0.4*%
%ADD87C,0.1063*%
%ADD88C,0.060000000000000005*%
%ADD89R,0.066929133858267723X0.066929133858267723*%
%ADD90O,0.066929133858267723X0.066929133858267723*%
%ADD91R,0.1378X0.1378*%
%ADD92R,0.027559055118110236X0.051181102362204731*%
%ADD93R,0.051181102362204731X0.027559055118110236*%
%ADD94C,0.0470472440944882*%
%ADD95C,0.11023622047244094*%
%ADD96C,0.11810000000000001*%
%ADD97C,0.0591*%
%ADD98C,0.0984251968503937*%
%ADD99R,0.0984251968503937X0.0984251968503937*%
%ADD100R,0.0543X0.0177*%
%ADD101R,0.0827X0.058*%
%ADD102R,0.0747X0.0935*%
%ADD103R,0.0747X0.046200000000000005*%
G01G01*
D10*
D11*
X0000000000Y0000000000D02*
X0000852362Y0000190157D03*
X0000950787Y0000190157D03*
X0001029527Y0000190157D03*
D12*
X0000765748Y0000107480D03*
D11*
X0001127952Y0000190157D03*
D12*
X0001214566Y0000107480D03*
D13*
X0001650000Y0001650000D03*
X0000900000Y0001650000D03*
D14*
X0000195000Y0000123800D03*
X0000195000Y0000596200D03*
D15*
X0000301300Y0000410000D03*
X0000301300Y0000310000D03*
X0000380000Y0000310000D03*
X0000380000Y0000410000D03*
D16*
X0000900000Y0001300000D03*
D17*
X0000900000Y0001200000D03*
X0000800000Y0001300000D03*
X0000800000Y0001200000D03*
X0001100000Y0001200000D03*
X0001100000Y0001300000D03*
X0001200000Y0001200000D03*
D16*
X0001200000Y0001300000D03*
X0001350000Y0001200000D03*
D17*
X0001350000Y0001300000D03*
X0001450000Y0001200000D03*
X0001450000Y0001300000D03*
X0001550000Y0001200000D03*
X0001550000Y0001300000D03*
X0001200000Y0000800000D03*
X0001100000Y0000800000D03*
X0001200000Y0000900000D03*
X0001100000Y0000900000D03*
X0001200000Y0001000000D03*
D16*
X0001100000Y0001000000D03*
X0000900000Y0001000000D03*
D17*
X0000900000Y0000900000D03*
X0000800000Y0001000000D03*
X0000800000Y0000900000D03*
X0000700000Y0001000000D03*
X0000700000Y0000900000D03*
X0001550000Y0001000000D03*
X0001550000Y0000900000D03*
X0001450000Y0001000000D03*
X0001450000Y0000900000D03*
X0001350000Y0001000000D03*
D16*
X0001350000Y0000900000D03*
D17*
X0001750000Y0000700000D03*
X0001750000Y0000600000D03*
X0001650000Y0000700000D03*
X0001650000Y0000600000D03*
X0001550000Y0000700000D03*
X0001550000Y0000600000D03*
X0001450000Y0000700000D03*
D16*
X0001450000Y0000600000D03*
D18*
X0000426000Y0000865000D03*
X0000307900Y0001050000D03*
X0000544100Y0001050000D03*
D19*
X0001050000Y0000650000D03*
X0000975196Y0000650000D03*
D20*
X0001380000Y0000252598D03*
X0001380000Y0000327401D03*
D21*
X0001578464Y0000187007D03*
X0001625708Y0000218503D03*
X0001578464Y0000250000D03*
X0001625708Y0000281496D03*
X0001578464Y0000312992D03*
D22*
X0001613897Y0000104330D03*
X0001613897Y0000395669D03*
X0001800905Y0000104330D03*
X0001800905Y0000395669D03*
D19*
X0000787401Y0000650000D03*
X0000712598Y0000650000D03*
D23*
X0000709998Y0000400004D03*
X0001249998Y0000400004D03*
D24*
X0000849998Y0000505004D03*
X0000949998Y0000505004D03*
X0001029998Y0000505004D03*
X0001129998Y0000505004D03*
D25*
X0000200000Y0001500000D03*
D26*
X0000200000Y0001696850D03*
D27*
X0001745300Y0001102400D03*
X0001745300Y0001076800D03*
X0001745300Y0001051200D03*
X0001745300Y0001025600D03*
X0001745300Y0001000000D03*
D28*
X0001759500Y0000954300D03*
X0001759500Y0001148100D03*
D29*
X0001850000Y0000936500D03*
X0001850000Y0001165900D03*
D30*
X0001850000Y0001084200D03*
X0001850000Y0001018200D03*
D19*
X0001250000Y0000650000D03*
X0001175196Y0000650000D03*
G04 next file*
G04 #@! TF.GenerationSoftware,KiCad,Pcbnew,(2017-04-12 revision 02abf1804)-makepkg*
G04 #@! TF.CreationDate,2017-04-26T22:03:17+03:00*
G04 #@! TF.ProjectId,vbb,7662622E6B696361645F706362000000,rev?*
G04 #@! TF.FileFunction,Soldermask,Top*
G04 #@! TF.FilePolarity,Negative*
G04 Gerber Fmt 4.6, Leading zero omitted, Abs format (unit mm)*
G04 Created by KiCad (PCBNEW (2017-04-12 revision 02abf1804)-makepkg) date 04/26/17 22:03:17*
G01G01*
G04 APERTURE LIST*
G04 APERTURE END LIST*
D41*
D42*
X0000000000Y0001987007D02*
X0000852362Y0002177165D03*
X0000950787Y0002177165D03*
X0001029527Y0002177165D03*
D43*
X0000765748Y0002094488D03*
D42*
X0001127952Y0002177165D03*
D43*
X0001214566Y0002094488D03*
D44*
X0001650000Y0003637007D03*
X0000900000Y0003637007D03*
D45*
X0000195000Y0002110807D03*
X0000195000Y0002583207D03*
D46*
X0000301300Y0002397007D03*
X0000301300Y0002297007D03*
X0000380000Y0002297007D03*
X0000380000Y0002397007D03*
D47*
X0000900000Y0003287007D03*
D48*
X0000900000Y0003187007D03*
X0000800000Y0003287007D03*
X0000800000Y0003187007D03*
X0001100000Y0003187007D03*
X0001100000Y0003287007D03*
X0001200000Y0003187007D03*
D47*
X0001200000Y0003287007D03*
X0001350000Y0003187007D03*
D48*
X0001350000Y0003287007D03*
X0001450000Y0003187007D03*
X0001450000Y0003287007D03*
X0001550000Y0003187007D03*
X0001550000Y0003287007D03*
X0001200000Y0002787007D03*
X0001100000Y0002787007D03*
X0001200000Y0002887007D03*
X0001100000Y0002887007D03*
X0001200000Y0002987007D03*
D47*
X0001100000Y0002987007D03*
X0000900000Y0002987007D03*
D48*
X0000900000Y0002887007D03*
X0000800000Y0002987007D03*
X0000800000Y0002887007D03*
X0000700000Y0002987007D03*
X0000700000Y0002887007D03*
X0001550000Y0002987007D03*
X0001550000Y0002887007D03*
X0001450000Y0002987007D03*
X0001450000Y0002887007D03*
X0001350000Y0002987007D03*
D47*
X0001350000Y0002887007D03*
D48*
X0001750000Y0002687007D03*
X0001750000Y0002587007D03*
X0001650000Y0002687007D03*
X0001650000Y0002587007D03*
X0001550000Y0002687007D03*
X0001550000Y0002587007D03*
X0001450000Y0002687007D03*
D47*
X0001450000Y0002587007D03*
D49*
X0000426000Y0002852007D03*
X0000307900Y0003037007D03*
X0000544100Y0003037007D03*
D50*
X0001050000Y0002637007D03*
X0000975196Y0002637007D03*
D51*
X0001380000Y0002239606D03*
X0001380000Y0002314409D03*
D52*
X0001578464Y0002174015D03*
X0001625708Y0002205511D03*
X0001578464Y0002237007D03*
X0001625708Y0002268503D03*
X0001578464Y0002300000D03*
D53*
X0001613897Y0002091338D03*
X0001613897Y0002382677D03*
X0001800905Y0002091338D03*
X0001800905Y0002382677D03*
D50*
X0000787401Y0002637007D03*
X0000712598Y0002637007D03*
D54*
X0000709998Y0002387012D03*
X0001249998Y0002387012D03*
D55*
X0000849998Y0002492012D03*
X0000949998Y0002492012D03*
X0001029998Y0002492012D03*
X0001129998Y0002492012D03*
D56*
X0000200000Y0003487007D03*
D57*
X0000200000Y0003683858D03*
D58*
X0001745300Y0003089408D03*
X0001745300Y0003063808D03*
X0001745300Y0003038208D03*
X0001745300Y0003012608D03*
X0001745300Y0002987008D03*
D59*
X0001759500Y0002941308D03*
X0001759500Y0003135108D03*
D60*
X0001850000Y0002923508D03*
X0001850000Y0003152908D03*
D61*
X0001850000Y0003071208D03*
X0001850000Y0003005208D03*
D50*
X0001250000Y0002637007D03*
X0001175196Y0002637007D03*
G04 next file*
G04 #@! TF.GenerationSoftware,KiCad,Pcbnew,(2017-04-12 revision 02abf1804)-makepkg*
G04 #@! TF.CreationDate,2017-04-26T22:03:17+03:00*
G04 #@! TF.ProjectId,vbb,7662622E6B696361645F706362000000,rev?*
G04 #@! TF.FileFunction,Soldermask,Top*
G04 #@! TF.FilePolarity,Negative*
G04 Gerber Fmt 4.6, Leading zero omitted, Abs format (unit mm)*
G04 Created by KiCad (PCBNEW (2017-04-12 revision 02abf1804)-makepkg) date 04/26/17 22:03:17*
G01G01*
G04 APERTURE LIST*
G04 APERTURE END LIST*
D62*
D63*
X0001987007Y0000000000D02*
X0002839370Y0000190157D03*
X0002937795Y0000190157D03*
X0003016535Y0000190157D03*
D64*
X0002752755Y0000107480D03*
D63*
X0003114960Y0000190157D03*
D64*
X0003201574Y0000107480D03*
D65*
X0003637007Y0001650000D03*
X0002887007Y0001650000D03*
D66*
X0002182007Y0000123800D03*
X0002182007Y0000596200D03*
D67*
X0002288307Y0000410000D03*
X0002288307Y0000310000D03*
X0002367007Y0000310000D03*
X0002367007Y0000410000D03*
D68*
X0002887007Y0001300000D03*
D69*
X0002887007Y0001200000D03*
X0002787007Y0001300000D03*
X0002787007Y0001200000D03*
X0003087007Y0001200000D03*
X0003087007Y0001300000D03*
X0003187007Y0001200000D03*
D68*
X0003187007Y0001300000D03*
X0003337007Y0001200000D03*
D69*
X0003337007Y0001300000D03*
X0003437007Y0001200000D03*
X0003437007Y0001300000D03*
X0003537007Y0001200000D03*
X0003537007Y0001300000D03*
X0003187007Y0000800000D03*
X0003087007Y0000800000D03*
X0003187007Y0000900000D03*
X0003087007Y0000900000D03*
X0003187007Y0001000000D03*
D68*
X0003087007Y0001000000D03*
X0002887007Y0001000000D03*
D69*
X0002887007Y0000900000D03*
X0002787007Y0001000000D03*
X0002787007Y0000900000D03*
X0002687007Y0001000000D03*
X0002687007Y0000900000D03*
X0003537007Y0001000000D03*
X0003537007Y0000900000D03*
X0003437007Y0001000000D03*
X0003437007Y0000900000D03*
X0003337007Y0001000000D03*
D68*
X0003337007Y0000900000D03*
D69*
X0003737007Y0000700000D03*
X0003737007Y0000600000D03*
X0003637007Y0000700000D03*
X0003637007Y0000600000D03*
X0003537007Y0000700000D03*
X0003537007Y0000600000D03*
X0003437007Y0000700000D03*
D68*
X0003437007Y0000600000D03*
D70*
X0002413007Y0000865000D03*
X0002294907Y0001050000D03*
X0002531107Y0001050000D03*
D71*
X0003037007Y0000650000D03*
X0002962204Y0000650000D03*
D72*
X0003367007Y0000252598D03*
X0003367007Y0000327401D03*
D73*
X0003565472Y0000187007D03*
X0003612716Y0000218503D03*
X0003565472Y0000250000D03*
X0003612716Y0000281496D03*
X0003565472Y0000312992D03*
D74*
X0003600905Y0000104330D03*
X0003600905Y0000395669D03*
X0003787913Y0000104330D03*
X0003787913Y0000395669D03*
D71*
X0002774409Y0000650000D03*
X0002699606Y0000650000D03*
D75*
X0002697006Y0000400004D03*
X0003237006Y0000400004D03*
D76*
X0002837006Y0000505004D03*
X0002937006Y0000505004D03*
X0003017006Y0000505004D03*
X0003117006Y0000505004D03*
D77*
X0002187007Y0001500000D03*
D78*
X0002187007Y0001696850D03*
D79*
X0003732307Y0001102400D03*
X0003732307Y0001076800D03*
X0003732307Y0001051200D03*
X0003732307Y0001025600D03*
X0003732307Y0001000000D03*
D80*
X0003746507Y0000954300D03*
X0003746507Y0001148100D03*
D81*
X0003837007Y0000936500D03*
X0003837007Y0001165900D03*
D82*
X0003837007Y0001084200D03*
X0003837007Y0001018200D03*
D71*
X0003237007Y0000650000D03*
X0003162204Y0000650000D03*
G04 next file*
G04 #@! TF.GenerationSoftware,KiCad,Pcbnew,(2017-04-12 revision 02abf1804)-makepkg*
G04 #@! TF.CreationDate,2017-04-26T22:03:17+03:00*
G04 #@! TF.ProjectId,vbb,7662622E6B696361645F706362000000,rev?*
G04 #@! TF.FileFunction,Soldermask,Top*
G04 #@! TF.FilePolarity,Negative*
G04 Gerber Fmt 4.6, Leading zero omitted, Abs format (unit mm)*
G04 Created by KiCad (PCBNEW (2017-04-12 revision 02abf1804)-makepkg) date 04/26/17 22:03:17*
G01G01*
G04 APERTURE LIST*
G04 APERTURE END LIST*
D83*
D84*
X0001987007Y0001987007D02*
X0002839370Y0002177165D03*
X0002937795Y0002177165D03*
X0003016535Y0002177165D03*
D85*
X0002752755Y0002094488D03*
D84*
X0003114960Y0002177165D03*
D85*
X0003201574Y0002094488D03*
D86*
X0003637007Y0003637007D03*
X0002887007Y0003637007D03*
D87*
X0002182007Y0002110807D03*
X0002182007Y0002583207D03*
D88*
X0002288307Y0002397007D03*
X0002288307Y0002297007D03*
X0002367007Y0002297007D03*
X0002367007Y0002397007D03*
D89*
X0002887007Y0003287007D03*
D90*
X0002887007Y0003187007D03*
X0002787007Y0003287007D03*
X0002787007Y0003187007D03*
X0003087007Y0003187007D03*
X0003087007Y0003287007D03*
X0003187007Y0003187007D03*
D89*
X0003187007Y0003287007D03*
X0003337007Y0003187007D03*
D90*
X0003337007Y0003287007D03*
X0003437007Y0003187007D03*
X0003437007Y0003287007D03*
X0003537007Y0003187007D03*
X0003537007Y0003287007D03*
X0003187007Y0002787007D03*
X0003087007Y0002787007D03*
X0003187007Y0002887007D03*
X0003087007Y0002887007D03*
X0003187007Y0002987007D03*
D89*
X0003087007Y0002987007D03*
X0002887007Y0002987007D03*
D90*
X0002887007Y0002887007D03*
X0002787007Y0002987007D03*
X0002787007Y0002887007D03*
X0002687007Y0002987007D03*
X0002687007Y0002887007D03*
X0003537007Y0002987007D03*
X0003537007Y0002887007D03*
X0003437007Y0002987007D03*
X0003437007Y0002887007D03*
X0003337007Y0002987007D03*
D89*
X0003337007Y0002887007D03*
D90*
X0003737007Y0002687007D03*
X0003737007Y0002587007D03*
X0003637007Y0002687007D03*
X0003637007Y0002587007D03*
X0003537007Y0002687007D03*
X0003537007Y0002587007D03*
X0003437007Y0002687007D03*
D89*
X0003437007Y0002587007D03*
D91*
X0002413007Y0002852007D03*
X0002294907Y0003037007D03*
X0002531107Y0003037007D03*
D92*
X0003037007Y0002637007D03*
X0002962204Y0002637007D03*
D93*
X0003367007Y0002239606D03*
X0003367007Y0002314409D03*
D94*
X0003565472Y0002174015D03*
X0003612716Y0002205511D03*
X0003565472Y0002237007D03*
X0003612716Y0002268503D03*
X0003565472Y0002300000D03*
D95*
X0003600905Y0002091338D03*
X0003600905Y0002382677D03*
X0003787913Y0002091338D03*
X0003787913Y0002382677D03*
D92*
X0002774409Y0002637007D03*
X0002699606Y0002637007D03*
D96*
X0002697006Y0002387012D03*
X0003237006Y0002387012D03*
D97*
X0002837006Y0002492012D03*
X0002937006Y0002492012D03*
X0003017006Y0002492012D03*
X0003117006Y0002492012D03*
D98*
X0002187007Y0003487007D03*
D99*
X0002187007Y0003683858D03*
D100*
X0003732307Y0003089408D03*
X0003732307Y0003063808D03*
X0003732307Y0003038208D03*
X0003732307Y0003012608D03*
X0003732307Y0002987008D03*
D101*
X0003746507Y0002941308D03*
X0003746507Y0003135108D03*
D102*
X0003837007Y0002923508D03*
X0003837007Y0003152908D03*
D103*
X0003837007Y0003071208D03*
X0003837007Y0003005208D03*
D92*
X0003237007Y0002637007D03*
X0003162204Y0002637007D03*
M02*