%MOIN*%
%OFA0B0*%
%FSLAX46Y46*%
%IPPOS*%
%LPD*%
%ADD10C,0.0039370078740157488*%
%ADD11C,0.062992125984251982*%
%ADD12O,0.07874015748031496X0.15551181102362208*%
%ADD13C,0.4*%
%ADD14C,0.1063*%
%ADD15C,0.060000000000000005*%
%ADD16R,0.066929133858267723X0.066929133858267723*%
%ADD17O,0.066929133858267723X0.066929133858267723*%
%ADD18R,0.1378X0.1378*%
%ADD19C,0.0470472440944882*%
%ADD20C,0.11023622047244094*%
%ADD21C,0.11810000000000001*%
%ADD22C,0.0591*%
%ADD23C,0.0984251968503937*%
%ADD24R,0.0984251968503937X0.0984251968503937*%
%ADD35C,0.0039370078740157488*%
%ADD36C,0.062992125984251982*%
%ADD37O,0.07874015748031496X0.15551181102362208*%
%ADD38C,0.4*%
%ADD39C,0.1063*%
%ADD40C,0.060000000000000005*%
%ADD41R,0.066929133858267723X0.066929133858267723*%
%ADD42O,0.066929133858267723X0.066929133858267723*%
%ADD43R,0.1378X0.1378*%
%ADD44C,0.0470472440944882*%
%ADD45C,0.11023622047244094*%
%ADD46C,0.11810000000000001*%
%ADD47C,0.0591*%
%ADD48C,0.0984251968503937*%
%ADD49R,0.0984251968503937X0.0984251968503937*%
%ADD50C,0.0039370078740157488*%
%ADD51C,0.062992125984251982*%
%ADD52O,0.07874015748031496X0.15551181102362208*%
%ADD53C,0.4*%
%ADD54C,0.1063*%
%ADD55C,0.060000000000000005*%
%ADD56R,0.066929133858267723X0.066929133858267723*%
%ADD57O,0.066929133858267723X0.066929133858267723*%
%ADD58R,0.1378X0.1378*%
%ADD59C,0.0470472440944882*%
%ADD60C,0.11023622047244094*%
%ADD61C,0.11810000000000001*%
%ADD62C,0.0591*%
%ADD63C,0.0984251968503937*%
%ADD64R,0.0984251968503937X0.0984251968503937*%
%ADD65C,0.0039370078740157488*%
%ADD66C,0.062992125984251982*%
%ADD67O,0.07874015748031496X0.15551181102362208*%
%ADD68C,0.4*%
%ADD69C,0.1063*%
%ADD70C,0.060000000000000005*%
%ADD71R,0.066929133858267723X0.066929133858267723*%
%ADD72O,0.066929133858267723X0.066929133858267723*%
%ADD73R,0.1378X0.1378*%
%ADD74C,0.0470472440944882*%
%ADD75C,0.11023622047244094*%
%ADD76C,0.11810000000000001*%
%ADD77C,0.0591*%
%ADD78C,0.0984251968503937*%
%ADD79R,0.0984251968503937X0.0984251968503937*%
G01G01*
D10*
D11*
X0000000000Y0000000000D02*
X0000852362Y0000190157D03*
X0000950787Y0000190157D03*
X0001029527Y0000190157D03*
D12*
X0000765748Y0000107480D03*
D11*
X0001127952Y0000190157D03*
D12*
X0001214566Y0000107480D03*
D13*
X0001650000Y0001650000D03*
X0000900000Y0001650000D03*
D14*
X0000195000Y0000123800D03*
X0000195000Y0000596200D03*
D15*
X0000301300Y0000410000D03*
X0000301300Y0000310000D03*
X0000380000Y0000310000D03*
X0000380000Y0000410000D03*
D16*
X0000900000Y0001300000D03*
D17*
X0000900000Y0001200000D03*
X0000800000Y0001300000D03*
X0000800000Y0001200000D03*
X0001100000Y0001200000D03*
X0001100000Y0001300000D03*
X0001200000Y0001200000D03*
D16*
X0001200000Y0001300000D03*
X0001350000Y0001200000D03*
D17*
X0001350000Y0001300000D03*
X0001450000Y0001200000D03*
X0001450000Y0001300000D03*
X0001550000Y0001200000D03*
X0001550000Y0001300000D03*
X0001200000Y0000800000D03*
X0001100000Y0000800000D03*
X0001200000Y0000900000D03*
X0001100000Y0000900000D03*
X0001200000Y0001000000D03*
D16*
X0001100000Y0001000000D03*
X0000900000Y0001000000D03*
D17*
X0000900000Y0000900000D03*
X0000800000Y0001000000D03*
X0000800000Y0000900000D03*
X0000700000Y0001000000D03*
X0000700000Y0000900000D03*
X0001550000Y0001000000D03*
X0001550000Y0000900000D03*
X0001450000Y0001000000D03*
X0001450000Y0000900000D03*
X0001350000Y0001000000D03*
D16*
X0001350000Y0000900000D03*
D17*
X0001750000Y0000700000D03*
X0001750000Y0000600000D03*
X0001650000Y0000700000D03*
X0001650000Y0000600000D03*
X0001550000Y0000700000D03*
X0001550000Y0000600000D03*
X0001450000Y0000700000D03*
D16*
X0001450000Y0000600000D03*
D18*
X0000426000Y0000865000D03*
X0000307900Y0001050000D03*
X0000544100Y0001050000D03*
D19*
X0001578464Y0000187007D03*
X0001625708Y0000218503D03*
X0001578464Y0000250000D03*
X0001625708Y0000281496D03*
X0001578464Y0000312992D03*
D20*
X0001613897Y0000104330D03*
X0001613897Y0000395669D03*
X0001800905Y0000104330D03*
X0001800905Y0000395669D03*
D21*
X0000709998Y0000400004D03*
X0001249998Y0000400004D03*
D22*
X0000849998Y0000505004D03*
X0000949998Y0000505004D03*
X0001029998Y0000505004D03*
X0001129998Y0000505004D03*
D23*
X0000200000Y0001500000D03*
D24*
X0000200000Y0001696850D03*
G04 next file*
G04 #@! TF.GenerationSoftware,KiCad,Pcbnew,(2017-04-12 revision 02abf1804)-makepkg*
G04 #@! TF.CreationDate,2017-04-26T22:03:17+03:00*
G04 #@! TF.ProjectId,vbb,7662622E6B696361645F706362000000,rev?*
G04 #@! TF.FileFunction,Soldermask,Bot*
G04 #@! TF.FilePolarity,Negative*
G04 Gerber Fmt 4.6, Leading zero omitted, Abs format (unit mm)*
G04 Created by KiCad (PCBNEW (2017-04-12 revision 02abf1804)-makepkg) date 04/26/17 22:03:17*
G01G01*
G04 APERTURE LIST*
G04 APERTURE END LIST*
D35*
D36*
X0000000000Y0001987007D02*
X0000852362Y0002177165D03*
X0000950787Y0002177165D03*
X0001029527Y0002177165D03*
D37*
X0000765748Y0002094488D03*
D36*
X0001127952Y0002177165D03*
D37*
X0001214566Y0002094488D03*
D38*
X0001650000Y0003637007D03*
X0000900000Y0003637007D03*
D39*
X0000195000Y0002110807D03*
X0000195000Y0002583207D03*
D40*
X0000301300Y0002397007D03*
X0000301300Y0002297007D03*
X0000380000Y0002297007D03*
X0000380000Y0002397007D03*
D41*
X0000900000Y0003287007D03*
D42*
X0000900000Y0003187007D03*
X0000800000Y0003287007D03*
X0000800000Y0003187007D03*
X0001100000Y0003187007D03*
X0001100000Y0003287007D03*
X0001200000Y0003187007D03*
D41*
X0001200000Y0003287007D03*
X0001350000Y0003187007D03*
D42*
X0001350000Y0003287007D03*
X0001450000Y0003187007D03*
X0001450000Y0003287007D03*
X0001550000Y0003187007D03*
X0001550000Y0003287007D03*
X0001200000Y0002787007D03*
X0001100000Y0002787007D03*
X0001200000Y0002887007D03*
X0001100000Y0002887007D03*
X0001200000Y0002987007D03*
D41*
X0001100000Y0002987007D03*
X0000900000Y0002987007D03*
D42*
X0000900000Y0002887007D03*
X0000800000Y0002987007D03*
X0000800000Y0002887007D03*
X0000700000Y0002987007D03*
X0000700000Y0002887007D03*
X0001550000Y0002987007D03*
X0001550000Y0002887007D03*
X0001450000Y0002987007D03*
X0001450000Y0002887007D03*
X0001350000Y0002987007D03*
D41*
X0001350000Y0002887007D03*
D42*
X0001750000Y0002687007D03*
X0001750000Y0002587007D03*
X0001650000Y0002687007D03*
X0001650000Y0002587007D03*
X0001550000Y0002687007D03*
X0001550000Y0002587007D03*
X0001450000Y0002687007D03*
D41*
X0001450000Y0002587007D03*
D43*
X0000426000Y0002852007D03*
X0000307900Y0003037007D03*
X0000544100Y0003037007D03*
D44*
X0001578464Y0002174015D03*
X0001625708Y0002205511D03*
X0001578464Y0002237007D03*
X0001625708Y0002268503D03*
X0001578464Y0002300000D03*
D45*
X0001613897Y0002091338D03*
X0001613897Y0002382677D03*
X0001800905Y0002091338D03*
X0001800905Y0002382677D03*
D46*
X0000709998Y0002387012D03*
X0001249998Y0002387012D03*
D47*
X0000849998Y0002492012D03*
X0000949998Y0002492012D03*
X0001029998Y0002492012D03*
X0001129998Y0002492012D03*
D48*
X0000200000Y0003487007D03*
D49*
X0000200000Y0003683858D03*
G04 next file*
G04 #@! TF.GenerationSoftware,KiCad,Pcbnew,(2017-04-12 revision 02abf1804)-makepkg*
G04 #@! TF.CreationDate,2017-04-26T22:03:17+03:00*
G04 #@! TF.ProjectId,vbb,7662622E6B696361645F706362000000,rev?*
G04 #@! TF.FileFunction,Soldermask,Bot*
G04 #@! TF.FilePolarity,Negative*
G04 Gerber Fmt 4.6, Leading zero omitted, Abs format (unit mm)*
G04 Created by KiCad (PCBNEW (2017-04-12 revision 02abf1804)-makepkg) date 04/26/17 22:03:17*
G01G01*
G04 APERTURE LIST*
G04 APERTURE END LIST*
D50*
D51*
X0001987007Y0000000000D02*
X0002839370Y0000190157D03*
X0002937795Y0000190157D03*
X0003016535Y0000190157D03*
D52*
X0002752755Y0000107480D03*
D51*
X0003114960Y0000190157D03*
D52*
X0003201574Y0000107480D03*
D53*
X0003637007Y0001650000D03*
X0002887007Y0001650000D03*
D54*
X0002182007Y0000123800D03*
X0002182007Y0000596200D03*
D55*
X0002288307Y0000410000D03*
X0002288307Y0000310000D03*
X0002367007Y0000310000D03*
X0002367007Y0000410000D03*
D56*
X0002887007Y0001300000D03*
D57*
X0002887007Y0001200000D03*
X0002787007Y0001300000D03*
X0002787007Y0001200000D03*
X0003087007Y0001200000D03*
X0003087007Y0001300000D03*
X0003187007Y0001200000D03*
D56*
X0003187007Y0001300000D03*
X0003337007Y0001200000D03*
D57*
X0003337007Y0001300000D03*
X0003437007Y0001200000D03*
X0003437007Y0001300000D03*
X0003537007Y0001200000D03*
X0003537007Y0001300000D03*
X0003187007Y0000800000D03*
X0003087007Y0000800000D03*
X0003187007Y0000900000D03*
X0003087007Y0000900000D03*
X0003187007Y0001000000D03*
D56*
X0003087007Y0001000000D03*
X0002887007Y0001000000D03*
D57*
X0002887007Y0000900000D03*
X0002787007Y0001000000D03*
X0002787007Y0000900000D03*
X0002687007Y0001000000D03*
X0002687007Y0000900000D03*
X0003537007Y0001000000D03*
X0003537007Y0000900000D03*
X0003437007Y0001000000D03*
X0003437007Y0000900000D03*
X0003337007Y0001000000D03*
D56*
X0003337007Y0000900000D03*
D57*
X0003737007Y0000700000D03*
X0003737007Y0000600000D03*
X0003637007Y0000700000D03*
X0003637007Y0000600000D03*
X0003537007Y0000700000D03*
X0003537007Y0000600000D03*
X0003437007Y0000700000D03*
D56*
X0003437007Y0000600000D03*
D58*
X0002413007Y0000865000D03*
X0002294907Y0001050000D03*
X0002531107Y0001050000D03*
D59*
X0003565472Y0000187007D03*
X0003612716Y0000218503D03*
X0003565472Y0000250000D03*
X0003612716Y0000281496D03*
X0003565472Y0000312992D03*
D60*
X0003600905Y0000104330D03*
X0003600905Y0000395669D03*
X0003787913Y0000104330D03*
X0003787913Y0000395669D03*
D61*
X0002697006Y0000400004D03*
X0003237006Y0000400004D03*
D62*
X0002837006Y0000505004D03*
X0002937006Y0000505004D03*
X0003017006Y0000505004D03*
X0003117006Y0000505004D03*
D63*
X0002187007Y0001500000D03*
D64*
X0002187007Y0001696850D03*
G04 next file*
G04 #@! TF.GenerationSoftware,KiCad,Pcbnew,(2017-04-12 revision 02abf1804)-makepkg*
G04 #@! TF.CreationDate,2017-04-26T22:03:17+03:00*
G04 #@! TF.ProjectId,vbb,7662622E6B696361645F706362000000,rev?*
G04 #@! TF.FileFunction,Soldermask,Bot*
G04 #@! TF.FilePolarity,Negative*
G04 Gerber Fmt 4.6, Leading zero omitted, Abs format (unit mm)*
G04 Created by KiCad (PCBNEW (2017-04-12 revision 02abf1804)-makepkg) date 04/26/17 22:03:17*
G01G01*
G04 APERTURE LIST*
G04 APERTURE END LIST*
D65*
D66*
X0001987007Y0001987007D02*
X0002839370Y0002177165D03*
X0002937795Y0002177165D03*
X0003016535Y0002177165D03*
D67*
X0002752755Y0002094488D03*
D66*
X0003114960Y0002177165D03*
D67*
X0003201574Y0002094488D03*
D68*
X0003637007Y0003637007D03*
X0002887007Y0003637007D03*
D69*
X0002182007Y0002110807D03*
X0002182007Y0002583207D03*
D70*
X0002288307Y0002397007D03*
X0002288307Y0002297007D03*
X0002367007Y0002297007D03*
X0002367007Y0002397007D03*
D71*
X0002887007Y0003287007D03*
D72*
X0002887007Y0003187007D03*
X0002787007Y0003287007D03*
X0002787007Y0003187007D03*
X0003087007Y0003187007D03*
X0003087007Y0003287007D03*
X0003187007Y0003187007D03*
D71*
X0003187007Y0003287007D03*
X0003337007Y0003187007D03*
D72*
X0003337007Y0003287007D03*
X0003437007Y0003187007D03*
X0003437007Y0003287007D03*
X0003537007Y0003187007D03*
X0003537007Y0003287007D03*
X0003187007Y0002787007D03*
X0003087007Y0002787007D03*
X0003187007Y0002887007D03*
X0003087007Y0002887007D03*
X0003187007Y0002987007D03*
D71*
X0003087007Y0002987007D03*
X0002887007Y0002987007D03*
D72*
X0002887007Y0002887007D03*
X0002787007Y0002987007D03*
X0002787007Y0002887007D03*
X0002687007Y0002987007D03*
X0002687007Y0002887007D03*
X0003537007Y0002987007D03*
X0003537007Y0002887007D03*
X0003437007Y0002987007D03*
X0003437007Y0002887007D03*
X0003337007Y0002987007D03*
D71*
X0003337007Y0002887007D03*
D72*
X0003737007Y0002687007D03*
X0003737007Y0002587007D03*
X0003637007Y0002687007D03*
X0003637007Y0002587007D03*
X0003537007Y0002687007D03*
X0003537007Y0002587007D03*
X0003437007Y0002687007D03*
D71*
X0003437007Y0002587007D03*
D73*
X0002413007Y0002852007D03*
X0002294907Y0003037007D03*
X0002531107Y0003037007D03*
D74*
X0003565472Y0002174015D03*
X0003612716Y0002205511D03*
X0003565472Y0002237007D03*
X0003612716Y0002268503D03*
X0003565472Y0002300000D03*
D75*
X0003600905Y0002091338D03*
X0003600905Y0002382677D03*
X0003787913Y0002091338D03*
X0003787913Y0002382677D03*
D76*
X0002697006Y0002387012D03*
X0003237006Y0002387012D03*
D77*
X0002837006Y0002492012D03*
X0002937006Y0002492012D03*
X0003017006Y0002492012D03*
X0003117006Y0002492012D03*
D78*
X0002187007Y0003487007D03*
D79*
X0002187007Y0003683858D03*
M02*