%MOIN*%
%OFA0B0*%
%FSLAX46Y46*%
%IPPOS*%
%LPD*%
%ADD10C,0.0039370078740157488*%
%ADD11R,0.027559055118110236X0.051181102362204731*%
%ADD12R,0.051181102362204731X0.027559055118110236*%
%ADD13R,0.0543X0.0177*%
%ADD14R,0.0827X0.058*%
%ADD15R,0.0747X0.0935*%
%ADD16R,0.0747X0.046200000000000005*%
%ADD27C,0.0039370078740157488*%
%ADD28R,0.027559055118110236X0.051181102362204731*%
%ADD29R,0.051181102362204731X0.027559055118110236*%
%ADD30R,0.0543X0.0177*%
%ADD31R,0.0827X0.058*%
%ADD32R,0.0747X0.0935*%
%ADD33R,0.0747X0.046200000000000005*%
%ADD34C,0.0039370078740157488*%
%ADD35R,0.027559055118110236X0.051181102362204731*%
%ADD36R,0.051181102362204731X0.027559055118110236*%
%ADD37R,0.0543X0.0177*%
%ADD38R,0.0827X0.058*%
%ADD39R,0.0747X0.0935*%
%ADD40R,0.0747X0.046200000000000005*%
%ADD41C,0.0039370078740157488*%
%ADD42R,0.027559055118110236X0.051181102362204731*%
%ADD43R,0.051181102362204731X0.027559055118110236*%
%ADD44R,0.0543X0.0177*%
%ADD45R,0.0827X0.058*%
%ADD46R,0.0747X0.0935*%
%ADD47R,0.0747X0.046200000000000005*%
G01G01*
D10*
D11*
X0000003937Y0000003937D02*
X0001053937Y0000653937D03*
X0000979133Y0000653937D03*
D12*
X0001803937Y0000416535D03*
X0001803937Y0000491338D03*
D11*
X0000791338Y0000653937D03*
X0000716535Y0000653937D03*
D13*
X0001749237Y0001106337D03*
X0001749237Y0001080737D03*
X0001749237Y0001055137D03*
X0001749237Y0001029537D03*
X0001749237Y0001003937D03*
D14*
X0001763437Y0000958237D03*
X0001763437Y0001152037D03*
D15*
X0001853937Y0000940437D03*
X0001853937Y0001169837D03*
D16*
X0001853937Y0001088137D03*
X0001853937Y0001022137D03*
D11*
X0001253937Y0000653937D03*
X0001179133Y0000653937D03*
G04 next file*
G04 #@! TF.GenerationSoftware,KiCad,Pcbnew,(2017-04-12 revision 02abf1804)-makepkg*
G04 #@! TF.CreationDate,2017-04-21T09:09:19+03:00*
G04 #@! TF.ProjectId,vbb,7662622E6B696361645F706362000000,rev?*
G04 #@! TF.FileFunction,Paste,Top*
G04 #@! TF.FilePolarity,Positive*
G04 Gerber Fmt 4.6, Leading zero omitted, Abs format (unit mm)*
G04 Created by KiCad (PCBNEW (2017-04-12 revision 02abf1804)-makepkg) date 04/21/17 09:09:19*
G01G01*
G04 APERTURE LIST*
G04 APERTURE END LIST*
D27*
D28*
X0000003937Y0001976377D02*
X0001053937Y0002626377D03*
X0000979133Y0002626377D03*
D29*
X0001803937Y0002388976D03*
X0001803937Y0002463779D03*
D28*
X0000791338Y0002626377D03*
X0000716535Y0002626377D03*
D30*
X0001749237Y0003078778D03*
X0001749237Y0003053178D03*
X0001749237Y0003027578D03*
X0001749237Y0003001978D03*
X0001749237Y0002976378D03*
D31*
X0001763437Y0002930678D03*
X0001763437Y0003124478D03*
D32*
X0001853937Y0002912878D03*
X0001853937Y0003142278D03*
D33*
X0001853937Y0003060578D03*
X0001853937Y0002994578D03*
D28*
X0001253937Y0002626377D03*
X0001179133Y0002626377D03*
G04 next file*
G04 #@! TF.GenerationSoftware,KiCad,Pcbnew,(2017-04-12 revision 02abf1804)-makepkg*
G04 #@! TF.CreationDate,2017-04-21T09:09:19+03:00*
G04 #@! TF.ProjectId,vbb,7662622E6B696361645F706362000000,rev?*
G04 #@! TF.FileFunction,Paste,Top*
G04 #@! TF.FilePolarity,Positive*
G04 Gerber Fmt 4.6, Leading zero omitted, Abs format (unit mm)*
G04 Created by KiCad (PCBNEW (2017-04-12 revision 02abf1804)-makepkg) date 04/21/17 09:09:19*
G01G01*
G04 APERTURE LIST*
G04 APERTURE END LIST*
D34*
D35*
X0001976377Y0001976377D02*
X0003026377Y0002626377D03*
X0002951574Y0002626377D03*
D36*
X0003776377Y0002388976D03*
X0003776377Y0002463779D03*
D35*
X0002763779Y0002626377D03*
X0002688976Y0002626377D03*
D37*
X0003721677Y0003078778D03*
X0003721677Y0003053178D03*
X0003721677Y0003027578D03*
X0003721677Y0003001978D03*
X0003721677Y0002976378D03*
D38*
X0003735877Y0002930678D03*
X0003735877Y0003124478D03*
D39*
X0003826377Y0002912878D03*
X0003826377Y0003142278D03*
D40*
X0003826377Y0003060578D03*
X0003826377Y0002994578D03*
D35*
X0003226377Y0002626377D03*
X0003151574Y0002626377D03*
G04 next file*
G04 #@! TF.GenerationSoftware,KiCad,Pcbnew,(2017-04-12 revision 02abf1804)-makepkg*
G04 #@! TF.CreationDate,2017-04-21T09:09:19+03:00*
G04 #@! TF.ProjectId,vbb,7662622E6B696361645F706362000000,rev?*
G04 #@! TF.FileFunction,Paste,Top*
G04 #@! TF.FilePolarity,Positive*
G04 Gerber Fmt 4.6, Leading zero omitted, Abs format (unit mm)*
G04 Created by KiCad (PCBNEW (2017-04-12 revision 02abf1804)-makepkg) date 04/21/17 09:09:19*
G01G01*
G04 APERTURE LIST*
G04 APERTURE END LIST*
D41*
D42*
X0001976377Y0000003937D02*
X0003026377Y0000653937D03*
X0002951574Y0000653937D03*
D43*
X0003776377Y0000416535D03*
X0003776377Y0000491338D03*
D42*
X0002763779Y0000653937D03*
X0002688976Y0000653937D03*
D44*
X0003721677Y0001106337D03*
X0003721677Y0001080737D03*
X0003721677Y0001055137D03*
X0003721677Y0001029537D03*
X0003721677Y0001003937D03*
D45*
X0003735877Y0000958237D03*
X0003735877Y0001152037D03*
D46*
X0003826377Y0000940437D03*
X0003826377Y0001169837D03*
D47*
X0003826377Y0001088137D03*
X0003826377Y0001022137D03*
D42*
X0003226377Y0000653937D03*
X0003151574Y0000653937D03*
M02*