%MOIN*%
%OFA0B0*%
%FSLAX46Y46*%
%IPPOS*%
%LPD*%
%ADD10C,0.0039370078740157488*%
%ADD11C,0.1063*%
%ADD12C,0.060000000000000005*%
%ADD13R,0.066929133858267723X0.066929133858267723*%
%ADD14O,0.066929133858267723X0.066929133858267723*%
%ADD15R,0.1378X0.1378*%
%ADD16C,0.4*%
%ADD17C,0.0470472440944882*%
%ADD18C,0.11023622047244094*%
%ADD19C,0.11810000000000001*%
%ADD20C,0.0591*%
%ADD21C,0.0984251968503937*%
%ADD22R,0.0984251968503937X0.0984251968503937*%
%ADD33C,0.0039370078740157488*%
%ADD34C,0.1063*%
%ADD35C,0.060000000000000005*%
%ADD36R,0.066929133858267723X0.066929133858267723*%
%ADD37O,0.066929133858267723X0.066929133858267723*%
%ADD38R,0.1378X0.1378*%
%ADD39C,0.4*%
%ADD40C,0.0470472440944882*%
%ADD41C,0.11023622047244094*%
%ADD42C,0.11810000000000001*%
%ADD43C,0.0591*%
%ADD44C,0.0984251968503937*%
%ADD45R,0.0984251968503937X0.0984251968503937*%
%ADD46C,0.0039370078740157488*%
%ADD47C,0.1063*%
%ADD48C,0.060000000000000005*%
%ADD49R,0.066929133858267723X0.066929133858267723*%
%ADD50O,0.066929133858267723X0.066929133858267723*%
%ADD51R,0.1378X0.1378*%
%ADD52C,0.4*%
%ADD53C,0.0470472440944882*%
%ADD54C,0.11023622047244094*%
%ADD55C,0.11810000000000001*%
%ADD56C,0.0591*%
%ADD57C,0.0984251968503937*%
%ADD58R,0.0984251968503937X0.0984251968503937*%
%ADD59C,0.0039370078740157488*%
%ADD60C,0.1063*%
%ADD61C,0.060000000000000005*%
%ADD62R,0.066929133858267723X0.066929133858267723*%
%ADD63O,0.066929133858267723X0.066929133858267723*%
%ADD64R,0.1378X0.1378*%
%ADD65C,0.4*%
%ADD66C,0.0470472440944882*%
%ADD67C,0.11023622047244094*%
%ADD68C,0.11810000000000001*%
%ADD69C,0.0591*%
%ADD70C,0.0984251968503937*%
%ADD71R,0.0984251968503937X0.0984251968503937*%
G01G01*
D10*
D11*
X0000003937Y0000003937D02*
X0000576337Y0000403937D03*
X0000103937Y0000403937D03*
D12*
X0000290137Y0000510237D03*
X0000390137Y0000510237D03*
X0000390137Y0000588937D03*
X0000290137Y0000588937D03*
D13*
X0000903937Y0001303937D03*
D14*
X0000903937Y0001203937D03*
X0000803937Y0001303937D03*
X0000803937Y0001203937D03*
X0001103937Y0001203937D03*
X0001103937Y0001303937D03*
X0001203937Y0001203937D03*
D13*
X0001203937Y0001303937D03*
X0001353937Y0001203937D03*
D14*
X0001353937Y0001303937D03*
X0001453937Y0001203937D03*
X0001453937Y0001303937D03*
X0001553937Y0001203937D03*
X0001553937Y0001303937D03*
X0001203937Y0000803937D03*
X0001103937Y0000803937D03*
X0001203937Y0000903937D03*
X0001103937Y0000903937D03*
X0001203937Y0001003937D03*
D13*
X0001103937Y0001003937D03*
X0000903937Y0001003937D03*
D14*
X0000903937Y0000903937D03*
X0000803937Y0001003937D03*
X0000803937Y0000903937D03*
X0000703937Y0001003937D03*
X0000703937Y0000903937D03*
X0001553937Y0001003937D03*
X0001553937Y0000903937D03*
X0001453937Y0001003937D03*
X0001453937Y0000903937D03*
X0001353937Y0001003937D03*
D13*
X0001353937Y0000903937D03*
D14*
X0001753937Y0000703937D03*
X0001753937Y0000603937D03*
X0001653937Y0000703937D03*
X0001653937Y0000603937D03*
X0001553937Y0000703937D03*
X0001553937Y0000603937D03*
X0001453937Y0000703937D03*
D13*
X0001453937Y0000603937D03*
D15*
X0000429937Y0000868937D03*
X0000311837Y0001053937D03*
X0000548037Y0001053937D03*
D16*
X0000316448Y0001665196D03*
X0001496448Y0001665196D03*
D17*
X0001490944Y0000395472D03*
X0001522440Y0000348228D03*
X0001553937Y0000395472D03*
X0001585433Y0000348228D03*
X0001616929Y0000395472D03*
D18*
X0001408267Y0000360039D03*
X0001699606Y0000360039D03*
X0001408267Y0000173031D03*
X0001699606Y0000173031D03*
D19*
X0000713935Y0000403941D03*
X0001253935Y0000403941D03*
D20*
X0000853935Y0000508941D03*
X0000953935Y0000508941D03*
X0001033935Y0000508941D03*
X0001133935Y0000508941D03*
D21*
X0000857086Y0001703937D03*
D22*
X0001053937Y0001703937D03*
G04 next file*
G04 #@! TF.GenerationSoftware,KiCad,Pcbnew,(2017-04-12 revision 02abf1804)-makepkg*
G04 #@! TF.CreationDate,2017-04-21T09:09:19+03:00*
G04 #@! TF.ProjectId,vbb,7662622E6B696361645F706362000000,rev?*
G04 #@! TF.FileFunction,Soldermask,Bot*
G04 #@! TF.FilePolarity,Negative*
G04 Gerber Fmt 4.6, Leading zero omitted, Abs format (unit mm)*
G04 Created by KiCad (PCBNEW (2017-04-12 revision 02abf1804)-makepkg) date 04/21/17 09:09:19*
G01G01*
G04 APERTURE LIST*
G04 APERTURE END LIST*
D33*
D34*
X0000003937Y0001976377D02*
X0000576337Y0002376377D03*
X0000103937Y0002376377D03*
D35*
X0000290137Y0002482677D03*
X0000390137Y0002482677D03*
X0000390137Y0002561377D03*
X0000290137Y0002561377D03*
D36*
X0000903937Y0003276377D03*
D37*
X0000903937Y0003176377D03*
X0000803937Y0003276377D03*
X0000803937Y0003176377D03*
X0001103937Y0003176377D03*
X0001103937Y0003276377D03*
X0001203937Y0003176377D03*
D36*
X0001203937Y0003276377D03*
X0001353937Y0003176377D03*
D37*
X0001353937Y0003276377D03*
X0001453937Y0003176377D03*
X0001453937Y0003276377D03*
X0001553937Y0003176377D03*
X0001553937Y0003276377D03*
X0001203937Y0002776377D03*
X0001103937Y0002776377D03*
X0001203937Y0002876377D03*
X0001103937Y0002876377D03*
X0001203937Y0002976377D03*
D36*
X0001103937Y0002976377D03*
X0000903937Y0002976377D03*
D37*
X0000903937Y0002876377D03*
X0000803937Y0002976377D03*
X0000803937Y0002876377D03*
X0000703937Y0002976377D03*
X0000703937Y0002876377D03*
X0001553937Y0002976377D03*
X0001553937Y0002876377D03*
X0001453937Y0002976377D03*
X0001453937Y0002876377D03*
X0001353937Y0002976377D03*
D36*
X0001353937Y0002876377D03*
D37*
X0001753937Y0002676377D03*
X0001753937Y0002576377D03*
X0001653937Y0002676377D03*
X0001653937Y0002576377D03*
X0001553937Y0002676377D03*
X0001553937Y0002576377D03*
X0001453937Y0002676377D03*
D36*
X0001453937Y0002576377D03*
D38*
X0000429937Y0002841377D03*
X0000311837Y0003026377D03*
X0000548037Y0003026377D03*
D39*
X0000316448Y0003637637D03*
X0001496448Y0003637637D03*
D40*
X0001490944Y0002367913D03*
X0001522440Y0002320669D03*
X0001553937Y0002367913D03*
X0001585433Y0002320669D03*
X0001616929Y0002367913D03*
D41*
X0001408267Y0002332480D03*
X0001699606Y0002332480D03*
X0001408267Y0002145472D03*
X0001699606Y0002145472D03*
D42*
X0000713935Y0002376382D03*
X0001253935Y0002376382D03*
D43*
X0000853935Y0002481382D03*
X0000953935Y0002481382D03*
X0001033935Y0002481382D03*
X0001133935Y0002481382D03*
D44*
X0000857086Y0003676377D03*
D45*
X0001053937Y0003676377D03*
G04 next file*
G04 #@! TF.GenerationSoftware,KiCad,Pcbnew,(2017-04-12 revision 02abf1804)-makepkg*
G04 #@! TF.CreationDate,2017-04-21T09:09:19+03:00*
G04 #@! TF.ProjectId,vbb,7662622E6B696361645F706362000000,rev?*
G04 #@! TF.FileFunction,Soldermask,Bot*
G04 #@! TF.FilePolarity,Negative*
G04 Gerber Fmt 4.6, Leading zero omitted, Abs format (unit mm)*
G04 Created by KiCad (PCBNEW (2017-04-12 revision 02abf1804)-makepkg) date 04/21/17 09:09:19*
G01G01*
G04 APERTURE LIST*
G04 APERTURE END LIST*
D46*
D47*
X0001976377Y0001976377D02*
X0002548778Y0002376377D03*
X0002076378Y0002376377D03*
D48*
X0002262578Y0002482677D03*
X0002362578Y0002482677D03*
X0002362578Y0002561377D03*
X0002262578Y0002561377D03*
D49*
X0002876377Y0003276377D03*
D50*
X0002876377Y0003176377D03*
X0002776377Y0003276377D03*
X0002776377Y0003176377D03*
X0003076377Y0003176377D03*
X0003076377Y0003276377D03*
X0003176377Y0003176377D03*
D49*
X0003176377Y0003276377D03*
X0003326377Y0003176377D03*
D50*
X0003326377Y0003276377D03*
X0003426377Y0003176377D03*
X0003426377Y0003276377D03*
X0003526377Y0003176377D03*
X0003526377Y0003276377D03*
X0003176377Y0002776377D03*
X0003076377Y0002776377D03*
X0003176377Y0002876377D03*
X0003076377Y0002876377D03*
X0003176377Y0002976377D03*
D49*
X0003076377Y0002976377D03*
X0002876377Y0002976377D03*
D50*
X0002876377Y0002876377D03*
X0002776377Y0002976377D03*
X0002776377Y0002876377D03*
X0002676377Y0002976377D03*
X0002676377Y0002876377D03*
X0003526377Y0002976377D03*
X0003526377Y0002876377D03*
X0003426377Y0002976377D03*
X0003426377Y0002876377D03*
X0003326377Y0002976377D03*
D49*
X0003326377Y0002876377D03*
D50*
X0003726377Y0002676377D03*
X0003726377Y0002576377D03*
X0003626377Y0002676377D03*
X0003626377Y0002576377D03*
X0003526377Y0002676377D03*
X0003526377Y0002576377D03*
X0003426377Y0002676377D03*
D49*
X0003426377Y0002576377D03*
D51*
X0002402377Y0002841377D03*
X0002284277Y0003026377D03*
X0002520477Y0003026377D03*
D52*
X0002288889Y0003637637D03*
X0003468889Y0003637637D03*
D53*
X0003463385Y0002367913D03*
X0003494881Y0002320669D03*
X0003526377Y0002367913D03*
X0003557874Y0002320669D03*
X0003589370Y0002367913D03*
D54*
X0003380708Y0002332480D03*
X0003672047Y0002332480D03*
X0003380708Y0002145472D03*
X0003672047Y0002145472D03*
D55*
X0002686376Y0002376382D03*
X0003226376Y0002376382D03*
D56*
X0002826376Y0002481382D03*
X0002926376Y0002481382D03*
X0003006376Y0002481382D03*
X0003106376Y0002481382D03*
D57*
X0002829527Y0003676377D03*
D58*
X0003026377Y0003676377D03*
G04 next file*
G04 #@! TF.GenerationSoftware,KiCad,Pcbnew,(2017-04-12 revision 02abf1804)-makepkg*
G04 #@! TF.CreationDate,2017-04-21T09:09:19+03:00*
G04 #@! TF.ProjectId,vbb,7662622E6B696361645F706362000000,rev?*
G04 #@! TF.FileFunction,Soldermask,Bot*
G04 #@! TF.FilePolarity,Negative*
G04 Gerber Fmt 4.6, Leading zero omitted, Abs format (unit mm)*
G04 Created by KiCad (PCBNEW (2017-04-12 revision 02abf1804)-makepkg) date 04/21/17 09:09:19*
G01G01*
G04 APERTURE LIST*
G04 APERTURE END LIST*
D59*
D60*
X0001976377Y0000003937D02*
X0002548778Y0000403937D03*
X0002076378Y0000403937D03*
D61*
X0002262578Y0000510237D03*
X0002362578Y0000510237D03*
X0002362578Y0000588937D03*
X0002262578Y0000588937D03*
D62*
X0002876377Y0001303937D03*
D63*
X0002876377Y0001203937D03*
X0002776377Y0001303937D03*
X0002776377Y0001203937D03*
X0003076377Y0001203937D03*
X0003076377Y0001303937D03*
X0003176377Y0001203937D03*
D62*
X0003176377Y0001303937D03*
X0003326377Y0001203937D03*
D63*
X0003326377Y0001303937D03*
X0003426377Y0001203937D03*
X0003426377Y0001303937D03*
X0003526377Y0001203937D03*
X0003526377Y0001303937D03*
X0003176377Y0000803937D03*
X0003076377Y0000803937D03*
X0003176377Y0000903937D03*
X0003076377Y0000903937D03*
X0003176377Y0001003937D03*
D62*
X0003076377Y0001003937D03*
X0002876377Y0001003937D03*
D63*
X0002876377Y0000903937D03*
X0002776377Y0001003937D03*
X0002776377Y0000903937D03*
X0002676377Y0001003937D03*
X0002676377Y0000903937D03*
X0003526377Y0001003937D03*
X0003526377Y0000903937D03*
X0003426377Y0001003937D03*
X0003426377Y0000903937D03*
X0003326377Y0001003937D03*
D62*
X0003326377Y0000903937D03*
D63*
X0003726377Y0000703937D03*
X0003726377Y0000603937D03*
X0003626377Y0000703937D03*
X0003626377Y0000603937D03*
X0003526377Y0000703937D03*
X0003526377Y0000603937D03*
X0003426377Y0000703937D03*
D62*
X0003426377Y0000603937D03*
D64*
X0002402377Y0000868937D03*
X0002284277Y0001053937D03*
X0002520477Y0001053937D03*
D65*
X0002288889Y0001665196D03*
X0003468889Y0001665196D03*
D66*
X0003463385Y0000395472D03*
X0003494881Y0000348228D03*
X0003526377Y0000395472D03*
X0003557874Y0000348228D03*
X0003589370Y0000395472D03*
D67*
X0003380708Y0000360039D03*
X0003672047Y0000360039D03*
X0003380708Y0000173031D03*
X0003672047Y0000173031D03*
D68*
X0002686376Y0000403941D03*
X0003226376Y0000403941D03*
D69*
X0002826376Y0000508941D03*
X0002926376Y0000508941D03*
X0003006376Y0000508941D03*
X0003106376Y0000508941D03*
D70*
X0002829527Y0001703937D03*
D71*
X0003026377Y0001703937D03*
M02*