%
M48
METRIC,000.000
T01C0.41
T02C0.79
T03C0.81
T04C0.99
T05C0.99
T06C1.30
T07C2.01
T08C2.31
T09C6.10
%
T01
X034964Y019635
X043038Y028616
X043125Y027491
X034964Y069735
X043038Y078716
X043125Y077591
X085064Y069735
X093138Y078716
X093225Y077591
X085064Y019635
X093138Y028616
X093225Y027491
T02
X037869Y010044
X038669Y008845
X039470Y010044
X040270Y008845
X041070Y010044
X037869Y060144
X038669Y058945
X039470Y060144
X040270Y058945
X041070Y060144
X087969Y060144
X088769Y058945
X089570Y060144
X090370Y058945
X091170Y060144
X087969Y010044
X088769Y008845
X089570Y010044
X090370Y008845
X091170Y010044
T03
X007369Y014959
X007369Y012960
X009909Y014959
X009909Y012960
X007369Y065059
X007369Y063060
X009909Y065059
X009909Y063060
X057469Y065059
X057469Y063060
X060009Y065059
X060009Y063060
X057469Y014959
X057469Y012960
X060009Y014959
X060009Y012960
T04
X017880Y025500
X017880Y022960
X020420Y033120
X020420Y030580
X020420Y025500
X020420Y022960
X022960Y033120
X022960Y030580
X022960Y025500
X022960Y022960
X028040Y033120
X028040Y030580
X028040Y025500
X028040Y022960
X028040Y020420
X030580Y033120
X030580Y030580
X030580Y025500
X030580Y022960
X030580Y020420
X034390Y033120
X034390Y030580
X034390Y025500
X034390Y022960
X036930Y033120
X036930Y030580
X036930Y025500
X036930Y022960
X036930Y017880
X036930Y015340
X039470Y033120
X039470Y030580
X039470Y025500
X039470Y022960
X039470Y017880
X039470Y015340
X042010Y017880
X042010Y015340
X044550Y017880
X044550Y015340
X017880Y075600
X017880Y073060
X020420Y083220
X020420Y080680
X020420Y075600
X020420Y073060
X022960Y083220
X022960Y080680
X022960Y075600
X022960Y073060
X028040Y083220
X028040Y080680
X028040Y075600
X028040Y073060
X028040Y070520
X030580Y083220
X030580Y080680
X030580Y075600
X030580Y073060
X030580Y070520
X034390Y083220
X034390Y080680
X034390Y075600
X034390Y073060
X036930Y083220
X036930Y080680
X036930Y075600
X036930Y073060
X036930Y067980
X036930Y065440
X039470Y083220
X039470Y080680
X039470Y075600
X039470Y073060
X039470Y067980
X039470Y065440
X042010Y067980
X042010Y065440
X044550Y067980
X044550Y065440
X021690Y063027
X024230Y063027
X026262Y063027
X028802Y063027
X067980Y075600
X067980Y073060
X070520Y083220
X070520Y080680
X070520Y075600
X070520Y073060
X073060Y083220
X073060Y080680
X073060Y075600
X073060Y073060
X078140Y083220
X078140Y080680
X078140Y075600
X078140Y073060
X078140Y070520
X080680Y083220
X080680Y080680
X080680Y075600
X080680Y073060
X080680Y070520
X084490Y083220
X084490Y080680
X084490Y075600
X084490Y073060
X087030Y083220
X087030Y080680
X087030Y075600
X087030Y073060
X087030Y067980
X087030Y065440
X089570Y083220
X089570Y080680
X089570Y075600
X089570Y073060
X089570Y067980
X089570Y065440
X092110Y067980
X092110Y065440
X094650Y067980
X094650Y065440
X071790Y063027
X074330Y063027
X076362Y063027
X078902Y063027
X067980Y025500
X067980Y022960
X070520Y033120
X070520Y030580
X070520Y025500
X070520Y022960
X073060Y033120
X073060Y030580
X073060Y025500
X073060Y022960
X078140Y033120
X078140Y030580
X078140Y025500
X078140Y022960
X078140Y020420
X080680Y033120
X080680Y030580
X080680Y025500
X080680Y022960
X080680Y020420
X084490Y033120
X084490Y030580
X084490Y025500
X084490Y022960
X087030Y033120
X087030Y030580
X087030Y025500
X087030Y022960
X087030Y017880
X087030Y015340
X089570Y033120
X089570Y030580
X089570Y025500
X089570Y022960
X089570Y017880
X089570Y015340
X092110Y017880
X092110Y015340
X094650Y017880
X094650Y015340
X071790Y012927
X074330Y012927
X076362Y012927
X078902Y012927
X007920Y077870G85X007920Y075871
X009922Y072171G85X011921Y072171
X013920Y077870G85X013920Y075871
X058020Y077870G85X058020Y075871
X060022Y072171G85X062021Y072171
X064019Y077870G85X064019Y075871
X058020Y027770G85X058020Y025771
X060022Y022071G85X062021Y022071
X064019Y027770G85X064019Y025771
T05
X021690Y012927
X024230Y012927
X026262Y012927
X028802Y012927
X007920Y027770G85X007920Y025771
X009922Y022071G85X011921Y022071
X013920Y027770G85X013920Y025771
T06
X021768Y043280
X026770Y043280
X021768Y093380
X026770Y093380
X071868Y093380
X076870Y093380
X071868Y043280
X076870Y043280
T07
X035769Y009144
X035769Y004395
X043170Y009144
X043170Y004395
X035769Y059244
X035769Y054495
X043170Y059244
X043170Y054495
X085869Y059244
X085869Y054495
X093270Y059244
X093270Y054495
X085869Y009144
X085869Y004395
X093270Y009144
X093270Y004395
T08
X002640Y010260
X014638Y010260
X018134Y010260
X031850Y010260
X002640Y060360
X014638Y060360
X018134Y060360
X031850Y060360
X052740Y060360
X064738Y060360
X068234Y060360
X081950Y060360
X052740Y010260
X064738Y010260
X068234Y010260
X081950Y010260
T09
X008037Y042297
X038009Y042297
X008037Y092397
X038009Y092397
X058137Y092397
X088109Y092397
X058137Y042297
X088109Y042297
M30