%
M48
METRIC,000.000
T01C0.41
T02C0.79
T03C0.81
T04C0.99
T05C0.99
T06C1.30
T07C2.01
T08C2.31
T09C6.10
%
T01
X-055949Y115110
X-055142Y116008
X-055133Y115896
X-005479Y165550
X-004672Y166448
X-004663Y166336
X-055949Y165550
X-055142Y166448
X-055133Y166336
X-005479Y115080
X-004672Y115978
X-004663Y115866
T02
X-055659Y114151
X-055579Y114031
X-055499Y114151
X-055418Y114031
X-055338Y114151
X-005189Y164591
X-005109Y164471
X-005028Y164591
X-004948Y164471
X-004868Y164591
X-055659Y164591
X-055579Y164471
X-055499Y164591
X-055418Y164471
X-055338Y164591
X-005189Y114121
X-005109Y114001
X-005028Y114121
X-004948Y114001
X-004868Y114121
T03
X-058709Y114642
X-058709Y114443
X-058455Y114642
X-058455Y114443
X-008239Y165082
X-008239Y164883
X-007985Y165082
X-007985Y164883
X-058709Y165082
X-058709Y164883
X-058455Y165082
X-058455Y164883
X-008239Y114612
X-008239Y114412
X-007985Y114612
X-007985Y114412
T04
X-057658Y115697
X-057658Y115443
X-057404Y116459
X-057404Y116205
X-057404Y115697
X-057404Y115443
X-057150Y116459
X-057150Y116205
X-057150Y115697
X-057150Y115443
X-056642Y116459
X-056642Y116205
X-056642Y115697
X-056642Y115443
X-056642Y115189
X-056388Y116459
X-056388Y116205
X-056388Y115697
X-056388Y115443
X-056388Y115189
X-056007Y116459
X-056007Y116205
X-056007Y115697
X-056007Y115443
X-055753Y116459
X-055753Y116205
X-055753Y115697
X-055753Y115443
X-055753Y114935
X-055753Y114681
X-055499Y116459
X-055499Y116205
X-055499Y115697
X-055499Y115443
X-055499Y114935
X-055499Y114681
X-055245Y114935
X-055245Y114681
X-054991Y114935
X-054991Y114681
X-007187Y166136
X-007187Y165882
X-006933Y166898
X-006933Y166644
X-006933Y166136
X-006933Y165882
X-006679Y166898
X-006679Y166644
X-006679Y166136
X-006679Y165882
X-006171Y166898
X-006171Y166644
X-006171Y166136
X-006171Y165882
X-006171Y165628
X-005917Y166898
X-005917Y166644
X-005917Y166136
X-005917Y165882
X-005917Y165628
X-005536Y166898
X-005536Y166644
X-005536Y166136
X-005536Y165882
X-005282Y166898
X-005282Y166644
X-005282Y166136
X-005282Y165882
X-005282Y165374
X-005282Y165120
X-005028Y166898
X-005028Y166644
X-005028Y166136
X-005028Y165882
X-005028Y165374
X-005028Y165120
X-004774Y165374
X-004774Y165120
X-004520Y165374
X-004520Y165120
X-006806Y164879
X-006552Y164879
X-006349Y164879
X-006095Y164879
X-057658Y166136
X-057658Y165882
X-057404Y166898
X-057404Y166644
X-057404Y166136
X-057404Y165882
X-057150Y166898
X-057150Y166644
X-057150Y166136
X-057150Y165882
X-056642Y166898
X-056642Y166644
X-056642Y166136
X-056642Y165882
X-056642Y165628
X-056388Y166898
X-056388Y166644
X-056388Y166136
X-056388Y165882
X-056388Y165628
X-056007Y166898
X-056007Y166644
X-056007Y166136
X-056007Y165882
X-055753Y166898
X-055753Y166644
X-055753Y166136
X-055753Y165882
X-055753Y165374
X-055753Y165120
X-055499Y166898
X-055499Y166644
X-055499Y166136
X-055499Y165882
X-055499Y165374
X-055499Y165120
X-055245Y165374
X-055245Y165120
X-054991Y165374
X-054991Y165120
X-057277Y164879
X-057023Y164879
X-056819Y164879
X-056565Y164879
X-007187Y115666
X-007187Y115412
X-006933Y116428
X-006933Y116174
X-006933Y115666
X-006933Y115412
X-006679Y116428
X-006679Y116174
X-006679Y115666
X-006679Y115412
X-006171Y116428
X-006171Y116174
X-006171Y115666
X-006171Y115412
X-006171Y115158
X-005917Y116428
X-005917Y116174
X-005917Y115666
X-005917Y115412
X-005917Y115158
X-005536Y116428
X-005536Y116174
X-005536Y115666
X-005536Y115412
X-005282Y116428
X-005282Y116174
X-005282Y115666
X-005282Y115412
X-005282Y114904
X-005282Y114650
X-005028Y116428
X-005028Y116174
X-005028Y115666
X-005028Y115412
X-005028Y114904
X-005028Y114650
X-004774Y114904
X-004774Y114650
X-004520Y114904
X-004520Y114650
X-006806Y114409
X-006552Y114409
X-006349Y114409
X-006095Y114409
X-015569Y176169G85X-015569Y176169
X-015569Y176168G85X-015569Y176168
X-015569Y176169G85X-015569Y176169
X-066039Y176169G85X-066039Y176169
X-066039Y176168G85X-066039Y176168
X-066039Y176169G85X-066039Y176169
X-015569Y125699G85X-015569Y125699
X-015569Y125698G85X-015569Y125698
X-015569Y125699G85X-015569Y125699
T05
X-057277Y114439
X-057023Y114439
X-056819Y114439
X-056565Y114439
X-066039Y125729G85X-066039Y125729
X-066039Y125728G85X-066039Y125728
X-066039Y125729G85X-066039Y125729
T06
X-057269Y117475
X-056769Y117475
X-006799Y167914
X-006298Y167914
X-057269Y167914
X-056769Y167914
X-006799Y117444
X-006298Y117444
T07
X-055869Y114061
X-055869Y113586
X-055128Y114061
X-055128Y113586
X-005399Y164501
X-005399Y164026
X-004658Y164501
X-004658Y164026
X-055869Y164501
X-055869Y164026
X-055128Y164501
X-055128Y164026
X-005399Y114031
X-005399Y113556
X-004658Y114031
X-004658Y113556
T08
X-059182Y114173
X-057982Y114173
X-057632Y114173
X-056261Y114173
X-008711Y164612
X-007512Y164612
X-007162Y164612
X-005790Y164612
X-059182Y164612
X-057982Y164612
X-057632Y164612
X-056261Y164612
X-008711Y114142
X-007512Y114142
X-007162Y114142
X-005790Y114142
T09
X-058642Y117376
X-055645Y117376
X-008172Y167816
X-005175Y167816
X-058642Y167816
X-055645Y167816
X-008172Y117346
X-005175Y117346
M30