G04 #@! TF.GenerationSoftware,KiCad,Pcbnew,(2017-04-12 revision 02abf1804)-makepkg*
G04 #@! TF.CreationDate,2017-04-26T22:03:17+03:00*
G04 #@! TF.ProjectId,vbb,7662622E6B696361645F706362000000,rev?*
G04 #@! TF.FileFunction,Legend,Top*
G04 #@! TF.FilePolarity,Positive*
%FSLAX46Y46*%
G04 Gerber Fmt 4.6, Leading zero omitted, Abs format (unit mm)*
G04 Created by KiCad (PCBNEW (2017-04-12 revision 02abf1804)-makepkg) date 04/26/17 22:03:17*
%MOMM*%
%LPD*%
G01*
G04 APERTURE LIST*
%ADD10C,0.100000*%
%ADD11C,0.300000*%
%ADD12C,0.120000*%
%ADD13C,0.150000*%
%ADD14C,0.200660*%
%ADD15C,0.170000*%
G04 APERTURE END LIST*
D10*
D11*
X32957142Y46550000D02*
X32814285Y46621429D01*
X32600000Y46621429D01*
X32385714Y46550000D01*
X32242857Y46407143D01*
X32171428Y46264286D01*
X32100000Y45978572D01*
X32100000Y45764286D01*
X32171428Y45478572D01*
X32242857Y45335715D01*
X32385714Y45192858D01*
X32600000Y45121429D01*
X32742857Y45121429D01*
X32957142Y45192858D01*
X33028571Y45264286D01*
X33028571Y45764286D01*
X32742857Y45764286D01*
X33671428Y45121429D02*
X33671428Y46621429D01*
X34528571Y45121429D01*
X34528571Y46621429D01*
X35242857Y45121429D02*
X35242857Y46621429D01*
X35600000Y46621429D01*
X35814285Y46550000D01*
X35957142Y46407143D01*
X36028571Y46264286D01*
X36100000Y45978572D01*
X36100000Y45764286D01*
X36028571Y45478572D01*
X35957142Y45335715D01*
X35814285Y45192858D01*
X35600000Y45121429D01*
X35242857Y45121429D01*
X13300000Y46621429D02*
X13800000Y45121429D01*
X14300000Y46621429D01*
X15657142Y45264286D02*
X15585714Y45192858D01*
X15371428Y45121429D01*
X15228571Y45121429D01*
X15014285Y45192858D01*
X14871428Y45335715D01*
X14800000Y45478572D01*
X14728571Y45764286D01*
X14728571Y45978572D01*
X14800000Y46264286D01*
X14871428Y46407143D01*
X15014285Y46550000D01*
X15228571Y46621429D01*
X15371428Y46621429D01*
X15585714Y46550000D01*
X15657142Y46478572D01*
X17157142Y45264286D02*
X17085714Y45192858D01*
X16871428Y45121429D01*
X16728571Y45121429D01*
X16514285Y45192858D01*
X16371428Y45335715D01*
X16300000Y45478572D01*
X16228571Y45764286D01*
X16228571Y45978572D01*
X16300000Y46264286D01*
X16371428Y46407143D01*
X16514285Y46550000D01*
X16728571Y46621429D01*
X16871428Y46621429D01*
X17085714Y46550000D01*
X17157142Y46478572D01*
D12*
X47410000Y41910000D02*
G75*
G03X47410000Y41910000I-5500000J0D01*
G01*
X28360000Y41910000D02*
G75*
G03X28360000Y41910000I-5500000J0D01*
G01*
D13*
X11684000Y15240000D02*
X11684000Y3048000D01*
X-5334000Y3048000D02*
X-5334000Y15240000D01*
X11684000Y3048000D02*
X6604000Y3048000D01*
X3302000Y3048000D02*
X-5334000Y3048000D01*
X11684000Y15240000D02*
X6604000Y15240000D01*
X3302000Y15240000D02*
X-5334000Y15240000D01*
D12*
X21590000Y34350000D02*
X18990000Y34350000D01*
X18990000Y34350000D02*
X18990000Y29150000D01*
X18990000Y29150000D02*
X24190000Y29150000D01*
X24190000Y29150000D02*
X24190000Y31750000D01*
X24190000Y31750000D02*
X21590000Y31750000D01*
X21590000Y31750000D02*
X21590000Y34350000D01*
X22860000Y34350000D02*
X24190000Y34350000D01*
X24190000Y34350000D02*
X24190000Y33020000D01*
X31810000Y34350000D02*
X31810000Y33020000D01*
X30480000Y34350000D02*
X31810000Y34350000D01*
X29210000Y31750000D02*
X29210000Y34350000D01*
X31810000Y31750000D02*
X29210000Y31750000D01*
X31810000Y29150000D02*
X31810000Y31750000D01*
X26610000Y29150000D02*
X31810000Y29150000D01*
X26610000Y34350000D02*
X26610000Y29150000D01*
X29210000Y34350000D02*
X26610000Y34350000D01*
X35560000Y29150000D02*
X40700000Y29150000D01*
X40700000Y29150000D02*
X40700000Y34350000D01*
X40700000Y34350000D02*
X32960000Y34350000D01*
X32960000Y34350000D02*
X32960000Y31750000D01*
X32960000Y31750000D02*
X35560000Y31750000D01*
X35560000Y31750000D02*
X35560000Y29150000D01*
X34290000Y29150000D02*
X32960000Y29150000D01*
X32960000Y29150000D02*
X32960000Y30480000D01*
X26610000Y26730000D02*
X27940000Y26730000D01*
X26610000Y25400000D02*
X26610000Y26730000D01*
X29210000Y24130000D02*
X26610000Y24130000D01*
X29210000Y26730000D02*
X29210000Y24130000D01*
X31810000Y26730000D02*
X29210000Y26730000D01*
X31810000Y18990000D02*
X31810000Y26730000D01*
X26610000Y18990000D02*
X31810000Y18990000D01*
X26610000Y24130000D02*
X26610000Y18990000D01*
X21590000Y26730000D02*
X16450000Y26730000D01*
X16450000Y26730000D02*
X16450000Y21530000D01*
X16450000Y21530000D02*
X24190000Y21530000D01*
X24190000Y21530000D02*
X24190000Y24130000D01*
X24190000Y24130000D02*
X21590000Y24130000D01*
X21590000Y24130000D02*
X21590000Y26730000D01*
X22860000Y26730000D02*
X24190000Y26730000D01*
X24190000Y26730000D02*
X24190000Y25400000D01*
X32960000Y21530000D02*
X32960000Y22860000D01*
X34290000Y21530000D02*
X32960000Y21530000D01*
X35560000Y24130000D02*
X35560000Y21530000D01*
X32960000Y24130000D02*
X35560000Y24130000D01*
X32960000Y26730000D02*
X32960000Y24130000D01*
X40700000Y26730000D02*
X32960000Y26730000D01*
X40700000Y21530000D02*
X40700000Y26730000D01*
X35560000Y21530000D02*
X40700000Y21530000D01*
X35500000Y13910000D02*
X35500000Y15240000D01*
X36830000Y13910000D02*
X35500000Y13910000D01*
X38100000Y16510000D02*
X38100000Y13910000D01*
X35500000Y16510000D02*
X38100000Y16510000D01*
X35500000Y19110000D02*
X35500000Y16510000D01*
X45780000Y19110000D02*
X35500000Y19110000D01*
X45780000Y13910000D02*
X45780000Y19110000D01*
X38100000Y13910000D02*
X45780000Y13910000D01*
D13*
X14620240Y31170880D02*
X119380Y31170880D01*
X14620240Y22169120D02*
X14620240Y31170880D01*
X119380Y22169120D02*
X14620240Y22169120D01*
X119380Y31170880D02*
X119380Y22169120D01*
X3619500Y31170880D02*
X3619500Y22169120D01*
X25120000Y17385000D02*
X26320000Y17385000D01*
X26320000Y15635000D02*
X25120000Y15635000D01*
X35927000Y7966000D02*
X35927000Y6766000D01*
X34177000Y6766000D02*
X34177000Y7966000D01*
X50038000Y2500000D02*
X50038000Y10200000D01*
X50038000Y10200000D02*
X40838000Y10200000D01*
X40838000Y10200000D02*
X40838000Y2500000D01*
X40838000Y2500000D02*
X50038000Y2500000D01*
X18450000Y17385000D02*
X19650000Y17385000D01*
X19650000Y15635000D02*
X18450000Y15635000D01*
X32638960Y-126880D02*
X17652960Y-126880D01*
X32638960Y13970120D02*
X17652960Y13970120D01*
X17652960Y-126880D02*
X17652960Y13970120D01*
X32638960Y13970120D02*
X32638960Y-126880D01*
X10280000Y45600000D02*
X480000Y45600000D01*
X10280000Y35600000D02*
X10280000Y45600000D01*
X480000Y35600000D02*
X10280000Y35600000D01*
X480000Y45600000D02*
X480000Y35600000D01*
X980000Y45600000D02*
X980000Y35600000D01*
X7380000Y45600000D02*
X7380000Y35600000D01*
X2480000Y45600000D02*
X2480000Y35600000D01*
X6980000Y43100000D02*
G75*
G03X6980000Y43100000I-2000000J0D01*
G01*
X6980000Y38100000D02*
G75*
G03X6980000Y38100000I-2000000J0D01*
G01*
X980000Y40600000D02*
X480000Y40600000D01*
D14*
X44089320Y30599400D02*
X49090580Y30599400D01*
X44089320Y22801600D02*
X44089320Y30599400D01*
X49090580Y22801600D02*
X44089320Y22801600D01*
X48889920Y22499340D02*
X49090580Y22499340D01*
X48889920Y30901660D02*
X48889920Y22499340D01*
X49090580Y30901660D02*
X48889920Y30901660D01*
X49090580Y22499340D02*
X49090580Y30901660D01*
X48988980Y22499340D02*
X48988980Y30901660D01*
D13*
X30200000Y17385000D02*
X31400000Y17385000D01*
X31400000Y15635000D02*
X30200000Y15635000D01*
X24331904Y-1672380D02*
X24331904Y-672380D01*
X24712857Y-672380D01*
X24808095Y-720000D01*
X24855714Y-767619D01*
X24903333Y-862857D01*
X24903333Y-1005714D01*
X24855714Y-1100952D01*
X24808095Y-1148571D01*
X24712857Y-1196190D01*
X24331904Y-1196190D01*
X25855714Y-1672380D02*
X25284285Y-1672380D01*
X25570000Y-1672380D02*
X25570000Y-672380D01*
X25474761Y-815238D01*
X25379523Y-910476D01*
X25284285Y-958095D01*
X41576666Y48957620D02*
X41576666Y48243334D01*
X41529047Y48100477D01*
X41433809Y48005239D01*
X41290952Y47957620D01*
X41195714Y47957620D01*
X42529047Y48957620D02*
X42052857Y48957620D01*
X42005238Y48481429D01*
X42052857Y48529048D01*
X42148095Y48576667D01*
X42386190Y48576667D01*
X42481428Y48529048D01*
X42529047Y48481429D01*
X42576666Y48386191D01*
X42576666Y48148096D01*
X42529047Y48052858D01*
X42481428Y48005239D01*
X42386190Y47957620D01*
X42148095Y47957620D01*
X42052857Y48005239D01*
X42005238Y48052858D01*
X22526666Y48957620D02*
X22526666Y48243334D01*
X22479047Y48100477D01*
X22383809Y48005239D01*
X22240952Y47957620D01*
X22145714Y47957620D01*
X23431428Y48957620D02*
X23240952Y48957620D01*
X23145714Y48910000D01*
X23098095Y48862381D01*
X23002857Y48719524D01*
X22955238Y48529048D01*
X22955238Y48148096D01*
X23002857Y48052858D01*
X23050476Y48005239D01*
X23145714Y47957620D01*
X23336190Y47957620D01*
X23431428Y48005239D01*
X23479047Y48052858D01*
X23526666Y48148096D01*
X23526666Y48386191D01*
X23479047Y48481429D01*
X23431428Y48529048D01*
X23336190Y48576667D01*
X23145714Y48576667D01*
X23050476Y48529048D01*
X23002857Y48481429D01*
X22955238Y48386191D01*
X12247619Y10898096D02*
X13247619Y10898096D01*
X13247619Y10517143D01*
X13200000Y10421905D01*
X13152380Y10374286D01*
X13057142Y10326667D01*
X12914285Y10326667D01*
X12819047Y10374286D01*
X12771428Y10421905D01*
X12723809Y10517143D01*
X12723809Y10898096D01*
X12914285Y9469524D02*
X12247619Y9469524D01*
X13295238Y9707620D02*
X12580952Y9945715D01*
X12580952Y9326667D01*
X4405380Y7001143D02*
X5214904Y7001143D01*
X5310142Y7048762D01*
X5357761Y7096381D01*
X5405380Y7191620D01*
X5405380Y7382096D01*
X5357761Y7477334D01*
X5310142Y7524953D01*
X5214904Y7572572D01*
X4405380Y7572572D01*
X5357761Y8001143D02*
X5405380Y8144000D01*
X5405380Y8382096D01*
X5357761Y8477334D01*
X5310142Y8524953D01*
X5214904Y8572572D01*
X5119666Y8572572D01*
X5024428Y8524953D01*
X4976809Y8477334D01*
X4929190Y8382096D01*
X4881571Y8191620D01*
X4833952Y8096381D01*
X4786333Y8048762D01*
X4691095Y8001143D01*
X4595857Y8001143D01*
X4500619Y8048762D01*
X4453000Y8096381D01*
X4405380Y8191620D01*
X4405380Y8429715D01*
X4453000Y8572572D01*
X4881571Y9334477D02*
X4929190Y9477334D01*
X4976809Y9524953D01*
X5072047Y9572572D01*
X5214904Y9572572D01*
X5310142Y9524953D01*
X5357761Y9477334D01*
X5405380Y9382096D01*
X5405380Y9001143D01*
X4405380Y9001143D01*
X4405380Y9334477D01*
X4453000Y9429715D01*
X4500619Y9477334D01*
X4595857Y9524953D01*
X4691095Y9524953D01*
X4786333Y9477334D01*
X4833952Y9429715D01*
X4881571Y9334477D01*
X4881571Y9001143D01*
X5500619Y9763048D02*
X5500619Y10524953D01*
X4881571Y11096381D02*
X4929190Y11239239D01*
X4976809Y11286858D01*
X5072047Y11334477D01*
X5214904Y11334477D01*
X5310142Y11286858D01*
X5357761Y11239239D01*
X5405380Y11144000D01*
X5405380Y10763048D01*
X4405380Y10763048D01*
X4405380Y11096381D01*
X4453000Y11191620D01*
X4500619Y11239239D01*
X4595857Y11286858D01*
X4691095Y11286858D01*
X4786333Y11239239D01*
X4833952Y11191620D01*
X4881571Y11096381D01*
X4881571Y10763048D01*
X17486380Y33194667D02*
X18200666Y33194667D01*
X18343523Y33147048D01*
X18438761Y33051810D01*
X18486380Y32908953D01*
X18486380Y32813715D01*
X17486380Y33575620D02*
X17486380Y34194667D01*
X17867333Y33861334D01*
X17867333Y34004191D01*
X17914952Y34099429D01*
X17962571Y34147048D01*
X18057809Y34194667D01*
X18295904Y34194667D01*
X18391142Y34147048D01*
X18438761Y34099429D01*
X18486380Y34004191D01*
X18486380Y33718477D01*
X18438761Y33623239D01*
X18391142Y33575620D01*
X25106380Y33448667D02*
X25820666Y33448667D01*
X25963523Y33401048D01*
X26058761Y33305810D01*
X26106380Y33162953D01*
X26106380Y33067715D01*
X25439714Y34353429D02*
X26106380Y34353429D01*
X25058761Y34115334D02*
X25773047Y33877239D01*
X25773047Y34496286D01*
X42108380Y32789905D02*
X41108380Y32789905D01*
X41108380Y33170858D01*
X41156000Y33266096D01*
X41203619Y33313715D01*
X41298857Y33361334D01*
X41441714Y33361334D01*
X41536952Y33313715D01*
X41584571Y33266096D01*
X41632190Y33170858D01*
X41632190Y32789905D01*
X41536952Y33932762D02*
X41489333Y33837524D01*
X41441714Y33789905D01*
X41346476Y33742286D01*
X41298857Y33742286D01*
X41203619Y33789905D01*
X41156000Y33837524D01*
X41108380Y33932762D01*
X41108380Y34123239D01*
X41156000Y34218477D01*
X41203619Y34266096D01*
X41298857Y34313715D01*
X41346476Y34313715D01*
X41441714Y34266096D01*
X41489333Y34218477D01*
X41536952Y34123239D01*
X41536952Y33932762D01*
X41584571Y33837524D01*
X41632190Y33789905D01*
X41727428Y33742286D01*
X41917904Y33742286D01*
X42013142Y33789905D01*
X42060761Y33837524D01*
X42108380Y33932762D01*
X42108380Y34123239D01*
X42060761Y34218477D01*
X42013142Y34266096D01*
X41917904Y34313715D01*
X41727428Y34313715D01*
X41632190Y34266096D01*
X41584571Y34218477D01*
X41536952Y34123239D01*
X28471904Y27277620D02*
X28471904Y28277620D01*
X28852857Y28277620D01*
X28948095Y28230000D01*
X28995714Y28182381D01*
X29043333Y28087143D01*
X29043333Y27944286D01*
X28995714Y27849048D01*
X28948095Y27801429D01*
X28852857Y27753810D01*
X28471904Y27753810D01*
X29519523Y27277620D02*
X29710000Y27277620D01*
X29805238Y27325239D01*
X29852857Y27372858D01*
X29948095Y27515715D01*
X29995714Y27706191D01*
X29995714Y28087143D01*
X29948095Y28182381D01*
X29900476Y28230000D01*
X29805238Y28277620D01*
X29614761Y28277620D01*
X29519523Y28230000D01*
X29471904Y28182381D01*
X29424285Y28087143D01*
X29424285Y27849048D01*
X29471904Y27753810D01*
X29519523Y27706191D01*
X29614761Y27658572D01*
X29805238Y27658572D01*
X29900476Y27706191D01*
X29948095Y27753810D01*
X29995714Y27849048D01*
X22629904Y27233620D02*
X22629904Y28233620D01*
X23010857Y28233620D01*
X23106095Y28186000D01*
X23153714Y28138381D01*
X23201333Y28043143D01*
X23201333Y27900286D01*
X23153714Y27805048D01*
X23106095Y27757429D01*
X23010857Y27709810D01*
X22629904Y27709810D01*
X23582285Y28138381D02*
X23629904Y28186000D01*
X23725142Y28233620D01*
X23963238Y28233620D01*
X24058476Y28186000D01*
X24106095Y28138381D01*
X24153714Y28043143D01*
X24153714Y27947905D01*
X24106095Y27805048D01*
X23534666Y27233620D01*
X24153714Y27233620D01*
X33297904Y27233620D02*
X33297904Y28233620D01*
X33678857Y28233620D01*
X33774095Y28186000D01*
X33821714Y28138381D01*
X33869333Y28043143D01*
X33869333Y27900286D01*
X33821714Y27805048D01*
X33774095Y27757429D01*
X33678857Y27709810D01*
X33297904Y27709810D01*
X34774095Y28233620D02*
X34297904Y28233620D01*
X34250285Y27757429D01*
X34297904Y27805048D01*
X34393142Y27852667D01*
X34631238Y27852667D01*
X34726476Y27805048D01*
X34774095Y27757429D01*
X34821714Y27662191D01*
X34821714Y27424096D01*
X34774095Y27328858D01*
X34726476Y27281239D01*
X34631238Y27233620D01*
X34393142Y27233620D01*
X34297904Y27281239D01*
X34250285Y27328858D01*
X34952380Y15771905D02*
X33952380Y15771905D01*
X33952380Y16152858D01*
X34000000Y16248096D01*
X34047619Y16295715D01*
X34142857Y16343334D01*
X34285714Y16343334D01*
X34380952Y16295715D01*
X34428571Y16248096D01*
X34476190Y16152858D01*
X34476190Y15771905D01*
X33952380Y16676667D02*
X33952380Y17295715D01*
X34333333Y16962381D01*
X34333333Y17105239D01*
X34380952Y17200477D01*
X34428571Y17248096D01*
X34523809Y17295715D01*
X34761904Y17295715D01*
X34857142Y17248096D01*
X34904761Y17200477D01*
X34952380Y17105239D01*
X34952380Y16819524D01*
X34904761Y16724286D01*
X34857142Y16676667D01*
X8945714Y32027858D02*
X8898095Y31980239D01*
X8755238Y31932620D01*
X8660000Y31932620D01*
X8517142Y31980239D01*
X8421904Y32075477D01*
X8374285Y32170715D01*
X8326666Y32361191D01*
X8326666Y32504048D01*
X8374285Y32694524D01*
X8421904Y32789762D01*
X8517142Y32885000D01*
X8660000Y32932620D01*
X8755238Y32932620D01*
X8898095Y32885000D01*
X8945714Y32837381D01*
X9564761Y32932620D02*
X9755238Y32932620D01*
X9850476Y32885000D01*
X9945714Y32789762D01*
X9993333Y32599286D01*
X9993333Y32265953D01*
X9945714Y32075477D01*
X9850476Y31980239D01*
X9755238Y31932620D01*
X9564761Y31932620D01*
X9469523Y31980239D01*
X9374285Y32075477D01*
X9326666Y32265953D01*
X9326666Y32599286D01*
X9374285Y32789762D01*
X9469523Y32885000D01*
X9564761Y32932620D01*
X10421904Y31932620D02*
X10421904Y32932620D01*
X10993333Y31932620D01*
X10993333Y32932620D01*
X11993333Y31932620D02*
X11421904Y31932620D01*
X11707619Y31932620D02*
X11707619Y32932620D01*
X11612380Y32789762D01*
X11517142Y32694524D01*
X11421904Y32646905D01*
X24598333Y17962620D02*
X24265000Y18438810D01*
X24026904Y17962620D02*
X24026904Y18962620D01*
X24407857Y18962620D01*
X24503095Y18915000D01*
X24550714Y18867381D01*
X24598333Y18772143D01*
X24598333Y18629286D01*
X24550714Y18534048D01*
X24503095Y18486429D01*
X24407857Y18438810D01*
X24026904Y18438810D01*
X24931666Y18962620D02*
X25550714Y18962620D01*
X25217380Y18581667D01*
X25360238Y18581667D01*
X25455476Y18534048D01*
X25503095Y18486429D01*
X25550714Y18391191D01*
X25550714Y18153096D01*
X25503095Y18057858D01*
X25455476Y18010239D01*
X25360238Y17962620D01*
X25074523Y17962620D01*
X24979285Y18010239D01*
X24931666Y18057858D01*
X37604380Y5929334D02*
X37128190Y5596000D01*
X37604380Y5357905D02*
X36604380Y5357905D01*
X36604380Y5738858D01*
X36652000Y5834096D01*
X36699619Y5881715D01*
X36794857Y5929334D01*
X36937714Y5929334D01*
X37032952Y5881715D01*
X37080571Y5834096D01*
X37128190Y5738858D01*
X37128190Y5357905D01*
X36699619Y6310286D02*
X36652000Y6357905D01*
X36604380Y6453143D01*
X36604380Y6691239D01*
X36652000Y6786477D01*
X36699619Y6834096D01*
X36794857Y6881715D01*
X36890095Y6881715D01*
X37032952Y6834096D01*
X37604380Y6262667D01*
X37604380Y6881715D01*
D15*
X48220380Y3476667D02*
X48934666Y3476667D01*
X49077523Y3429048D01*
X49172761Y3333810D01*
X49220380Y3190953D01*
X49220380Y3095715D01*
X48315619Y3905239D02*
X48268000Y3952858D01*
X48220380Y4048096D01*
X48220380Y4286191D01*
X48268000Y4381429D01*
X48315619Y4429048D01*
X48410857Y4476667D01*
X48506095Y4476667D01*
X48648952Y4429048D01*
X49220380Y3857620D01*
X49220380Y4476667D01*
X43847047Y5897620D02*
X43847047Y6897620D01*
X44180380Y6183334D01*
X44513714Y6897620D01*
X44513714Y5897620D01*
X44989904Y5897620D02*
X44989904Y6564286D01*
X44989904Y6897620D02*
X44942285Y6850000D01*
X44989904Y6802381D01*
X45037523Y6850000D01*
X44989904Y6897620D01*
X44989904Y6802381D01*
X45466095Y6564286D02*
X45466095Y5897620D01*
X45466095Y6469048D02*
X45513714Y6516667D01*
X45608952Y6564286D01*
X45751809Y6564286D01*
X45847047Y6516667D01*
X45894666Y6421429D01*
X45894666Y5897620D01*
X46370857Y5897620D02*
X46370857Y6564286D01*
X46370857Y6897620D02*
X46323238Y6850000D01*
X46370857Y6802381D01*
X46418476Y6850000D01*
X46370857Y6897620D01*
X46370857Y6802381D01*
X46847047Y6278572D02*
X47608952Y6278572D01*
X48418476Y6421429D02*
X48561333Y6373810D01*
X48608952Y6326191D01*
X48656571Y6230953D01*
X48656571Y6088096D01*
X48608952Y5992858D01*
X48561333Y5945239D01*
X48466095Y5897620D01*
X48085142Y5897620D01*
X48085142Y6897620D01*
X48418476Y6897620D01*
X48513714Y6850000D01*
X48561333Y6802381D01*
X48608952Y6707143D01*
X48608952Y6611905D01*
X48561333Y6516667D01*
X48513714Y6469048D01*
X48418476Y6421429D01*
X48085142Y6421429D01*
D13*
X18883333Y17962620D02*
X18550000Y18438810D01*
X18311904Y17962620D02*
X18311904Y18962620D01*
X18692857Y18962620D01*
X18788095Y18915000D01*
X18835714Y18867381D01*
X18883333Y18772143D01*
X18883333Y18629286D01*
X18835714Y18534048D01*
X18788095Y18486429D01*
X18692857Y18438810D01*
X18311904Y18438810D01*
X19835714Y17962620D02*
X19264285Y17962620D01*
X19550000Y17962620D02*
X19550000Y18962620D01*
X19454761Y18819762D01*
X19359523Y18724524D01*
X19264285Y18676905D01*
X14501904Y8437620D02*
X14501904Y9437620D01*
X14882857Y9437620D01*
X14978095Y9390000D01*
X15025714Y9342381D01*
X15073333Y9247143D01*
X15073333Y9104286D01*
X15025714Y9009048D01*
X14978095Y8961429D01*
X14882857Y8913810D01*
X14501904Y8913810D01*
X15406666Y9437620D02*
X16073333Y9437620D01*
X15644761Y8437620D01*
X23355611Y3722620D02*
X23355611Y2913096D01*
X23403230Y2817858D01*
X23450849Y2770239D01*
X23546087Y2722620D01*
X23736563Y2722620D01*
X23831801Y2770239D01*
X23879420Y2817858D01*
X23927040Y2913096D01*
X23927040Y3722620D01*
X24355611Y2770239D02*
X24498468Y2722620D01*
X24736563Y2722620D01*
X24831801Y2770239D01*
X24879420Y2817858D01*
X24927040Y2913096D01*
X24927040Y3008334D01*
X24879420Y3103572D01*
X24831801Y3151191D01*
X24736563Y3198810D01*
X24546087Y3246429D01*
X24450849Y3294048D01*
X24403230Y3341667D01*
X24355611Y3436905D01*
X24355611Y3532143D01*
X24403230Y3627381D01*
X24450849Y3675000D01*
X24546087Y3722620D01*
X24784182Y3722620D01*
X24927040Y3675000D01*
X25688944Y3246429D02*
X25831801Y3198810D01*
X25879420Y3151191D01*
X25927040Y3055953D01*
X25927040Y2913096D01*
X25879420Y2817858D01*
X25831801Y2770239D01*
X25736563Y2722620D01*
X25355611Y2722620D01*
X25355611Y3722620D01*
X25688944Y3722620D01*
X25784182Y3675000D01*
X25831801Y3627381D01*
X25879420Y3532143D01*
X25879420Y3436905D01*
X25831801Y3341667D01*
X25784182Y3294048D01*
X25688944Y3246429D01*
X25355611Y3246429D01*
X26117516Y2627381D02*
X26879420Y2627381D01*
X27069897Y3008334D02*
X27546087Y3008334D01*
X26974659Y2722620D02*
X27307992Y3722620D01*
X27641325Y2722620D01*
X12152380Y40306667D02*
X12866666Y40306667D01*
X13009523Y40259048D01*
X13104761Y40163810D01*
X13152380Y40020953D01*
X13152380Y39925715D01*
X13152380Y41306667D02*
X13152380Y40735239D01*
X13152380Y41020953D02*
X12152380Y41020953D01*
X12295238Y40925715D01*
X12390476Y40830477D01*
X12438095Y40735239D01*
D15*
X43632380Y20851905D02*
X42632380Y20851905D01*
X42632380Y21232858D01*
X42680000Y21328096D01*
X42727619Y21375715D01*
X42822857Y21423334D01*
X42965714Y21423334D01*
X43060952Y21375715D01*
X43108571Y21328096D01*
X43156190Y21232858D01*
X43156190Y20851905D01*
X42632380Y22280477D02*
X42632380Y22090000D01*
X42680000Y21994762D01*
X42727619Y21947143D01*
X42870476Y21851905D01*
X43060952Y21804286D01*
X43441904Y21804286D01*
X43537142Y21851905D01*
X43584761Y21899524D01*
X43632380Y21994762D01*
X43632380Y22185239D01*
X43584761Y22280477D01*
X43537142Y22328096D01*
X43441904Y22375715D01*
X43203809Y22375715D01*
X43108571Y22328096D01*
X43060952Y22280477D01*
X43013333Y22185239D01*
X43013333Y21994762D01*
X43060952Y21899524D01*
X43108571Y21851905D01*
X43203809Y21804286D01*
X42997380Y24057643D02*
X41997380Y24057643D01*
X42711666Y24390977D01*
X41997380Y24724310D01*
X42997380Y24724310D01*
X42997380Y25200500D02*
X42330714Y25200500D01*
X41997380Y25200500D02*
X42045000Y25152881D01*
X42092619Y25200500D01*
X42045000Y25248120D01*
X41997380Y25200500D01*
X42092619Y25200500D01*
X42949761Y26105262D02*
X42997380Y26010024D01*
X42997380Y25819548D01*
X42949761Y25724310D01*
X42902142Y25676691D01*
X42806904Y25629072D01*
X42521190Y25629072D01*
X42425952Y25676691D01*
X42378333Y25724310D01*
X42330714Y25819548D01*
X42330714Y26010024D01*
X42378333Y26105262D01*
X42997380Y26533834D02*
X42330714Y26533834D01*
X42521190Y26533834D02*
X42425952Y26581453D01*
X42378333Y26629072D01*
X42330714Y26724310D01*
X42330714Y26819548D01*
X42997380Y27295739D02*
X42949761Y27200500D01*
X42902142Y27152881D01*
X42806904Y27105262D01*
X42521190Y27105262D01*
X42425952Y27152881D01*
X42378333Y27200500D01*
X42330714Y27295739D01*
X42330714Y27438596D01*
X42378333Y27533834D01*
X42425952Y27581453D01*
X42521190Y27629072D01*
X42806904Y27629072D01*
X42902142Y27581453D01*
X42949761Y27533834D01*
X42997380Y27438596D01*
X42997380Y27295739D01*
X43092619Y27819548D02*
X43092619Y28581453D01*
X42473571Y29152881D02*
X42521190Y29295739D01*
X42568809Y29343358D01*
X42664047Y29390977D01*
X42806904Y29390977D01*
X42902142Y29343358D01*
X42949761Y29295739D01*
X42997380Y29200500D01*
X42997380Y28819548D01*
X41997380Y28819548D01*
X41997380Y29152881D01*
X42045000Y29248120D01*
X42092619Y29295739D01*
X42187857Y29343358D01*
X42283095Y29343358D01*
X42378333Y29295739D01*
X42425952Y29248120D01*
X42473571Y29152881D01*
X42473571Y28819548D01*
D13*
X28408333Y17581620D02*
X28075000Y18057810D01*
X27836904Y17581620D02*
X27836904Y18581620D01*
X28217857Y18581620D01*
X28313095Y18534000D01*
X28360714Y18486381D01*
X28408333Y18391143D01*
X28408333Y18248286D01*
X28360714Y18153048D01*
X28313095Y18105429D01*
X28217857Y18057810D01*
X27836904Y18057810D01*
X29265476Y18248286D02*
X29265476Y17581620D01*
X29027380Y18629239D02*
X28789285Y17914953D01*
X29408333Y17914953D01*
M02*
