G04 #@! TF.GenerationSoftware,KiCad,Pcbnew,(2017-04-12 revision 02abf1804)-makepkg*
G04 #@! TF.CreationDate,2017-04-26T22:03:17+03:00*
G04 #@! TF.ProjectId,vbb,7662622E6B696361645F706362000000,rev?*
G04 #@! TF.FileFunction,Soldermask,Top*
G04 #@! TF.FilePolarity,Negative*
%FSLAX46Y46*%
G04 Gerber Fmt 4.6, Leading zero omitted, Abs format (unit mm)*
G04 Created by KiCad (PCBNEW (2017-04-12 revision 02abf1804)-makepkg) date 04/26/17 22:03:17*
%MOMM*%
%LPD*%
G01*
G04 APERTURE LIST*
%ADD10C,0.100000*%
%ADD11C,1.600000*%
%ADD12O,2.000000X3.950000*%
%ADD13C,10.160000*%
%ADD14C,2.700020*%
%ADD15C,1.524000*%
%ADD16R,1.700000X1.700000*%
%ADD17O,1.700000X1.700000*%
%ADD18R,3.500120X3.500120*%
%ADD19R,0.700000X1.300000*%
%ADD20R,1.300000X0.700000*%
%ADD21C,1.195000*%
%ADD22C,2.800000*%
%ADD23C,2.999740*%
%ADD24C,1.501140*%
%ADD25C,2.500000*%
%ADD26R,2.500000X2.500000*%
%ADD27R,1.379220X0.449580*%
%ADD28R,2.100580X1.473200*%
%ADD29R,1.897380X2.374900*%
%ADD30R,1.897380X1.173480*%
G04 APERTURE END LIST*
D10*
D11*
X21650000Y4830000D03*
X24150000Y4830000D03*
X26150000Y4830000D03*
D12*
X19450000Y2730000D03*
D11*
X28650000Y4830000D03*
D12*
X30850000Y2730000D03*
D13*
X41910000Y41910000D03*
X22860000Y41910000D03*
D14*
X4953000Y3144520D03*
X4953000Y15143480D03*
D15*
X7653020Y10414000D03*
X7653020Y7874000D03*
X9652000Y7874000D03*
X9652000Y10414000D03*
D16*
X22860000Y33020000D03*
D17*
X22860000Y30480000D03*
X20320000Y33020000D03*
X20320000Y30480000D03*
X27940000Y30480000D03*
X27940000Y33020000D03*
X30480000Y30480000D03*
D16*
X30480000Y33020000D03*
X34290000Y30480000D03*
D17*
X34290000Y33020000D03*
X36830000Y30480000D03*
X36830000Y33020000D03*
X39370000Y30480000D03*
X39370000Y33020000D03*
X30480000Y20320000D03*
X27940000Y20320000D03*
X30480000Y22860000D03*
X27940000Y22860000D03*
X30480000Y25400000D03*
D16*
X27940000Y25400000D03*
X22860000Y25400000D03*
D17*
X22860000Y22860000D03*
X20320000Y25400000D03*
X20320000Y22860000D03*
X17780000Y25400000D03*
X17780000Y22860000D03*
X39370000Y25400000D03*
X39370000Y22860000D03*
X36830000Y25400000D03*
X36830000Y22860000D03*
X34290000Y25400000D03*
D16*
X34290000Y22860000D03*
D17*
X44450000Y17780000D03*
X44450000Y15240000D03*
X41910000Y17780000D03*
X41910000Y15240000D03*
X39370000Y17780000D03*
X39370000Y15240000D03*
X36830000Y17780000D03*
D16*
X36830000Y15240000D03*
D18*
X10820400Y21971000D03*
X7820660Y26670000D03*
X13820140Y26670000D03*
D19*
X26670000Y16510000D03*
X24770000Y16510000D03*
D20*
X35052000Y6416000D03*
X35052000Y8316000D03*
D21*
X40093000Y4750000D03*
X41293000Y5550000D03*
X40093000Y6350000D03*
X41293000Y7150000D03*
X40093000Y7950000D03*
D22*
X40993000Y2650000D03*
X40993000Y10050000D03*
X45743000Y2650000D03*
X45743000Y10050000D03*
D19*
X20000000Y16510000D03*
X18100000Y16510000D03*
D23*
X18033960Y10160120D03*
X31749960Y10160120D03*
D24*
X21589960Y12827120D03*
X24129960Y12827120D03*
X26161960Y12827120D03*
X28701960Y12827120D03*
D25*
X5080000Y38100000D03*
D26*
X5080000Y43100000D03*
D27*
X44330620Y28000980D03*
X44330620Y27350740D03*
X44330620Y26700500D03*
X44330620Y26050260D03*
X44330620Y25400020D03*
D28*
X44691300Y24239240D03*
X44691300Y29161760D03*
D29*
X46990000Y23787120D03*
X46990000Y29613880D03*
D30*
X46990000Y27538700D03*
X46990000Y25862300D03*
D19*
X31750000Y16510000D03*
X29850000Y16510000D03*
M02*
