G04 #@! TF.GenerationSoftware,KiCad,Pcbnew,(2017-04-12 revision 02abf1804)-makepkg*
G04 #@! TF.CreationDate,2017-04-21T09:09:19+03:00*
G04 #@! TF.ProjectId,vbb,7662622E6B696361645F706362000000,rev?*
G04 #@! TF.FileFunction,Legend,Bot*
G04 #@! TF.FilePolarity,Positive*
%FSLAX46Y46*%
G04 Gerber Fmt 4.6, Leading zero omitted, Abs format (unit mm)*
G04 Created by KiCad (PCBNEW (2017-04-12 revision 02abf1804)-makepkg) date 04/21/17 09:09:19*
%MOMM*%
%LPD*%
G01*
G04 APERTURE LIST*
%ADD10C,0.100000*%
%ADD11C,0.300000*%
%ADD12C,0.200000*%
G04 APERTURE END LIST*
D10*
D11*
X3936857Y48248000D02*
X4079714Y48319429D01*
X4294000Y48319429D01*
X4508285Y48248000D01*
X4651142Y48105143D01*
X4722571Y47962286D01*
X4794000Y47676572D01*
X4794000Y47462286D01*
X4722571Y47176572D01*
X4651142Y47033715D01*
X4508285Y46890858D01*
X4294000Y46819429D01*
X4151142Y46819429D01*
X3936857Y46890858D01*
X3865428Y46962286D01*
X3865428Y47462286D01*
X4151142Y47462286D01*
X3222571Y46819429D02*
X3222571Y48319429D01*
X2365428Y46819429D01*
X2365428Y48319429D01*
X1651142Y46819429D02*
X1651142Y48319429D01*
X1294000Y48319429D01*
X1079714Y48248000D01*
X936857Y48105143D01*
X865428Y47962286D01*
X794000Y47676572D01*
X794000Y47462286D01*
X865428Y47176572D01*
X936857Y47033715D01*
X1079714Y46890858D01*
X1294000Y46819429D01*
X1651142Y46819429D01*
X45688000Y48319429D02*
X45188000Y46819429D01*
X44688000Y48319429D01*
X43330857Y46962286D02*
X43402285Y46890858D01*
X43616571Y46819429D01*
X43759428Y46819429D01*
X43973714Y46890858D01*
X44116571Y47033715D01*
X44188000Y47176572D01*
X44259428Y47462286D01*
X44259428Y47676572D01*
X44188000Y47962286D01*
X44116571Y48105143D01*
X43973714Y48248000D01*
X43759428Y48319429D01*
X43616571Y48319429D01*
X43402285Y48248000D01*
X43330857Y48176572D01*
X41830857Y46962286D02*
X41902285Y46890858D01*
X42116571Y46819429D01*
X42259428Y46819429D01*
X42473714Y46890858D01*
X42616571Y47033715D01*
X42688000Y47176572D01*
X42759428Y47462286D01*
X42759428Y47676572D01*
X42688000Y47962286D01*
X42616571Y48105143D01*
X42473714Y48248000D01*
X42259428Y48319429D01*
X42116571Y48319429D01*
X41902285Y48248000D01*
X41830857Y48176572D01*
D12*
X38100000Y29210000D02*
X38100000Y29210000D01*
X38100000Y34290000D02*
X38100000Y29210000D01*
X35560000Y29210000D02*
X35560000Y29210000D01*
X35560000Y34290000D02*
X35560000Y29210000D01*
X33020000Y34290000D02*
X33020000Y34290000D01*
X33020000Y29210000D02*
X33020000Y34290000D01*
X40640000Y29210000D02*
X33020000Y29210000D01*
X40640000Y34290000D02*
X40640000Y29210000D01*
X33020000Y34290000D02*
X40640000Y34290000D01*
X38100000Y21590000D02*
X38100000Y21590000D01*
X38100000Y26670000D02*
X38100000Y21590000D01*
X35560000Y21590000D02*
X35560000Y21590000D01*
X35560000Y26670000D02*
X35560000Y21590000D01*
X33020000Y26670000D02*
X33020000Y26670000D01*
X33020000Y21590000D02*
X33020000Y26670000D01*
X40640000Y21590000D02*
X33020000Y21590000D01*
X40640000Y26670000D02*
X40640000Y21590000D01*
X33020000Y26670000D02*
X40640000Y26670000D01*
X26670000Y21590000D02*
X26670000Y21590000D01*
X31750000Y21590000D02*
X26670000Y21590000D01*
X31750000Y24130000D02*
X31750000Y24130000D01*
X26670000Y24130000D02*
X31750000Y24130000D01*
X26670000Y26670000D02*
X26670000Y26670000D01*
X26670000Y19050000D02*
X26670000Y26670000D01*
X31750000Y19050000D02*
X26670000Y19050000D01*
X31750000Y26670000D02*
X31750000Y19050000D01*
X26670000Y26670000D02*
X31750000Y26670000D01*
X29210000Y29210000D02*
X29210000Y29210000D01*
X29210000Y34290000D02*
X29210000Y29210000D01*
X26670000Y34290000D02*
X29210000Y34290000D01*
X26670000Y34290000D02*
X26670000Y34290000D01*
X26670000Y29210000D02*
X26670000Y34290000D01*
X31750000Y29210000D02*
X26670000Y29210000D01*
X31750000Y34290000D02*
X31750000Y29210000D01*
X26670000Y34290000D02*
X31750000Y34290000D01*
X21590000Y29210000D02*
X21590000Y29210000D01*
X21590000Y34290000D02*
X21590000Y29210000D01*
X19050000Y34290000D02*
X19050000Y34290000D01*
X19050000Y29210000D02*
X19050000Y34290000D01*
X24130000Y29210000D02*
X19050000Y29210000D01*
X24130000Y34290000D02*
X24130000Y29210000D01*
X19050000Y34290000D02*
X24130000Y34290000D01*
X21590000Y21590000D02*
X21590000Y21590000D01*
X21590000Y26670000D02*
X21590000Y21590000D01*
X19050000Y21590000D02*
X19050000Y21590000D01*
X19050000Y26670000D02*
X19050000Y21590000D01*
X16510000Y26670000D02*
X16510000Y26670000D01*
X24130000Y26670000D02*
X16510000Y26670000D01*
X24130000Y21590000D02*
X24130000Y26670000D01*
X16510000Y21590000D02*
X24130000Y21590000D01*
X16510000Y26670000D02*
X16510000Y21590000D01*
X16510000Y26670000D02*
X16510000Y26670000D01*
D11*
X29668857Y5549286D02*
X29811714Y5620715D01*
X30097428Y5620715D01*
X30240285Y5549286D01*
X30383142Y5406429D01*
X30454571Y5263572D01*
X30454571Y4977858D01*
X30383142Y4835000D01*
X30240285Y4692143D01*
X30097428Y4620715D01*
X29811714Y4620715D01*
X29668857Y4692143D01*
X29954571Y6120715D02*
X30311714Y6049286D01*
X30668857Y5835000D01*
X30883142Y5477858D01*
X30954571Y5120715D01*
X30883142Y4763572D01*
X30668857Y4406429D01*
X30311714Y4192143D01*
X29954571Y4120715D01*
X29597428Y4192143D01*
X29240285Y4406429D01*
X29026000Y4763572D01*
X28954571Y5120715D01*
X29026000Y5477858D01*
X29240285Y5835000D01*
X29597428Y6049286D01*
X29954571Y6120715D01*
X27240285Y5763572D02*
X27168857Y5835000D01*
X27026000Y5906429D01*
X26668857Y5906429D01*
X26526000Y5835000D01*
X26454571Y5763572D01*
X26383142Y5620715D01*
X26383142Y5477858D01*
X26454571Y5263572D01*
X27311714Y4406429D01*
X26383142Y4406429D01*
X25454571Y5906429D02*
X25311714Y5906429D01*
X25168857Y5835000D01*
X25097428Y5763572D01*
X25026000Y5620715D01*
X24954571Y5335000D01*
X24954571Y4977858D01*
X25026000Y4692143D01*
X25097428Y4549286D01*
X25168857Y4477858D01*
X25311714Y4406429D01*
X25454571Y4406429D01*
X25597428Y4477858D01*
X25668857Y4549286D01*
X25740285Y4692143D01*
X25811714Y4977858D01*
X25811714Y5335000D01*
X25740285Y5620715D01*
X25668857Y5763572D01*
X25597428Y5835000D01*
X25454571Y5906429D01*
X23526000Y4406429D02*
X24383142Y4406429D01*
X23954571Y4406429D02*
X23954571Y5906429D01*
X24097428Y5692143D01*
X24240285Y5549286D01*
X24383142Y5477858D01*
X23026000Y5906429D02*
X22026000Y5906429D01*
X22668857Y4406429D01*
X20311714Y5906429D02*
X20311714Y4692143D01*
X20240285Y4549286D01*
X20168857Y4477858D01*
X20026000Y4406429D01*
X19740285Y4406429D01*
X19597428Y4477858D01*
X19526000Y4549286D01*
X19454571Y4692143D01*
X19454571Y5906429D01*
X18097428Y4406429D02*
X18097428Y5906429D01*
X18097428Y4477858D02*
X18240285Y4406429D01*
X18526000Y4406429D01*
X18668857Y4477858D01*
X18740285Y4549286D01*
X18811714Y4692143D01*
X18811714Y5120715D01*
X18740285Y5263572D01*
X18668857Y5335000D01*
X18526000Y5406429D01*
X18240285Y5406429D01*
X18097428Y5335000D01*
X17383142Y4406429D02*
X17383142Y5406429D01*
X17383142Y5906429D02*
X17454571Y5835000D01*
X17383142Y5763572D01*
X17311714Y5835000D01*
X17383142Y5906429D01*
X17383142Y5763572D01*
X15026000Y5192143D02*
X15526000Y5192143D01*
X15526000Y4406429D02*
X15526000Y5906429D01*
X14811714Y5906429D01*
X14240285Y4406429D02*
X14240285Y5406429D01*
X14240285Y5906429D02*
X14311714Y5835000D01*
X14240285Y5763572D01*
X14168857Y5835000D01*
X14240285Y5906429D01*
X14240285Y5763572D01*
X13526000Y5406429D02*
X13526000Y4406429D01*
X13526000Y5263572D02*
X13454571Y5335000D01*
X13311714Y5406429D01*
X13097428Y5406429D01*
X12954571Y5335000D01*
X12883142Y5192143D01*
X12883142Y4406429D01*
X12168857Y4406429D02*
X12168857Y5906429D01*
X12026000Y4977858D02*
X11597428Y4406429D01*
X11597428Y5406429D02*
X12168857Y4835000D01*
X10383142Y4477858D02*
X10526000Y4406429D01*
X10811714Y4406429D01*
X10954571Y4477858D01*
X11026000Y4620715D01*
X11026000Y5192143D01*
X10954571Y5335000D01*
X10811714Y5406429D01*
X10526000Y5406429D01*
X10383142Y5335000D01*
X10311714Y5192143D01*
X10311714Y5049286D01*
X11026000Y4906429D01*
X9454571Y4406429D02*
X9597428Y4477858D01*
X9668857Y4620715D01*
X9668857Y5906429D01*
X8954571Y4477858D02*
X8811714Y4406429D01*
X8526000Y4406429D01*
X8383142Y4477858D01*
X8311714Y4620715D01*
X8311714Y4692143D01*
X8383142Y4835000D01*
X8526000Y4906429D01*
X8740285Y4906429D01*
X8883142Y4977858D01*
X8954571Y5120715D01*
X8954571Y5192143D01*
X8883142Y5335000D01*
X8740285Y5406429D01*
X8526000Y5406429D01*
X8383142Y5335000D01*
X7883142Y5406429D02*
X7311714Y5406429D01*
X7668857Y5906429D02*
X7668857Y4620715D01*
X7597428Y4477858D01*
X7454571Y4406429D01*
X7311714Y4406429D01*
X6240285Y4477858D02*
X6383142Y4406429D01*
X6668857Y4406429D01*
X6811714Y4477858D01*
X6883142Y4620715D01*
X6883142Y5192143D01*
X6811714Y5335000D01*
X6668857Y5406429D01*
X6383142Y5406429D01*
X6240285Y5335000D01*
X6168857Y5192143D01*
X6168857Y5049286D01*
X6883142Y4906429D01*
X5526000Y4406429D02*
X5526000Y5406429D01*
X5526000Y5906429D02*
X5597428Y5835000D01*
X5526000Y5763572D01*
X5454571Y5835000D01*
X5526000Y5906429D01*
X5526000Y5763572D01*
X4811714Y5406429D02*
X4811714Y4406429D01*
X4811714Y5263572D02*
X4740285Y5335000D01*
X4597428Y5406429D01*
X4383142Y5406429D01*
X4240285Y5335000D01*
X4168857Y5192143D01*
X4168857Y4406429D01*
X33740285Y1856429D02*
X33740285Y3356429D01*
X33097428Y1856429D02*
X33097428Y2642143D01*
X33168857Y2785000D01*
X33311714Y2856429D01*
X33526000Y2856429D01*
X33668857Y2785000D01*
X33740285Y2713572D01*
X32597428Y2856429D02*
X32026000Y2856429D01*
X32383142Y3356429D02*
X32383142Y2070715D01*
X32311714Y1927858D01*
X32168857Y1856429D01*
X32026000Y1856429D01*
X31740285Y2856429D02*
X31168857Y2856429D01*
X31526000Y3356429D02*
X31526000Y2070715D01*
X31454571Y1927858D01*
X31311714Y1856429D01*
X31168857Y1856429D01*
X30668857Y2856429D02*
X30668857Y1356429D01*
X30668857Y2785000D02*
X30526000Y2856429D01*
X30240285Y2856429D01*
X30097428Y2785000D01*
X30026000Y2713572D01*
X29954571Y2570715D01*
X29954571Y2142143D01*
X30026000Y1999286D01*
X30097428Y1927858D01*
X30240285Y1856429D01*
X30526000Y1856429D01*
X30668857Y1927858D01*
X29383142Y1927858D02*
X29240285Y1856429D01*
X28954571Y1856429D01*
X28811714Y1927858D01*
X28740285Y2070715D01*
X28740285Y2142143D01*
X28811714Y2285000D01*
X28954571Y2356429D01*
X29168857Y2356429D01*
X29311714Y2427858D01*
X29383142Y2570715D01*
X29383142Y2642143D01*
X29311714Y2785000D01*
X29168857Y2856429D01*
X28954571Y2856429D01*
X28811714Y2785000D01*
X28097428Y1999286D02*
X28026000Y1927858D01*
X28097428Y1856429D01*
X28168857Y1927858D01*
X28097428Y1999286D01*
X28097428Y1856429D01*
X28097428Y2785000D02*
X28026000Y2713572D01*
X28097428Y2642143D01*
X28168857Y2713572D01*
X28097428Y2785000D01*
X28097428Y2642143D01*
X26311714Y3427858D02*
X27597428Y1499286D01*
X24740285Y3427858D02*
X26026000Y1499286D01*
X23597428Y2856429D02*
X23597428Y1642143D01*
X23668857Y1499286D01*
X23740285Y1427858D01*
X23883142Y1356429D01*
X24097428Y1356429D01*
X24240285Y1427858D01*
X23597428Y1927858D02*
X23740285Y1856429D01*
X24026000Y1856429D01*
X24168857Y1927858D01*
X24240285Y1999286D01*
X24311714Y2142143D01*
X24311714Y2570715D01*
X24240285Y2713572D01*
X24168857Y2785000D01*
X24026000Y2856429D01*
X23740285Y2856429D01*
X23597428Y2785000D01*
X22883142Y1856429D02*
X22883142Y2856429D01*
X22883142Y3356429D02*
X22954571Y3285000D01*
X22883142Y3213572D01*
X22811714Y3285000D01*
X22883142Y3356429D01*
X22883142Y3213572D01*
X22383142Y2856429D02*
X21811714Y2856429D01*
X22168857Y3356429D02*
X22168857Y2070715D01*
X22097428Y1927858D01*
X21954571Y1856429D01*
X21811714Y1856429D01*
X21311714Y1856429D02*
X21311714Y3356429D01*
X20668857Y1856429D02*
X20668857Y2642143D01*
X20740285Y2785000D01*
X20883142Y2856429D01*
X21097428Y2856429D01*
X21240285Y2785000D01*
X21311714Y2713572D01*
X19311714Y2856429D02*
X19311714Y1856429D01*
X19954571Y2856429D02*
X19954571Y2070715D01*
X19883142Y1927858D01*
X19740285Y1856429D01*
X19526000Y1856429D01*
X19383142Y1927858D01*
X19311714Y1999286D01*
X18597428Y1856429D02*
X18597428Y3356429D01*
X18597428Y2785000D02*
X18454571Y2856429D01*
X18168857Y2856429D01*
X18026000Y2785000D01*
X17954571Y2713572D01*
X17883142Y2570715D01*
X17883142Y2142143D01*
X17954571Y1999286D01*
X18026000Y1927858D01*
X18168857Y1856429D01*
X18454571Y1856429D01*
X18597428Y1927858D01*
X17240285Y1999286D02*
X17168857Y1927858D01*
X17240285Y1856429D01*
X17311714Y1927858D01*
X17240285Y1999286D01*
X17240285Y1856429D01*
X15883142Y1927858D02*
X16026000Y1856429D01*
X16311714Y1856429D01*
X16454571Y1927858D01*
X16526000Y1999286D01*
X16597428Y2142143D01*
X16597428Y2570715D01*
X16526000Y2713572D01*
X16454571Y2785000D01*
X16311714Y2856429D01*
X16026000Y2856429D01*
X15883142Y2785000D01*
X15026000Y1856429D02*
X15168857Y1927858D01*
X15240285Y1999286D01*
X15311714Y2142143D01*
X15311714Y2570715D01*
X15240285Y2713572D01*
X15168857Y2785000D01*
X15026000Y2856429D01*
X14811714Y2856429D01*
X14668857Y2785000D01*
X14597428Y2713572D01*
X14526000Y2570715D01*
X14526000Y2142143D01*
X14597428Y1999286D01*
X14668857Y1927858D01*
X14811714Y1856429D01*
X15026000Y1856429D01*
X13883142Y1856429D02*
X13883142Y2856429D01*
X13883142Y2713572D02*
X13811714Y2785000D01*
X13668857Y2856429D01*
X13454571Y2856429D01*
X13311714Y2785000D01*
X13240285Y2642143D01*
X13240285Y1856429D01*
X13240285Y2642143D02*
X13168857Y2785000D01*
X13026000Y2856429D01*
X12811714Y2856429D01*
X12668857Y2785000D01*
X12597428Y2642143D01*
X12597428Y1856429D01*
X10811714Y3427858D02*
X12097428Y1499286D01*
X9668857Y2856429D02*
X9668857Y1856429D01*
X10311714Y2856429D02*
X10311714Y2070715D01*
X10240285Y1927858D01*
X10097428Y1856429D01*
X9883142Y1856429D01*
X9740285Y1927858D01*
X9668857Y1999286D01*
X8311714Y1856429D02*
X8311714Y3356429D01*
X8311714Y1927858D02*
X8454571Y1856429D01*
X8740285Y1856429D01*
X8883142Y1927858D01*
X8954571Y1999286D01*
X9026000Y2142143D01*
X9026000Y2570715D01*
X8954571Y2713572D01*
X8883142Y2785000D01*
X8740285Y2856429D01*
X8454571Y2856429D01*
X8311714Y2785000D01*
X7597428Y1856429D02*
X7597428Y2856429D01*
X7597428Y3356429D02*
X7668857Y3285000D01*
X7597428Y3213572D01*
X7526000Y3285000D01*
X7597428Y3356429D01*
X7597428Y3213572D01*
X7097428Y2856429D02*
X6526000Y2856429D01*
X6883142Y1856429D02*
X6883142Y3142143D01*
X6811714Y3285000D01*
X6668857Y3356429D01*
X6526000Y3356429D01*
X4954571Y3427858D02*
X6240285Y1499286D01*
X4597428Y2856429D02*
X4240285Y1856429D01*
X3883142Y2856429D01*
X3311714Y1856429D02*
X3311714Y3356429D01*
X3311714Y2785000D02*
X3168857Y2856429D01*
X2883142Y2856429D01*
X2740285Y2785000D01*
X2668857Y2713572D01*
X2597428Y2570715D01*
X2597428Y2142143D01*
X2668857Y1999286D01*
X2740285Y1927858D01*
X2883142Y1856429D01*
X3168857Y1856429D01*
X3311714Y1927858D01*
X1954571Y1856429D02*
X1954571Y3356429D01*
X1954571Y2785000D02*
X1811714Y2856429D01*
X1526000Y2856429D01*
X1383142Y2785000D01*
X1311714Y2713572D01*
X1240285Y2570715D01*
X1240285Y2142143D01*
X1311714Y1999286D01*
X1383142Y1927858D01*
X1526000Y1856429D01*
X1811714Y1856429D01*
X1954571Y1927858D01*
X3869428Y13824572D02*
X2369428Y14324572D01*
X3869428Y14824572D01*
X2512285Y16181715D02*
X2440857Y16110286D01*
X2369428Y15896000D01*
X2369428Y15753143D01*
X2440857Y15538858D01*
X2583714Y15396000D01*
X2726571Y15324572D01*
X3012285Y15253143D01*
X3226571Y15253143D01*
X3512285Y15324572D01*
X3655142Y15396000D01*
X3798000Y15538858D01*
X3869428Y15753143D01*
X3869428Y15896000D01*
X3798000Y16110286D01*
X3726571Y16181715D01*
X2512285Y17681715D02*
X2440857Y17610286D01*
X2369428Y17396000D01*
X2369428Y17253143D01*
X2440857Y17038858D01*
X2583714Y16896000D01*
X2726571Y16824572D01*
X3012285Y16753143D01*
X3226571Y16753143D01*
X3512285Y16824572D01*
X3655142Y16896000D01*
X3798000Y17038858D01*
X3869428Y17253143D01*
X3869428Y17396000D01*
X3798000Y17610286D01*
X3726571Y17681715D01*
X3155142Y19967429D02*
X3083714Y20181715D01*
X3012285Y20253143D01*
X2869428Y20324572D01*
X2655142Y20324572D01*
X2512285Y20253143D01*
X2440857Y20181715D01*
X2369428Y20038858D01*
X2369428Y19467429D01*
X3869428Y19467429D01*
X3869428Y19967429D01*
X3798000Y20110286D01*
X3726571Y20181715D01*
X3583714Y20253143D01*
X3440857Y20253143D01*
X3298000Y20181715D01*
X3226571Y20110286D01*
X3155142Y19967429D01*
X3155142Y19467429D01*
X2369428Y20967429D02*
X3369428Y20967429D01*
X3083714Y20967429D02*
X3226571Y21038858D01*
X3298000Y21110286D01*
X3369428Y21253143D01*
X3369428Y21396000D01*
X2440857Y22467429D02*
X2369428Y22324572D01*
X2369428Y22038858D01*
X2440857Y21896000D01*
X2583714Y21824572D01*
X3155142Y21824572D01*
X3298000Y21896000D01*
X3369428Y22038858D01*
X3369428Y22324572D01*
X3298000Y22467429D01*
X3155142Y22538858D01*
X3012285Y22538858D01*
X2869428Y21824572D01*
X2369428Y23824572D02*
X3155142Y23824572D01*
X3298000Y23753143D01*
X3369428Y23610286D01*
X3369428Y23324572D01*
X3298000Y23181715D01*
X2440857Y23824572D02*
X2369428Y23681715D01*
X2369428Y23324572D01*
X2440857Y23181715D01*
X2583714Y23110286D01*
X2726571Y23110286D01*
X2869428Y23181715D01*
X2940857Y23324572D01*
X2940857Y23681715D01*
X3012285Y23824572D01*
X2369428Y24538858D02*
X3869428Y24538858D01*
X2940857Y24681715D02*
X2369428Y25110286D01*
X3369428Y25110286D02*
X2798000Y24538858D01*
X2369428Y25967429D02*
X2440857Y25824572D01*
X2512285Y25753143D01*
X2655142Y25681715D01*
X3083714Y25681715D01*
X3226571Y25753143D01*
X3298000Y25824572D01*
X3369428Y25967429D01*
X3369428Y26181715D01*
X3298000Y26324572D01*
X3226571Y26396000D01*
X3083714Y26467429D01*
X2655142Y26467429D01*
X2512285Y26396000D01*
X2440857Y26324572D01*
X2369428Y26181715D01*
X2369428Y25967429D01*
X3369428Y27753143D02*
X2369428Y27753143D01*
X3369428Y27110286D02*
X2583714Y27110286D01*
X2440857Y27181715D01*
X2369428Y27324572D01*
X2369428Y27538858D01*
X2440857Y27681715D01*
X2512285Y27753143D01*
X3369428Y28253143D02*
X3369428Y28824572D01*
X3869428Y28467429D02*
X2583714Y28467429D01*
X2440857Y28538858D01*
X2369428Y28681715D01*
X2369428Y28824572D01*
X3155142Y30967429D02*
X3083714Y31181715D01*
X3012285Y31253143D01*
X2869428Y31324572D01*
X2655142Y31324572D01*
X2512285Y31253143D01*
X2440857Y31181715D01*
X2369428Y31038858D01*
X2369428Y30467429D01*
X3869428Y30467429D01*
X3869428Y30967429D01*
X3798000Y31110286D01*
X3726571Y31181715D01*
X3583714Y31253143D01*
X3440857Y31253143D01*
X3298000Y31181715D01*
X3226571Y31110286D01*
X3155142Y30967429D01*
X3155142Y30467429D01*
X2369428Y32181715D02*
X2440857Y32038858D01*
X2512285Y31967429D01*
X2655142Y31896000D01*
X3083714Y31896000D01*
X3226571Y31967429D01*
X3298000Y32038858D01*
X3369428Y32181715D01*
X3369428Y32396000D01*
X3298000Y32538858D01*
X3226571Y32610286D01*
X3083714Y32681715D01*
X2655142Y32681715D01*
X2512285Y32610286D01*
X2440857Y32538858D01*
X2369428Y32396000D01*
X2369428Y32181715D01*
X2369428Y33967429D02*
X3155142Y33967429D01*
X3298000Y33896000D01*
X3369428Y33753143D01*
X3369428Y33467429D01*
X3298000Y33324572D01*
X2440857Y33967429D02*
X2369428Y33824572D01*
X2369428Y33467429D01*
X2440857Y33324572D01*
X2583714Y33253143D01*
X2726571Y33253143D01*
X2869428Y33324572D01*
X2940857Y33467429D01*
X2940857Y33824572D01*
X3012285Y33967429D01*
X2369428Y34681715D02*
X3369428Y34681715D01*
X3083714Y34681715D02*
X3226571Y34753143D01*
X3298000Y34824572D01*
X3369428Y34967429D01*
X3369428Y35110286D01*
X2369428Y36253143D02*
X3869428Y36253143D01*
X2440857Y36253143D02*
X2369428Y36110286D01*
X2369428Y35824572D01*
X2440857Y35681715D01*
X2512285Y35610286D01*
X2655142Y35538858D01*
X3083714Y35538858D01*
X3226571Y35610286D01*
X3298000Y35681715D01*
X3369428Y35824572D01*
X3369428Y36110286D01*
X3298000Y36253143D01*
M02*
