G04 #@! TF.GenerationSoftware,KiCad,Pcbnew,(2017-04-12 revision 02abf1804)-makepkg*
G04 #@! TF.CreationDate,2017-04-21T09:09:19+03:00*
G04 #@! TF.ProjectId,vbb,7662622E6B696361645F706362000000,rev?*
G04 #@! TF.FileFunction,Soldermask,Top*
G04 #@! TF.FilePolarity,Negative*
%FSLAX46Y46*%
G04 Gerber Fmt 4.6, Leading zero omitted, Abs format (unit mm)*
G04 Created by KiCad (PCBNEW (2017-04-12 revision 02abf1804)-makepkg) date 04/21/17 09:09:19*
%MOMM*%
%LPD*%
G01*
G04 APERTURE LIST*
%ADD10C,0.100000*%
%ADD11C,2.700020*%
%ADD12C,1.524000*%
%ADD13R,1.700000X1.700000*%
%ADD14O,1.700000X1.700000*%
%ADD15R,3.500120X3.500120*%
%ADD16C,10.160000*%
%ADD17R,0.700000X1.300000*%
%ADD18R,1.300000X0.700000*%
%ADD19C,1.195000*%
%ADD20C,2.800000*%
%ADD21C,2.999740*%
%ADD22C,1.501140*%
%ADD23C,2.500000*%
%ADD24R,2.500000X2.500000*%
%ADD25R,1.379220X0.449580*%
%ADD26R,2.100580X1.473200*%
%ADD27R,1.897380X2.374900*%
%ADD28R,1.897380X1.173480*%
G04 APERTURE END LIST*
D10*
D11*
X14538980Y10160000D03*
X2540020Y10160000D03*
D12*
X7269500Y12860020D03*
X9809500Y12860020D03*
X9809500Y14859000D03*
X7269500Y14859000D03*
D13*
X22860000Y33020000D03*
D14*
X22860000Y30480000D03*
X20320000Y33020000D03*
X20320000Y30480000D03*
X27940000Y30480000D03*
X27940000Y33020000D03*
X30480000Y30480000D03*
D13*
X30480000Y33020000D03*
X34290000Y30480000D03*
D14*
X34290000Y33020000D03*
X36830000Y30480000D03*
X36830000Y33020000D03*
X39370000Y30480000D03*
X39370000Y33020000D03*
X30480000Y20320000D03*
X27940000Y20320000D03*
X30480000Y22860000D03*
X27940000Y22860000D03*
X30480000Y25400000D03*
D13*
X27940000Y25400000D03*
X22860000Y25400000D03*
D14*
X22860000Y22860000D03*
X20320000Y25400000D03*
X20320000Y22860000D03*
X17780000Y25400000D03*
X17780000Y22860000D03*
X39370000Y25400000D03*
X39370000Y22860000D03*
X36830000Y25400000D03*
X36830000Y22860000D03*
X34290000Y25400000D03*
D13*
X34290000Y22860000D03*
D14*
X44450000Y17780000D03*
X44450000Y15240000D03*
X41910000Y17780000D03*
X41910000Y15240000D03*
X39370000Y17780000D03*
X39370000Y15240000D03*
X36830000Y17780000D03*
D13*
X36830000Y15240000D03*
D15*
X10820400Y21971000D03*
X7820660Y26670000D03*
X13820140Y26670000D03*
D16*
X7937800Y42196000D03*
X37909800Y42196000D03*
D17*
X26670000Y16510000D03*
X24770000Y16510000D03*
D18*
X45720000Y10480000D03*
X45720000Y12380000D03*
D19*
X37770000Y9945000D03*
X38570000Y8745000D03*
X39370000Y9945000D03*
X40170000Y8745000D03*
X40970000Y9945000D03*
D20*
X35670000Y9045000D03*
X43070000Y9045000D03*
X35670000Y4295000D03*
X43070000Y4295000D03*
D17*
X20000000Y16510000D03*
X18100000Y16510000D03*
D21*
X18033960Y10160120D03*
X31749960Y10160120D03*
D22*
X21589960Y12827120D03*
X24129960Y12827120D03*
X26161960Y12827120D03*
X28701960Y12827120D03*
D23*
X21670000Y43180000D03*
D24*
X26670000Y43180000D03*
D25*
X44330620Y28000980D03*
X44330620Y27350740D03*
X44330620Y26700500D03*
X44330620Y26050260D03*
X44330620Y25400020D03*
D26*
X44691300Y24239240D03*
X44691300Y29161760D03*
D27*
X46990000Y23787120D03*
X46990000Y29613880D03*
D28*
X46990000Y27538700D03*
X46990000Y25862300D03*
D17*
X31750000Y16510000D03*
X29850000Y16510000D03*
M02*
