M48
;DRILL file {KiCad (2017-04-12 revision 02abf1804)-makepkg} date 04/21/17 09:09:13
;FORMAT={2:4/ absolute / inch / suppress leading zeros}
FMAT,2
INCH,TZ
T1C0.016
T2C0.031
T3C0.032
T4C0.039
T5C0.039
T6C0.051
T7C0.079
T8C0.091
T9C0.240
%
G90
G05
M72
T1
X13726Y7691
X16905Y11227
X16939Y10784
T2
X14870Y3915
X15185Y3443
X15500Y3915
X15815Y3443
X16130Y3915
T3
X2862Y5850
X2862Y5063
X3862Y5850
X3862Y5063
T4
X7000Y10000
X7000Y9000
X8000Y13000
X8000Y12000
X8000Y10000
X8000Y9000
X9000Y13000
X9000Y12000
X9000Y10000
X9000Y9000
X11000Y13000
X11000Y12000
X11000Y10000
X11000Y9000
X11000Y8000
X12000Y13000
X12000Y12000
X12000Y10000
X12000Y9000
X12000Y8000
X13500Y13000
X13500Y12000
X13500Y10000
X13500Y9000
X14500Y13000
X14500Y12000
X14500Y10000
X14500Y9000
X14500Y7000
X14500Y6000
X15500Y13000
X15500Y12000
X15500Y10000
X15500Y9000
X15500Y7000
X15500Y6000
X16500Y7000
X16500Y6000
X17500Y7000
X17500Y6000
T5
X8500Y5050
X9500Y5050
X10300Y5050
X11300Y5050
T6
X8531Y17000
X10500Y17000
T7
X14043Y3561
X14043Y1691
X16957Y3561
X16957Y1691
T8
X1000Y4000
X5724Y4000
X7100Y4000
X12500Y4000
T9
X3125Y16613
X14925Y16613
T5
X3079Y10894G85X3079Y10107
G05
X3867Y8650G85X4654Y8650
G05
X5441Y10894G85X5441Y10107
G05
T0
M30
