G04 #@! TF.GenerationSoftware,KiCad,Pcbnew,(2017-04-12 revision 02abf1804)-makepkg*
G04 #@! TF.CreationDate,2017-04-21T09:09:19+03:00*
G04 #@! TF.ProjectId,vbb,7662622E6B696361645F706362000000,rev?*
G04 #@! TF.FileFunction,Copper,L1,Top,Signal*
G04 #@! TF.FilePolarity,Positive*
%FSLAX46Y46*%
G04 Gerber Fmt 4.6, Leading zero omitted, Abs format (unit mm)*
G04 Created by KiCad (PCBNEW (2017-04-12 revision 02abf1804)-makepkg) date 04/21/17 09:09:19*
%MOMM*%
%LPD*%
G01*
G04 APERTURE LIST*
%ADD10C,0.100000*%
%ADD11C,2.700020*%
%ADD12C,1.524000*%
%ADD13R,1.700000X1.700000*%
%ADD14O,1.700000X1.700000*%
%ADD15R,3.500120X3.500120*%
%ADD16C,10.160000*%
%ADD17R,0.700000X1.300000*%
%ADD18R,1.300000X0.700000*%
%ADD19C,1.195000*%
%ADD20C,2.800000*%
%ADD21C,2.999740*%
%ADD22C,1.501140*%
%ADD23C,2.500000*%
%ADD24R,2.500000X2.500000*%
%ADD25R,1.379220X0.449580*%
%ADD26R,2.100580X1.473200*%
%ADD27R,1.897380X2.374900*%
%ADD28R,1.897380X1.173480*%
%ADD29C,0.800000*%
%ADD30C,0.500000*%
%ADD31C,0.400000*%
%ADD32C,0.250000*%
%ADD33C,0.254000*%
G04 APERTURE END LIST*
D10*
D11*
X14538980Y10160000D03*
X2540020Y10160000D03*
D12*
X7269500Y12860020D03*
X9809500Y12860020D03*
X9809500Y14859000D03*
X7269500Y14859000D03*
D13*
X22860000Y33020000D03*
D14*
X22860000Y30480000D03*
X20320000Y33020000D03*
X20320000Y30480000D03*
X27940000Y30480000D03*
X27940000Y33020000D03*
X30480000Y30480000D03*
D13*
X30480000Y33020000D03*
X34290000Y30480000D03*
D14*
X34290000Y33020000D03*
X36830000Y30480000D03*
X36830000Y33020000D03*
X39370000Y30480000D03*
X39370000Y33020000D03*
X30480000Y20320000D03*
X27940000Y20320000D03*
X30480000Y22860000D03*
X27940000Y22860000D03*
X30480000Y25400000D03*
D13*
X27940000Y25400000D03*
X22860000Y25400000D03*
D14*
X22860000Y22860000D03*
X20320000Y25400000D03*
X20320000Y22860000D03*
X17780000Y25400000D03*
X17780000Y22860000D03*
X39370000Y25400000D03*
X39370000Y22860000D03*
X36830000Y25400000D03*
X36830000Y22860000D03*
X34290000Y25400000D03*
D13*
X34290000Y22860000D03*
D14*
X44450000Y17780000D03*
X44450000Y15240000D03*
X41910000Y17780000D03*
X41910000Y15240000D03*
X39370000Y17780000D03*
X39370000Y15240000D03*
X36830000Y17780000D03*
D13*
X36830000Y15240000D03*
D15*
X10820400Y21971000D03*
X7820660Y26670000D03*
X13820140Y26670000D03*
D16*
X7937800Y42196000D03*
X37909800Y42196000D03*
D17*
X26670000Y16510000D03*
X24770000Y16510000D03*
D18*
X45720000Y10480000D03*
X45720000Y12380000D03*
D19*
X37770000Y9945000D03*
X38570000Y8745000D03*
X39370000Y9945000D03*
X40170000Y8745000D03*
X40970000Y9945000D03*
D20*
X35670000Y9045000D03*
X43070000Y9045000D03*
X35670000Y4295000D03*
X43070000Y4295000D03*
D17*
X20000000Y16510000D03*
X18100000Y16510000D03*
D21*
X18033960Y10160120D03*
X31749960Y10160120D03*
D22*
X21589960Y12827120D03*
X24129960Y12827120D03*
X26161960Y12827120D03*
X28701960Y12827120D03*
D23*
X21670000Y43180000D03*
D24*
X26670000Y43180000D03*
D25*
X44330620Y28000980D03*
X44330620Y27350740D03*
X44330620Y26700500D03*
X44330620Y26050260D03*
X44330620Y25400020D03*
D26*
X44691300Y24239240D03*
X44691300Y29161760D03*
D27*
X46990000Y23787120D03*
X46990000Y29613880D03*
D28*
X46990000Y27538700D03*
X46990000Y25862300D03*
D17*
X31750000Y16510000D03*
X29850000Y16510000D03*
D29*
X43026200Y27390200D03*
X34864100Y19534200D03*
X42938300Y28516600D03*
D30*
X8541000Y14331400D02*
X9809500Y12860000D01*
X8539500Y14335100D02*
X8541000Y14331400D01*
X8539500Y15382900D02*
X8539500Y14335100D01*
X9320300Y20117300D02*
X8539500Y15382900D01*
X9320300Y20220900D02*
X9320300Y20117300D01*
X9320300Y20470900D02*
X9320300Y20220900D01*
X10820400Y21971000D02*
X9320300Y20470900D01*
X29396400Y16110000D02*
X28491500Y15412900D01*
X29500000Y16110000D02*
X29396400Y16110000D01*
X29750000Y16110000D02*
X29500000Y16110000D01*
X29850000Y16510000D02*
X29750000Y16110000D01*
X28702000Y12827100D02*
X28491500Y15412900D01*
X29950000Y16910000D02*
X29850000Y16510000D01*
X30200000Y16910000D02*
X29950000Y16910000D01*
X30303600Y16910000D02*
X30200000Y16910000D01*
X31172100Y17710100D02*
X30303600Y16910000D01*
X31627900Y17710100D02*
X31172100Y17710100D01*
X32327900Y17710100D02*
X31627900Y17710100D01*
X35876400Y15840000D02*
X32327900Y17710100D01*
X35980000Y15840000D02*
X35876400Y15840000D01*
X36230000Y15840000D02*
X35980000Y15840000D01*
X36830000Y15240000D02*
X36230000Y15840000D01*
X20100000Y16110000D02*
X20000000Y16510000D01*
X20100000Y15860000D02*
X20100000Y16110000D01*
X20100000Y15756400D02*
X20100000Y15860000D01*
X20246400Y15610000D02*
X20100000Y15756400D01*
X24192100Y15309900D02*
X20246400Y15610000D01*
X24892100Y15309900D02*
X24192100Y15309900D01*
X25347900Y15309900D02*
X24892100Y15309900D01*
X26216400Y16110000D02*
X25347900Y15309900D01*
X26320000Y16110000D02*
X26216400Y16110000D01*
X26570000Y16110000D02*
X26320000Y16110000D01*
X26670000Y16510000D02*
X26570000Y16110000D01*
X45320000Y12833600D02*
X44450000Y15240000D01*
X45320000Y12730000D02*
X45320000Y12833600D01*
X45320000Y12480000D02*
X45320000Y12730000D01*
X45720000Y12380000D02*
X45320000Y12480000D01*
D31*
X43475000Y27375500D02*
X43026200Y27390200D01*
X43641000Y27375500D02*
X43475000Y27375500D01*
X43841000Y27375500D02*
X43641000Y27375500D01*
X44330600Y27350700D02*
X43841000Y27375500D01*
D30*
X22258700Y29101200D02*
X20320000Y30480000D01*
X22310200Y29079900D02*
X22258700Y29101200D01*
X23409800Y29079900D02*
X22310200Y29079900D01*
X27940000Y30480000D02*
X23409800Y29079900D01*
X12320500Y20470900D02*
X10820400Y21971000D01*
X12570500Y20470900D02*
X12320500Y20470900D01*
X12674100Y20470900D02*
X12570500Y20470900D01*
X18677900Y17710100D02*
X12674100Y20470900D01*
X19546400Y16910000D02*
X18677900Y17710100D01*
X19650000Y16910000D02*
X19546400Y16910000D01*
X19900000Y16910000D02*
X19650000Y16910000D01*
X20000000Y16510000D02*
X19900000Y16910000D01*
X12320500Y23471100D02*
X10820400Y21971000D01*
X12570500Y23471100D02*
X12320500Y23471100D01*
X12674100Y23471100D02*
X12570500Y23471100D01*
X15798100Y24369800D02*
X12674100Y23471100D01*
X16120300Y24692000D02*
X15798100Y24369800D01*
X16379900Y25949800D02*
X16120300Y24692000D01*
X16401200Y26001300D02*
X16379900Y25949800D01*
X20320000Y30480000D02*
X16401200Y26001300D01*
X27123600Y16110000D02*
X28491500Y15412900D01*
X27020000Y16110000D02*
X27123600Y16110000D01*
X26770000Y16110000D02*
X27020000Y16110000D01*
X26670000Y16510000D02*
X26770000Y16110000D01*
X35601300Y23901100D02*
X34290000Y25400000D01*
X35601300Y23518900D02*
X35601300Y23901100D01*
D31*
X35560100Y23383900D02*
X35610000Y22019200D01*
X35601300Y23518900D02*
X35560100Y23383900D01*
D30*
X36454300Y20121800D02*
X35610000Y22019200D01*
X36830000Y17780000D02*
X36454300Y20121800D01*
D32*
X17875000Y15808200D02*
X14539000Y10160000D01*
X17875000Y15860000D02*
X17875000Y15808200D01*
X17875000Y15985000D02*
X17875000Y15860000D01*
X18100000Y16510000D02*
X17875000Y15985000D01*
X43506600Y28100800D02*
X42938300Y28516600D01*
X43641000Y28100800D02*
X43506600Y28100800D01*
X43766000Y28100800D02*
X43641000Y28100800D01*
X44330600Y28001000D02*
X43766000Y28100800D01*
X24995000Y17035000D02*
X24770000Y16510000D01*
X24995000Y17160000D02*
X24995000Y17035000D01*
X24995000Y17211800D02*
X24995000Y17160000D01*
X25068200Y17285000D02*
X24995000Y17211800D01*
X26143900Y17585100D02*
X25068200Y17285000D01*
X34864100Y19534200D02*
X26143900Y17585100D01*
X31750000Y15985000D02*
X31750000Y16510000D01*
X31750000Y15860000D02*
X31750000Y15985000D01*
X31750000Y10160100D02*
X31750000Y15860000D01*
X40640000Y18303900D02*
X39370000Y22860000D01*
X40640000Y15763900D02*
X40640000Y18303900D01*
X40640000Y14716100D02*
X40640000Y15763900D01*
X39370000Y9945000D02*
X40640000Y14716100D01*
X45195000Y10255000D02*
X45720000Y10480000D01*
X45070000Y10255000D02*
X45195000Y10255000D01*
X45018200Y10255000D02*
X45070000Y10255000D01*
X43070000Y9045000D02*
X45018200Y10255000D01*
X35670000Y9045000D02*
X35670000Y4295000D01*
X40615100Y30995700D02*
X39370000Y33020000D01*
X42236700Y27063200D02*
X40615100Y30995700D01*
X42699200Y26600700D02*
X42236700Y27063200D01*
X43641000Y26600700D02*
X42699200Y26600700D01*
X43766000Y26600700D02*
X43641000Y26600700D01*
X44330600Y26700500D02*
X43766000Y26600700D01*
X38075100Y30995700D02*
X36830000Y33020000D01*
X38124900Y29964300D02*
X38075100Y30995700D01*
X38854300Y29234900D02*
X38124900Y29964300D01*
X42456000Y26058000D02*
X38854300Y29234900D01*
X42487300Y26045000D02*
X42456000Y26058000D01*
X43641000Y26045000D02*
X42487300Y26045000D01*
X43766000Y26045000D02*
X43641000Y26045000D01*
X44330600Y26050300D02*
X43766000Y26045000D01*
X28455700Y21565100D02*
X30480000Y20320000D01*
X22335100Y21584900D02*
X28455700Y21565100D01*
X22329500Y21587200D02*
X22335100Y21584900D01*
X21587200Y22329500D02*
X22329500Y21587200D01*
X21584900Y22335100D02*
X21587200Y22329500D01*
X21565100Y23375700D02*
X21584900Y22335100D01*
X20835700Y24105100D02*
X21565100Y23375700D01*
X19804300Y24154900D02*
X20835700Y24105100D01*
X17780000Y25400000D02*
X19804300Y24154900D01*
X28455700Y24105100D02*
X30480000Y22860000D01*
X23533900Y24124900D02*
X28455700Y24105100D01*
X23383900Y24130000D02*
X23533900Y24124900D01*
X22336100Y24130000D02*
X23383900Y24130000D01*
X22186100Y24124900D02*
X22336100Y24130000D01*
X21833900Y24124900D02*
X22186100Y24124900D01*
X20320000Y25400000D02*
X21833900Y24124900D01*
D30*
X21670000Y43180000D02*
X20320000Y33020000D01*
X23387900Y44007900D02*
X27940000Y33020000D01*
X22497900Y44897900D02*
X23387900Y44007900D01*
X22299300Y44980100D02*
X22497900Y44897900D01*
X21040700Y44980100D02*
X22299300Y44980100D01*
X7937800Y42196000D02*
X21040700Y44980100D01*
D31*
X43475600Y25375200D02*
X43181100Y25364300D01*
X43641000Y25375200D02*
X43475600Y25375200D01*
X43841000Y25375200D02*
X43641000Y25375200D01*
X44330600Y25400000D02*
X43841000Y25375200D01*
D30*
X32889900Y31557900D02*
X34290000Y33020000D01*
X32889900Y29857900D02*
X32889900Y31557900D01*
X32889900Y29402100D02*
X32889900Y29857900D01*
X33212100Y29079900D02*
X32889900Y29402100D01*
X39919800Y26800100D02*
X33212100Y29079900D01*
X39971300Y26778800D02*
X39919800Y26800100D01*
X42073600Y25485600D02*
X39971300Y26778800D01*
X42353100Y25369900D02*
X42073600Y25485600D01*
X43181100Y25364300D02*
X42353100Y25369900D01*
D31*
X34940000Y22210000D02*
X34290000Y22860000D01*
X34940000Y22010000D02*
X34940000Y22210000D01*
X34940000Y21927200D02*
X34940000Y22010000D01*
X35734200Y19894600D02*
X34940000Y21927200D01*
X35734200Y19173800D02*
X35734200Y19894600D01*
X35560000Y18303900D02*
X35734200Y19173800D01*
X35560000Y17256100D02*
X35560000Y18303900D01*
X35561500Y17252400D02*
X35560000Y17256100D01*
X36302400Y16511500D02*
X35561500Y17252400D01*
X36306100Y16510000D02*
X36302400Y16511500D01*
X37353900Y16510000D02*
X36306100Y16510000D01*
X37485300Y16560100D02*
X37353900Y16510000D01*
X37874700Y16560100D02*
X37485300Y16560100D01*
X38150100Y16284700D02*
X37874700Y16560100D01*
X38150100Y15895300D02*
X38150100Y16284700D01*
X38100000Y15763900D02*
X38150100Y15895300D01*
X38100000Y14716100D02*
X38100000Y15763900D01*
X38150100Y14584700D02*
X38100000Y14716100D01*
X38150100Y14195300D02*
X38150100Y14584700D01*
X37770000Y9945000D02*
X38150100Y14195300D01*
D33*
G36*
X48845000Y685000D02*
X685000Y685000D01*
X685000Y9451457D01*
X856229Y9037051D01*
X1414134Y8478171D01*
X2143445Y8175335D01*
X2933131Y8174646D01*
X3662969Y8476209D01*
X4221849Y9034114D01*
X4524685Y9763425D01*
X4525374Y10553111D01*
X4223811Y11282949D01*
X3665906Y11841829D01*
X2936595Y12144665D01*
X2146909Y12145354D01*
X1417071Y11843791D01*
X858191Y11285886D01*
X685000Y10868795D01*
X685000Y41064204D01*
X2221811Y41064204D01*
X3090034Y38962942D01*
X4696286Y37353884D01*
X6796029Y36481995D01*
X9069596Y36480011D01*
X11170858Y37348234D01*
X12779916Y38954486D01*
X13651805Y41054229D01*
X13653072Y42505622D01*
X19900097Y43832988D01*
X19785328Y43556595D01*
X19784674Y42806695D01*
X20071043Y42113628D01*
X20569219Y41614583D01*
X19599908Y34319620D01*
X19269946Y34099147D01*
X18948039Y33617378D01*
X18835000Y33049093D01*
X18835000Y32990907D01*
X18948039Y32422622D01*
X19269946Y31940853D01*
X19555578Y31750000D01*
X19269946Y31559147D01*
X18948039Y31077378D01*
X18835000Y30509093D01*
X18835000Y30450907D01*
X18887528Y30186829D01*
X16205200Y27121262D01*
X16205200Y28546370D01*
X16108527Y28779759D01*
X15929898Y28958387D01*
X15696509Y29055060D01*
X14105890Y29055060D01*
X13947140Y28896310D01*
X13947140Y26797000D01*
X13967140Y26797000D01*
X13967140Y26543000D01*
X13947140Y26543000D01*
X13947140Y26523000D01*
X13693140Y26523000D01*
X13693140Y26543000D01*
X11593830Y26543000D01*
X11435080Y26384250D01*
X11435080Y24793630D01*
X11531753Y24560241D01*
X11710382Y24381613D01*
X11742040Y24368500D01*
X9888401Y24368500D01*
X10028529Y24462131D01*
X10168877Y24672175D01*
X10218160Y24919940D01*
X10218160Y28420060D01*
X10193036Y28546370D01*
X11435080Y28546370D01*
X11435080Y26955750D01*
X11593830Y26797000D01*
X13693140Y26797000D01*
X13693140Y28896310D01*
X13534390Y29055060D01*
X11943771Y29055060D01*
X11710382Y28958387D01*
X11531753Y28779759D01*
X11435080Y28546370D01*
X10193036Y28546370D01*
X10168877Y28667825D01*
X10028529Y28877869D01*
X9818485Y29018217D01*
X9570720Y29067500D01*
X6070600Y29067500D01*
X5822835Y29018217D01*
X5612791Y28877869D01*
X5472443Y28667825D01*
X5423160Y28420060D01*
X5423160Y24919940D01*
X5472443Y24672175D01*
X5612791Y24462131D01*
X5822835Y24321783D01*
X6070600Y24272500D01*
X8752659Y24272500D01*
X8612531Y24178869D01*
X8472183Y23968825D01*
X8422900Y23721060D01*
X8422900Y20220940D01*
X8432488Y20172738D01*
X7771250Y16163305D01*
X7548600Y16255757D01*
X6992839Y16256242D01*
X6479197Y16044010D01*
X6085871Y15651370D01*
X5872743Y15138100D01*
X5872258Y14582339D01*
X6084490Y14068697D01*
X6293332Y13859490D01*
X6085871Y13652390D01*
X5872743Y13139120D01*
X5872258Y12583359D01*
X6084490Y12069717D01*
X6477130Y11676391D01*
X6990400Y11463263D01*
X7546161Y11462778D01*
X8059803Y11675010D01*
X8453129Y12067650D01*
X8539449Y12275532D01*
X8624490Y12069717D01*
X9017130Y11676391D01*
X9530400Y11463263D01*
X10086161Y11462778D01*
X10599803Y11675010D01*
X10993129Y12067650D01*
X11206257Y12580920D01*
X11206742Y13136681D01*
X10994510Y13650323D01*
X10785668Y13859530D01*
X10993129Y14066630D01*
X11206257Y14579900D01*
X11206742Y15135661D01*
X10994510Y15649303D01*
X10601870Y16042629D01*
X10088600Y16255757D01*
X9580480Y16256200D01*
X10127571Y19573500D01*
X12507336Y19573500D01*
X17167175Y17430710D01*
X17151843Y17407765D01*
X17102560Y17160000D01*
X17102560Y15994818D01*
X14828597Y12144758D01*
X14145869Y12145354D01*
X13416031Y11843791D01*
X12857151Y11285886D01*
X12554315Y10556575D01*
X12553626Y9766889D01*
X12855189Y9037051D01*
X13413094Y8478171D01*
X14142405Y8175335D01*
X14932091Y8174646D01*
X15661929Y8476209D01*
X16198490Y9011834D01*
X16223050Y8952393D01*
X16823074Y8351320D01*
X17607445Y8025621D01*
X18456749Y8024880D01*
X19241687Y8349210D01*
X19842760Y8949234D01*
X20168459Y9733605D01*
X20169200Y10582909D01*
X19844870Y11367847D01*
X19244846Y11968920D01*
X18460475Y12294619D01*
X17611171Y12295360D01*
X16826233Y11971030D01*
X16225160Y11371006D01*
X16198635Y11307127D01*
X16136157Y11369715D01*
X18405859Y15212560D01*
X18450000Y15212560D01*
X18697765Y15261843D01*
X18907809Y15402191D01*
X19048157Y15612235D01*
X19050000Y15621500D01*
X19051843Y15612235D01*
X19192191Y15402191D01*
X19373851Y15280809D01*
X19442702Y15177766D01*
X19474210Y15130610D01*
X19620611Y14984210D01*
X19736754Y14906606D01*
X19846692Y14820406D01*
X19879450Y14811260D01*
X19907726Y14792367D01*
X20044738Y14765113D01*
X20179283Y14727549D01*
X24124983Y14427449D01*
X24158744Y14431535D01*
X24192100Y14424900D01*
X25347900Y14424900D01*
X25499782Y14455111D01*
X25652802Y14479081D01*
X25668518Y14488675D01*
X25686575Y14492267D01*
X25815354Y14578314D01*
X25947533Y14659005D01*
X26548412Y15212560D01*
X26935508Y15212560D01*
X27649502Y14848699D01*
X27733404Y13818037D01*
X27528016Y13613007D01*
X27431985Y13381739D01*
X27337274Y13610957D01*
X26947847Y14001064D01*
X26438776Y14212449D01*
X25887562Y14212930D01*
X25378123Y14002434D01*
X25145897Y13770613D01*
X24915847Y14001064D01*
X24406776Y14212449D01*
X23855562Y14212930D01*
X23346123Y14002434D01*
X22956016Y13613007D01*
X22859985Y13381739D01*
X22765274Y13610957D01*
X22375847Y14001064D01*
X21866776Y14212449D01*
X21315562Y14212930D01*
X20806123Y14002434D01*
X20416016Y13613007D01*
X20204631Y13103936D01*
X20204150Y12552722D01*
X20414646Y12043283D01*
X20804073Y11653176D01*
X21313144Y11441791D01*
X21864358Y11441310D01*
X22373797Y11651806D01*
X22763904Y12041233D01*
X22859935Y12272501D01*
X22954646Y12043283D01*
X23344073Y11653176D01*
X23853144Y11441791D01*
X24404358Y11441310D01*
X24913797Y11651806D01*
X25146023Y11883627D01*
X25376073Y11653176D01*
X25885144Y11441791D01*
X26436358Y11441310D01*
X26945797Y11651806D01*
X27335904Y12041233D01*
X27431935Y12272501D01*
X27526646Y12043283D01*
X27916073Y11653176D01*
X28425144Y11441791D01*
X28976358Y11441310D01*
X29485797Y11651806D01*
X29875904Y12041233D01*
X30087289Y12550304D01*
X30087770Y13101518D01*
X29877274Y13610957D01*
X29494938Y13993961D01*
X29412606Y15005330D01*
X29681610Y15212560D01*
X30200000Y15212560D01*
X30447765Y15261843D01*
X30657809Y15402191D01*
X30798157Y15612235D01*
X30800000Y15621500D01*
X30801843Y15612235D01*
X30942191Y15402191D01*
X30990000Y15370246D01*
X30990000Y12156044D01*
X30542233Y11971030D01*
X29941160Y11371006D01*
X29615461Y10586635D01*
X29614720Y9737331D01*
X29939050Y8952393D01*
X30539074Y8351320D01*
X31323445Y8025621D01*
X32172749Y8024880D01*
X32957687Y8349210D01*
X33558760Y8949234D01*
X33635076Y9133024D01*
X33634648Y8641989D01*
X33943805Y7893771D01*
X34515760Y7320817D01*
X34910000Y7157114D01*
X34910000Y6182847D01*
X34518771Y6021195D01*
X33945817Y5449240D01*
X33635354Y4701562D01*
X33634648Y3891989D01*
X33943805Y3143771D01*
X34515760Y2570817D01*
X35263438Y2260354D01*
X36073011Y2259648D01*
X36821229Y2568805D01*
X37394183Y3140760D01*
X37704646Y3888438D01*
X37704649Y3891989D01*
X41034648Y3891989D01*
X41343805Y3143771D01*
X41915760Y2570817D01*
X42663438Y2260354D01*
X43473011Y2259648D01*
X44221229Y2568805D01*
X44794183Y3140760D01*
X45104646Y3888438D01*
X45105352Y4698011D01*
X44796195Y5446229D01*
X44224240Y6019183D01*
X43476562Y6329646D01*
X42666989Y6330352D01*
X41918771Y6021195D01*
X41345817Y5449240D01*
X41035354Y4701562D01*
X41034648Y3891989D01*
X37704649Y3891989D01*
X37705352Y4698011D01*
X37396195Y5446229D01*
X36824240Y6019183D01*
X36430000Y6182886D01*
X36430000Y7157153D01*
X36821229Y7318805D01*
X37394183Y7890760D01*
X37492031Y8126405D01*
X37524528Y8047757D01*
X37870933Y7700747D01*
X38323765Y7512715D01*
X38814084Y7512287D01*
X39267243Y7699528D01*
X39369875Y7801981D01*
X39470933Y7700747D01*
X39923765Y7512715D01*
X40414084Y7512287D01*
X40867243Y7699528D01*
X41214253Y8045933D01*
X41247675Y8126423D01*
X41343805Y7893771D01*
X41915760Y7320817D01*
X42663438Y7010354D01*
X43473011Y7009648D01*
X44221229Y7318805D01*
X44794183Y7890760D01*
X45104646Y8638438D01*
X45105323Y9414456D01*
X45214977Y9482560D01*
X46370000Y9482560D01*
X46617765Y9531843D01*
X46827809Y9672191D01*
X46968157Y9882235D01*
X47017440Y10130000D01*
X47017440Y10830000D01*
X46968157Y11077765D01*
X46827809Y11287809D01*
X46617765Y11428157D01*
X46608500Y11430000D01*
X46617765Y11431843D01*
X46827809Y11572191D01*
X46968157Y11782235D01*
X47017440Y12030000D01*
X47017440Y12730000D01*
X46968157Y12977765D01*
X46827809Y13187809D01*
X46617765Y13328157D01*
X46370000Y13377440D01*
X46064445Y13377440D01*
X45682497Y14433899D01*
X45821961Y14642622D01*
X45935000Y15210907D01*
X45935000Y15269093D01*
X45821961Y15837378D01*
X45500054Y16319147D01*
X45216899Y16508345D01*
X45216924Y16508355D01*
X45645183Y16898642D01*
X45891486Y17423108D01*
X45770819Y17653000D01*
X44577000Y17653000D01*
X44577000Y17633000D01*
X44323000Y17633000D01*
X44323000Y17653000D01*
X42037000Y17653000D01*
X42037000Y17633000D01*
X41783000Y17633000D01*
X41783000Y17653000D01*
X41763000Y17653000D01*
X41763000Y17907000D01*
X41783000Y17907000D01*
X41783000Y19100155D01*
X42037000Y19100155D01*
X42037000Y17907000D01*
X44323000Y17907000D01*
X44323000Y19100155D01*
X44577000Y19100155D01*
X44577000Y17907000D01*
X45770819Y17907000D01*
X45891486Y18136892D01*
X45645183Y18661358D01*
X45216924Y19051645D01*
X44806890Y19221476D01*
X44577000Y19100155D01*
X44323000Y19100155D01*
X44093110Y19221476D01*
X43683076Y19051645D01*
X43254817Y18661358D01*
X43180000Y18502046D01*
X43105183Y18661358D01*
X42676924Y19051645D01*
X42266890Y19221476D01*
X42037000Y19100155D01*
X41783000Y19100155D01*
X41553110Y19221476D01*
X41212524Y19080409D01*
X40448088Y21822808D01*
X40741961Y22262622D01*
X40855000Y22830907D01*
X40855000Y22889093D01*
X40741961Y23457378D01*
X40420054Y23939147D01*
X40134422Y24130000D01*
X40420054Y24320853D01*
X40741961Y24802622D01*
X40824032Y25215221D01*
X41609910Y24731799D01*
X41676257Y24707194D01*
X41735107Y24667891D01*
X42014607Y24552191D01*
X42180998Y24519132D01*
X42347115Y24484920D01*
X42993570Y24480548D01*
X42993570Y23502640D01*
X43042853Y23254875D01*
X43183201Y23044831D01*
X43393245Y22904483D01*
X43641010Y22855200D01*
X45393870Y22855200D01*
X45393870Y22599670D01*
X45443153Y22351905D01*
X45583501Y22141861D01*
X45793545Y22001513D01*
X46041310Y21952230D01*
X47938690Y21952230D01*
X48186455Y22001513D01*
X48396499Y22141861D01*
X48536847Y22351905D01*
X48586130Y22599670D01*
X48586130Y24974570D01*
X48556195Y25125065D01*
X48586130Y25275560D01*
X48586130Y26449040D01*
X48536847Y26696805D01*
X48534378Y26700500D01*
X48536847Y26704195D01*
X48586130Y26951960D01*
X48586130Y28125440D01*
X48556195Y28275935D01*
X48586130Y28426430D01*
X48586130Y30801330D01*
X48536847Y31049095D01*
X48396499Y31259139D01*
X48186455Y31399487D01*
X47938690Y31448770D01*
X46041310Y31448770D01*
X45793545Y31399487D01*
X45583501Y31259139D01*
X45443153Y31049095D01*
X45393870Y30801330D01*
X45393870Y30545800D01*
X43641010Y30545800D01*
X43393245Y30496517D01*
X43183201Y30356169D01*
X43042853Y30146125D01*
X42993570Y29898360D01*
X42993570Y29551552D01*
X42733329Y29551779D01*
X42352785Y29394542D01*
X42171893Y29213965D01*
X41317708Y31285427D01*
X41283749Y31336424D01*
X41262449Y31393869D01*
X40683501Y32335130D01*
X40741961Y32422622D01*
X40855000Y32990907D01*
X40855000Y33049093D01*
X40741961Y33617378D01*
X40420054Y34099147D01*
X39938285Y34421054D01*
X39370000Y34534093D01*
X38801715Y34421054D01*
X38319946Y34099147D01*
X38100000Y33769974D01*
X37880054Y34099147D01*
X37398285Y34421054D01*
X36830000Y34534093D01*
X36261715Y34421054D01*
X35779946Y34099147D01*
X35560000Y33769974D01*
X35340054Y34099147D01*
X34858285Y34421054D01*
X34290000Y34534093D01*
X33721715Y34421054D01*
X33239946Y34099147D01*
X32918039Y33617378D01*
X32805000Y33049093D01*
X32805000Y32990907D01*
X32844870Y32790466D01*
X32250705Y32169990D01*
X32162979Y32032336D01*
X32072267Y31896575D01*
X32070365Y31887011D01*
X32065124Y31878788D01*
X32036747Y31718003D01*
X32004900Y31557900D01*
X32004900Y29402105D01*
X32004899Y29402100D01*
X32034159Y29255004D01*
X32072267Y29063425D01*
X32183929Y28896310D01*
X32264110Y28776310D01*
X32586311Y28454110D01*
X32610572Y28437899D01*
X32628326Y28414744D01*
X32753353Y28342496D01*
X32873426Y28262266D01*
X32902045Y28256573D01*
X32927308Y28241975D01*
X36840233Y26912058D01*
X36830000Y26914093D01*
X36261715Y26801054D01*
X35779946Y26479147D01*
X35552298Y26138447D01*
X35485183Y26281358D01*
X35056924Y26671645D01*
X34646890Y26841476D01*
X34417000Y26720155D01*
X34417000Y25527000D01*
X34437000Y25527000D01*
X34437000Y25273000D01*
X34417000Y25273000D01*
X34417000Y25253000D01*
X34163000Y25253000D01*
X34163000Y25273000D01*
X32969181Y25273000D01*
X32848514Y25043108D01*
X33094817Y24518642D01*
X33301855Y24329961D01*
X33192235Y24308157D01*
X32982191Y24167809D01*
X32841843Y23957765D01*
X32792560Y23710000D01*
X32792560Y22010000D01*
X32841843Y21762235D01*
X32982191Y21552191D01*
X33192235Y21411843D01*
X33440000Y21362560D01*
X34264145Y21362560D01*
X34585890Y20539117D01*
X34278585Y20412142D01*
X33987181Y20121246D01*
X33985214Y20116508D01*
X31798170Y19627670D01*
X31881054Y19751715D01*
X31994093Y20320000D01*
X31881054Y20888285D01*
X31559147Y21370054D01*
X31229974Y21590000D01*
X31559147Y21809946D01*
X31881054Y22291715D01*
X31994093Y22860000D01*
X31881054Y23428285D01*
X31559147Y23910054D01*
X31218447Y24137702D01*
X31361358Y24204817D01*
X31751645Y24633076D01*
X31921476Y25043110D01*
X31800155Y25273000D01*
X30607000Y25273000D01*
X30607000Y25253000D01*
X30353000Y25253000D01*
X30353000Y25273000D01*
X30333000Y25273000D01*
X30333000Y25527000D01*
X30353000Y25527000D01*
X30353000Y26720819D01*
X30607000Y26720819D01*
X30607000Y25527000D01*
X31800155Y25527000D01*
X31921476Y25756890D01*
X31921476Y25756892D01*
X32848514Y25756892D01*
X32969181Y25527000D01*
X34163000Y25527000D01*
X34163000Y26720155D01*
X33933110Y26841476D01*
X33523076Y26671645D01*
X33094817Y26281358D01*
X32848514Y25756892D01*
X31921476Y25756892D01*
X31751645Y26166924D01*
X31361358Y26595183D01*
X30836892Y26841486D01*
X30607000Y26720819D01*
X30353000Y26720819D01*
X30123108Y26841486D01*
X29598642Y26595183D01*
X29409961Y26388145D01*
X29388157Y26497765D01*
X29247809Y26707809D01*
X29037765Y26848157D01*
X28790000Y26897440D01*
X27090000Y26897440D01*
X26842235Y26848157D01*
X26632191Y26707809D01*
X26491843Y26497765D01*
X26442560Y26250000D01*
X26442560Y24873205D01*
X24345000Y24881643D01*
X24345000Y25114250D01*
X24186250Y25273000D01*
X22987000Y25273000D01*
X22987000Y25253000D01*
X22733000Y25253000D01*
X22733000Y25273000D01*
X22713000Y25273000D01*
X22713000Y25527000D01*
X22733000Y25527000D01*
X22733000Y26726250D01*
X22987000Y26726250D01*
X22987000Y25527000D01*
X24186250Y25527000D01*
X24345000Y25685750D01*
X24345000Y26376309D01*
X24248327Y26609698D01*
X24069699Y26788327D01*
X23836310Y26885000D01*
X23145750Y26885000D01*
X22987000Y26726250D01*
X22733000Y26726250D01*
X22574250Y26885000D01*
X21883690Y26885000D01*
X21650301Y26788327D01*
X21471673Y26609698D01*
X21399403Y26435223D01*
X21370054Y26479147D01*
X20888285Y26801054D01*
X20320000Y26914093D01*
X19751715Y26801054D01*
X19269946Y26479147D01*
X19050000Y26149974D01*
X18830054Y26479147D01*
X18348285Y26801054D01*
X18287504Y26813144D01*
X20193209Y28991127D01*
X20320000Y28965907D01*
X20790381Y29059472D01*
X21745779Y28379994D01*
X21837156Y28338985D01*
X21920459Y28283387D01*
X21971959Y28262087D01*
X22037441Y28249098D01*
X22060817Y28238607D01*
X22095416Y28237598D01*
X22141479Y28228461D01*
X22310200Y28194900D01*
X23409800Y28194900D01*
X23539543Y28220708D01*
X23671122Y28234361D01*
X27065630Y29283465D01*
X27371715Y29078946D01*
X27940000Y28965907D01*
X28508285Y29078946D01*
X28990054Y29400853D01*
X29217702Y29741553D01*
X29284817Y29598642D01*
X29713076Y29208355D01*
X30123110Y29038524D01*
X30353000Y29159845D01*
X30353000Y30353000D01*
X30607000Y30353000D01*
X30607000Y29159845D01*
X30836890Y29038524D01*
X31246924Y29208355D01*
X31675183Y29598642D01*
X31921486Y30123108D01*
X31800819Y30353000D01*
X30607000Y30353000D01*
X30353000Y30353000D01*
X30333000Y30353000D01*
X30333000Y30607000D01*
X30353000Y30607000D01*
X30353000Y30627000D01*
X30607000Y30627000D01*
X30607000Y30607000D01*
X31800819Y30607000D01*
X31921486Y30836892D01*
X31675183Y31361358D01*
X31468145Y31550039D01*
X31577765Y31571843D01*
X31787809Y31712191D01*
X31928157Y31922235D01*
X31977440Y32170000D01*
X31977440Y33870000D01*
X31928157Y34117765D01*
X31787809Y34327809D01*
X31577765Y34468157D01*
X31330000Y34517440D01*
X29630000Y34517440D01*
X29382235Y34468157D01*
X29172191Y34327809D01*
X29031843Y34117765D01*
X29019403Y34055223D01*
X28990054Y34099147D01*
X28508285Y34421054D01*
X28300374Y34462410D01*
X25565364Y41064204D01*
X32193811Y41064204D01*
X33062034Y38962942D01*
X34668286Y37353884D01*
X36768029Y36481995D01*
X39041596Y36480011D01*
X41142858Y37348234D01*
X42751916Y38954486D01*
X43623805Y41054229D01*
X43625789Y43327796D01*
X42757566Y45429058D01*
X41151314Y47038116D01*
X39051571Y47910005D01*
X36778004Y47911989D01*
X34676742Y47043766D01*
X33067684Y45437514D01*
X32195795Y43337771D01*
X32193811Y41064204D01*
X25565364Y41064204D01*
X25474902Y41282560D01*
X27920000Y41282560D01*
X28167765Y41331843D01*
X28377809Y41472191D01*
X28518157Y41682235D01*
X28567440Y41930000D01*
X28567440Y44430000D01*
X28518157Y44677765D01*
X28377809Y44887809D01*
X28167765Y45028157D01*
X27920000Y45077440D01*
X25420000Y45077440D01*
X25172235Y45028157D01*
X24962191Y44887809D01*
X24821843Y44677765D01*
X24772560Y44430000D01*
X24772560Y42977880D01*
X24205513Y44346623D01*
X24107807Y44492832D01*
X24013689Y44633690D01*
X23123690Y45523690D01*
X23123586Y45523760D01*
X23123520Y45523858D01*
X22980708Y45619227D01*
X22836574Y45715533D01*
X22836457Y45715556D01*
X22836354Y45715625D01*
X22637754Y45797825D01*
X22467522Y45831638D01*
X22299300Y45865100D01*
X21040700Y45865100D01*
X20949618Y45846983D01*
X20856762Y45845774D01*
X13278697Y44235589D01*
X12785566Y45429058D01*
X11179314Y47038116D01*
X9079571Y47910005D01*
X6806004Y47911989D01*
X4704742Y47043766D01*
X3095684Y45437514D01*
X2223795Y43337771D01*
X2221811Y41064204D01*
X685000Y41064204D01*
X685000Y48845000D01*
X48845000Y48845000D01*
X48845000Y685000D01*
X48845000Y685000D01*
G37*
X48845000Y685000D02*
X685000Y685000D01*
X685000Y9451457D01*
X856229Y9037051D01*
X1414134Y8478171D01*
X2143445Y8175335D01*
X2933131Y8174646D01*
X3662969Y8476209D01*
X4221849Y9034114D01*
X4524685Y9763425D01*
X4525374Y10553111D01*
X4223811Y11282949D01*
X3665906Y11841829D01*
X2936595Y12144665D01*
X2146909Y12145354D01*
X1417071Y11843791D01*
X858191Y11285886D01*
X685000Y10868795D01*
X685000Y41064204D01*
X2221811Y41064204D01*
X3090034Y38962942D01*
X4696286Y37353884D01*
X6796029Y36481995D01*
X9069596Y36480011D01*
X11170858Y37348234D01*
X12779916Y38954486D01*
X13651805Y41054229D01*
X13653072Y42505622D01*
X19900097Y43832988D01*
X19785328Y43556595D01*
X19784674Y42806695D01*
X20071043Y42113628D01*
X20569219Y41614583D01*
X19599908Y34319620D01*
X19269946Y34099147D01*
X18948039Y33617378D01*
X18835000Y33049093D01*
X18835000Y32990907D01*
X18948039Y32422622D01*
X19269946Y31940853D01*
X19555578Y31750000D01*
X19269946Y31559147D01*
X18948039Y31077378D01*
X18835000Y30509093D01*
X18835000Y30450907D01*
X18887528Y30186829D01*
X16205200Y27121262D01*
X16205200Y28546370D01*
X16108527Y28779759D01*
X15929898Y28958387D01*
X15696509Y29055060D01*
X14105890Y29055060D01*
X13947140Y28896310D01*
X13947140Y26797000D01*
X13967140Y26797000D01*
X13967140Y26543000D01*
X13947140Y26543000D01*
X13947140Y26523000D01*
X13693140Y26523000D01*
X13693140Y26543000D01*
X11593830Y26543000D01*
X11435080Y26384250D01*
X11435080Y24793630D01*
X11531753Y24560241D01*
X11710382Y24381613D01*
X11742040Y24368500D01*
X9888401Y24368500D01*
X10028529Y24462131D01*
X10168877Y24672175D01*
X10218160Y24919940D01*
X10218160Y28420060D01*
X10193036Y28546370D01*
X11435080Y28546370D01*
X11435080Y26955750D01*
X11593830Y26797000D01*
X13693140Y26797000D01*
X13693140Y28896310D01*
X13534390Y29055060D01*
X11943771Y29055060D01*
X11710382Y28958387D01*
X11531753Y28779759D01*
X11435080Y28546370D01*
X10193036Y28546370D01*
X10168877Y28667825D01*
X10028529Y28877869D01*
X9818485Y29018217D01*
X9570720Y29067500D01*
X6070600Y29067500D01*
X5822835Y29018217D01*
X5612791Y28877869D01*
X5472443Y28667825D01*
X5423160Y28420060D01*
X5423160Y24919940D01*
X5472443Y24672175D01*
X5612791Y24462131D01*
X5822835Y24321783D01*
X6070600Y24272500D01*
X8752659Y24272500D01*
X8612531Y24178869D01*
X8472183Y23968825D01*
X8422900Y23721060D01*
X8422900Y20220940D01*
X8432488Y20172738D01*
X7771250Y16163305D01*
X7548600Y16255757D01*
X6992839Y16256242D01*
X6479197Y16044010D01*
X6085871Y15651370D01*
X5872743Y15138100D01*
X5872258Y14582339D01*
X6084490Y14068697D01*
X6293332Y13859490D01*
X6085871Y13652390D01*
X5872743Y13139120D01*
X5872258Y12583359D01*
X6084490Y12069717D01*
X6477130Y11676391D01*
X6990400Y11463263D01*
X7546161Y11462778D01*
X8059803Y11675010D01*
X8453129Y12067650D01*
X8539449Y12275532D01*
X8624490Y12069717D01*
X9017130Y11676391D01*
X9530400Y11463263D01*
X10086161Y11462778D01*
X10599803Y11675010D01*
X10993129Y12067650D01*
X11206257Y12580920D01*
X11206742Y13136681D01*
X10994510Y13650323D01*
X10785668Y13859530D01*
X10993129Y14066630D01*
X11206257Y14579900D01*
X11206742Y15135661D01*
X10994510Y15649303D01*
X10601870Y16042629D01*
X10088600Y16255757D01*
X9580480Y16256200D01*
X10127571Y19573500D01*
X12507336Y19573500D01*
X17167175Y17430710D01*
X17151843Y17407765D01*
X17102560Y17160000D01*
X17102560Y15994818D01*
X14828597Y12144758D01*
X14145869Y12145354D01*
X13416031Y11843791D01*
X12857151Y11285886D01*
X12554315Y10556575D01*
X12553626Y9766889D01*
X12855189Y9037051D01*
X13413094Y8478171D01*
X14142405Y8175335D01*
X14932091Y8174646D01*
X15661929Y8476209D01*
X16198490Y9011834D01*
X16223050Y8952393D01*
X16823074Y8351320D01*
X17607445Y8025621D01*
X18456749Y8024880D01*
X19241687Y8349210D01*
X19842760Y8949234D01*
X20168459Y9733605D01*
X20169200Y10582909D01*
X19844870Y11367847D01*
X19244846Y11968920D01*
X18460475Y12294619D01*
X17611171Y12295360D01*
X16826233Y11971030D01*
X16225160Y11371006D01*
X16198635Y11307127D01*
X16136157Y11369715D01*
X18405859Y15212560D01*
X18450000Y15212560D01*
X18697765Y15261843D01*
X18907809Y15402191D01*
X19048157Y15612235D01*
X19050000Y15621500D01*
X19051843Y15612235D01*
X19192191Y15402191D01*
X19373851Y15280809D01*
X19442702Y15177766D01*
X19474210Y15130610D01*
X19620611Y14984210D01*
X19736754Y14906606D01*
X19846692Y14820406D01*
X19879450Y14811260D01*
X19907726Y14792367D01*
X20044738Y14765113D01*
X20179283Y14727549D01*
X24124983Y14427449D01*
X24158744Y14431535D01*
X24192100Y14424900D01*
X25347900Y14424900D01*
X25499782Y14455111D01*
X25652802Y14479081D01*
X25668518Y14488675D01*
X25686575Y14492267D01*
X25815354Y14578314D01*
X25947533Y14659005D01*
X26548412Y15212560D01*
X26935508Y15212560D01*
X27649502Y14848699D01*
X27733404Y13818037D01*
X27528016Y13613007D01*
X27431985Y13381739D01*
X27337274Y13610957D01*
X26947847Y14001064D01*
X26438776Y14212449D01*
X25887562Y14212930D01*
X25378123Y14002434D01*
X25145897Y13770613D01*
X24915847Y14001064D01*
X24406776Y14212449D01*
X23855562Y14212930D01*
X23346123Y14002434D01*
X22956016Y13613007D01*
X22859985Y13381739D01*
X22765274Y13610957D01*
X22375847Y14001064D01*
X21866776Y14212449D01*
X21315562Y14212930D01*
X20806123Y14002434D01*
X20416016Y13613007D01*
X20204631Y13103936D01*
X20204150Y12552722D01*
X20414646Y12043283D01*
X20804073Y11653176D01*
X21313144Y11441791D01*
X21864358Y11441310D01*
X22373797Y11651806D01*
X22763904Y12041233D01*
X22859935Y12272501D01*
X22954646Y12043283D01*
X23344073Y11653176D01*
X23853144Y11441791D01*
X24404358Y11441310D01*
X24913797Y11651806D01*
X25146023Y11883627D01*
X25376073Y11653176D01*
X25885144Y11441791D01*
X26436358Y11441310D01*
X26945797Y11651806D01*
X27335904Y12041233D01*
X27431935Y12272501D01*
X27526646Y12043283D01*
X27916073Y11653176D01*
X28425144Y11441791D01*
X28976358Y11441310D01*
X29485797Y11651806D01*
X29875904Y12041233D01*
X30087289Y12550304D01*
X30087770Y13101518D01*
X29877274Y13610957D01*
X29494938Y13993961D01*
X29412606Y15005330D01*
X29681610Y15212560D01*
X30200000Y15212560D01*
X30447765Y15261843D01*
X30657809Y15402191D01*
X30798157Y15612235D01*
X30800000Y15621500D01*
X30801843Y15612235D01*
X30942191Y15402191D01*
X30990000Y15370246D01*
X30990000Y12156044D01*
X30542233Y11971030D01*
X29941160Y11371006D01*
X29615461Y10586635D01*
X29614720Y9737331D01*
X29939050Y8952393D01*
X30539074Y8351320D01*
X31323445Y8025621D01*
X32172749Y8024880D01*
X32957687Y8349210D01*
X33558760Y8949234D01*
X33635076Y9133024D01*
X33634648Y8641989D01*
X33943805Y7893771D01*
X34515760Y7320817D01*
X34910000Y7157114D01*
X34910000Y6182847D01*
X34518771Y6021195D01*
X33945817Y5449240D01*
X33635354Y4701562D01*
X33634648Y3891989D01*
X33943805Y3143771D01*
X34515760Y2570817D01*
X35263438Y2260354D01*
X36073011Y2259648D01*
X36821229Y2568805D01*
X37394183Y3140760D01*
X37704646Y3888438D01*
X37704649Y3891989D01*
X41034648Y3891989D01*
X41343805Y3143771D01*
X41915760Y2570817D01*
X42663438Y2260354D01*
X43473011Y2259648D01*
X44221229Y2568805D01*
X44794183Y3140760D01*
X45104646Y3888438D01*
X45105352Y4698011D01*
X44796195Y5446229D01*
X44224240Y6019183D01*
X43476562Y6329646D01*
X42666989Y6330352D01*
X41918771Y6021195D01*
X41345817Y5449240D01*
X41035354Y4701562D01*
X41034648Y3891989D01*
X37704649Y3891989D01*
X37705352Y4698011D01*
X37396195Y5446229D01*
X36824240Y6019183D01*
X36430000Y6182886D01*
X36430000Y7157153D01*
X36821229Y7318805D01*
X37394183Y7890760D01*
X37492031Y8126405D01*
X37524528Y8047757D01*
X37870933Y7700747D01*
X38323765Y7512715D01*
X38814084Y7512287D01*
X39267243Y7699528D01*
X39369875Y7801981D01*
X39470933Y7700747D01*
X39923765Y7512715D01*
X40414084Y7512287D01*
X40867243Y7699528D01*
X41214253Y8045933D01*
X41247675Y8126423D01*
X41343805Y7893771D01*
X41915760Y7320817D01*
X42663438Y7010354D01*
X43473011Y7009648D01*
X44221229Y7318805D01*
X44794183Y7890760D01*
X45104646Y8638438D01*
X45105323Y9414456D01*
X45214977Y9482560D01*
X46370000Y9482560D01*
X46617765Y9531843D01*
X46827809Y9672191D01*
X46968157Y9882235D01*
X47017440Y10130000D01*
X47017440Y10830000D01*
X46968157Y11077765D01*
X46827809Y11287809D01*
X46617765Y11428157D01*
X46608500Y11430000D01*
X46617765Y11431843D01*
X46827809Y11572191D01*
X46968157Y11782235D01*
X47017440Y12030000D01*
X47017440Y12730000D01*
X46968157Y12977765D01*
X46827809Y13187809D01*
X46617765Y13328157D01*
X46370000Y13377440D01*
X46064445Y13377440D01*
X45682497Y14433899D01*
X45821961Y14642622D01*
X45935000Y15210907D01*
X45935000Y15269093D01*
X45821961Y15837378D01*
X45500054Y16319147D01*
X45216899Y16508345D01*
X45216924Y16508355D01*
X45645183Y16898642D01*
X45891486Y17423108D01*
X45770819Y17653000D01*
X44577000Y17653000D01*
X44577000Y17633000D01*
X44323000Y17633000D01*
X44323000Y17653000D01*
X42037000Y17653000D01*
X42037000Y17633000D01*
X41783000Y17633000D01*
X41783000Y17653000D01*
X41763000Y17653000D01*
X41763000Y17907000D01*
X41783000Y17907000D01*
X41783000Y19100155D01*
X42037000Y19100155D01*
X42037000Y17907000D01*
X44323000Y17907000D01*
X44323000Y19100155D01*
X44577000Y19100155D01*
X44577000Y17907000D01*
X45770819Y17907000D01*
X45891486Y18136892D01*
X45645183Y18661358D01*
X45216924Y19051645D01*
X44806890Y19221476D01*
X44577000Y19100155D01*
X44323000Y19100155D01*
X44093110Y19221476D01*
X43683076Y19051645D01*
X43254817Y18661358D01*
X43180000Y18502046D01*
X43105183Y18661358D01*
X42676924Y19051645D01*
X42266890Y19221476D01*
X42037000Y19100155D01*
X41783000Y19100155D01*
X41553110Y19221476D01*
X41212524Y19080409D01*
X40448088Y21822808D01*
X40741961Y22262622D01*
X40855000Y22830907D01*
X40855000Y22889093D01*
X40741961Y23457378D01*
X40420054Y23939147D01*
X40134422Y24130000D01*
X40420054Y24320853D01*
X40741961Y24802622D01*
X40824032Y25215221D01*
X41609910Y24731799D01*
X41676257Y24707194D01*
X41735107Y24667891D01*
X42014607Y24552191D01*
X42180998Y24519132D01*
X42347115Y24484920D01*
X42993570Y24480548D01*
X42993570Y23502640D01*
X43042853Y23254875D01*
X43183201Y23044831D01*
X43393245Y22904483D01*
X43641010Y22855200D01*
X45393870Y22855200D01*
X45393870Y22599670D01*
X45443153Y22351905D01*
X45583501Y22141861D01*
X45793545Y22001513D01*
X46041310Y21952230D01*
X47938690Y21952230D01*
X48186455Y22001513D01*
X48396499Y22141861D01*
X48536847Y22351905D01*
X48586130Y22599670D01*
X48586130Y24974570D01*
X48556195Y25125065D01*
X48586130Y25275560D01*
X48586130Y26449040D01*
X48536847Y26696805D01*
X48534378Y26700500D01*
X48536847Y26704195D01*
X48586130Y26951960D01*
X48586130Y28125440D01*
X48556195Y28275935D01*
X48586130Y28426430D01*
X48586130Y30801330D01*
X48536847Y31049095D01*
X48396499Y31259139D01*
X48186455Y31399487D01*
X47938690Y31448770D01*
X46041310Y31448770D01*
X45793545Y31399487D01*
X45583501Y31259139D01*
X45443153Y31049095D01*
X45393870Y30801330D01*
X45393870Y30545800D01*
X43641010Y30545800D01*
X43393245Y30496517D01*
X43183201Y30356169D01*
X43042853Y30146125D01*
X42993570Y29898360D01*
X42993570Y29551552D01*
X42733329Y29551779D01*
X42352785Y29394542D01*
X42171893Y29213965D01*
X41317708Y31285427D01*
X41283749Y31336424D01*
X41262449Y31393869D01*
X40683501Y32335130D01*
X40741961Y32422622D01*
X40855000Y32990907D01*
X40855000Y33049093D01*
X40741961Y33617378D01*
X40420054Y34099147D01*
X39938285Y34421054D01*
X39370000Y34534093D01*
X38801715Y34421054D01*
X38319946Y34099147D01*
X38100000Y33769974D01*
X37880054Y34099147D01*
X37398285Y34421054D01*
X36830000Y34534093D01*
X36261715Y34421054D01*
X35779946Y34099147D01*
X35560000Y33769974D01*
X35340054Y34099147D01*
X34858285Y34421054D01*
X34290000Y34534093D01*
X33721715Y34421054D01*
X33239946Y34099147D01*
X32918039Y33617378D01*
X32805000Y33049093D01*
X32805000Y32990907D01*
X32844870Y32790466D01*
X32250705Y32169990D01*
X32162979Y32032336D01*
X32072267Y31896575D01*
X32070365Y31887011D01*
X32065124Y31878788D01*
X32036747Y31718003D01*
X32004900Y31557900D01*
X32004900Y29402105D01*
X32004899Y29402100D01*
X32034159Y29255004D01*
X32072267Y29063425D01*
X32183929Y28896310D01*
X32264110Y28776310D01*
X32586311Y28454110D01*
X32610572Y28437899D01*
X32628326Y28414744D01*
X32753353Y28342496D01*
X32873426Y28262266D01*
X32902045Y28256573D01*
X32927308Y28241975D01*
X36840233Y26912058D01*
X36830000Y26914093D01*
X36261715Y26801054D01*
X35779946Y26479147D01*
X35552298Y26138447D01*
X35485183Y26281358D01*
X35056924Y26671645D01*
X34646890Y26841476D01*
X34417000Y26720155D01*
X34417000Y25527000D01*
X34437000Y25527000D01*
X34437000Y25273000D01*
X34417000Y25273000D01*
X34417000Y25253000D01*
X34163000Y25253000D01*
X34163000Y25273000D01*
X32969181Y25273000D01*
X32848514Y25043108D01*
X33094817Y24518642D01*
X33301855Y24329961D01*
X33192235Y24308157D01*
X32982191Y24167809D01*
X32841843Y23957765D01*
X32792560Y23710000D01*
X32792560Y22010000D01*
X32841843Y21762235D01*
X32982191Y21552191D01*
X33192235Y21411843D01*
X33440000Y21362560D01*
X34264145Y21362560D01*
X34585890Y20539117D01*
X34278585Y20412142D01*
X33987181Y20121246D01*
X33985214Y20116508D01*
X31798170Y19627670D01*
X31881054Y19751715D01*
X31994093Y20320000D01*
X31881054Y20888285D01*
X31559147Y21370054D01*
X31229974Y21590000D01*
X31559147Y21809946D01*
X31881054Y22291715D01*
X31994093Y22860000D01*
X31881054Y23428285D01*
X31559147Y23910054D01*
X31218447Y24137702D01*
X31361358Y24204817D01*
X31751645Y24633076D01*
X31921476Y25043110D01*
X31800155Y25273000D01*
X30607000Y25273000D01*
X30607000Y25253000D01*
X30353000Y25253000D01*
X30353000Y25273000D01*
X30333000Y25273000D01*
X30333000Y25527000D01*
X30353000Y25527000D01*
X30353000Y26720819D01*
X30607000Y26720819D01*
X30607000Y25527000D01*
X31800155Y25527000D01*
X31921476Y25756890D01*
X31921476Y25756892D01*
X32848514Y25756892D01*
X32969181Y25527000D01*
X34163000Y25527000D01*
X34163000Y26720155D01*
X33933110Y26841476D01*
X33523076Y26671645D01*
X33094817Y26281358D01*
X32848514Y25756892D01*
X31921476Y25756892D01*
X31751645Y26166924D01*
X31361358Y26595183D01*
X30836892Y26841486D01*
X30607000Y26720819D01*
X30353000Y26720819D01*
X30123108Y26841486D01*
X29598642Y26595183D01*
X29409961Y26388145D01*
X29388157Y26497765D01*
X29247809Y26707809D01*
X29037765Y26848157D01*
X28790000Y26897440D01*
X27090000Y26897440D01*
X26842235Y26848157D01*
X26632191Y26707809D01*
X26491843Y26497765D01*
X26442560Y26250000D01*
X26442560Y24873205D01*
X24345000Y24881643D01*
X24345000Y25114250D01*
X24186250Y25273000D01*
X22987000Y25273000D01*
X22987000Y25253000D01*
X22733000Y25253000D01*
X22733000Y25273000D01*
X22713000Y25273000D01*
X22713000Y25527000D01*
X22733000Y25527000D01*
X22733000Y26726250D01*
X22987000Y26726250D01*
X22987000Y25527000D01*
X24186250Y25527000D01*
X24345000Y25685750D01*
X24345000Y26376309D01*
X24248327Y26609698D01*
X24069699Y26788327D01*
X23836310Y26885000D01*
X23145750Y26885000D01*
X22987000Y26726250D01*
X22733000Y26726250D01*
X22574250Y26885000D01*
X21883690Y26885000D01*
X21650301Y26788327D01*
X21471673Y26609698D01*
X21399403Y26435223D01*
X21370054Y26479147D01*
X20888285Y26801054D01*
X20320000Y26914093D01*
X19751715Y26801054D01*
X19269946Y26479147D01*
X19050000Y26149974D01*
X18830054Y26479147D01*
X18348285Y26801054D01*
X18287504Y26813144D01*
X20193209Y28991127D01*
X20320000Y28965907D01*
X20790381Y29059472D01*
X21745779Y28379994D01*
X21837156Y28338985D01*
X21920459Y28283387D01*
X21971959Y28262087D01*
X22037441Y28249098D01*
X22060817Y28238607D01*
X22095416Y28237598D01*
X22141479Y28228461D01*
X22310200Y28194900D01*
X23409800Y28194900D01*
X23539543Y28220708D01*
X23671122Y28234361D01*
X27065630Y29283465D01*
X27371715Y29078946D01*
X27940000Y28965907D01*
X28508285Y29078946D01*
X28990054Y29400853D01*
X29217702Y29741553D01*
X29284817Y29598642D01*
X29713076Y29208355D01*
X30123110Y29038524D01*
X30353000Y29159845D01*
X30353000Y30353000D01*
X30607000Y30353000D01*
X30607000Y29159845D01*
X30836890Y29038524D01*
X31246924Y29208355D01*
X31675183Y29598642D01*
X31921486Y30123108D01*
X31800819Y30353000D01*
X30607000Y30353000D01*
X30353000Y30353000D01*
X30333000Y30353000D01*
X30333000Y30607000D01*
X30353000Y30607000D01*
X30353000Y30627000D01*
X30607000Y30627000D01*
X30607000Y30607000D01*
X31800819Y30607000D01*
X31921486Y30836892D01*
X31675183Y31361358D01*
X31468145Y31550039D01*
X31577765Y31571843D01*
X31787809Y31712191D01*
X31928157Y31922235D01*
X31977440Y32170000D01*
X31977440Y33870000D01*
X31928157Y34117765D01*
X31787809Y34327809D01*
X31577765Y34468157D01*
X31330000Y34517440D01*
X29630000Y34517440D01*
X29382235Y34468157D01*
X29172191Y34327809D01*
X29031843Y34117765D01*
X29019403Y34055223D01*
X28990054Y34099147D01*
X28508285Y34421054D01*
X28300374Y34462410D01*
X25565364Y41064204D01*
X32193811Y41064204D01*
X33062034Y38962942D01*
X34668286Y37353884D01*
X36768029Y36481995D01*
X39041596Y36480011D01*
X41142858Y37348234D01*
X42751916Y38954486D01*
X43623805Y41054229D01*
X43625789Y43327796D01*
X42757566Y45429058D01*
X41151314Y47038116D01*
X39051571Y47910005D01*
X36778004Y47911989D01*
X34676742Y47043766D01*
X33067684Y45437514D01*
X32195795Y43337771D01*
X32193811Y41064204D01*
X25565364Y41064204D01*
X25474902Y41282560D01*
X27920000Y41282560D01*
X28167765Y41331843D01*
X28377809Y41472191D01*
X28518157Y41682235D01*
X28567440Y41930000D01*
X28567440Y44430000D01*
X28518157Y44677765D01*
X28377809Y44887809D01*
X28167765Y45028157D01*
X27920000Y45077440D01*
X25420000Y45077440D01*
X25172235Y45028157D01*
X24962191Y44887809D01*
X24821843Y44677765D01*
X24772560Y44430000D01*
X24772560Y42977880D01*
X24205513Y44346623D01*
X24107807Y44492832D01*
X24013689Y44633690D01*
X23123690Y45523690D01*
X23123586Y45523760D01*
X23123520Y45523858D01*
X22980708Y45619227D01*
X22836574Y45715533D01*
X22836457Y45715556D01*
X22836354Y45715625D01*
X22637754Y45797825D01*
X22467522Y45831638D01*
X22299300Y45865100D01*
X21040700Y45865100D01*
X20949618Y45846983D01*
X20856762Y45845774D01*
X13278697Y44235589D01*
X12785566Y45429058D01*
X11179314Y47038116D01*
X9079571Y47910005D01*
X6806004Y47911989D01*
X4704742Y47043766D01*
X3095684Y45437514D01*
X2223795Y43337771D01*
X2221811Y41064204D01*
X685000Y41064204D01*
X685000Y48845000D01*
X48845000Y48845000D01*
X48845000Y685000D01*
G36*
X38319946Y21780853D02*
X38801715Y21458946D01*
X38981537Y21423177D01*
X39612136Y19160916D01*
X39497000Y19100155D01*
X39497000Y17907000D01*
X39517000Y17907000D01*
X39517000Y17653000D01*
X39497000Y17653000D01*
X39497000Y17633000D01*
X39243000Y17633000D01*
X39243000Y17653000D01*
X36957000Y17653000D01*
X36957000Y17633000D01*
X36703000Y17633000D01*
X36703000Y17653000D01*
X36683000Y17653000D01*
X36683000Y17907000D01*
X36703000Y17907000D01*
X36703000Y19100155D01*
X36957000Y19100155D01*
X36957000Y17907000D01*
X39243000Y17907000D01*
X39243000Y19100155D01*
X39013110Y19221476D01*
X38603076Y19051645D01*
X38174817Y18661358D01*
X38100000Y18502046D01*
X38025183Y18661358D01*
X37596924Y19051645D01*
X37186890Y19221476D01*
X36957000Y19100155D01*
X36703000Y19100155D01*
X36568654Y19171054D01*
X36569200Y19173800D01*
X36569200Y19894600D01*
X36539034Y20046255D01*
X36511939Y20198487D01*
X35933837Y21678027D01*
X36261715Y21458946D01*
X36830000Y21345907D01*
X37398285Y21458946D01*
X37880054Y21780853D01*
X38100000Y22110026D01*
X38319946Y21780853D01*
X38319946Y21780853D01*
G37*
X38319946Y21780853D02*
X38801715Y21458946D01*
X38981537Y21423177D01*
X39612136Y19160916D01*
X39497000Y19100155D01*
X39497000Y17907000D01*
X39517000Y17907000D01*
X39517000Y17653000D01*
X39497000Y17653000D01*
X39497000Y17633000D01*
X39243000Y17633000D01*
X39243000Y17653000D01*
X36957000Y17653000D01*
X36957000Y17633000D01*
X36703000Y17633000D01*
X36703000Y17653000D01*
X36683000Y17653000D01*
X36683000Y17907000D01*
X36703000Y17907000D01*
X36703000Y19100155D01*
X36957000Y19100155D01*
X36957000Y17907000D01*
X39243000Y17907000D01*
X39243000Y19100155D01*
X39013110Y19221476D01*
X38603076Y19051645D01*
X38174817Y18661358D01*
X38100000Y18502046D01*
X38025183Y18661358D01*
X37596924Y19051645D01*
X37186890Y19221476D01*
X36957000Y19100155D01*
X36703000Y19100155D01*
X36568654Y19171054D01*
X36569200Y19173800D01*
X36569200Y19894600D01*
X36539034Y20046255D01*
X36511939Y20198487D01*
X35933837Y21678027D01*
X36261715Y21458946D01*
X36830000Y21345907D01*
X37398285Y21458946D01*
X37880054Y21780853D01*
X38100000Y22110026D01*
X38319946Y21780853D01*
G36*
X26670839Y33771229D02*
X26568039Y33617378D01*
X26455000Y33049093D01*
X26455000Y32990907D01*
X26568039Y32422622D01*
X26889946Y31940853D01*
X27175578Y31750000D01*
X26889946Y31559147D01*
X26568039Y31077378D01*
X26547885Y30976057D01*
X24229823Y30259639D01*
X24180819Y30353000D01*
X22987000Y30353000D01*
X22987000Y30333000D01*
X22733000Y30333000D01*
X22733000Y30353000D01*
X22713000Y30353000D01*
X22713000Y30607000D01*
X22733000Y30607000D01*
X22733000Y30627000D01*
X22987000Y30627000D01*
X22987000Y30607000D01*
X24180819Y30607000D01*
X24301486Y30836892D01*
X24055183Y31361358D01*
X23848145Y31550039D01*
X23957765Y31571843D01*
X24167809Y31712191D01*
X24308157Y31922235D01*
X24357440Y32170000D01*
X24357440Y33870000D01*
X24308157Y34117765D01*
X24167809Y34327809D01*
X23957765Y34468157D01*
X23710000Y34517440D01*
X22010000Y34517440D01*
X21762235Y34468157D01*
X21552191Y34327809D01*
X21411843Y34117765D01*
X21399403Y34055223D01*
X21370054Y34099147D01*
X21357301Y34107668D01*
X22327892Y41412263D01*
X22736372Y41581043D01*
X23230863Y42074672D01*
X26670839Y33771229D01*
X26670839Y33771229D01*
G37*
X26670839Y33771229D02*
X26568039Y33617378D01*
X26455000Y33049093D01*
X26455000Y32990907D01*
X26568039Y32422622D01*
X26889946Y31940853D01*
X27175578Y31750000D01*
X26889946Y31559147D01*
X26568039Y31077378D01*
X26547885Y30976057D01*
X24229823Y30259639D01*
X24180819Y30353000D01*
X22987000Y30353000D01*
X22987000Y30333000D01*
X22733000Y30333000D01*
X22733000Y30353000D01*
X22713000Y30353000D01*
X22713000Y30607000D01*
X22733000Y30607000D01*
X22733000Y30627000D01*
X22987000Y30627000D01*
X22987000Y30607000D01*
X24180819Y30607000D01*
X24301486Y30836892D01*
X24055183Y31361358D01*
X23848145Y31550039D01*
X23957765Y31571843D01*
X24167809Y31712191D01*
X24308157Y31922235D01*
X24357440Y32170000D01*
X24357440Y33870000D01*
X24308157Y34117765D01*
X24167809Y34327809D01*
X23957765Y34468157D01*
X23710000Y34517440D01*
X22010000Y34517440D01*
X21762235Y34468157D01*
X21552191Y34327809D01*
X21411843Y34117765D01*
X21399403Y34055223D01*
X21370054Y34099147D01*
X21357301Y34107668D01*
X22327892Y41412263D01*
X22736372Y41581043D01*
X23230863Y42074672D01*
X26670839Y33771229D01*
G36*
X34417000Y30607000D02*
X34437000Y30607000D01*
X34437000Y30353000D01*
X34417000Y30353000D01*
X34417000Y30333000D01*
X34163000Y30333000D01*
X34163000Y30353000D01*
X34143000Y30353000D01*
X34143000Y30607000D01*
X34163000Y30607000D01*
X34163000Y30627000D01*
X34417000Y30627000D01*
X34417000Y30607000D01*
X34417000Y30607000D01*
G37*
X34417000Y30607000D02*
X34437000Y30607000D01*
X34437000Y30353000D01*
X34417000Y30353000D01*
X34417000Y30333000D01*
X34163000Y30333000D01*
X34163000Y30353000D01*
X34143000Y30353000D01*
X34143000Y30607000D01*
X34163000Y30607000D01*
X34163000Y30627000D01*
X34417000Y30627000D01*
X34417000Y30607000D01*
M02*
