G04 #@! TF.GenerationSoftware,KiCad,Pcbnew,(2017-04-12 revision 02abf1804)-makepkg*
G04 #@! TF.CreationDate,2017-04-21T09:09:19+03:00*
G04 #@! TF.ProjectId,vbb,7662622E6B696361645F706362000000,rev?*
G04 #@! TF.FileFunction,Legend,Top*
G04 #@! TF.FilePolarity,Positive*
%FSLAX46Y46*%
G04 Gerber Fmt 4.6, Leading zero omitted, Abs format (unit mm)*
G04 Created by KiCad (PCBNEW (2017-04-12 revision 02abf1804)-makepkg) date 04/21/17 09:09:19*
%MOMM*%
%LPD*%
G01*
G04 APERTURE LIST*
%ADD10C,0.100000*%
%ADD11C,0.150000*%
%ADD12C,0.120000*%
%ADD13C,0.200660*%
%ADD14C,0.170000*%
%ADD15C,0.099060*%
G04 APERTURE END LIST*
D10*
D11*
X2443500Y16891000D02*
X14635500Y16891000D01*
X14635500Y-127000D02*
X2443500Y-127000D01*
X14635500Y16891000D02*
X14635500Y11811000D01*
X14635500Y8509000D02*
X14635500Y-127000D01*
X2443500Y16891000D02*
X2443500Y11811000D01*
X2443500Y8509000D02*
X2443500Y-127000D01*
D12*
X21590000Y34350000D02*
X18990000Y34350000D01*
X18990000Y34350000D02*
X18990000Y29150000D01*
X18990000Y29150000D02*
X24190000Y29150000D01*
X24190000Y29150000D02*
X24190000Y31750000D01*
X24190000Y31750000D02*
X21590000Y31750000D01*
X21590000Y31750000D02*
X21590000Y34350000D01*
X22860000Y34350000D02*
X24190000Y34350000D01*
X24190000Y34350000D02*
X24190000Y33020000D01*
X31810000Y34350000D02*
X31810000Y33020000D01*
X30480000Y34350000D02*
X31810000Y34350000D01*
X29210000Y31750000D02*
X29210000Y34350000D01*
X31810000Y31750000D02*
X29210000Y31750000D01*
X31810000Y29150000D02*
X31810000Y31750000D01*
X26610000Y29150000D02*
X31810000Y29150000D01*
X26610000Y34350000D02*
X26610000Y29150000D01*
X29210000Y34350000D02*
X26610000Y34350000D01*
X35560000Y29150000D02*
X40700000Y29150000D01*
X40700000Y29150000D02*
X40700000Y34350000D01*
X40700000Y34350000D02*
X32960000Y34350000D01*
X32960000Y34350000D02*
X32960000Y31750000D01*
X32960000Y31750000D02*
X35560000Y31750000D01*
X35560000Y31750000D02*
X35560000Y29150000D01*
X34290000Y29150000D02*
X32960000Y29150000D01*
X32960000Y29150000D02*
X32960000Y30480000D01*
X26610000Y26730000D02*
X27940000Y26730000D01*
X26610000Y25400000D02*
X26610000Y26730000D01*
X29210000Y24130000D02*
X26610000Y24130000D01*
X29210000Y26730000D02*
X29210000Y24130000D01*
X31810000Y26730000D02*
X29210000Y26730000D01*
X31810000Y18990000D02*
X31810000Y26730000D01*
X26610000Y18990000D02*
X31810000Y18990000D01*
X26610000Y24130000D02*
X26610000Y18990000D01*
X21590000Y26730000D02*
X16450000Y26730000D01*
X16450000Y26730000D02*
X16450000Y21530000D01*
X16450000Y21530000D02*
X24190000Y21530000D01*
X24190000Y21530000D02*
X24190000Y24130000D01*
X24190000Y24130000D02*
X21590000Y24130000D01*
X21590000Y24130000D02*
X21590000Y26730000D01*
X22860000Y26730000D02*
X24190000Y26730000D01*
X24190000Y26730000D02*
X24190000Y25400000D01*
X32960000Y21530000D02*
X32960000Y22860000D01*
X34290000Y21530000D02*
X32960000Y21530000D01*
X35560000Y24130000D02*
X35560000Y21530000D01*
X32960000Y24130000D02*
X35560000Y24130000D01*
X32960000Y26730000D02*
X32960000Y24130000D01*
X40700000Y26730000D02*
X32960000Y26730000D01*
X40700000Y21530000D02*
X40700000Y26730000D01*
X35560000Y21530000D02*
X40700000Y21530000D01*
X35500000Y13910000D02*
X35500000Y15240000D01*
X36830000Y13910000D02*
X35500000Y13910000D01*
X38100000Y16510000D02*
X38100000Y13910000D01*
X35500000Y16510000D02*
X38100000Y16510000D01*
X35500000Y19110000D02*
X35500000Y16510000D01*
X45780000Y19110000D02*
X35500000Y19110000D01*
X45780000Y13910000D02*
X45780000Y19110000D01*
X38100000Y13910000D02*
X45780000Y13910000D01*
D11*
X14620240Y31170880D02*
X119380Y31170880D01*
X14620240Y22169120D02*
X14620240Y31170880D01*
X119380Y22169120D02*
X14620240Y22169120D01*
X119380Y31170880D02*
X119380Y22169120D01*
X3619500Y31170880D02*
X3619500Y22169120D01*
X44513800Y48546000D02*
X44513800Y35846000D01*
X1333800Y48546000D02*
X44513800Y48546000D01*
X1333800Y35846000D02*
X1333800Y48546000D01*
X44513800Y35846000D02*
X1333800Y35846000D01*
X25120000Y17385000D02*
X26320000Y17385000D01*
X26320000Y15635000D02*
X25120000Y15635000D01*
X46595000Y12030000D02*
X46595000Y10830000D01*
X44845000Y10830000D02*
X44845000Y12030000D01*
X35520000Y0D02*
X43220000Y0D01*
X43220000Y0D02*
X43220000Y9200000D01*
X43220000Y9200000D02*
X35520000Y9200000D01*
X35520000Y9200000D02*
X35520000Y0D01*
X18450000Y17385000D02*
X19650000Y17385000D01*
X19650000Y15635000D02*
X18450000Y15635000D01*
X32638960Y-126880D02*
X17652960Y-126880D01*
X32638960Y13970120D02*
X17652960Y13970120D01*
X17652960Y-126880D02*
X17652960Y13970120D01*
X32638960Y13970120D02*
X32638960Y-126880D01*
X29170000Y37980000D02*
X29170000Y47780000D01*
X19170000Y37980000D02*
X29170000Y37980000D01*
X19170000Y47780000D02*
X19170000Y37980000D01*
X29170000Y47780000D02*
X19170000Y47780000D01*
X29170000Y47280000D02*
X19170000Y47280000D01*
X29170000Y40880000D02*
X19170000Y40880000D01*
X29170000Y45780000D02*
X19170000Y45780000D01*
X28670000Y43280000D02*
G75*
G03X28670000Y43280000I-2000000J0D01*
G01*
X23670000Y43280000D02*
G75*
G03X23670000Y43280000I-2000000J0D01*
G01*
X24170000Y47280000D02*
X24170000Y47780000D01*
D13*
X44089320Y30599400D02*
X49090580Y30599400D01*
X44089320Y22801600D02*
X44089320Y30599400D01*
X49090580Y22801600D02*
X44089320Y22801600D01*
X48889920Y22499340D02*
X49090580Y22499340D01*
X48889920Y30901660D02*
X48889920Y22499340D01*
X49090580Y30901660D02*
X48889920Y30901660D01*
X49090580Y22499340D02*
X49090580Y30901660D01*
X48988980Y22499340D02*
X48988980Y30901660D01*
D11*
X30200000Y17385000D02*
X31400000Y17385000D01*
X31400000Y15635000D02*
X30200000Y15635000D01*
X7801404Y3357620D02*
X7801404Y4357620D01*
X8182357Y4357620D01*
X8277595Y4310000D01*
X8325214Y4262381D01*
X8372833Y4167143D01*
X8372833Y4024286D01*
X8325214Y3929048D01*
X8277595Y3881429D01*
X8182357Y3833810D01*
X7801404Y3833810D01*
X9229976Y4024286D02*
X9229976Y3357620D01*
X8991880Y4405239D02*
X8753785Y3690953D01*
X9372833Y3690953D01*
X6396642Y10707620D02*
X6396642Y9898096D01*
X6444261Y9802858D01*
X6491880Y9755239D01*
X6587119Y9707620D01*
X6777595Y9707620D01*
X6872833Y9755239D01*
X6920452Y9802858D01*
X6968071Y9898096D01*
X6968071Y10707620D01*
X7396642Y9755239D02*
X7539500Y9707620D01*
X7777595Y9707620D01*
X7872833Y9755239D01*
X7920452Y9802858D01*
X7968071Y9898096D01*
X7968071Y9993334D01*
X7920452Y10088572D01*
X7872833Y10136191D01*
X7777595Y10183810D01*
X7587119Y10231429D01*
X7491880Y10279048D01*
X7444261Y10326667D01*
X7396642Y10421905D01*
X7396642Y10517143D01*
X7444261Y10612381D01*
X7491880Y10660000D01*
X7587119Y10707620D01*
X7825214Y10707620D01*
X7968071Y10660000D01*
X8729976Y10231429D02*
X8872833Y10183810D01*
X8920452Y10136191D01*
X8968071Y10040953D01*
X8968071Y9898096D01*
X8920452Y9802858D01*
X8872833Y9755239D01*
X8777595Y9707620D01*
X8396642Y9707620D01*
X8396642Y10707620D01*
X8729976Y10707620D01*
X8825214Y10660000D01*
X8872833Y10612381D01*
X8920452Y10517143D01*
X8920452Y10421905D01*
X8872833Y10326667D01*
X8825214Y10279048D01*
X8729976Y10231429D01*
X8396642Y10231429D01*
X9158547Y9612381D02*
X9920452Y9612381D01*
X10491880Y10231429D02*
X10634738Y10183810D01*
X10682357Y10136191D01*
X10729976Y10040953D01*
X10729976Y9898096D01*
X10682357Y9802858D01*
X10634738Y9755239D01*
X10539500Y9707620D01*
X10158547Y9707620D01*
X10158547Y10707620D01*
X10491880Y10707620D01*
X10587119Y10660000D01*
X10634738Y10612381D01*
X10682357Y10517143D01*
X10682357Y10421905D01*
X10634738Y10326667D01*
X10587119Y10279048D01*
X10491880Y10231429D01*
X10158547Y10231429D01*
X17486380Y33194667D02*
X18200666Y33194667D01*
X18343523Y33147048D01*
X18438761Y33051810D01*
X18486380Y32908953D01*
X18486380Y32813715D01*
X17486380Y33575620D02*
X17486380Y34194667D01*
X17867333Y33861334D01*
X17867333Y34004191D01*
X17914952Y34099429D01*
X17962571Y34147048D01*
X18057809Y34194667D01*
X18295904Y34194667D01*
X18391142Y34147048D01*
X18438761Y34099429D01*
X18486380Y34004191D01*
X18486380Y33718477D01*
X18438761Y33623239D01*
X18391142Y33575620D01*
X25106380Y33448667D02*
X25820666Y33448667D01*
X25963523Y33401048D01*
X26058761Y33305810D01*
X26106380Y33162953D01*
X26106380Y33067715D01*
X25439714Y34353429D02*
X26106380Y34353429D01*
X25058761Y34115334D02*
X25773047Y33877239D01*
X25773047Y34496286D01*
X42108380Y32789905D02*
X41108380Y32789905D01*
X41108380Y33170858D01*
X41156000Y33266096D01*
X41203619Y33313715D01*
X41298857Y33361334D01*
X41441714Y33361334D01*
X41536952Y33313715D01*
X41584571Y33266096D01*
X41632190Y33170858D01*
X41632190Y32789905D01*
X41536952Y33932762D02*
X41489333Y33837524D01*
X41441714Y33789905D01*
X41346476Y33742286D01*
X41298857Y33742286D01*
X41203619Y33789905D01*
X41156000Y33837524D01*
X41108380Y33932762D01*
X41108380Y34123239D01*
X41156000Y34218477D01*
X41203619Y34266096D01*
X41298857Y34313715D01*
X41346476Y34313715D01*
X41441714Y34266096D01*
X41489333Y34218477D01*
X41536952Y34123239D01*
X41536952Y33932762D01*
X41584571Y33837524D01*
X41632190Y33789905D01*
X41727428Y33742286D01*
X41917904Y33742286D01*
X42013142Y33789905D01*
X42060761Y33837524D01*
X42108380Y33932762D01*
X42108380Y34123239D01*
X42060761Y34218477D01*
X42013142Y34266096D01*
X41917904Y34313715D01*
X41727428Y34313715D01*
X41632190Y34266096D01*
X41584571Y34218477D01*
X41536952Y34123239D01*
X28471904Y27277620D02*
X28471904Y28277620D01*
X28852857Y28277620D01*
X28948095Y28230000D01*
X28995714Y28182381D01*
X29043333Y28087143D01*
X29043333Y27944286D01*
X28995714Y27849048D01*
X28948095Y27801429D01*
X28852857Y27753810D01*
X28471904Y27753810D01*
X29519523Y27277620D02*
X29710000Y27277620D01*
X29805238Y27325239D01*
X29852857Y27372858D01*
X29948095Y27515715D01*
X29995714Y27706191D01*
X29995714Y28087143D01*
X29948095Y28182381D01*
X29900476Y28230000D01*
X29805238Y28277620D01*
X29614761Y28277620D01*
X29519523Y28230000D01*
X29471904Y28182381D01*
X29424285Y28087143D01*
X29424285Y27849048D01*
X29471904Y27753810D01*
X29519523Y27706191D01*
X29614761Y27658572D01*
X29805238Y27658572D01*
X29900476Y27706191D01*
X29948095Y27753810D01*
X29995714Y27849048D01*
X22629904Y27233620D02*
X22629904Y28233620D01*
X23010857Y28233620D01*
X23106095Y28186000D01*
X23153714Y28138381D01*
X23201333Y28043143D01*
X23201333Y27900286D01*
X23153714Y27805048D01*
X23106095Y27757429D01*
X23010857Y27709810D01*
X22629904Y27709810D01*
X23582285Y28138381D02*
X23629904Y28186000D01*
X23725142Y28233620D01*
X23963238Y28233620D01*
X24058476Y28186000D01*
X24106095Y28138381D01*
X24153714Y28043143D01*
X24153714Y27947905D01*
X24106095Y27805048D01*
X23534666Y27233620D01*
X24153714Y27233620D01*
X33297904Y27233620D02*
X33297904Y28233620D01*
X33678857Y28233620D01*
X33774095Y28186000D01*
X33821714Y28138381D01*
X33869333Y28043143D01*
X33869333Y27900286D01*
X33821714Y27805048D01*
X33774095Y27757429D01*
X33678857Y27709810D01*
X33297904Y27709810D01*
X34774095Y28233620D02*
X34297904Y28233620D01*
X34250285Y27757429D01*
X34297904Y27805048D01*
X34393142Y27852667D01*
X34631238Y27852667D01*
X34726476Y27805048D01*
X34774095Y27757429D01*
X34821714Y27662191D01*
X34821714Y27424096D01*
X34774095Y27328858D01*
X34726476Y27281239D01*
X34631238Y27233620D01*
X34393142Y27233620D01*
X34297904Y27281239D01*
X34250285Y27328858D01*
X34952380Y15771905D02*
X33952380Y15771905D01*
X33952380Y16152858D01*
X34000000Y16248096D01*
X34047619Y16295715D01*
X34142857Y16343334D01*
X34285714Y16343334D01*
X34380952Y16295715D01*
X34428571Y16248096D01*
X34476190Y16152858D01*
X34476190Y15771905D01*
X33952380Y16676667D02*
X33952380Y17295715D01*
X34333333Y16962381D01*
X34333333Y17105239D01*
X34380952Y17200477D01*
X34428571Y17248096D01*
X34523809Y17295715D01*
X34761904Y17295715D01*
X34857142Y17248096D01*
X34904761Y17200477D01*
X34952380Y17105239D01*
X34952380Y16819524D01*
X34904761Y16724286D01*
X34857142Y16676667D01*
X8945714Y32027858D02*
X8898095Y31980239D01*
X8755238Y31932620D01*
X8660000Y31932620D01*
X8517142Y31980239D01*
X8421904Y32075477D01*
X8374285Y32170715D01*
X8326666Y32361191D01*
X8326666Y32504048D01*
X8374285Y32694524D01*
X8421904Y32789762D01*
X8517142Y32885000D01*
X8660000Y32932620D01*
X8755238Y32932620D01*
X8898095Y32885000D01*
X8945714Y32837381D01*
X9564761Y32932620D02*
X9755238Y32932620D01*
X9850476Y32885000D01*
X9945714Y32789762D01*
X9993333Y32599286D01*
X9993333Y32265953D01*
X9945714Y32075477D01*
X9850476Y31980239D01*
X9755238Y31932620D01*
X9564761Y31932620D01*
X9469523Y31980239D01*
X9374285Y32075477D01*
X9326666Y32265953D01*
X9326666Y32599286D01*
X9374285Y32789762D01*
X9469523Y32885000D01*
X9564761Y32932620D01*
X10421904Y31932620D02*
X10421904Y32932620D01*
X10993333Y31932620D01*
X10993333Y32932620D01*
X11993333Y31932620D02*
X11421904Y31932620D01*
X11707619Y31932620D02*
X11707619Y32932620D01*
X11612380Y32789762D01*
X11517142Y32694524D01*
X11421904Y32646905D01*
X24598333Y17962620D02*
X24265000Y18438810D01*
X24026904Y17962620D02*
X24026904Y18962620D01*
X24407857Y18962620D01*
X24503095Y18915000D01*
X24550714Y18867381D01*
X24598333Y18772143D01*
X24598333Y18629286D01*
X24550714Y18534048D01*
X24503095Y18486429D01*
X24407857Y18438810D01*
X24026904Y18438810D01*
X24931666Y18962620D02*
X25550714Y18962620D01*
X25217380Y18581667D01*
X25360238Y18581667D01*
X25455476Y18534048D01*
X25503095Y18486429D01*
X25550714Y18391191D01*
X25550714Y18153096D01*
X25503095Y18057858D01*
X25455476Y18010239D01*
X25360238Y17962620D01*
X25074523Y17962620D01*
X24979285Y18010239D01*
X24931666Y18057858D01*
X48272380Y9993334D02*
X47796190Y9660000D01*
X48272380Y9421905D02*
X47272380Y9421905D01*
X47272380Y9802858D01*
X47320000Y9898096D01*
X47367619Y9945715D01*
X47462857Y9993334D01*
X47605714Y9993334D01*
X47700952Y9945715D01*
X47748571Y9898096D01*
X47796190Y9802858D01*
X47796190Y9421905D01*
X47367619Y10374286D02*
X47320000Y10421905D01*
X47272380Y10517143D01*
X47272380Y10755239D01*
X47320000Y10850477D01*
X47367619Y10898096D01*
X47462857Y10945715D01*
X47558095Y10945715D01*
X47700952Y10898096D01*
X48272380Y10326667D01*
X48272380Y10945715D01*
D14*
X36496666Y1817620D02*
X36496666Y1103334D01*
X36449047Y960477D01*
X36353809Y865239D01*
X36210952Y817620D01*
X36115714Y817620D01*
X36925238Y1722381D02*
X36972857Y1770000D01*
X37068095Y1817620D01*
X37306190Y1817620D01*
X37401428Y1770000D01*
X37449047Y1722381D01*
X37496666Y1627143D01*
X37496666Y1531905D01*
X37449047Y1389048D01*
X36877619Y817620D01*
X37496666Y817620D01*
X38822380Y-594761D02*
X39822380Y71905D01*
X38822380Y71905D02*
X39822380Y-594761D01*
X39822380Y452858D02*
X38822380Y452858D01*
X39536666Y786191D01*
X38822380Y1119524D01*
X39822380Y1119524D01*
X38822380Y1500477D02*
X38822380Y2167143D01*
X39822380Y1738572D01*
X39822380Y2548096D02*
X38822380Y2548096D01*
X38822380Y2786191D01*
X38870000Y2929048D01*
X38965238Y3024286D01*
X39060476Y3071905D01*
X39250952Y3119524D01*
X39393809Y3119524D01*
X39584285Y3071905D01*
X39679523Y3024286D01*
X39774761Y2929048D01*
X39822380Y2786191D01*
X39822380Y2548096D01*
X39441428Y3548096D02*
X39441428Y4310000D01*
X38822380Y4976667D02*
X38822380Y5071905D01*
X38870000Y5167143D01*
X38917619Y5214762D01*
X39012857Y5262381D01*
X39203333Y5310000D01*
X39441428Y5310000D01*
X39631904Y5262381D01*
X39727142Y5214762D01*
X39774761Y5167143D01*
X39822380Y5071905D01*
X39822380Y4976667D01*
X39774761Y4881429D01*
X39727142Y4833810D01*
X39631904Y4786191D01*
X39441428Y4738572D01*
X39203333Y4738572D01*
X39012857Y4786191D01*
X38917619Y4833810D01*
X38870000Y4881429D01*
X38822380Y4976667D01*
X38822380Y6214762D02*
X38822380Y5738572D01*
X39298571Y5690953D01*
X39250952Y5738572D01*
X39203333Y5833810D01*
X39203333Y6071905D01*
X39250952Y6167143D01*
X39298571Y6214762D01*
X39393809Y6262381D01*
X39631904Y6262381D01*
X39727142Y6214762D01*
X39774761Y6167143D01*
X39822380Y6071905D01*
X39822380Y5833810D01*
X39774761Y5738572D01*
X39727142Y5690953D01*
X39822380Y7214762D02*
X39822380Y6643334D01*
X39822380Y6929048D02*
X38822380Y6929048D01*
X38965238Y6833810D01*
X39060476Y6738572D01*
X39108095Y6643334D01*
X38917619Y7595715D02*
X38870000Y7643334D01*
X38822380Y7738572D01*
X38822380Y7976667D01*
X38870000Y8071905D01*
X38917619Y8119524D01*
X39012857Y8167143D01*
X39108095Y8167143D01*
X39250952Y8119524D01*
X39822380Y7548096D01*
X39822380Y8167143D01*
D11*
X18883333Y17962620D02*
X18550000Y18438810D01*
X18311904Y17962620D02*
X18311904Y18962620D01*
X18692857Y18962620D01*
X18788095Y18915000D01*
X18835714Y18867381D01*
X18883333Y18772143D01*
X18883333Y18629286D01*
X18835714Y18534048D01*
X18788095Y18486429D01*
X18692857Y18438810D01*
X18311904Y18438810D01*
X19835714Y17962620D02*
X19264285Y17962620D01*
X19550000Y17962620D02*
X19550000Y18962620D01*
X19454761Y18819762D01*
X19359523Y18724524D01*
X19264285Y18676905D01*
X24661904Y8437620D02*
X24661904Y9437620D01*
X25042857Y9437620D01*
X25138095Y9390000D01*
X25185714Y9342381D01*
X25233333Y9247143D01*
X25233333Y9104286D01*
X25185714Y9009048D01*
X25138095Y8961429D01*
X25042857Y8913810D01*
X24661904Y8913810D01*
X25566666Y9437620D02*
X26233333Y9437620D01*
X25804761Y8437620D01*
X23355611Y5938040D02*
X23355611Y5128516D01*
X23403230Y5033278D01*
X23450849Y4985659D01*
X23546087Y4938040D01*
X23736563Y4938040D01*
X23831801Y4985659D01*
X23879420Y5033278D01*
X23927040Y5128516D01*
X23927040Y5938040D01*
X24355611Y4985659D02*
X24498468Y4938040D01*
X24736563Y4938040D01*
X24831801Y4985659D01*
X24879420Y5033278D01*
X24927040Y5128516D01*
X24927040Y5223754D01*
X24879420Y5318992D01*
X24831801Y5366611D01*
X24736563Y5414230D01*
X24546087Y5461849D01*
X24450849Y5509468D01*
X24403230Y5557087D01*
X24355611Y5652325D01*
X24355611Y5747563D01*
X24403230Y5842801D01*
X24450849Y5890420D01*
X24546087Y5938040D01*
X24784182Y5938040D01*
X24927040Y5890420D01*
X25688944Y5461849D02*
X25831801Y5414230D01*
X25879420Y5366611D01*
X25927040Y5271373D01*
X25927040Y5128516D01*
X25879420Y5033278D01*
X25831801Y4985659D01*
X25736563Y4938040D01*
X25355611Y4938040D01*
X25355611Y5938040D01*
X25688944Y5938040D01*
X25784182Y5890420D01*
X25831801Y5842801D01*
X25879420Y5747563D01*
X25879420Y5652325D01*
X25831801Y5557087D01*
X25784182Y5509468D01*
X25688944Y5461849D01*
X25355611Y5461849D01*
X26117516Y4842801D02*
X26879420Y4842801D01*
X27069897Y5223754D02*
X27546087Y5223754D01*
X26974659Y4938040D02*
X27307992Y5938040D01*
X27641325Y4938040D01*
X29892666Y47791620D02*
X29892666Y47077334D01*
X29845047Y46934477D01*
X29749809Y46839239D01*
X29606952Y46791620D01*
X29511714Y46791620D01*
X30892666Y46791620D02*
X30321238Y46791620D01*
X30606952Y46791620D02*
X30606952Y47791620D01*
X30511714Y47648762D01*
X30416476Y47553524D01*
X30321238Y47505905D01*
D15*
X43152362Y22744672D02*
X42651982Y22744672D01*
X42651982Y22935293D01*
X42675810Y22982949D01*
X42699637Y23006776D01*
X42747292Y23030604D01*
X42818775Y23030604D01*
X42866430Y23006776D01*
X42890258Y22982949D01*
X42914086Y22935293D01*
X42914086Y22744672D01*
X42651982Y23459501D02*
X42651982Y23364190D01*
X42675810Y23316535D01*
X42699637Y23292708D01*
X42771120Y23245052D01*
X42866430Y23221225D01*
X43057051Y23221225D01*
X43104707Y23245052D01*
X43128534Y23268880D01*
X43152362Y23316535D01*
X43152362Y23411846D01*
X43128534Y23459501D01*
X43104707Y23483329D01*
X43057051Y23507156D01*
X42937913Y23507156D01*
X42890258Y23483329D01*
X42866430Y23459501D01*
X42842603Y23411846D01*
X42842603Y23316535D01*
X42866430Y23268880D01*
X42890258Y23245052D01*
X42937913Y23221225D01*
X42715482Y25628258D02*
X43120551Y25628258D01*
X43168207Y25652085D01*
X43192034Y25675913D01*
X43215862Y25723568D01*
X43215862Y25818879D01*
X43192034Y25866534D01*
X43168207Y25890361D01*
X43120551Y25914189D01*
X42715482Y25914189D01*
X43192034Y26128638D02*
X43215862Y26200120D01*
X43215862Y26319259D01*
X43192034Y26366914D01*
X43168207Y26390741D01*
X43120551Y26414569D01*
X43072896Y26414569D01*
X43025241Y26390741D01*
X43001413Y26366914D01*
X42977586Y26319259D01*
X42953758Y26223948D01*
X42929930Y26176293D01*
X42906103Y26152465D01*
X42858448Y26128638D01*
X42810792Y26128638D01*
X42763137Y26152465D01*
X42739310Y26176293D01*
X42715482Y26223948D01*
X42715482Y26343086D01*
X42739310Y26414569D01*
X42953758Y26795811D02*
X42977586Y26867294D01*
X43001413Y26891121D01*
X43049069Y26914949D01*
X43120551Y26914949D01*
X43168207Y26891121D01*
X43192034Y26867294D01*
X43215862Y26819639D01*
X43215862Y26629018D01*
X42715482Y26629018D01*
X42715482Y26795811D01*
X42739310Y26843466D01*
X42763137Y26867294D01*
X42810792Y26891121D01*
X42858448Y26891121D01*
X42906103Y26867294D01*
X42929930Y26843466D01*
X42953758Y26795811D01*
X42953758Y26629018D01*
X43263517Y27010260D02*
X43263517Y27391501D01*
X42953758Y27677433D02*
X42977586Y27748916D01*
X43001413Y27772743D01*
X43049069Y27796571D01*
X43120551Y27796571D01*
X43168207Y27772743D01*
X43192034Y27748916D01*
X43215862Y27701260D01*
X43215862Y27510640D01*
X42715482Y27510640D01*
X42715482Y27677433D01*
X42739310Y27725088D01*
X42763137Y27748916D01*
X42810792Y27772743D01*
X42858448Y27772743D01*
X42906103Y27748916D01*
X42929930Y27725088D01*
X42953758Y27677433D01*
X42953758Y27510640D01*
D11*
X28408333Y17581620D02*
X28075000Y18057810D01*
X27836904Y17581620D02*
X27836904Y18581620D01*
X28217857Y18581620D01*
X28313095Y18534000D01*
X28360714Y18486381D01*
X28408333Y18391143D01*
X28408333Y18248286D01*
X28360714Y18153048D01*
X28313095Y18105429D01*
X28217857Y18057810D01*
X27836904Y18057810D01*
X29265476Y18248286D02*
X29265476Y17581620D01*
X29027380Y18629239D02*
X28789285Y17914953D01*
X29408333Y17914953D01*
M02*
