G04 #@! TF.GenerationSoftware,KiCad,Pcbnew,(2017-04-12 revision 02abf1804)-makepkg*
G04 #@! TF.CreationDate,2017-04-26T22:03:16+03:00*
G04 #@! TF.ProjectId,vbb,7662622E6B696361645F706362000000,rev?*
G04 #@! TF.FileFunction,Copper,L1,Top,Signal*
G04 #@! TF.FilePolarity,Positive*
%FSLAX46Y46*%
G04 Gerber Fmt 4.6, Leading zero omitted, Abs format (unit mm)*
G04 Created by KiCad (PCBNEW (2017-04-12 revision 02abf1804)-makepkg) date 04/26/17 22:03:16*
%MOMM*%
%LPD*%
G01*
G04 APERTURE LIST*
%ADD10C,0.100000*%
%ADD11C,1.600000*%
%ADD12O,2.000000X3.950000*%
%ADD13C,10.160000*%
%ADD14C,2.700020*%
%ADD15C,1.524000*%
%ADD16R,1.700000X1.700000*%
%ADD17O,1.700000X1.700000*%
%ADD18R,3.500120X3.500120*%
%ADD19R,0.700000X1.300000*%
%ADD20R,1.300000X0.700000*%
%ADD21C,1.195000*%
%ADD22C,2.800000*%
%ADD23C,2.999740*%
%ADD24C,1.501140*%
%ADD25C,2.500000*%
%ADD26R,2.500000X2.500000*%
%ADD27R,1.379220X0.449580*%
%ADD28R,2.100580X1.473200*%
%ADD29R,1.897380X2.374900*%
%ADD30R,1.897380X1.173480*%
%ADD31C,0.800000*%
%ADD32C,0.500000*%
%ADD33C,0.400000*%
%ADD34C,0.250000*%
%ADD35C,0.254000*%
G04 APERTURE END LIST*
D10*
D11*
X21650000Y4830000D03*
X24150000Y4830000D03*
X26150000Y4830000D03*
D12*
X19450000Y2730000D03*
D11*
X28650000Y4830000D03*
D12*
X30850000Y2730000D03*
D13*
X41910000Y41910000D03*
X22860000Y41910000D03*
D14*
X4953000Y3144520D03*
X4953000Y15143480D03*
D15*
X7653020Y10414000D03*
X7653020Y7874000D03*
X9652000Y7874000D03*
X9652000Y10414000D03*
D16*
X22860000Y33020000D03*
D17*
X22860000Y30480000D03*
X20320000Y33020000D03*
X20320000Y30480000D03*
X27940000Y30480000D03*
X27940000Y33020000D03*
X30480000Y30480000D03*
D16*
X30480000Y33020000D03*
X34290000Y30480000D03*
D17*
X34290000Y33020000D03*
X36830000Y30480000D03*
X36830000Y33020000D03*
X39370000Y30480000D03*
X39370000Y33020000D03*
X30480000Y20320000D03*
X27940000Y20320000D03*
X30480000Y22860000D03*
X27940000Y22860000D03*
X30480000Y25400000D03*
D16*
X27940000Y25400000D03*
X22860000Y25400000D03*
D17*
X22860000Y22860000D03*
X20320000Y25400000D03*
X20320000Y22860000D03*
X17780000Y25400000D03*
X17780000Y22860000D03*
X39370000Y25400000D03*
X39370000Y22860000D03*
X36830000Y25400000D03*
X36830000Y22860000D03*
X34290000Y25400000D03*
D16*
X34290000Y22860000D03*
D17*
X44450000Y17780000D03*
X44450000Y15240000D03*
X41910000Y17780000D03*
X41910000Y15240000D03*
X39370000Y17780000D03*
X39370000Y15240000D03*
X36830000Y17780000D03*
D16*
X36830000Y15240000D03*
D18*
X10820400Y21971000D03*
X7820660Y26670000D03*
X13820140Y26670000D03*
D19*
X26670000Y16510000D03*
X24770000Y16510000D03*
D20*
X35052000Y6416000D03*
X35052000Y8316000D03*
D21*
X40093000Y4750000D03*
X41293000Y5550000D03*
X40093000Y6350000D03*
X41293000Y7150000D03*
X40093000Y7950000D03*
D22*
X40993000Y2650000D03*
X40993000Y10050000D03*
X45743000Y2650000D03*
X45743000Y10050000D03*
D19*
X20000000Y16510000D03*
X18100000Y16510000D03*
D23*
X18033960Y10160120D03*
X31749960Y10160120D03*
D24*
X21589960Y12827120D03*
X24129960Y12827120D03*
X26161960Y12827120D03*
X28701960Y12827120D03*
D25*
X5080000Y38100000D03*
D26*
X5080000Y43100000D03*
D27*
X44330620Y28000980D03*
X44330620Y27350740D03*
X44330620Y26700500D03*
X44330620Y26050260D03*
X44330620Y25400020D03*
D28*
X44691300Y24239240D03*
X44691300Y29161760D03*
D29*
X46990000Y23787120D03*
X46990000Y29613880D03*
D30*
X46990000Y27538700D03*
X46990000Y25862300D03*
D19*
X31750000Y16510000D03*
X29850000Y16510000D03*
D31*
X43041000Y27399700D03*
X40945000Y24967000D03*
X42494000Y28390800D03*
D32*
X19900000Y16910000D02*
X19650000Y16910000D01*
X12320500Y20471000D02*
X10820400Y21971000D01*
X12320500Y20221000D02*
X12320500Y20471000D01*
X12320500Y20117000D02*
X12320500Y20221000D01*
X12466900Y19971000D02*
X12320500Y20117000D01*
X18677900Y17710000D02*
X12466900Y19971000D01*
X19546400Y16910000D02*
X18677900Y17710000D01*
X29950000Y16910000D02*
X29850000Y16510000D01*
X30200000Y16910000D02*
X29950000Y16910000D01*
X30303600Y16910000D02*
X30200000Y16910000D01*
X31172100Y17710100D02*
X30303600Y16910000D01*
X31627900Y17710100D02*
X31172100Y17710100D01*
X32327900Y17710100D02*
X31627900Y17710100D01*
X35876400Y15840000D02*
X32327900Y17710100D01*
X35980000Y15840000D02*
X35876400Y15840000D01*
X36230000Y15840000D02*
X35980000Y15840000D01*
X36830000Y15240000D02*
X36230000Y15840000D01*
X20100000Y16110000D02*
X20000000Y16510000D01*
X20100000Y15860000D02*
X20100000Y16110000D01*
X20100000Y15756400D02*
X20100000Y15860000D01*
X20289400Y12297100D02*
X20100000Y15756400D01*
X21650000Y4860000D02*
X20289400Y12297100D01*
X20099900Y15860000D02*
X20099900Y16110100D01*
X20099900Y16110000D02*
X20099900Y15860000D01*
X20000000Y16510000D02*
X20099900Y16110000D01*
X26570000Y16110000D02*
X26670000Y16510000D01*
X26320000Y16110000D02*
X26570000Y16110000D01*
X26216400Y16110000D02*
X26320000Y16110000D01*
X25347900Y15310000D02*
X26216400Y16110000D01*
X24892100Y15310000D02*
X25347900Y15310000D01*
X24192100Y15310000D02*
X24892100Y15310000D01*
X20453600Y16110000D02*
X24192100Y15310000D01*
X20350000Y16110000D02*
X20453600Y16110000D01*
X20100000Y16110000D02*
X20350000Y16110000D01*
X20063700Y16255300D02*
X20000000Y16510000D01*
D33*
X43475000Y27375500D02*
X43041000Y27399700D01*
X43641000Y27375500D02*
X43475000Y27375500D01*
X43841000Y27375500D02*
X43641000Y27375500D01*
X44330600Y27350700D02*
X43841000Y27375500D01*
D32*
X41910000Y15240000D02*
X39370000Y15240000D01*
X44450000Y15240000D02*
X41910000Y15240000D01*
X28541300Y29101200D02*
X30480000Y30480000D01*
X28489800Y29079900D02*
X28541300Y29101200D01*
X27390200Y29079900D02*
X28489800Y29079900D01*
X22310200Y29079900D02*
X27390200Y29079900D01*
X22258700Y29101200D02*
X22310200Y29079900D01*
X20320000Y30480000D02*
X22258700Y29101200D01*
X35452000Y8216000D02*
X35052000Y8316000D01*
X35702000Y8216000D02*
X35452000Y8216000D01*
X35806000Y8216000D02*
X35702000Y8216000D01*
X40093000Y7950000D02*
X35806000Y8216000D01*
X34402000Y8216000D02*
X34298000Y8216000D01*
X34652000Y8216000D02*
X34402000Y8216000D01*
X35052000Y8316000D02*
X34652000Y8216000D01*
X35452000Y8416000D02*
X35052000Y8316000D01*
X35452000Y8666000D02*
X35452000Y8416000D01*
X35452000Y8770000D02*
X35452000Y8666000D01*
X36230000Y14286000D02*
X35452000Y8770000D01*
X36230000Y14390000D02*
X36230000Y14286000D01*
X36230000Y14640000D02*
X36230000Y14390000D01*
X36830000Y15240000D02*
X36230000Y14640000D01*
X28702000Y12827100D02*
X28491500Y15413000D01*
X29750000Y16110000D02*
X29850000Y16510000D01*
X29500000Y16110000D02*
X29750000Y16110000D01*
X29396400Y16110000D02*
X29500000Y16110000D01*
X28491500Y15413000D02*
X29396400Y16110000D01*
X12320500Y23471000D02*
X10820400Y21971000D01*
X12570500Y23471000D02*
X12320500Y23471000D01*
X12674100Y23471000D02*
X12570500Y23471000D01*
X15798100Y24370000D02*
X12674100Y23471000D01*
X16120300Y24692000D02*
X15798100Y24370000D01*
X16379900Y25949800D02*
X16120300Y24692000D01*
X16401200Y26001300D02*
X16379900Y25949800D01*
X20320000Y30480000D02*
X16401200Y26001300D01*
X27123600Y16110000D02*
X28491500Y15413000D01*
X27020000Y16110000D02*
X27123600Y16110000D01*
X26770000Y16110000D02*
X27020000Y16110000D01*
X26670000Y16510000D02*
X26770000Y16110000D01*
X44450000Y17780000D02*
X41910000Y17780000D01*
X41910000Y17780000D02*
X39370000Y17780000D01*
D34*
X17698200Y15985000D02*
X4953000Y15143500D01*
X17750000Y15985000D02*
X17698200Y15985000D01*
X17875000Y15985000D02*
X17750000Y15985000D01*
X18100000Y16510000D02*
X17875000Y15985000D01*
X24995000Y17035000D02*
X24770000Y16510000D01*
X24995000Y17160000D02*
X24995000Y17035000D01*
X24995000Y17212000D02*
X24995000Y17160000D01*
X25068200Y17285000D02*
X24995000Y17212000D01*
X30995700Y19075000D02*
X25068200Y17285000D01*
X37346000Y21615000D02*
X30995700Y19075000D01*
X38075000Y22344000D02*
X37346000Y21615000D01*
X38125000Y23376000D02*
X38075000Y22344000D01*
X38854000Y24105000D02*
X38125000Y23376000D01*
X39886000Y24155000D02*
X38854000Y24105000D01*
X40945000Y24967000D02*
X39886000Y24155000D01*
X43367000Y28187500D02*
X42494000Y28390800D01*
X43507000Y28100800D02*
X43367000Y28187500D01*
X43641000Y28100800D02*
X43507000Y28100800D01*
X43766000Y28100800D02*
X43641000Y28100800D01*
X44330600Y28001000D02*
X43766000Y28100800D01*
X35577000Y6191000D02*
X35052000Y6416000D01*
X35702000Y6191000D02*
X35577000Y6191000D01*
X35754000Y6191000D02*
X35702000Y6191000D01*
X40993000Y2650000D02*
X35754000Y6191000D01*
X45743000Y10050000D02*
X40993000Y10050000D01*
X40615000Y30995700D02*
X39370000Y33020000D01*
X41698000Y28061500D02*
X40615000Y30995700D01*
X42242000Y27068700D02*
X41698000Y28061500D01*
X42710000Y26600700D02*
X42242000Y27068700D01*
X43641000Y26600700D02*
X42710000Y26600700D01*
X43766000Y26600700D02*
X43641000Y26600700D01*
X44330600Y26700500D02*
X43766000Y26600700D01*
X38075000Y30995700D02*
X36830000Y33020000D01*
X38125000Y29964300D02*
X38075000Y30995700D01*
X38854000Y29234900D02*
X38125000Y29964300D01*
X42492000Y26099100D02*
X38854000Y29234900D01*
X42510000Y26091800D02*
X42492000Y26099100D01*
X43641000Y26091800D02*
X42510000Y26091800D01*
X43766000Y26091800D02*
X43641000Y26091800D01*
X44330600Y26050300D02*
X43766000Y26091800D01*
X28455700Y21565000D02*
X30480000Y20320000D01*
X22335100Y21585000D02*
X28455700Y21565000D01*
X22329500Y21587000D02*
X22335100Y21585000D01*
X21501000Y21529000D02*
X22329500Y21587000D01*
X19696700Y21507000D02*
X21501000Y21529000D01*
X18967300Y22237000D02*
X19696700Y21507000D01*
X18970900Y24215000D02*
X18967300Y22237000D01*
X17780000Y25400000D02*
X18970900Y24215000D01*
X37346000Y24155000D02*
X39370000Y25400000D01*
X36314000Y24105000D02*
X37346000Y24155000D01*
X35585000Y23376000D02*
X36314000Y24105000D01*
X35535000Y21846000D02*
X35585000Y23376000D01*
X35304000Y21615000D02*
X35535000Y21846000D01*
X30480000Y20320000D02*
X35304000Y21615000D01*
X34820000Y24127000D02*
X36830000Y25400000D01*
X34815000Y24125000D02*
X34820000Y24127000D01*
X33276300Y24105000D02*
X34815000Y24125000D01*
X30480000Y22860000D02*
X33276300Y24105000D01*
X28455700Y24105000D02*
X30480000Y22860000D01*
X23533900Y24125000D02*
X28455700Y24105000D01*
X23383900Y24130000D02*
X23533900Y24125000D01*
X22336100Y24130000D02*
X23383900Y24130000D01*
X22186100Y24125000D02*
X22336100Y24130000D01*
X21833900Y24125000D02*
X22186100Y24125000D01*
X20320000Y25400000D02*
X21833900Y24125000D01*
D33*
X43476000Y25375000D02*
X43185000Y25367000D01*
X43641000Y25375000D02*
X43476000Y25375000D01*
X43841000Y25375000D02*
X43641000Y25375000D01*
X44330600Y25400000D02*
X43841000Y25375000D01*
D32*
X32889900Y31557900D02*
X34290000Y33020000D01*
X32889900Y29857900D02*
X32889900Y31557900D01*
X32889900Y29402100D02*
X32889900Y29857900D01*
X33212100Y29079900D02*
X32889900Y29402100D01*
X39920000Y26800100D02*
X33212100Y29079900D01*
X39971000Y26778800D02*
X39920000Y26800100D01*
X42088000Y25495000D02*
X39971000Y26778800D01*
X42368000Y25379000D02*
X42088000Y25495000D01*
X43185000Y25367000D02*
X42368000Y25379000D01*
X23585100Y14121500D02*
X21590000Y12827100D01*
X23600000Y14127700D02*
X23585100Y14121500D01*
X24660000Y14127700D02*
X23600000Y14127700D01*
X26685900Y14097100D02*
X24660000Y14127700D01*
X26689600Y14095600D02*
X26685900Y14097100D01*
X27430500Y13354700D02*
X26689600Y14095600D01*
X27432000Y13351000D02*
X27430500Y13354700D01*
X27432000Y12303200D02*
X27432000Y13351000D01*
X28650000Y4860000D02*
X27432000Y12303200D01*
D34*
X31750000Y15860000D02*
X31750000Y10160100D01*
X31750000Y15985000D02*
X31750000Y15860000D01*
X31750000Y16510000D02*
X31750000Y15985000D01*
X26150000Y4860000D02*
X24130000Y12827100D01*
D35*
G36*
X48845000Y685000D02*
X46316276Y685000D01*
X46894229Y923805D01*
X47467183Y1495760D01*
X47777646Y2243438D01*
X47778352Y3053011D01*
X47469195Y3801229D01*
X46897240Y4374183D01*
X46149562Y4684646D01*
X45339989Y4685352D01*
X44591771Y4376195D01*
X44018817Y3804240D01*
X43708354Y3056562D01*
X43707648Y2246989D01*
X44016805Y1498771D01*
X44588760Y925817D01*
X45168712Y685000D01*
X41566276Y685000D01*
X42144229Y923805D01*
X42717183Y1495760D01*
X43027646Y2243438D01*
X43028352Y3053011D01*
X42719195Y3801229D01*
X42147240Y4374183D01*
X41911595Y4472031D01*
X41990243Y4504528D01*
X42337253Y4850933D01*
X42525285Y5303765D01*
X42525713Y5794084D01*
X42338472Y6247243D01*
X42236019Y6349875D01*
X42337253Y6450933D01*
X42525285Y6903765D01*
X42525713Y7394084D01*
X42338472Y7847243D01*
X41992067Y8194253D01*
X41911577Y8227675D01*
X42144229Y8323805D01*
X42717183Y8895760D01*
X42880886Y9290000D01*
X43855153Y9290000D01*
X44016805Y8898771D01*
X44588760Y8325817D01*
X45336438Y8015354D01*
X46146011Y8014648D01*
X46894229Y8323805D01*
X47467183Y8895760D01*
X47777646Y9643438D01*
X47778352Y10453011D01*
X47469195Y11201229D01*
X46897240Y11774183D01*
X46149562Y12084646D01*
X45339989Y12085352D01*
X44591771Y11776195D01*
X44018817Y11204240D01*
X43855114Y10810000D01*
X42880847Y10810000D01*
X42719195Y11201229D01*
X42147240Y11774183D01*
X41399562Y12084646D01*
X40589989Y12085352D01*
X39841771Y11776195D01*
X39268817Y11204240D01*
X38958354Y10456562D01*
X38957648Y9646989D01*
X39266805Y8898771D01*
X39278304Y8887252D01*
X36387595Y9066615D01*
X37047110Y13742560D01*
X37680000Y13742560D01*
X37927765Y13791843D01*
X38137809Y13932191D01*
X38278157Y14142235D01*
X38290597Y14204777D01*
X38319946Y14160853D01*
X38801715Y13838946D01*
X39370000Y13725907D01*
X39938285Y13838946D01*
X40420054Y14160853D01*
X40549779Y14355000D01*
X40730221Y14355000D01*
X40859946Y14160853D01*
X41341715Y13838946D01*
X41910000Y13725907D01*
X42478285Y13838946D01*
X42960054Y14160853D01*
X43089779Y14355000D01*
X43270221Y14355000D01*
X43399946Y14160853D01*
X43881715Y13838946D01*
X44450000Y13725907D01*
X45018285Y13838946D01*
X45500054Y14160853D01*
X45821961Y14642622D01*
X45935000Y15210907D01*
X45935000Y15269093D01*
X45821961Y15837378D01*
X45500054Y16319147D01*
X45216899Y16508345D01*
X45216924Y16508355D01*
X45645183Y16898642D01*
X45891486Y17423108D01*
X45770819Y17653000D01*
X44577000Y17653000D01*
X44577000Y17633000D01*
X44323000Y17633000D01*
X44323000Y17653000D01*
X42037000Y17653000D01*
X42037000Y17633000D01*
X41783000Y17633000D01*
X41783000Y17653000D01*
X39497000Y17653000D01*
X39497000Y17633000D01*
X39243000Y17633000D01*
X39243000Y17653000D01*
X36957000Y17653000D01*
X36957000Y17633000D01*
X36703000Y17633000D01*
X36703000Y17653000D01*
X35509181Y17653000D01*
X35388514Y17423108D01*
X35591721Y16990408D01*
X33416278Y18136892D01*
X35388514Y18136892D01*
X35509181Y17907000D01*
X36703000Y17907000D01*
X36703000Y19100155D01*
X36957000Y19100155D01*
X36957000Y17907000D01*
X39243000Y17907000D01*
X39243000Y19100155D01*
X39497000Y19100155D01*
X39497000Y17907000D01*
X41783000Y17907000D01*
X41783000Y19100155D01*
X42037000Y19100155D01*
X42037000Y17907000D01*
X44323000Y17907000D01*
X44323000Y19100155D01*
X44577000Y19100155D01*
X44577000Y17907000D01*
X45770819Y17907000D01*
X45891486Y18136892D01*
X45645183Y18661358D01*
X45216924Y19051645D01*
X44806890Y19221476D01*
X44577000Y19100155D01*
X44323000Y19100155D01*
X44093110Y19221476D01*
X43683076Y19051645D01*
X43254817Y18661358D01*
X43180000Y18502046D01*
X43105183Y18661358D01*
X42676924Y19051645D01*
X42266890Y19221476D01*
X42037000Y19100155D01*
X41783000Y19100155D01*
X41553110Y19221476D01*
X41143076Y19051645D01*
X40714817Y18661358D01*
X40640000Y18502046D01*
X40565183Y18661358D01*
X40136924Y19051645D01*
X39726890Y19221476D01*
X39497000Y19100155D01*
X39243000Y19100155D01*
X39013110Y19221476D01*
X38603076Y19051645D01*
X38174817Y18661358D01*
X38100000Y18502046D01*
X38025183Y18661358D01*
X37596924Y19051645D01*
X37186890Y19221476D01*
X36957000Y19100155D01*
X36703000Y19100155D01*
X36473110Y19221476D01*
X36063076Y19051645D01*
X35634817Y18661358D01*
X35388514Y18136892D01*
X33416278Y18136892D01*
X32740512Y18493028D01*
X32700917Y18504786D01*
X32666575Y18527733D01*
X32536565Y18553594D01*
X32409490Y18591331D01*
X32368409Y18587042D01*
X32327900Y18595100D01*
X31842339Y18595100D01*
X37628246Y20909353D01*
X37632208Y20911931D01*
X37636839Y20912852D01*
X37756299Y20992673D01*
X37876800Y21071078D01*
X37879473Y21074974D01*
X37883401Y21077599D01*
X38479827Y21674025D01*
X38801715Y21458946D01*
X39370000Y21345907D01*
X39938285Y21458946D01*
X40420054Y21780853D01*
X40741961Y22262622D01*
X40855000Y22830907D01*
X40855000Y22889093D01*
X40741961Y23457378D01*
X40566894Y23719386D01*
X40844297Y23932088D01*
X41149971Y23931821D01*
X41530515Y24089058D01*
X41821919Y24379954D01*
X41916634Y24608053D01*
X42029275Y24561387D01*
X42192396Y24528930D01*
X42355003Y24494095D01*
X42993570Y24484716D01*
X42993570Y23502640D01*
X43042853Y23254875D01*
X43183201Y23044831D01*
X43393245Y22904483D01*
X43641010Y22855200D01*
X45393870Y22855200D01*
X45393870Y22599670D01*
X45443153Y22351905D01*
X45583501Y22141861D01*
X45793545Y22001513D01*
X46041310Y21952230D01*
X47938690Y21952230D01*
X48186455Y22001513D01*
X48396499Y22141861D01*
X48536847Y22351905D01*
X48586130Y22599670D01*
X48586130Y24974570D01*
X48556195Y25125065D01*
X48586130Y25275560D01*
X48586130Y26449040D01*
X48536847Y26696805D01*
X48534378Y26700500D01*
X48536847Y26704195D01*
X48586130Y26951960D01*
X48586130Y28125440D01*
X48556195Y28275935D01*
X48586130Y28426430D01*
X48586130Y30801330D01*
X48536847Y31049095D01*
X48396499Y31259139D01*
X48186455Y31399487D01*
X47938690Y31448770D01*
X46041310Y31448770D01*
X45793545Y31399487D01*
X45583501Y31259139D01*
X45443153Y31049095D01*
X45393870Y30801330D01*
X45393870Y30545800D01*
X43641010Y30545800D01*
X43393245Y30496517D01*
X43183201Y30356169D01*
X43042853Y30146125D01*
X42993570Y29898360D01*
X42993570Y29304042D01*
X42700777Y29425620D01*
X42289029Y29425979D01*
X42042144Y29323969D01*
X41327985Y31258859D01*
X41288576Y31323147D01*
X41262363Y31393847D01*
X40683474Y32335089D01*
X40741961Y32422622D01*
X40855000Y32990907D01*
X40855000Y33049093D01*
X40741961Y33617378D01*
X40420054Y34099147D01*
X39938285Y34421054D01*
X39370000Y34534093D01*
X38801715Y34421054D01*
X38319946Y34099147D01*
X38100000Y33769974D01*
X37880054Y34099147D01*
X37398285Y34421054D01*
X36830000Y34534093D01*
X36261715Y34421054D01*
X35779946Y34099147D01*
X35560000Y33769974D01*
X35340054Y34099147D01*
X34858285Y34421054D01*
X34290000Y34534093D01*
X33721715Y34421054D01*
X33239946Y34099147D01*
X32918039Y33617378D01*
X32805000Y33049093D01*
X32805000Y32990907D01*
X32844870Y32790466D01*
X32250705Y32169990D01*
X32162979Y32032336D01*
X32072267Y31896575D01*
X32070365Y31887011D01*
X32065124Y31878788D01*
X32036747Y31718003D01*
X32004900Y31557900D01*
X32004900Y29402105D01*
X32004899Y29402100D01*
X32049335Y29178709D01*
X32072267Y29063425D01*
X32261805Y28779759D01*
X32264110Y28776310D01*
X32586311Y28454110D01*
X32610576Y28437897D01*
X32628332Y28414739D01*
X32753358Y28342493D01*
X32873426Y28262266D01*
X32902048Y28256573D01*
X32927315Y28241972D01*
X36840511Y26912002D01*
X36830000Y26914093D01*
X36261715Y26801054D01*
X35779946Y26479147D01*
X35552298Y26138447D01*
X35485183Y26281358D01*
X35056924Y26671645D01*
X34646890Y26841476D01*
X34417000Y26720155D01*
X34417000Y25527000D01*
X34437000Y25527000D01*
X34437000Y25273000D01*
X34417000Y25273000D01*
X34417000Y25253000D01*
X34163000Y25253000D01*
X34163000Y25273000D01*
X32969181Y25273000D01*
X32848514Y25043108D01*
X32963735Y24797761D01*
X31323528Y24067489D01*
X31218447Y24137702D01*
X31361358Y24204817D01*
X31751645Y24633076D01*
X31921476Y25043110D01*
X31800155Y25273000D01*
X30607000Y25273000D01*
X30607000Y25253000D01*
X30353000Y25253000D01*
X30353000Y25273000D01*
X30333000Y25273000D01*
X30333000Y25527000D01*
X30353000Y25527000D01*
X30353000Y26720819D01*
X30607000Y26720819D01*
X30607000Y25527000D01*
X31800155Y25527000D01*
X31921476Y25756890D01*
X31921476Y25756892D01*
X32848514Y25756892D01*
X32969181Y25527000D01*
X34163000Y25527000D01*
X34163000Y26720155D01*
X33933110Y26841476D01*
X33523076Y26671645D01*
X33094817Y26281358D01*
X32848514Y25756892D01*
X31921476Y25756892D01*
X31751645Y26166924D01*
X31361358Y26595183D01*
X30836892Y26841486D01*
X30607000Y26720819D01*
X30353000Y26720819D01*
X30123108Y26841486D01*
X29598642Y26595183D01*
X29409961Y26388145D01*
X29388157Y26497765D01*
X29247809Y26707809D01*
X29037765Y26848157D01*
X28790000Y26897440D01*
X27090000Y26897440D01*
X26842235Y26848157D01*
X26632191Y26707809D01*
X26491843Y26497765D01*
X26442560Y26250000D01*
X26442560Y24873187D01*
X24345000Y24881711D01*
X24345000Y25114250D01*
X24186250Y25273000D01*
X22987000Y25273000D01*
X22987000Y25253000D01*
X22733000Y25253000D01*
X22733000Y25273000D01*
X22713000Y25273000D01*
X22713000Y25527000D01*
X22733000Y25527000D01*
X22733000Y26726250D01*
X22987000Y26726250D01*
X22987000Y25527000D01*
X24186250Y25527000D01*
X24345000Y25685750D01*
X24345000Y26376309D01*
X24248327Y26609698D01*
X24069699Y26788327D01*
X23836310Y26885000D01*
X23145750Y26885000D01*
X22987000Y26726250D01*
X22733000Y26726250D01*
X22574250Y26885000D01*
X21883690Y26885000D01*
X21650301Y26788327D01*
X21471673Y26609698D01*
X21399403Y26435223D01*
X21370054Y26479147D01*
X20888285Y26801054D01*
X20320000Y26914093D01*
X19751715Y26801054D01*
X19269946Y26479147D01*
X19050000Y26149974D01*
X18830054Y26479147D01*
X18348285Y26801054D01*
X18287504Y26813144D01*
X20193209Y28991127D01*
X20320000Y28965907D01*
X20790381Y29059472D01*
X21745779Y28379994D01*
X21837156Y28338985D01*
X21920459Y28283387D01*
X21971959Y28262087D01*
X22037441Y28249098D01*
X22060817Y28238607D01*
X22095416Y28237598D01*
X22141479Y28228461D01*
X22310200Y28194900D01*
X28489800Y28194900D01*
X28658521Y28228461D01*
X28704584Y28237598D01*
X28739183Y28238607D01*
X28762559Y28249098D01*
X28828041Y28262087D01*
X28879541Y28283387D01*
X28962845Y28338986D01*
X29054220Y28379994D01*
X30009619Y29059472D01*
X30480000Y28965907D01*
X31048285Y29078946D01*
X31530054Y29400853D01*
X31851961Y29882622D01*
X31965000Y30450907D01*
X31965000Y30509093D01*
X31851961Y31077378D01*
X31530054Y31559147D01*
X31526357Y31561617D01*
X31577765Y31571843D01*
X31787809Y31712191D01*
X31928157Y31922235D01*
X31977440Y32170000D01*
X31977440Y33870000D01*
X31928157Y34117765D01*
X31787809Y34327809D01*
X31577765Y34468157D01*
X31330000Y34517440D01*
X29630000Y34517440D01*
X29382235Y34468157D01*
X29172191Y34327809D01*
X29031843Y34117765D01*
X29019403Y34055223D01*
X28990054Y34099147D01*
X28508285Y34421054D01*
X27940000Y34534093D01*
X27371715Y34421054D01*
X26889946Y34099147D01*
X26568039Y33617378D01*
X26455000Y33049093D01*
X26455000Y32990907D01*
X26568039Y32422622D01*
X26889946Y31940853D01*
X27173101Y31751655D01*
X27173076Y31751645D01*
X26744817Y31361358D01*
X26498514Y30836892D01*
X26619181Y30607000D01*
X27813000Y30607000D01*
X27813000Y30627000D01*
X28067000Y30627000D01*
X28067000Y30607000D01*
X28087000Y30607000D01*
X28087000Y30353000D01*
X28067000Y30353000D01*
X28067000Y30333000D01*
X27813000Y30333000D01*
X27813000Y30353000D01*
X26619181Y30353000D01*
X26498514Y30123108D01*
X26572813Y29964900D01*
X24227187Y29964900D01*
X24301486Y30123108D01*
X24180819Y30353000D01*
X22987000Y30353000D01*
X22987000Y30333000D01*
X22733000Y30333000D01*
X22733000Y30353000D01*
X22713000Y30353000D01*
X22713000Y30607000D01*
X22733000Y30607000D01*
X22733000Y30627000D01*
X22987000Y30627000D01*
X22987000Y30607000D01*
X24180819Y30607000D01*
X24301486Y30836892D01*
X24055183Y31361358D01*
X23848145Y31550039D01*
X23957765Y31571843D01*
X24167809Y31712191D01*
X24308157Y31922235D01*
X24357440Y32170000D01*
X24357440Y33870000D01*
X24308157Y34117765D01*
X24167809Y34327809D01*
X23957765Y34468157D01*
X23710000Y34517440D01*
X22010000Y34517440D01*
X21762235Y34468157D01*
X21552191Y34327809D01*
X21411843Y34117765D01*
X21399403Y34055223D01*
X21370054Y34099147D01*
X20888285Y34421054D01*
X20320000Y34534093D01*
X19751715Y34421054D01*
X19269946Y34099147D01*
X18948039Y33617378D01*
X18835000Y33049093D01*
X18835000Y32990907D01*
X18948039Y32422622D01*
X19269946Y31940853D01*
X19555578Y31750000D01*
X19269946Y31559147D01*
X18948039Y31077378D01*
X18835000Y30509093D01*
X18835000Y30450907D01*
X18887528Y30186829D01*
X16205200Y27121262D01*
X16205200Y28546370D01*
X16108527Y28779759D01*
X15929898Y28958387D01*
X15696509Y29055060D01*
X14105890Y29055060D01*
X13947140Y28896310D01*
X13947140Y26797000D01*
X13967140Y26797000D01*
X13967140Y26543000D01*
X13947140Y26543000D01*
X13947140Y26523000D01*
X13693140Y26523000D01*
X13693140Y26543000D01*
X11593830Y26543000D01*
X11435080Y26384250D01*
X11435080Y24793630D01*
X11531753Y24560241D01*
X11710382Y24381613D01*
X11742040Y24368500D01*
X9888401Y24368500D01*
X10028529Y24462131D01*
X10168877Y24672175D01*
X10218160Y24919940D01*
X10218160Y28420060D01*
X10193036Y28546370D01*
X11435080Y28546370D01*
X11435080Y26955750D01*
X11593830Y26797000D01*
X13693140Y26797000D01*
X13693140Y28896310D01*
X13534390Y29055060D01*
X11943771Y29055060D01*
X11710382Y28958387D01*
X11531753Y28779759D01*
X11435080Y28546370D01*
X10193036Y28546370D01*
X10168877Y28667825D01*
X10028529Y28877869D01*
X9818485Y29018217D01*
X9570720Y29067500D01*
X6070600Y29067500D01*
X5822835Y29018217D01*
X5612791Y28877869D01*
X5472443Y28667825D01*
X5423160Y28420060D01*
X5423160Y24919940D01*
X5472443Y24672175D01*
X5612791Y24462131D01*
X5822835Y24321783D01*
X6070600Y24272500D01*
X8752659Y24272500D01*
X8612531Y24178869D01*
X8472183Y23968825D01*
X8422900Y23721060D01*
X8422900Y20220940D01*
X8472183Y19973175D01*
X8612531Y19763131D01*
X8822575Y19622783D01*
X9070340Y19573500D01*
X11639726Y19573500D01*
X11694710Y19491210D01*
X11695224Y19490866D01*
X11695567Y19490355D01*
X11841967Y19344355D01*
X11857752Y19333839D01*
X11868967Y19318542D01*
X12000907Y19238469D01*
X12129344Y19152904D01*
X12147951Y19149229D01*
X12164167Y19139388D01*
X17136254Y17329392D01*
X17102560Y17160000D01*
X17102560Y16707328D01*
X6737387Y16022969D01*
X6636791Y16266429D01*
X6078886Y16825309D01*
X5349575Y17128145D01*
X4559889Y17128834D01*
X3830051Y16827271D01*
X3271171Y16269366D01*
X2968335Y15540055D01*
X2967646Y14750369D01*
X3269209Y14020531D01*
X3827114Y13461651D01*
X4556425Y13158815D01*
X5346111Y13158126D01*
X6075949Y13459689D01*
X6634829Y14017594D01*
X6837751Y14506286D01*
X17696382Y15223225D01*
X17750000Y15212560D01*
X18450000Y15212560D01*
X18697765Y15261843D01*
X18907809Y15402191D01*
X19048157Y15612235D01*
X19050000Y15621500D01*
X19051843Y15612235D01*
X19192191Y15402191D01*
X19234620Y15373841D01*
X19405723Y12248718D01*
X19419717Y12194153D01*
X19418849Y12137835D01*
X19495731Y11717597D01*
X19244846Y11968920D01*
X18460475Y12294619D01*
X17611171Y12295360D01*
X16826233Y11971030D01*
X16225160Y11371006D01*
X15899461Y10586635D01*
X15898720Y9737331D01*
X16223050Y8952393D01*
X16823074Y8351320D01*
X17607445Y8025621D01*
X18456749Y8024880D01*
X19241687Y8349210D01*
X19842760Y8949234D01*
X19953434Y9215768D01*
X20580223Y5789715D01*
X20434176Y5643923D01*
X20233691Y5161101D01*
X20075687Y5266676D01*
X19450000Y5391133D01*
X18824313Y5266676D01*
X18293880Y4912253D01*
X17939457Y4381820D01*
X17815000Y3756133D01*
X17815000Y1703867D01*
X17939457Y1078180D01*
X18202171Y685000D01*
X685000Y685000D01*
X685000Y2751409D01*
X2967646Y2751409D01*
X3269209Y2021571D01*
X3827114Y1462691D01*
X4556425Y1159855D01*
X5346111Y1159166D01*
X6075949Y1460729D01*
X6634829Y2018634D01*
X6937665Y2747945D01*
X6938354Y3537631D01*
X6636791Y4267469D01*
X6078886Y4826349D01*
X5349575Y5129185D01*
X4559889Y5129874D01*
X3830051Y4828311D01*
X3271171Y4270406D01*
X2968335Y3541095D01*
X2967646Y2751409D01*
X685000Y2751409D01*
X685000Y10137339D01*
X6255778Y10137339D01*
X6468010Y9623697D01*
X6860650Y9230371D01*
X7068532Y9144051D01*
X6862717Y9059010D01*
X6469391Y8666370D01*
X6256263Y8153100D01*
X6255778Y7597339D01*
X6468010Y7083697D01*
X6860650Y6690371D01*
X7373920Y6477243D01*
X7929681Y6476758D01*
X8443323Y6688990D01*
X8652530Y6897832D01*
X8859630Y6690371D01*
X9372900Y6477243D01*
X9928661Y6476758D01*
X10442303Y6688990D01*
X10835629Y7081630D01*
X11048757Y7594900D01*
X11049242Y8150661D01*
X10837010Y8664303D01*
X10444370Y9057629D01*
X10236488Y9143949D01*
X10442303Y9228990D01*
X10835629Y9621630D01*
X11048757Y10134900D01*
X11049242Y10690661D01*
X10837010Y11204303D01*
X10444370Y11597629D01*
X9931100Y11810757D01*
X9375339Y11811242D01*
X8861697Y11599010D01*
X8652490Y11390168D01*
X8445390Y11597629D01*
X7932120Y11810757D01*
X7376359Y11811242D01*
X6862717Y11599010D01*
X6469391Y11206370D01*
X6256263Y10693100D01*
X6255778Y10137339D01*
X685000Y10137339D01*
X685000Y37726695D01*
X3194674Y37726695D01*
X3481043Y37033628D01*
X4010839Y36502907D01*
X4703405Y36215328D01*
X5453305Y36214674D01*
X6146372Y36501043D01*
X6677093Y37030839D01*
X6964672Y37723405D01*
X6965326Y38473305D01*
X6678957Y39166372D01*
X6149161Y39697093D01*
X5456595Y39984672D01*
X4706695Y39985326D01*
X4013628Y39698957D01*
X3482907Y39169161D01*
X3195328Y38476595D01*
X3194674Y37726695D01*
X685000Y37726695D01*
X685000Y40778204D01*
X17144011Y40778204D01*
X18012234Y38676942D01*
X19618486Y37067884D01*
X21718229Y36195995D01*
X23991796Y36194011D01*
X26093058Y37062234D01*
X27702116Y38668486D01*
X28574005Y40768229D01*
X28574013Y40778204D01*
X36194011Y40778204D01*
X37062234Y38676942D01*
X38668486Y37067884D01*
X40768229Y36195995D01*
X43041796Y36194011D01*
X45143058Y37062234D01*
X46752116Y38668486D01*
X47624005Y40768229D01*
X47625989Y43041796D01*
X46757766Y45143058D01*
X45151514Y46752116D01*
X43051771Y47624005D01*
X40778204Y47625989D01*
X38676942Y46757766D01*
X37067884Y45151514D01*
X36195995Y43051771D01*
X36194011Y40778204D01*
X28574013Y40778204D01*
X28575989Y43041796D01*
X27707766Y45143058D01*
X26101514Y46752116D01*
X24001771Y47624005D01*
X21728204Y47625989D01*
X19626942Y46757766D01*
X18017884Y45151514D01*
X17145995Y43051771D01*
X17144011Y40778204D01*
X685000Y40778204D01*
X685000Y44350000D01*
X3182560Y44350000D01*
X3182560Y41850000D01*
X3231843Y41602235D01*
X3372191Y41392191D01*
X3582235Y41251843D01*
X3830000Y41202560D01*
X6330000Y41202560D01*
X6577765Y41251843D01*
X6787809Y41392191D01*
X6928157Y41602235D01*
X6977440Y41850000D01*
X6977440Y44350000D01*
X6928157Y44597765D01*
X6787809Y44807809D01*
X6577765Y44948157D01*
X6330000Y44997440D01*
X3830000Y44997440D01*
X3582235Y44948157D01*
X3372191Y44807809D01*
X3231843Y44597765D01*
X3182560Y44350000D01*
X685000Y44350000D01*
X685000Y48845000D01*
X48845000Y48845000D01*
X48845000Y685000D01*
X48845000Y685000D01*
G37*
X48845000Y685000D02*
X46316276Y685000D01*
X46894229Y923805D01*
X47467183Y1495760D01*
X47777646Y2243438D01*
X47778352Y3053011D01*
X47469195Y3801229D01*
X46897240Y4374183D01*
X46149562Y4684646D01*
X45339989Y4685352D01*
X44591771Y4376195D01*
X44018817Y3804240D01*
X43708354Y3056562D01*
X43707648Y2246989D01*
X44016805Y1498771D01*
X44588760Y925817D01*
X45168712Y685000D01*
X41566276Y685000D01*
X42144229Y923805D01*
X42717183Y1495760D01*
X43027646Y2243438D01*
X43028352Y3053011D01*
X42719195Y3801229D01*
X42147240Y4374183D01*
X41911595Y4472031D01*
X41990243Y4504528D01*
X42337253Y4850933D01*
X42525285Y5303765D01*
X42525713Y5794084D01*
X42338472Y6247243D01*
X42236019Y6349875D01*
X42337253Y6450933D01*
X42525285Y6903765D01*
X42525713Y7394084D01*
X42338472Y7847243D01*
X41992067Y8194253D01*
X41911577Y8227675D01*
X42144229Y8323805D01*
X42717183Y8895760D01*
X42880886Y9290000D01*
X43855153Y9290000D01*
X44016805Y8898771D01*
X44588760Y8325817D01*
X45336438Y8015354D01*
X46146011Y8014648D01*
X46894229Y8323805D01*
X47467183Y8895760D01*
X47777646Y9643438D01*
X47778352Y10453011D01*
X47469195Y11201229D01*
X46897240Y11774183D01*
X46149562Y12084646D01*
X45339989Y12085352D01*
X44591771Y11776195D01*
X44018817Y11204240D01*
X43855114Y10810000D01*
X42880847Y10810000D01*
X42719195Y11201229D01*
X42147240Y11774183D01*
X41399562Y12084646D01*
X40589989Y12085352D01*
X39841771Y11776195D01*
X39268817Y11204240D01*
X38958354Y10456562D01*
X38957648Y9646989D01*
X39266805Y8898771D01*
X39278304Y8887252D01*
X36387595Y9066615D01*
X37047110Y13742560D01*
X37680000Y13742560D01*
X37927765Y13791843D01*
X38137809Y13932191D01*
X38278157Y14142235D01*
X38290597Y14204777D01*
X38319946Y14160853D01*
X38801715Y13838946D01*
X39370000Y13725907D01*
X39938285Y13838946D01*
X40420054Y14160853D01*
X40549779Y14355000D01*
X40730221Y14355000D01*
X40859946Y14160853D01*
X41341715Y13838946D01*
X41910000Y13725907D01*
X42478285Y13838946D01*
X42960054Y14160853D01*
X43089779Y14355000D01*
X43270221Y14355000D01*
X43399946Y14160853D01*
X43881715Y13838946D01*
X44450000Y13725907D01*
X45018285Y13838946D01*
X45500054Y14160853D01*
X45821961Y14642622D01*
X45935000Y15210907D01*
X45935000Y15269093D01*
X45821961Y15837378D01*
X45500054Y16319147D01*
X45216899Y16508345D01*
X45216924Y16508355D01*
X45645183Y16898642D01*
X45891486Y17423108D01*
X45770819Y17653000D01*
X44577000Y17653000D01*
X44577000Y17633000D01*
X44323000Y17633000D01*
X44323000Y17653000D01*
X42037000Y17653000D01*
X42037000Y17633000D01*
X41783000Y17633000D01*
X41783000Y17653000D01*
X39497000Y17653000D01*
X39497000Y17633000D01*
X39243000Y17633000D01*
X39243000Y17653000D01*
X36957000Y17653000D01*
X36957000Y17633000D01*
X36703000Y17633000D01*
X36703000Y17653000D01*
X35509181Y17653000D01*
X35388514Y17423108D01*
X35591721Y16990408D01*
X33416278Y18136892D01*
X35388514Y18136892D01*
X35509181Y17907000D01*
X36703000Y17907000D01*
X36703000Y19100155D01*
X36957000Y19100155D01*
X36957000Y17907000D01*
X39243000Y17907000D01*
X39243000Y19100155D01*
X39497000Y19100155D01*
X39497000Y17907000D01*
X41783000Y17907000D01*
X41783000Y19100155D01*
X42037000Y19100155D01*
X42037000Y17907000D01*
X44323000Y17907000D01*
X44323000Y19100155D01*
X44577000Y19100155D01*
X44577000Y17907000D01*
X45770819Y17907000D01*
X45891486Y18136892D01*
X45645183Y18661358D01*
X45216924Y19051645D01*
X44806890Y19221476D01*
X44577000Y19100155D01*
X44323000Y19100155D01*
X44093110Y19221476D01*
X43683076Y19051645D01*
X43254817Y18661358D01*
X43180000Y18502046D01*
X43105183Y18661358D01*
X42676924Y19051645D01*
X42266890Y19221476D01*
X42037000Y19100155D01*
X41783000Y19100155D01*
X41553110Y19221476D01*
X41143076Y19051645D01*
X40714817Y18661358D01*
X40640000Y18502046D01*
X40565183Y18661358D01*
X40136924Y19051645D01*
X39726890Y19221476D01*
X39497000Y19100155D01*
X39243000Y19100155D01*
X39013110Y19221476D01*
X38603076Y19051645D01*
X38174817Y18661358D01*
X38100000Y18502046D01*
X38025183Y18661358D01*
X37596924Y19051645D01*
X37186890Y19221476D01*
X36957000Y19100155D01*
X36703000Y19100155D01*
X36473110Y19221476D01*
X36063076Y19051645D01*
X35634817Y18661358D01*
X35388514Y18136892D01*
X33416278Y18136892D01*
X32740512Y18493028D01*
X32700917Y18504786D01*
X32666575Y18527733D01*
X32536565Y18553594D01*
X32409490Y18591331D01*
X32368409Y18587042D01*
X32327900Y18595100D01*
X31842339Y18595100D01*
X37628246Y20909353D01*
X37632208Y20911931D01*
X37636839Y20912852D01*
X37756299Y20992673D01*
X37876800Y21071078D01*
X37879473Y21074974D01*
X37883401Y21077599D01*
X38479827Y21674025D01*
X38801715Y21458946D01*
X39370000Y21345907D01*
X39938285Y21458946D01*
X40420054Y21780853D01*
X40741961Y22262622D01*
X40855000Y22830907D01*
X40855000Y22889093D01*
X40741961Y23457378D01*
X40566894Y23719386D01*
X40844297Y23932088D01*
X41149971Y23931821D01*
X41530515Y24089058D01*
X41821919Y24379954D01*
X41916634Y24608053D01*
X42029275Y24561387D01*
X42192396Y24528930D01*
X42355003Y24494095D01*
X42993570Y24484716D01*
X42993570Y23502640D01*
X43042853Y23254875D01*
X43183201Y23044831D01*
X43393245Y22904483D01*
X43641010Y22855200D01*
X45393870Y22855200D01*
X45393870Y22599670D01*
X45443153Y22351905D01*
X45583501Y22141861D01*
X45793545Y22001513D01*
X46041310Y21952230D01*
X47938690Y21952230D01*
X48186455Y22001513D01*
X48396499Y22141861D01*
X48536847Y22351905D01*
X48586130Y22599670D01*
X48586130Y24974570D01*
X48556195Y25125065D01*
X48586130Y25275560D01*
X48586130Y26449040D01*
X48536847Y26696805D01*
X48534378Y26700500D01*
X48536847Y26704195D01*
X48586130Y26951960D01*
X48586130Y28125440D01*
X48556195Y28275935D01*
X48586130Y28426430D01*
X48586130Y30801330D01*
X48536847Y31049095D01*
X48396499Y31259139D01*
X48186455Y31399487D01*
X47938690Y31448770D01*
X46041310Y31448770D01*
X45793545Y31399487D01*
X45583501Y31259139D01*
X45443153Y31049095D01*
X45393870Y30801330D01*
X45393870Y30545800D01*
X43641010Y30545800D01*
X43393245Y30496517D01*
X43183201Y30356169D01*
X43042853Y30146125D01*
X42993570Y29898360D01*
X42993570Y29304042D01*
X42700777Y29425620D01*
X42289029Y29425979D01*
X42042144Y29323969D01*
X41327985Y31258859D01*
X41288576Y31323147D01*
X41262363Y31393847D01*
X40683474Y32335089D01*
X40741961Y32422622D01*
X40855000Y32990907D01*
X40855000Y33049093D01*
X40741961Y33617378D01*
X40420054Y34099147D01*
X39938285Y34421054D01*
X39370000Y34534093D01*
X38801715Y34421054D01*
X38319946Y34099147D01*
X38100000Y33769974D01*
X37880054Y34099147D01*
X37398285Y34421054D01*
X36830000Y34534093D01*
X36261715Y34421054D01*
X35779946Y34099147D01*
X35560000Y33769974D01*
X35340054Y34099147D01*
X34858285Y34421054D01*
X34290000Y34534093D01*
X33721715Y34421054D01*
X33239946Y34099147D01*
X32918039Y33617378D01*
X32805000Y33049093D01*
X32805000Y32990907D01*
X32844870Y32790466D01*
X32250705Y32169990D01*
X32162979Y32032336D01*
X32072267Y31896575D01*
X32070365Y31887011D01*
X32065124Y31878788D01*
X32036747Y31718003D01*
X32004900Y31557900D01*
X32004900Y29402105D01*
X32004899Y29402100D01*
X32049335Y29178709D01*
X32072267Y29063425D01*
X32261805Y28779759D01*
X32264110Y28776310D01*
X32586311Y28454110D01*
X32610576Y28437897D01*
X32628332Y28414739D01*
X32753358Y28342493D01*
X32873426Y28262266D01*
X32902048Y28256573D01*
X32927315Y28241972D01*
X36840511Y26912002D01*
X36830000Y26914093D01*
X36261715Y26801054D01*
X35779946Y26479147D01*
X35552298Y26138447D01*
X35485183Y26281358D01*
X35056924Y26671645D01*
X34646890Y26841476D01*
X34417000Y26720155D01*
X34417000Y25527000D01*
X34437000Y25527000D01*
X34437000Y25273000D01*
X34417000Y25273000D01*
X34417000Y25253000D01*
X34163000Y25253000D01*
X34163000Y25273000D01*
X32969181Y25273000D01*
X32848514Y25043108D01*
X32963735Y24797761D01*
X31323528Y24067489D01*
X31218447Y24137702D01*
X31361358Y24204817D01*
X31751645Y24633076D01*
X31921476Y25043110D01*
X31800155Y25273000D01*
X30607000Y25273000D01*
X30607000Y25253000D01*
X30353000Y25253000D01*
X30353000Y25273000D01*
X30333000Y25273000D01*
X30333000Y25527000D01*
X30353000Y25527000D01*
X30353000Y26720819D01*
X30607000Y26720819D01*
X30607000Y25527000D01*
X31800155Y25527000D01*
X31921476Y25756890D01*
X31921476Y25756892D01*
X32848514Y25756892D01*
X32969181Y25527000D01*
X34163000Y25527000D01*
X34163000Y26720155D01*
X33933110Y26841476D01*
X33523076Y26671645D01*
X33094817Y26281358D01*
X32848514Y25756892D01*
X31921476Y25756892D01*
X31751645Y26166924D01*
X31361358Y26595183D01*
X30836892Y26841486D01*
X30607000Y26720819D01*
X30353000Y26720819D01*
X30123108Y26841486D01*
X29598642Y26595183D01*
X29409961Y26388145D01*
X29388157Y26497765D01*
X29247809Y26707809D01*
X29037765Y26848157D01*
X28790000Y26897440D01*
X27090000Y26897440D01*
X26842235Y26848157D01*
X26632191Y26707809D01*
X26491843Y26497765D01*
X26442560Y26250000D01*
X26442560Y24873187D01*
X24345000Y24881711D01*
X24345000Y25114250D01*
X24186250Y25273000D01*
X22987000Y25273000D01*
X22987000Y25253000D01*
X22733000Y25253000D01*
X22733000Y25273000D01*
X22713000Y25273000D01*
X22713000Y25527000D01*
X22733000Y25527000D01*
X22733000Y26726250D01*
X22987000Y26726250D01*
X22987000Y25527000D01*
X24186250Y25527000D01*
X24345000Y25685750D01*
X24345000Y26376309D01*
X24248327Y26609698D01*
X24069699Y26788327D01*
X23836310Y26885000D01*
X23145750Y26885000D01*
X22987000Y26726250D01*
X22733000Y26726250D01*
X22574250Y26885000D01*
X21883690Y26885000D01*
X21650301Y26788327D01*
X21471673Y26609698D01*
X21399403Y26435223D01*
X21370054Y26479147D01*
X20888285Y26801054D01*
X20320000Y26914093D01*
X19751715Y26801054D01*
X19269946Y26479147D01*
X19050000Y26149974D01*
X18830054Y26479147D01*
X18348285Y26801054D01*
X18287504Y26813144D01*
X20193209Y28991127D01*
X20320000Y28965907D01*
X20790381Y29059472D01*
X21745779Y28379994D01*
X21837156Y28338985D01*
X21920459Y28283387D01*
X21971959Y28262087D01*
X22037441Y28249098D01*
X22060817Y28238607D01*
X22095416Y28237598D01*
X22141479Y28228461D01*
X22310200Y28194900D01*
X28489800Y28194900D01*
X28658521Y28228461D01*
X28704584Y28237598D01*
X28739183Y28238607D01*
X28762559Y28249098D01*
X28828041Y28262087D01*
X28879541Y28283387D01*
X28962845Y28338986D01*
X29054220Y28379994D01*
X30009619Y29059472D01*
X30480000Y28965907D01*
X31048285Y29078946D01*
X31530054Y29400853D01*
X31851961Y29882622D01*
X31965000Y30450907D01*
X31965000Y30509093D01*
X31851961Y31077378D01*
X31530054Y31559147D01*
X31526357Y31561617D01*
X31577765Y31571843D01*
X31787809Y31712191D01*
X31928157Y31922235D01*
X31977440Y32170000D01*
X31977440Y33870000D01*
X31928157Y34117765D01*
X31787809Y34327809D01*
X31577765Y34468157D01*
X31330000Y34517440D01*
X29630000Y34517440D01*
X29382235Y34468157D01*
X29172191Y34327809D01*
X29031843Y34117765D01*
X29019403Y34055223D01*
X28990054Y34099147D01*
X28508285Y34421054D01*
X27940000Y34534093D01*
X27371715Y34421054D01*
X26889946Y34099147D01*
X26568039Y33617378D01*
X26455000Y33049093D01*
X26455000Y32990907D01*
X26568039Y32422622D01*
X26889946Y31940853D01*
X27173101Y31751655D01*
X27173076Y31751645D01*
X26744817Y31361358D01*
X26498514Y30836892D01*
X26619181Y30607000D01*
X27813000Y30607000D01*
X27813000Y30627000D01*
X28067000Y30627000D01*
X28067000Y30607000D01*
X28087000Y30607000D01*
X28087000Y30353000D01*
X28067000Y30353000D01*
X28067000Y30333000D01*
X27813000Y30333000D01*
X27813000Y30353000D01*
X26619181Y30353000D01*
X26498514Y30123108D01*
X26572813Y29964900D01*
X24227187Y29964900D01*
X24301486Y30123108D01*
X24180819Y30353000D01*
X22987000Y30353000D01*
X22987000Y30333000D01*
X22733000Y30333000D01*
X22733000Y30353000D01*
X22713000Y30353000D01*
X22713000Y30607000D01*
X22733000Y30607000D01*
X22733000Y30627000D01*
X22987000Y30627000D01*
X22987000Y30607000D01*
X24180819Y30607000D01*
X24301486Y30836892D01*
X24055183Y31361358D01*
X23848145Y31550039D01*
X23957765Y31571843D01*
X24167809Y31712191D01*
X24308157Y31922235D01*
X24357440Y32170000D01*
X24357440Y33870000D01*
X24308157Y34117765D01*
X24167809Y34327809D01*
X23957765Y34468157D01*
X23710000Y34517440D01*
X22010000Y34517440D01*
X21762235Y34468157D01*
X21552191Y34327809D01*
X21411843Y34117765D01*
X21399403Y34055223D01*
X21370054Y34099147D01*
X20888285Y34421054D01*
X20320000Y34534093D01*
X19751715Y34421054D01*
X19269946Y34099147D01*
X18948039Y33617378D01*
X18835000Y33049093D01*
X18835000Y32990907D01*
X18948039Y32422622D01*
X19269946Y31940853D01*
X19555578Y31750000D01*
X19269946Y31559147D01*
X18948039Y31077378D01*
X18835000Y30509093D01*
X18835000Y30450907D01*
X18887528Y30186829D01*
X16205200Y27121262D01*
X16205200Y28546370D01*
X16108527Y28779759D01*
X15929898Y28958387D01*
X15696509Y29055060D01*
X14105890Y29055060D01*
X13947140Y28896310D01*
X13947140Y26797000D01*
X13967140Y26797000D01*
X13967140Y26543000D01*
X13947140Y26543000D01*
X13947140Y26523000D01*
X13693140Y26523000D01*
X13693140Y26543000D01*
X11593830Y26543000D01*
X11435080Y26384250D01*
X11435080Y24793630D01*
X11531753Y24560241D01*
X11710382Y24381613D01*
X11742040Y24368500D01*
X9888401Y24368500D01*
X10028529Y24462131D01*
X10168877Y24672175D01*
X10218160Y24919940D01*
X10218160Y28420060D01*
X10193036Y28546370D01*
X11435080Y28546370D01*
X11435080Y26955750D01*
X11593830Y26797000D01*
X13693140Y26797000D01*
X13693140Y28896310D01*
X13534390Y29055060D01*
X11943771Y29055060D01*
X11710382Y28958387D01*
X11531753Y28779759D01*
X11435080Y28546370D01*
X10193036Y28546370D01*
X10168877Y28667825D01*
X10028529Y28877869D01*
X9818485Y29018217D01*
X9570720Y29067500D01*
X6070600Y29067500D01*
X5822835Y29018217D01*
X5612791Y28877869D01*
X5472443Y28667825D01*
X5423160Y28420060D01*
X5423160Y24919940D01*
X5472443Y24672175D01*
X5612791Y24462131D01*
X5822835Y24321783D01*
X6070600Y24272500D01*
X8752659Y24272500D01*
X8612531Y24178869D01*
X8472183Y23968825D01*
X8422900Y23721060D01*
X8422900Y20220940D01*
X8472183Y19973175D01*
X8612531Y19763131D01*
X8822575Y19622783D01*
X9070340Y19573500D01*
X11639726Y19573500D01*
X11694710Y19491210D01*
X11695224Y19490866D01*
X11695567Y19490355D01*
X11841967Y19344355D01*
X11857752Y19333839D01*
X11868967Y19318542D01*
X12000907Y19238469D01*
X12129344Y19152904D01*
X12147951Y19149229D01*
X12164167Y19139388D01*
X17136254Y17329392D01*
X17102560Y17160000D01*
X17102560Y16707328D01*
X6737387Y16022969D01*
X6636791Y16266429D01*
X6078886Y16825309D01*
X5349575Y17128145D01*
X4559889Y17128834D01*
X3830051Y16827271D01*
X3271171Y16269366D01*
X2968335Y15540055D01*
X2967646Y14750369D01*
X3269209Y14020531D01*
X3827114Y13461651D01*
X4556425Y13158815D01*
X5346111Y13158126D01*
X6075949Y13459689D01*
X6634829Y14017594D01*
X6837751Y14506286D01*
X17696382Y15223225D01*
X17750000Y15212560D01*
X18450000Y15212560D01*
X18697765Y15261843D01*
X18907809Y15402191D01*
X19048157Y15612235D01*
X19050000Y15621500D01*
X19051843Y15612235D01*
X19192191Y15402191D01*
X19234620Y15373841D01*
X19405723Y12248718D01*
X19419717Y12194153D01*
X19418849Y12137835D01*
X19495731Y11717597D01*
X19244846Y11968920D01*
X18460475Y12294619D01*
X17611171Y12295360D01*
X16826233Y11971030D01*
X16225160Y11371006D01*
X15899461Y10586635D01*
X15898720Y9737331D01*
X16223050Y8952393D01*
X16823074Y8351320D01*
X17607445Y8025621D01*
X18456749Y8024880D01*
X19241687Y8349210D01*
X19842760Y8949234D01*
X19953434Y9215768D01*
X20580223Y5789715D01*
X20434176Y5643923D01*
X20233691Y5161101D01*
X20075687Y5266676D01*
X19450000Y5391133D01*
X18824313Y5266676D01*
X18293880Y4912253D01*
X17939457Y4381820D01*
X17815000Y3756133D01*
X17815000Y1703867D01*
X17939457Y1078180D01*
X18202171Y685000D01*
X685000Y685000D01*
X685000Y2751409D01*
X2967646Y2751409D01*
X3269209Y2021571D01*
X3827114Y1462691D01*
X4556425Y1159855D01*
X5346111Y1159166D01*
X6075949Y1460729D01*
X6634829Y2018634D01*
X6937665Y2747945D01*
X6938354Y3537631D01*
X6636791Y4267469D01*
X6078886Y4826349D01*
X5349575Y5129185D01*
X4559889Y5129874D01*
X3830051Y4828311D01*
X3271171Y4270406D01*
X2968335Y3541095D01*
X2967646Y2751409D01*
X685000Y2751409D01*
X685000Y10137339D01*
X6255778Y10137339D01*
X6468010Y9623697D01*
X6860650Y9230371D01*
X7068532Y9144051D01*
X6862717Y9059010D01*
X6469391Y8666370D01*
X6256263Y8153100D01*
X6255778Y7597339D01*
X6468010Y7083697D01*
X6860650Y6690371D01*
X7373920Y6477243D01*
X7929681Y6476758D01*
X8443323Y6688990D01*
X8652530Y6897832D01*
X8859630Y6690371D01*
X9372900Y6477243D01*
X9928661Y6476758D01*
X10442303Y6688990D01*
X10835629Y7081630D01*
X11048757Y7594900D01*
X11049242Y8150661D01*
X10837010Y8664303D01*
X10444370Y9057629D01*
X10236488Y9143949D01*
X10442303Y9228990D01*
X10835629Y9621630D01*
X11048757Y10134900D01*
X11049242Y10690661D01*
X10837010Y11204303D01*
X10444370Y11597629D01*
X9931100Y11810757D01*
X9375339Y11811242D01*
X8861697Y11599010D01*
X8652490Y11390168D01*
X8445390Y11597629D01*
X7932120Y11810757D01*
X7376359Y11811242D01*
X6862717Y11599010D01*
X6469391Y11206370D01*
X6256263Y10693100D01*
X6255778Y10137339D01*
X685000Y10137339D01*
X685000Y37726695D01*
X3194674Y37726695D01*
X3481043Y37033628D01*
X4010839Y36502907D01*
X4703405Y36215328D01*
X5453305Y36214674D01*
X6146372Y36501043D01*
X6677093Y37030839D01*
X6964672Y37723405D01*
X6965326Y38473305D01*
X6678957Y39166372D01*
X6149161Y39697093D01*
X5456595Y39984672D01*
X4706695Y39985326D01*
X4013628Y39698957D01*
X3482907Y39169161D01*
X3195328Y38476595D01*
X3194674Y37726695D01*
X685000Y37726695D01*
X685000Y40778204D01*
X17144011Y40778204D01*
X18012234Y38676942D01*
X19618486Y37067884D01*
X21718229Y36195995D01*
X23991796Y36194011D01*
X26093058Y37062234D01*
X27702116Y38668486D01*
X28574005Y40768229D01*
X28574013Y40778204D01*
X36194011Y40778204D01*
X37062234Y38676942D01*
X38668486Y37067884D01*
X40768229Y36195995D01*
X43041796Y36194011D01*
X45143058Y37062234D01*
X46752116Y38668486D01*
X47624005Y40768229D01*
X47625989Y43041796D01*
X46757766Y45143058D01*
X45151514Y46752116D01*
X43051771Y47624005D01*
X40778204Y47625989D01*
X38676942Y46757766D01*
X37067884Y45151514D01*
X36195995Y43051771D01*
X36194011Y40778204D01*
X28574013Y40778204D01*
X28575989Y43041796D01*
X27707766Y45143058D01*
X26101514Y46752116D01*
X24001771Y47624005D01*
X21728204Y47625989D01*
X19626942Y46757766D01*
X18017884Y45151514D01*
X17145995Y43051771D01*
X17144011Y40778204D01*
X685000Y40778204D01*
X685000Y44350000D01*
X3182560Y44350000D01*
X3182560Y41850000D01*
X3231843Y41602235D01*
X3372191Y41392191D01*
X3582235Y41251843D01*
X3830000Y41202560D01*
X6330000Y41202560D01*
X6577765Y41251843D01*
X6787809Y41392191D01*
X6928157Y41602235D01*
X6977440Y41850000D01*
X6977440Y44350000D01*
X6928157Y44597765D01*
X6787809Y44807809D01*
X6577765Y44948157D01*
X6330000Y44997440D01*
X3830000Y44997440D01*
X3582235Y44948157D01*
X3372191Y44807809D01*
X3231843Y44597765D01*
X3182560Y44350000D01*
X685000Y44350000D01*
X685000Y48845000D01*
X48845000Y48845000D01*
X48845000Y685000D01*
G36*
X34417000Y30607000D02*
X34437000Y30607000D01*
X34437000Y30353000D01*
X34417000Y30353000D01*
X34417000Y30333000D01*
X34163000Y30333000D01*
X34163000Y30353000D01*
X34143000Y30353000D01*
X34143000Y30607000D01*
X34163000Y30607000D01*
X34163000Y30627000D01*
X34417000Y30627000D01*
X34417000Y30607000D01*
X34417000Y30607000D01*
G37*
X34417000Y30607000D02*
X34437000Y30607000D01*
X34437000Y30353000D01*
X34417000Y30353000D01*
X34417000Y30333000D01*
X34163000Y30333000D01*
X34163000Y30353000D01*
X34143000Y30353000D01*
X34143000Y30607000D01*
X34163000Y30607000D01*
X34163000Y30627000D01*
X34417000Y30627000D01*
X34417000Y30607000D01*
M02*
