G04 #@! TF.GenerationSoftware,KiCad,Pcbnew,(2017-04-12 revision 02abf1804)-makepkg*
G04 #@! TF.CreationDate,2017-04-21T09:09:19+03:00*
G04 #@! TF.ProjectId,vbb,7662622E6B696361645F706362000000,rev?*
G04 #@! TF.FileFunction,Copper,L2,Bot,Signal*
G04 #@! TF.FilePolarity,Positive*
%FSLAX46Y46*%
G04 Gerber Fmt 4.6, Leading zero omitted, Abs format (unit mm)*
G04 Created by KiCad (PCBNEW (2017-04-12 revision 02abf1804)-makepkg) date 04/21/17 09:09:19*
%MOMM*%
%LPD*%
G01*
G04 APERTURE LIST*
%ADD10C,0.100000*%
%ADD11C,2.700020*%
%ADD12C,1.524000*%
%ADD13R,1.700000X1.700000*%
%ADD14O,1.700000X1.700000*%
%ADD15R,3.500120X3.500120*%
%ADD16C,10.160000*%
%ADD17C,1.195000*%
%ADD18C,2.800000*%
%ADD19C,2.999740*%
%ADD20C,1.501140*%
%ADD21C,2.500000*%
%ADD22R,2.500000X2.500000*%
%ADD23C,0.800000*%
%ADD24C,0.500000*%
%ADD25C,0.250000*%
%ADD26C,0.254000*%
G04 APERTURE END LIST*
D10*
D11*
X14538980Y10160000D03*
X2540020Y10160000D03*
D12*
X7269500Y12860020D03*
X9809500Y12860020D03*
X9809500Y14859000D03*
X7269500Y14859000D03*
D13*
X22860000Y33020000D03*
D14*
X22860000Y30480000D03*
X20320000Y33020000D03*
X20320000Y30480000D03*
X27940000Y30480000D03*
X27940000Y33020000D03*
X30480000Y30480000D03*
D13*
X30480000Y33020000D03*
X34290000Y30480000D03*
D14*
X34290000Y33020000D03*
X36830000Y30480000D03*
X36830000Y33020000D03*
X39370000Y30480000D03*
X39370000Y33020000D03*
X30480000Y20320000D03*
X27940000Y20320000D03*
X30480000Y22860000D03*
X27940000Y22860000D03*
X30480000Y25400000D03*
D13*
X27940000Y25400000D03*
X22860000Y25400000D03*
D14*
X22860000Y22860000D03*
X20320000Y25400000D03*
X20320000Y22860000D03*
X17780000Y25400000D03*
X17780000Y22860000D03*
X39370000Y25400000D03*
X39370000Y22860000D03*
X36830000Y25400000D03*
X36830000Y22860000D03*
X34290000Y25400000D03*
D13*
X34290000Y22860000D03*
D14*
X44450000Y17780000D03*
X44450000Y15240000D03*
X41910000Y17780000D03*
X41910000Y15240000D03*
X39370000Y17780000D03*
X39370000Y15240000D03*
X36830000Y17780000D03*
D13*
X36830000Y15240000D03*
D15*
X10820400Y21971000D03*
X7820660Y26670000D03*
X13820140Y26670000D03*
D16*
X7937800Y42196000D03*
X37909800Y42196000D03*
D17*
X37770000Y9945000D03*
X38570000Y8745000D03*
X39370000Y9945000D03*
X40170000Y8745000D03*
X40970000Y9945000D03*
D18*
X35670000Y9045000D03*
X43070000Y9045000D03*
X35670000Y4295000D03*
X43070000Y4295000D03*
D19*
X18033960Y10160120D03*
X31749960Y10160120D03*
D20*
X21589960Y12827120D03*
X24129960Y12827120D03*
X26161960Y12827120D03*
X28701960Y12827120D03*
D21*
X21670000Y43180000D03*
D22*
X26670000Y43180000D03*
D23*
X43026200Y27390200D03*
X34864100Y19534200D03*
X42938300Y28516600D03*
D24*
X37430000Y15240000D02*
X36830000Y15240000D01*
X37680000Y15240000D02*
X37430000Y15240000D01*
X39370000Y15240000D02*
X37680000Y15240000D01*
X40970000Y9945000D02*
X41910000Y15240000D01*
X44450000Y15240000D02*
X41910000Y15240000D01*
X36230000Y15840000D02*
X36830000Y15240000D01*
X36230000Y16090000D02*
X36230000Y15840000D01*
X36230000Y16193600D02*
X36230000Y16090000D01*
X35451200Y17178700D02*
X36230000Y16193600D01*
X35429900Y17230200D02*
X35451200Y17178700D01*
X35429900Y18329800D02*
X35429900Y17230200D01*
X35451200Y18381300D02*
X35429900Y18329800D01*
X36228700Y19158800D02*
X35451200Y18381300D01*
X39971300Y21481200D02*
X36228700Y19158800D01*
X40748800Y22258700D02*
X39971300Y21481200D01*
X43026200Y27390200D02*
X40748800Y22258700D01*
X39370000Y15240000D02*
X41910000Y15240000D01*
X9320500Y23471100D02*
X10820400Y21971000D01*
X9320500Y23721100D02*
X9320500Y23471100D01*
X9320500Y24919900D02*
X9320500Y23721100D01*
X9320500Y25169900D02*
X9320500Y24919900D01*
X7820700Y26670000D02*
X9320500Y25169900D01*
X41910000Y17780000D02*
X39370000Y17780000D01*
X44450000Y17780000D02*
X41910000Y17780000D01*
X28489800Y29079900D02*
X24379100Y28551000D01*
X28541300Y29101200D02*
X28489800Y29079900D01*
X30480000Y30480000D02*
X28541300Y29101200D01*
X24379100Y28551000D02*
X22860000Y30480000D01*
X22260000Y26000000D02*
X22860000Y25400000D01*
X22010000Y26000000D02*
X22260000Y26000000D01*
X21906400Y26000000D02*
X22010000Y26000000D01*
X20921300Y26778800D02*
X21906400Y26000000D01*
X20869800Y26800100D02*
X20921300Y26778800D01*
X15570200Y26800100D02*
X20869800Y26800100D01*
X15320200Y26800100D02*
X15570200Y26800100D01*
X13820100Y26670000D02*
X15320200Y26800100D01*
X23460000Y26000000D02*
X22860000Y25400000D01*
X23460000Y26250000D02*
X23460000Y26000000D01*
X23460000Y26353600D02*
X23460000Y26250000D01*
X24379100Y28551000D02*
X23460000Y26353600D01*
X34290000Y25400000D02*
X30480000Y25400000D01*
X34290000Y29630000D02*
X34290000Y25400000D01*
X34290000Y29880000D02*
X34290000Y29630000D01*
X34290000Y30480000D02*
X34290000Y29880000D01*
X33690000Y30480000D02*
X34290000Y30480000D01*
X33440000Y30480000D02*
X33690000Y30480000D01*
X30480000Y30480000D02*
X33440000Y30480000D01*
X39370000Y17780000D02*
X36830000Y17780000D01*
D25*
X2540000Y10160000D02*
X14539000Y10160000D01*
X37345700Y21614900D02*
X34864100Y19534200D01*
X38075100Y22344300D02*
X37345700Y21614900D01*
X38124900Y23375700D02*
X38075100Y22344300D01*
X38854300Y24105100D02*
X38124900Y23375700D01*
X39885700Y24154900D02*
X38854300Y24105100D01*
X40615100Y24884300D02*
X39885700Y24154900D01*
X42201100Y27732000D02*
X40615100Y24884300D01*
X42938300Y28516600D02*
X42201100Y27732000D01*
X18034000Y10160100D02*
X31750000Y10160100D01*
X36055200Y21630900D02*
X36830000Y22860000D01*
X35519100Y21094800D02*
X36055200Y21630900D01*
X34534800Y20329300D02*
X35519100Y21094800D01*
X34069000Y19863500D02*
X34534800Y20329300D01*
X33874900Y9673300D02*
X34069000Y19863500D01*
X33874900Y8416700D02*
X33874900Y9673300D01*
X33956400Y8220000D02*
X33874900Y8416700D01*
X34845000Y7331400D02*
X33956400Y8220000D01*
X35041700Y7249900D02*
X34845000Y7331400D01*
X36298300Y7249900D02*
X35041700Y7249900D01*
X36495000Y7331400D02*
X36298300Y7249900D01*
X38570000Y8745000D02*
X36495000Y7331400D01*
X43070000Y4295000D02*
X43070000Y9045000D01*
X35670000Y4295000D02*
X43070000Y4295000D01*
X8426600Y14379700D02*
X7269500Y12860000D01*
X8622400Y15350700D02*
X8426600Y14379700D01*
X9317800Y16046100D02*
X8622400Y15350700D01*
X17780000Y22860000D02*
X9317800Y16046100D01*
X9034300Y16498100D02*
X7269500Y14859000D01*
X12746600Y19795800D02*
X9034300Y16498100D01*
X17264300Y24105100D02*
X12746600Y19795800D01*
X18295700Y24105100D02*
X17264300Y24105100D01*
X20320000Y22860000D02*
X18295700Y24105100D01*
X26694900Y20835700D02*
X27940000Y22860000D01*
X24130000Y12827100D02*
X26694900Y20835700D01*
X26162000Y12827100D02*
X27940000Y20320000D01*
X39370000Y25400000D02*
X39370000Y30480000D01*
X37345700Y24154900D02*
X39370000Y25400000D01*
X36314300Y24105100D02*
X37345700Y24154900D01*
X35584900Y23375700D02*
X36314300Y24105100D01*
X35535100Y21846300D02*
X35584900Y23375700D01*
X35303700Y21614900D02*
X35535100Y21846300D01*
X30480000Y20320000D02*
X35303700Y21614900D01*
X36830000Y25400000D02*
X36830000Y30480000D01*
X34820500Y24127200D02*
X36830000Y25400000D01*
X34814900Y24124900D02*
X34820500Y24127200D01*
X33276300Y24105100D02*
X34814900Y24124900D01*
X30480000Y22860000D02*
X33276300Y24105100D01*
D24*
X23460000Y33620000D02*
X22860000Y33020000D01*
X23460000Y33870000D02*
X23460000Y33620000D01*
X23460000Y33973600D02*
X23460000Y33870000D01*
X25670000Y41826400D02*
X23460000Y33973600D01*
X25670000Y41930000D02*
X25670000Y41826400D01*
X25670000Y42180000D02*
X25670000Y41930000D01*
X26670000Y43180000D02*
X25670000Y42180000D01*
X31080000Y33620000D02*
X30480000Y33020000D01*
X31080000Y33870000D02*
X31080000Y33620000D01*
X31080000Y33973600D02*
X31080000Y33870000D01*
X37909800Y42196000D02*
X31080000Y33973600D01*
X20921300Y21481200D02*
X9809500Y14859000D01*
X22860000Y22860000D02*
X20921300Y21481200D01*
X27340000Y24800000D02*
X27940000Y25400000D01*
X27340000Y24550000D02*
X27340000Y24800000D01*
X27340000Y24446400D02*
X27340000Y24550000D01*
X26561200Y23461300D02*
X27340000Y24446400D01*
X21590000Y12827100D02*
X26561200Y23461300D01*
D26*
G36*
X48845000Y685000D02*
X685000Y685000D01*
X685000Y9451457D01*
X856229Y9037051D01*
X1414134Y8478171D01*
X2143445Y8175335D01*
X2933131Y8174646D01*
X3662969Y8476209D01*
X4221849Y9034114D01*
X4373778Y9400000D01*
X12705221Y9400000D01*
X12855189Y9037051D01*
X13413094Y8478171D01*
X14142405Y8175335D01*
X14932091Y8174646D01*
X15661929Y8476209D01*
X16198490Y9011834D01*
X16223050Y8952393D01*
X16823074Y8351320D01*
X17607445Y8025621D01*
X18456749Y8024880D01*
X19241687Y8349210D01*
X19842760Y8949234D01*
X20029976Y9400100D01*
X29754061Y9400100D01*
X29939050Y8952393D01*
X30539074Y8351320D01*
X31323445Y8025621D01*
X32172749Y8024880D01*
X32957687Y8349210D01*
X33114900Y8506149D01*
X33114900Y8416700D01*
X33114908Y8416657D01*
X33114901Y8416620D01*
X33143490Y8272972D01*
X33172752Y8125861D01*
X33172774Y8125828D01*
X33172782Y8125787D01*
X33254282Y7929087D01*
X33336380Y7806248D01*
X33418999Y7682599D01*
X34307599Y6793999D01*
X34433401Y6709940D01*
X34554087Y6629282D01*
X34750787Y6547782D01*
X34750828Y6547774D01*
X34750861Y6547752D01*
X34893254Y6519428D01*
X35041620Y6489900D01*
X35041660Y6489908D01*
X35041700Y6489900D01*
X36298300Y6489900D01*
X36298343Y6489908D01*
X36298380Y6489901D01*
X36442028Y6518490D01*
X36589139Y6547752D01*
X36589172Y6547774D01*
X36589213Y6547782D01*
X36785913Y6629282D01*
X36850923Y6672730D01*
X36922894Y6703302D01*
X38191584Y7567601D01*
X38323765Y7512715D01*
X38814084Y7512287D01*
X39267243Y7699528D01*
X39369875Y7801981D01*
X39470933Y7700747D01*
X39923765Y7512715D01*
X40414084Y7512287D01*
X40867243Y7699528D01*
X41214253Y8045933D01*
X41247675Y8126423D01*
X41343805Y7893771D01*
X41915760Y7320817D01*
X42310000Y7157114D01*
X42310000Y6182847D01*
X41918771Y6021195D01*
X41345817Y5449240D01*
X41182114Y5055000D01*
X37557847Y5055000D01*
X37396195Y5446229D01*
X36824240Y6019183D01*
X36076562Y6329646D01*
X35266989Y6330352D01*
X34518771Y6021195D01*
X33945817Y5449240D01*
X33635354Y4701562D01*
X33634648Y3891989D01*
X33943805Y3143771D01*
X34515760Y2570817D01*
X35263438Y2260354D01*
X36073011Y2259648D01*
X36821229Y2568805D01*
X37394183Y3140760D01*
X37557886Y3535000D01*
X41182153Y3535000D01*
X41343805Y3143771D01*
X41915760Y2570817D01*
X42663438Y2260354D01*
X43473011Y2259648D01*
X44221229Y2568805D01*
X44794183Y3140760D01*
X45104646Y3888438D01*
X45105352Y4698011D01*
X44796195Y5446229D01*
X44224240Y6019183D01*
X43830000Y6182886D01*
X43830000Y7157153D01*
X44221229Y7318805D01*
X44794183Y7890760D01*
X45104646Y8638438D01*
X45105352Y9448011D01*
X44796195Y10196229D01*
X44224240Y10769183D01*
X43476562Y11079646D01*
X42666989Y11080352D01*
X41918771Y10771195D01*
X41345817Y10199240D01*
X41304612Y10100007D01*
X41149605Y9945000D01*
X41163748Y9930857D01*
X40984143Y9751252D01*
X40970000Y9765395D01*
X40955858Y9751252D01*
X40776253Y9930857D01*
X40790395Y9945000D01*
X40776253Y9959142D01*
X40955858Y10138747D01*
X40970000Y10124605D01*
X41651316Y10805921D01*
X41602111Y11031092D01*
X41138365Y11190317D01*
X40648987Y11159953D01*
X40337889Y11031092D01*
X40288685Y10805923D01*
X40172980Y10921628D01*
X40154761Y10903409D01*
X40069067Y10989253D01*
X39616235Y11177285D01*
X39125916Y11177713D01*
X38672757Y10990472D01*
X38570125Y10888019D01*
X38469067Y10989253D01*
X38016235Y11177285D01*
X37525916Y11177713D01*
X37072757Y10990472D01*
X36837637Y10755762D01*
X36824240Y10769183D01*
X36076562Y11079646D01*
X35266989Y11080352D01*
X34657038Y10828326D01*
X34735627Y14954250D01*
X35345000Y14954250D01*
X35345000Y14263691D01*
X35441673Y14030302D01*
X35620301Y13851673D01*
X35853690Y13755000D01*
X36544250Y13755000D01*
X36703000Y13913750D01*
X36703000Y15113000D01*
X36957000Y15113000D01*
X36957000Y13913750D01*
X37115750Y13755000D01*
X37806310Y13755000D01*
X38039699Y13851673D01*
X38218327Y14030302D01*
X38305136Y14239878D01*
X38603076Y13968355D01*
X39013110Y13798524D01*
X39243000Y13919845D01*
X39243000Y15113000D01*
X39497000Y15113000D01*
X39497000Y13919845D01*
X39726890Y13798524D01*
X40136924Y13968355D01*
X40565183Y14358642D01*
X40640000Y14517954D01*
X40714817Y14358642D01*
X41143076Y13968355D01*
X41553110Y13798524D01*
X41783000Y13919845D01*
X41783000Y15113000D01*
X42037000Y15113000D01*
X42037000Y13919845D01*
X42266890Y13798524D01*
X42676924Y13968355D01*
X43105183Y14358642D01*
X43180000Y14517954D01*
X43254817Y14358642D01*
X43683076Y13968355D01*
X44093110Y13798524D01*
X44323000Y13919845D01*
X44323000Y15113000D01*
X44577000Y15113000D01*
X44577000Y13919845D01*
X44806890Y13798524D01*
X45216924Y13968355D01*
X45645183Y14358642D01*
X45891486Y14883108D01*
X45770819Y15113000D01*
X44577000Y15113000D01*
X44323000Y15113000D01*
X42037000Y15113000D01*
X41783000Y15113000D01*
X39497000Y15113000D01*
X39243000Y15113000D01*
X36957000Y15113000D01*
X36703000Y15113000D01*
X35503750Y15113000D01*
X35345000Y14954250D01*
X34735627Y14954250D01*
X34790005Y17809093D01*
X35345000Y17809093D01*
X35345000Y17750907D01*
X35458039Y17182622D01*
X35779946Y16700853D01*
X35785858Y16696903D01*
X35620301Y16628327D01*
X35441673Y16449698D01*
X35345000Y16216309D01*
X35345000Y15525750D01*
X35503750Y15367000D01*
X36703000Y15367000D01*
X36703000Y15387000D01*
X36957000Y15387000D01*
X36957000Y15367000D01*
X39243000Y15367000D01*
X39243000Y15387000D01*
X39497000Y15387000D01*
X39497000Y15367000D01*
X41783000Y15367000D01*
X41783000Y15387000D01*
X42037000Y15387000D01*
X42037000Y15367000D01*
X44323000Y15367000D01*
X44323000Y15387000D01*
X44577000Y15387000D01*
X44577000Y15367000D01*
X45770819Y15367000D01*
X45891486Y15596892D01*
X45645183Y16121358D01*
X45216924Y16511645D01*
X45216899Y16511655D01*
X45500054Y16700853D01*
X45821961Y17182622D01*
X45935000Y17750907D01*
X45935000Y17809093D01*
X45821961Y18377378D01*
X45500054Y18859147D01*
X45018285Y19181054D01*
X44450000Y19294093D01*
X43881715Y19181054D01*
X43399946Y18859147D01*
X43270221Y18665000D01*
X43089779Y18665000D01*
X42960054Y18859147D01*
X42478285Y19181054D01*
X41910000Y19294093D01*
X41341715Y19181054D01*
X40859946Y18859147D01*
X40730221Y18665000D01*
X40549779Y18665000D01*
X40420054Y18859147D01*
X39938285Y19181054D01*
X39370000Y19294093D01*
X38801715Y19181054D01*
X38319946Y18859147D01*
X38190221Y18665000D01*
X38009779Y18665000D01*
X37880054Y18859147D01*
X37398285Y19181054D01*
X36830000Y19294093D01*
X36261715Y19181054D01*
X35779946Y18859147D01*
X35458039Y18377378D01*
X35345000Y17809093D01*
X34790005Y17809093D01*
X34803152Y18499253D01*
X35069071Y18499021D01*
X35449615Y18656258D01*
X35741019Y18947154D01*
X35898920Y19327423D01*
X35898992Y19410113D01*
X37833997Y21032520D01*
X37855093Y21058785D01*
X37883101Y21077499D01*
X38479707Y21674105D01*
X38801715Y21458946D01*
X39370000Y21345907D01*
X39938285Y21458946D01*
X40420054Y21780853D01*
X40741961Y22262622D01*
X40855000Y22830907D01*
X40855000Y22889093D01*
X40741961Y23457378D01*
X40550108Y23744506D01*
X41152501Y24346899D01*
X41210941Y24434361D01*
X41279069Y24514509D01*
X42819335Y27280092D01*
X43008611Y27481538D01*
X43143271Y27481421D01*
X43523815Y27638658D01*
X43815219Y27929554D01*
X43973120Y28309823D01*
X43973479Y28721571D01*
X43816242Y29102115D01*
X43525346Y29393519D01*
X43145077Y29551420D01*
X42733329Y29551779D01*
X42352785Y29394542D01*
X42061381Y29103646D01*
X41903480Y28723377D01*
X41903307Y28524953D01*
X41647229Y28252410D01*
X41597711Y28173060D01*
X41537131Y28101791D01*
X40536420Y26304992D01*
X40420054Y26479147D01*
X40130000Y26672954D01*
X40130000Y29207046D01*
X40420054Y29400853D01*
X40741961Y29882622D01*
X40855000Y30450907D01*
X40855000Y30509093D01*
X40741961Y31077378D01*
X40420054Y31559147D01*
X40134422Y31750000D01*
X40420054Y31940853D01*
X40741961Y32422622D01*
X40855000Y32990907D01*
X40855000Y33049093D01*
X40741961Y33617378D01*
X40420054Y34099147D01*
X39938285Y34421054D01*
X39370000Y34534093D01*
X38801715Y34421054D01*
X38319946Y34099147D01*
X38100000Y33769974D01*
X37880054Y34099147D01*
X37398285Y34421054D01*
X36830000Y34534093D01*
X36261715Y34421054D01*
X35779946Y34099147D01*
X35560000Y33769974D01*
X35340054Y34099147D01*
X34858285Y34421054D01*
X34290000Y34534093D01*
X33721715Y34421054D01*
X33239946Y34099147D01*
X32918039Y33617378D01*
X32805000Y33049093D01*
X32805000Y32990907D01*
X32918039Y32422622D01*
X33239946Y31940853D01*
X33243643Y31938383D01*
X33192235Y31928157D01*
X32982191Y31787809D01*
X32841843Y31577765D01*
X32799522Y31365000D01*
X31659779Y31365000D01*
X31530054Y31559147D01*
X31526357Y31561617D01*
X31577765Y31571843D01*
X31787809Y31712191D01*
X31928157Y31922235D01*
X31977440Y32170000D01*
X31977440Y33668960D01*
X34943378Y37239656D01*
X36768029Y36481995D01*
X39041596Y36480011D01*
X41142858Y37348234D01*
X42751916Y38954486D01*
X43623805Y41054229D01*
X43625789Y43327796D01*
X42757566Y45429058D01*
X41151314Y47038116D01*
X39051571Y47910005D01*
X36778004Y47911989D01*
X34676742Y47043766D01*
X33067684Y45437514D01*
X32195795Y43337771D01*
X32193811Y41064204D01*
X33062034Y38962942D01*
X33614299Y38409712D01*
X30399221Y34539078D01*
X30387490Y34517440D01*
X29630000Y34517440D01*
X29382235Y34468157D01*
X29172191Y34327809D01*
X29031843Y34117765D01*
X29019403Y34055223D01*
X28990054Y34099147D01*
X28508285Y34421054D01*
X27940000Y34534093D01*
X27371715Y34421054D01*
X26889946Y34099147D01*
X26568039Y33617378D01*
X26455000Y33049093D01*
X26455000Y32990907D01*
X26568039Y32422622D01*
X26889946Y31940853D01*
X27173101Y31751655D01*
X27173076Y31751645D01*
X26744817Y31361358D01*
X26498514Y30836892D01*
X26619181Y30607000D01*
X27813000Y30607000D01*
X27813000Y30627000D01*
X28067000Y30627000D01*
X28067000Y30607000D01*
X28087000Y30607000D01*
X28087000Y30353000D01*
X28067000Y30353000D01*
X28067000Y30333000D01*
X27813000Y30333000D01*
X27813000Y30353000D01*
X26619181Y30353000D01*
X26498514Y30123108D01*
X26678814Y29739186D01*
X24763901Y29492805D01*
X24277324Y30110676D01*
X24345000Y30450907D01*
X24345000Y30509093D01*
X24231961Y31077378D01*
X23910054Y31559147D01*
X23906357Y31561617D01*
X23957765Y31571843D01*
X24167809Y31712191D01*
X24308157Y31922235D01*
X24357440Y32170000D01*
X24357440Y33870000D01*
X24354451Y33885025D01*
X26436327Y41282560D01*
X27920000Y41282560D01*
X28167765Y41331843D01*
X28377809Y41472191D01*
X28518157Y41682235D01*
X28567440Y41930000D01*
X28567440Y44430000D01*
X28518157Y44677765D01*
X28377809Y44887809D01*
X28167765Y45028157D01*
X27920000Y45077440D01*
X25420000Y45077440D01*
X25172235Y45028157D01*
X24962191Y44887809D01*
X24821843Y44677765D01*
X24772560Y44430000D01*
X24772560Y41930000D01*
X24775548Y41914976D01*
X22693673Y34517440D01*
X22010000Y34517440D01*
X21762235Y34468157D01*
X21552191Y34327809D01*
X21411843Y34117765D01*
X21399403Y34055223D01*
X21370054Y34099147D01*
X20888285Y34421054D01*
X20320000Y34534093D01*
X19751715Y34421054D01*
X19269946Y34099147D01*
X18948039Y33617378D01*
X18835000Y33049093D01*
X18835000Y32990907D01*
X18948039Y32422622D01*
X19269946Y31940853D01*
X19553101Y31751655D01*
X19553076Y31751645D01*
X19124817Y31361358D01*
X18878514Y30836892D01*
X18999181Y30607000D01*
X20193000Y30607000D01*
X20193000Y30627000D01*
X20447000Y30627000D01*
X20447000Y30607000D01*
X20467000Y30607000D01*
X20467000Y30353000D01*
X20447000Y30353000D01*
X20447000Y29159845D01*
X20676890Y29038524D01*
X21086924Y29208355D01*
X21515183Y29598642D01*
X21582298Y29741553D01*
X21809946Y29400853D01*
X22291715Y29078946D01*
X22860000Y28965907D01*
X22916957Y28977236D01*
X23361811Y28412348D01*
X22728175Y26897440D01*
X22198242Y26897440D01*
X21470158Y27473048D01*
X21361264Y27528722D01*
X21259541Y27596613D01*
X21208041Y27617913D01*
X21173354Y27624794D01*
X21162701Y27630240D01*
X21134516Y27632497D01*
X21038521Y27651539D01*
X20869800Y27685100D01*
X16217640Y27685100D01*
X16217640Y28420060D01*
X16168357Y28667825D01*
X16028009Y28877869D01*
X15817965Y29018217D01*
X15570200Y29067500D01*
X12070080Y29067500D01*
X11822315Y29018217D01*
X11612271Y28877869D01*
X11471923Y28667825D01*
X11422640Y28420060D01*
X11422640Y24919940D01*
X11471923Y24672175D01*
X11612271Y24462131D01*
X11771016Y24356060D01*
X11106150Y24356060D01*
X10947400Y24197310D01*
X10947400Y22098000D01*
X13046710Y22098000D01*
X13205460Y22256750D01*
X13205460Y23847370D01*
X13108787Y24080759D01*
X12930158Y24259387D01*
X12898500Y24272500D01*
X15570200Y24272500D01*
X15817965Y24321783D01*
X16028009Y24462131D01*
X16168357Y24672175D01*
X16217640Y24919940D01*
X16217640Y25915100D01*
X16391673Y25915100D01*
X16295000Y25429093D01*
X16295000Y25370907D01*
X16408039Y24802622D01*
X16597381Y24519251D01*
X13205460Y21283798D01*
X13205460Y21685250D01*
X13046710Y21844000D01*
X10947400Y21844000D01*
X10947400Y19744690D01*
X11106150Y19585940D01*
X11365993Y19585940D01*
X8529565Y17066292D01*
X8524393Y17059463D01*
X8517096Y17054967D01*
X7623231Y16224768D01*
X7548600Y16255757D01*
X6992839Y16256242D01*
X6479197Y16044010D01*
X6085871Y15651370D01*
X5872743Y15138100D01*
X5872258Y14582339D01*
X6084490Y14068697D01*
X6293332Y13859490D01*
X6085871Y13652390D01*
X5872743Y13139120D01*
X5872258Y12583359D01*
X6084490Y12069717D01*
X6477130Y11676391D01*
X6990400Y11463263D01*
X7546161Y11462778D01*
X8059803Y11675010D01*
X8264957Y11879807D01*
X9008892Y11879807D01*
X9078357Y11637623D01*
X9601802Y11450876D01*
X10156868Y11478658D01*
X10540643Y11637623D01*
X10610108Y11879807D01*
X9809500Y12680415D01*
X9008892Y11879807D01*
X8264957Y11879807D01*
X8453129Y12067650D01*
X8532895Y12259747D01*
X8587103Y12128877D01*
X8829287Y12059412D01*
X9629895Y12860020D01*
X9989105Y12860020D01*
X10789713Y12059412D01*
X11031897Y12128877D01*
X11218644Y12652322D01*
X11190862Y13207388D01*
X11031897Y13591163D01*
X10789713Y13660628D01*
X9989105Y12860020D01*
X9629895Y12860020D01*
X9615753Y12874162D01*
X9795358Y13053767D01*
X9809500Y13039625D01*
X10334064Y13564189D01*
X10599803Y13673990D01*
X10993129Y14066630D01*
X11206257Y14579900D01*
X11206328Y14661211D01*
X21374369Y20720968D01*
X21401225Y20745186D01*
X21434220Y20759994D01*
X22389619Y21439472D01*
X22860000Y21345907D01*
X23428285Y21458946D01*
X23910054Y21780853D01*
X24231961Y22262622D01*
X24345000Y22830907D01*
X24345000Y22889093D01*
X24231961Y23457378D01*
X23910054Y23939147D01*
X23906357Y23941617D01*
X23957765Y23951843D01*
X24167809Y24092191D01*
X24308157Y24302235D01*
X24357440Y24550000D01*
X24357440Y26205715D01*
X24998512Y27738401D01*
X28602737Y28202136D01*
X28708567Y28237714D01*
X28739183Y28238607D01*
X28762559Y28249098D01*
X28828041Y28262087D01*
X28879541Y28283387D01*
X28915181Y28307174D01*
X28930046Y28312171D01*
X28954138Y28333174D01*
X28962845Y28338986D01*
X29054220Y28379994D01*
X30009619Y29059472D01*
X30480000Y28965907D01*
X31048285Y29078946D01*
X31530054Y29400853D01*
X31659779Y29595000D01*
X32799522Y29595000D01*
X32841843Y29382235D01*
X32982191Y29172191D01*
X33192235Y29031843D01*
X33405000Y28989522D01*
X33405000Y26589432D01*
X33239946Y26479147D01*
X33110221Y26285000D01*
X31669432Y26285000D01*
X31559147Y26450054D01*
X31077378Y26771961D01*
X30509093Y26885000D01*
X30450907Y26885000D01*
X29882622Y26771961D01*
X29400853Y26450054D01*
X29398383Y26446357D01*
X29388157Y26497765D01*
X29247809Y26707809D01*
X29037765Y26848157D01*
X28790000Y26897440D01*
X27090000Y26897440D01*
X26842235Y26848157D01*
X26632191Y26707809D01*
X26491843Y26497765D01*
X26442560Y26250000D01*
X26442560Y24738242D01*
X25866952Y24010158D01*
X25820237Y23918786D01*
X25759476Y23836085D01*
X21247830Y14184944D01*
X20806123Y14002434D01*
X20416016Y13613007D01*
X20204631Y13103936D01*
X20204150Y12552722D01*
X20414646Y12043283D01*
X20804073Y11653176D01*
X21313144Y11441791D01*
X21864358Y11441310D01*
X22373797Y11651806D01*
X22763904Y12041233D01*
X22859935Y12272501D01*
X22954646Y12043283D01*
X23344073Y11653176D01*
X23853144Y11441791D01*
X24404358Y11441310D01*
X24913797Y11651806D01*
X25146023Y11883627D01*
X25376073Y11653176D01*
X25885144Y11441791D01*
X26436358Y11441310D01*
X26945797Y11651806D01*
X27149536Y11855190D01*
X27909635Y11855190D01*
X27977695Y11614189D01*
X28496994Y11429353D01*
X29047498Y11457315D01*
X29426225Y11614189D01*
X29494285Y11855190D01*
X28701960Y12647515D01*
X27909635Y11855190D01*
X27149536Y11855190D01*
X27335904Y12041233D01*
X27425339Y12256616D01*
X27489029Y12102855D01*
X27730030Y12034795D01*
X28522355Y12827120D01*
X28881565Y12827120D01*
X29673890Y12034795D01*
X29914891Y12102855D01*
X30099727Y12622154D01*
X30071765Y13172658D01*
X29914891Y13551385D01*
X29673890Y13619445D01*
X28881565Y12827120D01*
X28522355Y12827120D01*
X27730030Y13619445D01*
X27489029Y13551385D01*
X27430191Y13386080D01*
X27337274Y13610957D01*
X27169085Y13779440D01*
X27173738Y13799050D01*
X27909635Y13799050D01*
X28701960Y13006725D01*
X29494285Y13799050D01*
X29426225Y14040051D01*
X28906926Y14224887D01*
X28356422Y14196925D01*
X27977695Y14040051D01*
X27909635Y13799050D01*
X27173738Y13799050D01*
X28388523Y18918430D01*
X28537378Y18948039D01*
X29019147Y19269946D01*
X29210000Y19555578D01*
X29400853Y19269946D01*
X29882622Y18948039D01*
X30450907Y18835000D01*
X30509093Y18835000D01*
X31077378Y18948039D01*
X31559147Y19269946D01*
X31881054Y19751715D01*
X31914147Y19918083D01*
X33492011Y20341653D01*
X33453168Y20283521D01*
X33372518Y20167658D01*
X33370944Y20160463D01*
X33366852Y20154339D01*
X33339310Y20015878D01*
X33309138Y19877973D01*
X33154788Y11774639D01*
X32960846Y11968920D01*
X32176475Y12294619D01*
X31327171Y12295360D01*
X30542233Y11971030D01*
X29941160Y11371006D01*
X29753928Y10920100D01*
X20029875Y10920100D01*
X19844870Y11367847D01*
X19244846Y11968920D01*
X18460475Y12294619D01*
X17611171Y12295360D01*
X16826233Y11971030D01*
X16225160Y11371006D01*
X16198635Y11307127D01*
X15664866Y11841829D01*
X14935555Y12144665D01*
X14145869Y12145354D01*
X13416031Y11843791D01*
X12857151Y11285886D01*
X12705222Y10920000D01*
X4373779Y10920000D01*
X4223811Y11282949D01*
X3665906Y11841829D01*
X2936595Y12144665D01*
X2146909Y12145354D01*
X1417071Y11843791D01*
X858191Y11285886D01*
X685000Y10868795D01*
X685000Y21685250D01*
X8435340Y21685250D01*
X8435340Y20094630D01*
X8532013Y19861241D01*
X8710642Y19682613D01*
X8944031Y19585940D01*
X10534650Y19585940D01*
X10693400Y19744690D01*
X10693400Y21844000D01*
X8594090Y21844000D01*
X8435340Y21685250D01*
X685000Y21685250D01*
X685000Y26384250D01*
X5435600Y26384250D01*
X5435600Y24793630D01*
X5532273Y24560241D01*
X5710902Y24381613D01*
X5944291Y24284940D01*
X7534910Y24284940D01*
X7693660Y24443690D01*
X7693660Y26543000D01*
X7947660Y26543000D01*
X7947660Y24443690D01*
X8106410Y24284940D01*
X8772332Y24284940D01*
X8710642Y24259387D01*
X8532013Y24080759D01*
X8435340Y23847370D01*
X8435340Y22256750D01*
X8594090Y22098000D01*
X10693400Y22098000D01*
X10693400Y24197310D01*
X10534650Y24356060D01*
X9868728Y24356060D01*
X9930418Y24381613D01*
X10109047Y24560241D01*
X10205720Y24793630D01*
X10205720Y26384250D01*
X10046970Y26543000D01*
X7947660Y26543000D01*
X7693660Y26543000D01*
X5594350Y26543000D01*
X5435600Y26384250D01*
X685000Y26384250D01*
X685000Y28546370D01*
X5435600Y28546370D01*
X5435600Y26955750D01*
X5594350Y26797000D01*
X7693660Y26797000D01*
X7693660Y28896310D01*
X7947660Y28896310D01*
X7947660Y26797000D01*
X10046970Y26797000D01*
X10205720Y26955750D01*
X10205720Y28546370D01*
X10109047Y28779759D01*
X9930418Y28958387D01*
X9697029Y29055060D01*
X8106410Y29055060D01*
X7947660Y28896310D01*
X7693660Y28896310D01*
X7534910Y29055060D01*
X5944291Y29055060D01*
X5710902Y28958387D01*
X5532273Y28779759D01*
X5435600Y28546370D01*
X685000Y28546370D01*
X685000Y30123108D01*
X18878514Y30123108D01*
X19124817Y29598642D01*
X19553076Y29208355D01*
X19963110Y29038524D01*
X20193000Y29159845D01*
X20193000Y30353000D01*
X18999181Y30353000D01*
X18878514Y30123108D01*
X685000Y30123108D01*
X685000Y41064204D01*
X2221811Y41064204D01*
X3090034Y38962942D01*
X4696286Y37353884D01*
X6796029Y36481995D01*
X9069596Y36480011D01*
X11170858Y37348234D01*
X12779916Y38954486D01*
X13651805Y41054229D01*
X13653334Y42806695D01*
X19784674Y42806695D01*
X20071043Y42113628D01*
X20600839Y41582907D01*
X21293405Y41295328D01*
X22043305Y41294674D01*
X22736372Y41581043D01*
X23267093Y42110839D01*
X23554672Y42803405D01*
X23555326Y43553305D01*
X23268957Y44246372D01*
X22739161Y44777093D01*
X22046595Y45064672D01*
X21296695Y45065326D01*
X20603628Y44778957D01*
X20072907Y44249161D01*
X19785328Y43556595D01*
X19784674Y42806695D01*
X13653334Y42806695D01*
X13653789Y43327796D01*
X12785566Y45429058D01*
X11179314Y47038116D01*
X9079571Y47910005D01*
X6806004Y47911989D01*
X4704742Y47043766D01*
X3095684Y45437514D01*
X2223795Y43337771D01*
X2221811Y41064204D01*
X685000Y41064204D01*
X685000Y48845000D01*
X48845000Y48845000D01*
X48845000Y685000D01*
X48845000Y685000D01*
G37*
X48845000Y685000D02*
X685000Y685000D01*
X685000Y9451457D01*
X856229Y9037051D01*
X1414134Y8478171D01*
X2143445Y8175335D01*
X2933131Y8174646D01*
X3662969Y8476209D01*
X4221849Y9034114D01*
X4373778Y9400000D01*
X12705221Y9400000D01*
X12855189Y9037051D01*
X13413094Y8478171D01*
X14142405Y8175335D01*
X14932091Y8174646D01*
X15661929Y8476209D01*
X16198490Y9011834D01*
X16223050Y8952393D01*
X16823074Y8351320D01*
X17607445Y8025621D01*
X18456749Y8024880D01*
X19241687Y8349210D01*
X19842760Y8949234D01*
X20029976Y9400100D01*
X29754061Y9400100D01*
X29939050Y8952393D01*
X30539074Y8351320D01*
X31323445Y8025621D01*
X32172749Y8024880D01*
X32957687Y8349210D01*
X33114900Y8506149D01*
X33114900Y8416700D01*
X33114908Y8416657D01*
X33114901Y8416620D01*
X33143490Y8272972D01*
X33172752Y8125861D01*
X33172774Y8125828D01*
X33172782Y8125787D01*
X33254282Y7929087D01*
X33336380Y7806248D01*
X33418999Y7682599D01*
X34307599Y6793999D01*
X34433401Y6709940D01*
X34554087Y6629282D01*
X34750787Y6547782D01*
X34750828Y6547774D01*
X34750861Y6547752D01*
X34893254Y6519428D01*
X35041620Y6489900D01*
X35041660Y6489908D01*
X35041700Y6489900D01*
X36298300Y6489900D01*
X36298343Y6489908D01*
X36298380Y6489901D01*
X36442028Y6518490D01*
X36589139Y6547752D01*
X36589172Y6547774D01*
X36589213Y6547782D01*
X36785913Y6629282D01*
X36850923Y6672730D01*
X36922894Y6703302D01*
X38191584Y7567601D01*
X38323765Y7512715D01*
X38814084Y7512287D01*
X39267243Y7699528D01*
X39369875Y7801981D01*
X39470933Y7700747D01*
X39923765Y7512715D01*
X40414084Y7512287D01*
X40867243Y7699528D01*
X41214253Y8045933D01*
X41247675Y8126423D01*
X41343805Y7893771D01*
X41915760Y7320817D01*
X42310000Y7157114D01*
X42310000Y6182847D01*
X41918771Y6021195D01*
X41345817Y5449240D01*
X41182114Y5055000D01*
X37557847Y5055000D01*
X37396195Y5446229D01*
X36824240Y6019183D01*
X36076562Y6329646D01*
X35266989Y6330352D01*
X34518771Y6021195D01*
X33945817Y5449240D01*
X33635354Y4701562D01*
X33634648Y3891989D01*
X33943805Y3143771D01*
X34515760Y2570817D01*
X35263438Y2260354D01*
X36073011Y2259648D01*
X36821229Y2568805D01*
X37394183Y3140760D01*
X37557886Y3535000D01*
X41182153Y3535000D01*
X41343805Y3143771D01*
X41915760Y2570817D01*
X42663438Y2260354D01*
X43473011Y2259648D01*
X44221229Y2568805D01*
X44794183Y3140760D01*
X45104646Y3888438D01*
X45105352Y4698011D01*
X44796195Y5446229D01*
X44224240Y6019183D01*
X43830000Y6182886D01*
X43830000Y7157153D01*
X44221229Y7318805D01*
X44794183Y7890760D01*
X45104646Y8638438D01*
X45105352Y9448011D01*
X44796195Y10196229D01*
X44224240Y10769183D01*
X43476562Y11079646D01*
X42666989Y11080352D01*
X41918771Y10771195D01*
X41345817Y10199240D01*
X41304612Y10100007D01*
X41149605Y9945000D01*
X41163748Y9930857D01*
X40984143Y9751252D01*
X40970000Y9765395D01*
X40955858Y9751252D01*
X40776253Y9930857D01*
X40790395Y9945000D01*
X40776253Y9959142D01*
X40955858Y10138747D01*
X40970000Y10124605D01*
X41651316Y10805921D01*
X41602111Y11031092D01*
X41138365Y11190317D01*
X40648987Y11159953D01*
X40337889Y11031092D01*
X40288685Y10805923D01*
X40172980Y10921628D01*
X40154761Y10903409D01*
X40069067Y10989253D01*
X39616235Y11177285D01*
X39125916Y11177713D01*
X38672757Y10990472D01*
X38570125Y10888019D01*
X38469067Y10989253D01*
X38016235Y11177285D01*
X37525916Y11177713D01*
X37072757Y10990472D01*
X36837637Y10755762D01*
X36824240Y10769183D01*
X36076562Y11079646D01*
X35266989Y11080352D01*
X34657038Y10828326D01*
X34735627Y14954250D01*
X35345000Y14954250D01*
X35345000Y14263691D01*
X35441673Y14030302D01*
X35620301Y13851673D01*
X35853690Y13755000D01*
X36544250Y13755000D01*
X36703000Y13913750D01*
X36703000Y15113000D01*
X36957000Y15113000D01*
X36957000Y13913750D01*
X37115750Y13755000D01*
X37806310Y13755000D01*
X38039699Y13851673D01*
X38218327Y14030302D01*
X38305136Y14239878D01*
X38603076Y13968355D01*
X39013110Y13798524D01*
X39243000Y13919845D01*
X39243000Y15113000D01*
X39497000Y15113000D01*
X39497000Y13919845D01*
X39726890Y13798524D01*
X40136924Y13968355D01*
X40565183Y14358642D01*
X40640000Y14517954D01*
X40714817Y14358642D01*
X41143076Y13968355D01*
X41553110Y13798524D01*
X41783000Y13919845D01*
X41783000Y15113000D01*
X42037000Y15113000D01*
X42037000Y13919845D01*
X42266890Y13798524D01*
X42676924Y13968355D01*
X43105183Y14358642D01*
X43180000Y14517954D01*
X43254817Y14358642D01*
X43683076Y13968355D01*
X44093110Y13798524D01*
X44323000Y13919845D01*
X44323000Y15113000D01*
X44577000Y15113000D01*
X44577000Y13919845D01*
X44806890Y13798524D01*
X45216924Y13968355D01*
X45645183Y14358642D01*
X45891486Y14883108D01*
X45770819Y15113000D01*
X44577000Y15113000D01*
X44323000Y15113000D01*
X42037000Y15113000D01*
X41783000Y15113000D01*
X39497000Y15113000D01*
X39243000Y15113000D01*
X36957000Y15113000D01*
X36703000Y15113000D01*
X35503750Y15113000D01*
X35345000Y14954250D01*
X34735627Y14954250D01*
X34790005Y17809093D01*
X35345000Y17809093D01*
X35345000Y17750907D01*
X35458039Y17182622D01*
X35779946Y16700853D01*
X35785858Y16696903D01*
X35620301Y16628327D01*
X35441673Y16449698D01*
X35345000Y16216309D01*
X35345000Y15525750D01*
X35503750Y15367000D01*
X36703000Y15367000D01*
X36703000Y15387000D01*
X36957000Y15387000D01*
X36957000Y15367000D01*
X39243000Y15367000D01*
X39243000Y15387000D01*
X39497000Y15387000D01*
X39497000Y15367000D01*
X41783000Y15367000D01*
X41783000Y15387000D01*
X42037000Y15387000D01*
X42037000Y15367000D01*
X44323000Y15367000D01*
X44323000Y15387000D01*
X44577000Y15387000D01*
X44577000Y15367000D01*
X45770819Y15367000D01*
X45891486Y15596892D01*
X45645183Y16121358D01*
X45216924Y16511645D01*
X45216899Y16511655D01*
X45500054Y16700853D01*
X45821961Y17182622D01*
X45935000Y17750907D01*
X45935000Y17809093D01*
X45821961Y18377378D01*
X45500054Y18859147D01*
X45018285Y19181054D01*
X44450000Y19294093D01*
X43881715Y19181054D01*
X43399946Y18859147D01*
X43270221Y18665000D01*
X43089779Y18665000D01*
X42960054Y18859147D01*
X42478285Y19181054D01*
X41910000Y19294093D01*
X41341715Y19181054D01*
X40859946Y18859147D01*
X40730221Y18665000D01*
X40549779Y18665000D01*
X40420054Y18859147D01*
X39938285Y19181054D01*
X39370000Y19294093D01*
X38801715Y19181054D01*
X38319946Y18859147D01*
X38190221Y18665000D01*
X38009779Y18665000D01*
X37880054Y18859147D01*
X37398285Y19181054D01*
X36830000Y19294093D01*
X36261715Y19181054D01*
X35779946Y18859147D01*
X35458039Y18377378D01*
X35345000Y17809093D01*
X34790005Y17809093D01*
X34803152Y18499253D01*
X35069071Y18499021D01*
X35449615Y18656258D01*
X35741019Y18947154D01*
X35898920Y19327423D01*
X35898992Y19410113D01*
X37833997Y21032520D01*
X37855093Y21058785D01*
X37883101Y21077499D01*
X38479707Y21674105D01*
X38801715Y21458946D01*
X39370000Y21345907D01*
X39938285Y21458946D01*
X40420054Y21780853D01*
X40741961Y22262622D01*
X40855000Y22830907D01*
X40855000Y22889093D01*
X40741961Y23457378D01*
X40550108Y23744506D01*
X41152501Y24346899D01*
X41210941Y24434361D01*
X41279069Y24514509D01*
X42819335Y27280092D01*
X43008611Y27481538D01*
X43143271Y27481421D01*
X43523815Y27638658D01*
X43815219Y27929554D01*
X43973120Y28309823D01*
X43973479Y28721571D01*
X43816242Y29102115D01*
X43525346Y29393519D01*
X43145077Y29551420D01*
X42733329Y29551779D01*
X42352785Y29394542D01*
X42061381Y29103646D01*
X41903480Y28723377D01*
X41903307Y28524953D01*
X41647229Y28252410D01*
X41597711Y28173060D01*
X41537131Y28101791D01*
X40536420Y26304992D01*
X40420054Y26479147D01*
X40130000Y26672954D01*
X40130000Y29207046D01*
X40420054Y29400853D01*
X40741961Y29882622D01*
X40855000Y30450907D01*
X40855000Y30509093D01*
X40741961Y31077378D01*
X40420054Y31559147D01*
X40134422Y31750000D01*
X40420054Y31940853D01*
X40741961Y32422622D01*
X40855000Y32990907D01*
X40855000Y33049093D01*
X40741961Y33617378D01*
X40420054Y34099147D01*
X39938285Y34421054D01*
X39370000Y34534093D01*
X38801715Y34421054D01*
X38319946Y34099147D01*
X38100000Y33769974D01*
X37880054Y34099147D01*
X37398285Y34421054D01*
X36830000Y34534093D01*
X36261715Y34421054D01*
X35779946Y34099147D01*
X35560000Y33769974D01*
X35340054Y34099147D01*
X34858285Y34421054D01*
X34290000Y34534093D01*
X33721715Y34421054D01*
X33239946Y34099147D01*
X32918039Y33617378D01*
X32805000Y33049093D01*
X32805000Y32990907D01*
X32918039Y32422622D01*
X33239946Y31940853D01*
X33243643Y31938383D01*
X33192235Y31928157D01*
X32982191Y31787809D01*
X32841843Y31577765D01*
X32799522Y31365000D01*
X31659779Y31365000D01*
X31530054Y31559147D01*
X31526357Y31561617D01*
X31577765Y31571843D01*
X31787809Y31712191D01*
X31928157Y31922235D01*
X31977440Y32170000D01*
X31977440Y33668960D01*
X34943378Y37239656D01*
X36768029Y36481995D01*
X39041596Y36480011D01*
X41142858Y37348234D01*
X42751916Y38954486D01*
X43623805Y41054229D01*
X43625789Y43327796D01*
X42757566Y45429058D01*
X41151314Y47038116D01*
X39051571Y47910005D01*
X36778004Y47911989D01*
X34676742Y47043766D01*
X33067684Y45437514D01*
X32195795Y43337771D01*
X32193811Y41064204D01*
X33062034Y38962942D01*
X33614299Y38409712D01*
X30399221Y34539078D01*
X30387490Y34517440D01*
X29630000Y34517440D01*
X29382235Y34468157D01*
X29172191Y34327809D01*
X29031843Y34117765D01*
X29019403Y34055223D01*
X28990054Y34099147D01*
X28508285Y34421054D01*
X27940000Y34534093D01*
X27371715Y34421054D01*
X26889946Y34099147D01*
X26568039Y33617378D01*
X26455000Y33049093D01*
X26455000Y32990907D01*
X26568039Y32422622D01*
X26889946Y31940853D01*
X27173101Y31751655D01*
X27173076Y31751645D01*
X26744817Y31361358D01*
X26498514Y30836892D01*
X26619181Y30607000D01*
X27813000Y30607000D01*
X27813000Y30627000D01*
X28067000Y30627000D01*
X28067000Y30607000D01*
X28087000Y30607000D01*
X28087000Y30353000D01*
X28067000Y30353000D01*
X28067000Y30333000D01*
X27813000Y30333000D01*
X27813000Y30353000D01*
X26619181Y30353000D01*
X26498514Y30123108D01*
X26678814Y29739186D01*
X24763901Y29492805D01*
X24277324Y30110676D01*
X24345000Y30450907D01*
X24345000Y30509093D01*
X24231961Y31077378D01*
X23910054Y31559147D01*
X23906357Y31561617D01*
X23957765Y31571843D01*
X24167809Y31712191D01*
X24308157Y31922235D01*
X24357440Y32170000D01*
X24357440Y33870000D01*
X24354451Y33885025D01*
X26436327Y41282560D01*
X27920000Y41282560D01*
X28167765Y41331843D01*
X28377809Y41472191D01*
X28518157Y41682235D01*
X28567440Y41930000D01*
X28567440Y44430000D01*
X28518157Y44677765D01*
X28377809Y44887809D01*
X28167765Y45028157D01*
X27920000Y45077440D01*
X25420000Y45077440D01*
X25172235Y45028157D01*
X24962191Y44887809D01*
X24821843Y44677765D01*
X24772560Y44430000D01*
X24772560Y41930000D01*
X24775548Y41914976D01*
X22693673Y34517440D01*
X22010000Y34517440D01*
X21762235Y34468157D01*
X21552191Y34327809D01*
X21411843Y34117765D01*
X21399403Y34055223D01*
X21370054Y34099147D01*
X20888285Y34421054D01*
X20320000Y34534093D01*
X19751715Y34421054D01*
X19269946Y34099147D01*
X18948039Y33617378D01*
X18835000Y33049093D01*
X18835000Y32990907D01*
X18948039Y32422622D01*
X19269946Y31940853D01*
X19553101Y31751655D01*
X19553076Y31751645D01*
X19124817Y31361358D01*
X18878514Y30836892D01*
X18999181Y30607000D01*
X20193000Y30607000D01*
X20193000Y30627000D01*
X20447000Y30627000D01*
X20447000Y30607000D01*
X20467000Y30607000D01*
X20467000Y30353000D01*
X20447000Y30353000D01*
X20447000Y29159845D01*
X20676890Y29038524D01*
X21086924Y29208355D01*
X21515183Y29598642D01*
X21582298Y29741553D01*
X21809946Y29400853D01*
X22291715Y29078946D01*
X22860000Y28965907D01*
X22916957Y28977236D01*
X23361811Y28412348D01*
X22728175Y26897440D01*
X22198242Y26897440D01*
X21470158Y27473048D01*
X21361264Y27528722D01*
X21259541Y27596613D01*
X21208041Y27617913D01*
X21173354Y27624794D01*
X21162701Y27630240D01*
X21134516Y27632497D01*
X21038521Y27651539D01*
X20869800Y27685100D01*
X16217640Y27685100D01*
X16217640Y28420060D01*
X16168357Y28667825D01*
X16028009Y28877869D01*
X15817965Y29018217D01*
X15570200Y29067500D01*
X12070080Y29067500D01*
X11822315Y29018217D01*
X11612271Y28877869D01*
X11471923Y28667825D01*
X11422640Y28420060D01*
X11422640Y24919940D01*
X11471923Y24672175D01*
X11612271Y24462131D01*
X11771016Y24356060D01*
X11106150Y24356060D01*
X10947400Y24197310D01*
X10947400Y22098000D01*
X13046710Y22098000D01*
X13205460Y22256750D01*
X13205460Y23847370D01*
X13108787Y24080759D01*
X12930158Y24259387D01*
X12898500Y24272500D01*
X15570200Y24272500D01*
X15817965Y24321783D01*
X16028009Y24462131D01*
X16168357Y24672175D01*
X16217640Y24919940D01*
X16217640Y25915100D01*
X16391673Y25915100D01*
X16295000Y25429093D01*
X16295000Y25370907D01*
X16408039Y24802622D01*
X16597381Y24519251D01*
X13205460Y21283798D01*
X13205460Y21685250D01*
X13046710Y21844000D01*
X10947400Y21844000D01*
X10947400Y19744690D01*
X11106150Y19585940D01*
X11365993Y19585940D01*
X8529565Y17066292D01*
X8524393Y17059463D01*
X8517096Y17054967D01*
X7623231Y16224768D01*
X7548600Y16255757D01*
X6992839Y16256242D01*
X6479197Y16044010D01*
X6085871Y15651370D01*
X5872743Y15138100D01*
X5872258Y14582339D01*
X6084490Y14068697D01*
X6293332Y13859490D01*
X6085871Y13652390D01*
X5872743Y13139120D01*
X5872258Y12583359D01*
X6084490Y12069717D01*
X6477130Y11676391D01*
X6990400Y11463263D01*
X7546161Y11462778D01*
X8059803Y11675010D01*
X8264957Y11879807D01*
X9008892Y11879807D01*
X9078357Y11637623D01*
X9601802Y11450876D01*
X10156868Y11478658D01*
X10540643Y11637623D01*
X10610108Y11879807D01*
X9809500Y12680415D01*
X9008892Y11879807D01*
X8264957Y11879807D01*
X8453129Y12067650D01*
X8532895Y12259747D01*
X8587103Y12128877D01*
X8829287Y12059412D01*
X9629895Y12860020D01*
X9989105Y12860020D01*
X10789713Y12059412D01*
X11031897Y12128877D01*
X11218644Y12652322D01*
X11190862Y13207388D01*
X11031897Y13591163D01*
X10789713Y13660628D01*
X9989105Y12860020D01*
X9629895Y12860020D01*
X9615753Y12874162D01*
X9795358Y13053767D01*
X9809500Y13039625D01*
X10334064Y13564189D01*
X10599803Y13673990D01*
X10993129Y14066630D01*
X11206257Y14579900D01*
X11206328Y14661211D01*
X21374369Y20720968D01*
X21401225Y20745186D01*
X21434220Y20759994D01*
X22389619Y21439472D01*
X22860000Y21345907D01*
X23428285Y21458946D01*
X23910054Y21780853D01*
X24231961Y22262622D01*
X24345000Y22830907D01*
X24345000Y22889093D01*
X24231961Y23457378D01*
X23910054Y23939147D01*
X23906357Y23941617D01*
X23957765Y23951843D01*
X24167809Y24092191D01*
X24308157Y24302235D01*
X24357440Y24550000D01*
X24357440Y26205715D01*
X24998512Y27738401D01*
X28602737Y28202136D01*
X28708567Y28237714D01*
X28739183Y28238607D01*
X28762559Y28249098D01*
X28828041Y28262087D01*
X28879541Y28283387D01*
X28915181Y28307174D01*
X28930046Y28312171D01*
X28954138Y28333174D01*
X28962845Y28338986D01*
X29054220Y28379994D01*
X30009619Y29059472D01*
X30480000Y28965907D01*
X31048285Y29078946D01*
X31530054Y29400853D01*
X31659779Y29595000D01*
X32799522Y29595000D01*
X32841843Y29382235D01*
X32982191Y29172191D01*
X33192235Y29031843D01*
X33405000Y28989522D01*
X33405000Y26589432D01*
X33239946Y26479147D01*
X33110221Y26285000D01*
X31669432Y26285000D01*
X31559147Y26450054D01*
X31077378Y26771961D01*
X30509093Y26885000D01*
X30450907Y26885000D01*
X29882622Y26771961D01*
X29400853Y26450054D01*
X29398383Y26446357D01*
X29388157Y26497765D01*
X29247809Y26707809D01*
X29037765Y26848157D01*
X28790000Y26897440D01*
X27090000Y26897440D01*
X26842235Y26848157D01*
X26632191Y26707809D01*
X26491843Y26497765D01*
X26442560Y26250000D01*
X26442560Y24738242D01*
X25866952Y24010158D01*
X25820237Y23918786D01*
X25759476Y23836085D01*
X21247830Y14184944D01*
X20806123Y14002434D01*
X20416016Y13613007D01*
X20204631Y13103936D01*
X20204150Y12552722D01*
X20414646Y12043283D01*
X20804073Y11653176D01*
X21313144Y11441791D01*
X21864358Y11441310D01*
X22373797Y11651806D01*
X22763904Y12041233D01*
X22859935Y12272501D01*
X22954646Y12043283D01*
X23344073Y11653176D01*
X23853144Y11441791D01*
X24404358Y11441310D01*
X24913797Y11651806D01*
X25146023Y11883627D01*
X25376073Y11653176D01*
X25885144Y11441791D01*
X26436358Y11441310D01*
X26945797Y11651806D01*
X27149536Y11855190D01*
X27909635Y11855190D01*
X27977695Y11614189D01*
X28496994Y11429353D01*
X29047498Y11457315D01*
X29426225Y11614189D01*
X29494285Y11855190D01*
X28701960Y12647515D01*
X27909635Y11855190D01*
X27149536Y11855190D01*
X27335904Y12041233D01*
X27425339Y12256616D01*
X27489029Y12102855D01*
X27730030Y12034795D01*
X28522355Y12827120D01*
X28881565Y12827120D01*
X29673890Y12034795D01*
X29914891Y12102855D01*
X30099727Y12622154D01*
X30071765Y13172658D01*
X29914891Y13551385D01*
X29673890Y13619445D01*
X28881565Y12827120D01*
X28522355Y12827120D01*
X27730030Y13619445D01*
X27489029Y13551385D01*
X27430191Y13386080D01*
X27337274Y13610957D01*
X27169085Y13779440D01*
X27173738Y13799050D01*
X27909635Y13799050D01*
X28701960Y13006725D01*
X29494285Y13799050D01*
X29426225Y14040051D01*
X28906926Y14224887D01*
X28356422Y14196925D01*
X27977695Y14040051D01*
X27909635Y13799050D01*
X27173738Y13799050D01*
X28388523Y18918430D01*
X28537378Y18948039D01*
X29019147Y19269946D01*
X29210000Y19555578D01*
X29400853Y19269946D01*
X29882622Y18948039D01*
X30450907Y18835000D01*
X30509093Y18835000D01*
X31077378Y18948039D01*
X31559147Y19269946D01*
X31881054Y19751715D01*
X31914147Y19918083D01*
X33492011Y20341653D01*
X33453168Y20283521D01*
X33372518Y20167658D01*
X33370944Y20160463D01*
X33366852Y20154339D01*
X33339310Y20015878D01*
X33309138Y19877973D01*
X33154788Y11774639D01*
X32960846Y11968920D01*
X32176475Y12294619D01*
X31327171Y12295360D01*
X30542233Y11971030D01*
X29941160Y11371006D01*
X29753928Y10920100D01*
X20029875Y10920100D01*
X19844870Y11367847D01*
X19244846Y11968920D01*
X18460475Y12294619D01*
X17611171Y12295360D01*
X16826233Y11971030D01*
X16225160Y11371006D01*
X16198635Y11307127D01*
X15664866Y11841829D01*
X14935555Y12144665D01*
X14145869Y12145354D01*
X13416031Y11843791D01*
X12857151Y11285886D01*
X12705222Y10920000D01*
X4373779Y10920000D01*
X4223811Y11282949D01*
X3665906Y11841829D01*
X2936595Y12144665D01*
X2146909Y12145354D01*
X1417071Y11843791D01*
X858191Y11285886D01*
X685000Y10868795D01*
X685000Y21685250D01*
X8435340Y21685250D01*
X8435340Y20094630D01*
X8532013Y19861241D01*
X8710642Y19682613D01*
X8944031Y19585940D01*
X10534650Y19585940D01*
X10693400Y19744690D01*
X10693400Y21844000D01*
X8594090Y21844000D01*
X8435340Y21685250D01*
X685000Y21685250D01*
X685000Y26384250D01*
X5435600Y26384250D01*
X5435600Y24793630D01*
X5532273Y24560241D01*
X5710902Y24381613D01*
X5944291Y24284940D01*
X7534910Y24284940D01*
X7693660Y24443690D01*
X7693660Y26543000D01*
X7947660Y26543000D01*
X7947660Y24443690D01*
X8106410Y24284940D01*
X8772332Y24284940D01*
X8710642Y24259387D01*
X8532013Y24080759D01*
X8435340Y23847370D01*
X8435340Y22256750D01*
X8594090Y22098000D01*
X10693400Y22098000D01*
X10693400Y24197310D01*
X10534650Y24356060D01*
X9868728Y24356060D01*
X9930418Y24381613D01*
X10109047Y24560241D01*
X10205720Y24793630D01*
X10205720Y26384250D01*
X10046970Y26543000D01*
X7947660Y26543000D01*
X7693660Y26543000D01*
X5594350Y26543000D01*
X5435600Y26384250D01*
X685000Y26384250D01*
X685000Y28546370D01*
X5435600Y28546370D01*
X5435600Y26955750D01*
X5594350Y26797000D01*
X7693660Y26797000D01*
X7693660Y28896310D01*
X7947660Y28896310D01*
X7947660Y26797000D01*
X10046970Y26797000D01*
X10205720Y26955750D01*
X10205720Y28546370D01*
X10109047Y28779759D01*
X9930418Y28958387D01*
X9697029Y29055060D01*
X8106410Y29055060D01*
X7947660Y28896310D01*
X7693660Y28896310D01*
X7534910Y29055060D01*
X5944291Y29055060D01*
X5710902Y28958387D01*
X5532273Y28779759D01*
X5435600Y28546370D01*
X685000Y28546370D01*
X685000Y30123108D01*
X18878514Y30123108D01*
X19124817Y29598642D01*
X19553076Y29208355D01*
X19963110Y29038524D01*
X20193000Y29159845D01*
X20193000Y30353000D01*
X18999181Y30353000D01*
X18878514Y30123108D01*
X685000Y30123108D01*
X685000Y41064204D01*
X2221811Y41064204D01*
X3090034Y38962942D01*
X4696286Y37353884D01*
X6796029Y36481995D01*
X9069596Y36480011D01*
X11170858Y37348234D01*
X12779916Y38954486D01*
X13651805Y41054229D01*
X13653334Y42806695D01*
X19784674Y42806695D01*
X20071043Y42113628D01*
X20600839Y41582907D01*
X21293405Y41295328D01*
X22043305Y41294674D01*
X22736372Y41581043D01*
X23267093Y42110839D01*
X23554672Y42803405D01*
X23555326Y43553305D01*
X23268957Y44246372D01*
X22739161Y44777093D01*
X22046595Y45064672D01*
X21296695Y45065326D01*
X20603628Y44778957D01*
X20072907Y44249161D01*
X19785328Y43556595D01*
X19784674Y42806695D01*
X13653334Y42806695D01*
X13653789Y43327796D01*
X12785566Y45429058D01*
X11179314Y47038116D01*
X9079571Y47910005D01*
X6806004Y47911989D01*
X4704742Y47043766D01*
X3095684Y45437514D01*
X2223795Y43337771D01*
X2221811Y41064204D01*
X685000Y41064204D01*
X685000Y48845000D01*
X48845000Y48845000D01*
X48845000Y685000D01*
M02*
