G04 #@! TF.GenerationSoftware,KiCad,Pcbnew,(2017-04-12 revision 02abf1804)-makepkg*
G04 #@! TF.CreationDate,2017-04-26T22:03:17+03:00*
G04 #@! TF.ProjectId,vbb,7662622E6B696361645F706362000000,rev?*
G04 #@! TF.FileFunction,Copper,L2,Bot,Signal*
G04 #@! TF.FilePolarity,Positive*
%FSLAX46Y46*%
G04 Gerber Fmt 4.6, Leading zero omitted, Abs format (unit mm)*
G04 Created by KiCad (PCBNEW (2017-04-12 revision 02abf1804)-makepkg) date 04/26/17 22:03:17*
%MOMM*%
%LPD*%
G01*
G04 APERTURE LIST*
%ADD10C,0.100000*%
%ADD11C,1.600000*%
%ADD12O,2.000000X3.950000*%
%ADD13C,10.160000*%
%ADD14C,2.700020*%
%ADD15C,1.524000*%
%ADD16R,1.700000X1.700000*%
%ADD17O,1.700000X1.700000*%
%ADD18R,3.500120X3.500120*%
%ADD19C,1.195000*%
%ADD20C,2.800000*%
%ADD21C,2.999740*%
%ADD22C,1.501140*%
%ADD23C,2.500000*%
%ADD24R,2.500000X2.500000*%
%ADD25C,0.800000*%
%ADD26C,0.500000*%
%ADD27C,0.400000*%
%ADD28C,0.250000*%
%ADD29C,0.254000*%
G04 APERTURE END LIST*
D10*
D11*
X21650000Y4830000D03*
X24150000Y4830000D03*
X26150000Y4830000D03*
D12*
X19450000Y2730000D03*
D11*
X28650000Y4830000D03*
D12*
X30850000Y2730000D03*
D13*
X41910000Y41910000D03*
X22860000Y41910000D03*
D14*
X4953000Y3144520D03*
X4953000Y15143480D03*
D15*
X7653020Y10414000D03*
X7653020Y7874000D03*
X9652000Y7874000D03*
X9652000Y10414000D03*
D16*
X22860000Y33020000D03*
D17*
X22860000Y30480000D03*
X20320000Y33020000D03*
X20320000Y30480000D03*
X27940000Y30480000D03*
X27940000Y33020000D03*
X30480000Y30480000D03*
D16*
X30480000Y33020000D03*
X34290000Y30480000D03*
D17*
X34290000Y33020000D03*
X36830000Y30480000D03*
X36830000Y33020000D03*
X39370000Y30480000D03*
X39370000Y33020000D03*
X30480000Y20320000D03*
X27940000Y20320000D03*
X30480000Y22860000D03*
X27940000Y22860000D03*
X30480000Y25400000D03*
D16*
X27940000Y25400000D03*
X22860000Y25400000D03*
D17*
X22860000Y22860000D03*
X20320000Y25400000D03*
X20320000Y22860000D03*
X17780000Y25400000D03*
X17780000Y22860000D03*
X39370000Y25400000D03*
X39370000Y22860000D03*
X36830000Y25400000D03*
X36830000Y22860000D03*
X34290000Y25400000D03*
D16*
X34290000Y22860000D03*
D17*
X44450000Y17780000D03*
X44450000Y15240000D03*
X41910000Y17780000D03*
X41910000Y15240000D03*
X39370000Y17780000D03*
X39370000Y15240000D03*
X36830000Y17780000D03*
D16*
X36830000Y15240000D03*
D18*
X10820400Y21971000D03*
X7820660Y26670000D03*
X13820140Y26670000D03*
D19*
X40093000Y4750000D03*
X41293000Y5550000D03*
X40093000Y6350000D03*
X41293000Y7150000D03*
X40093000Y7950000D03*
D20*
X40993000Y2650000D03*
X40993000Y10050000D03*
X45743000Y2650000D03*
X45743000Y10050000D03*
D21*
X18033960Y10160120D03*
X31749960Y10160120D03*
D22*
X21589960Y12827120D03*
X24129960Y12827120D03*
X26161960Y12827120D03*
X28701960Y12827120D03*
D23*
X5080000Y38100000D03*
D24*
X5080000Y43100000D03*
D25*
X43041000Y27399700D03*
X40945000Y24967000D03*
X42494000Y28390800D03*
D26*
X9320500Y23471000D02*
X10820400Y21971000D01*
X9320500Y23721000D02*
X9320500Y23471000D01*
X9320500Y24920000D02*
X9320500Y23721000D01*
X9320500Y25170000D02*
X9320500Y24920000D01*
X7820700Y26670000D02*
X9320500Y25170000D01*
X37430000Y15240000D02*
X36830000Y15240000D01*
X37680000Y15240000D02*
X37430000Y15240000D01*
X39370000Y15240000D02*
X37680000Y15240000D01*
X9320300Y20471000D02*
X10820400Y21971000D01*
X9320300Y20221000D02*
X9320300Y20471000D01*
X9320300Y20117000D02*
X9320300Y20221000D01*
X6340900Y10946000D02*
X9320300Y20117000D01*
X6340900Y9882000D02*
X6340900Y10946000D01*
X6348800Y9863000D02*
X6340900Y9882000D01*
X7653000Y7874000D02*
X6348800Y9863000D01*
X45829000Y17179000D02*
X44450000Y15240000D01*
X45850000Y17230000D02*
X45829000Y17179000D01*
X45850000Y18330000D02*
X45850000Y17230000D01*
X43041000Y27399700D02*
X45850000Y18330000D01*
X39370000Y17780000D02*
X36830000Y17780000D01*
X36830000Y17780000D02*
X35601000Y22201000D01*
X34290000Y25400000D02*
X30480000Y25400000D01*
X34290000Y29630000D02*
X34290000Y25400000D01*
X34290000Y29880000D02*
X34290000Y29630000D01*
X34290000Y30480000D02*
X34290000Y29880000D01*
X27940000Y30480000D02*
X22860000Y30480000D01*
X22260000Y26353600D02*
X21339000Y27845400D01*
X22260000Y26250000D02*
X22260000Y26353600D01*
X22260000Y26000000D02*
X22260000Y26250000D01*
X22860000Y25400000D02*
X22260000Y26000000D01*
X33690000Y29880000D02*
X34290000Y30480000D01*
X33440000Y29880000D02*
X33690000Y29880000D01*
X33336400Y29880000D02*
X33440000Y29880000D01*
X31029800Y29079900D02*
X33336400Y29880000D01*
X29930200Y29079900D02*
X31029800Y29079900D01*
X29878700Y29101200D02*
X29930200Y29079900D01*
X27940000Y30480000D02*
X29878700Y29101200D01*
X15570200Y27845400D02*
X21339000Y27845400D01*
X15320200Y27845400D02*
X15570200Y27845400D01*
X13820100Y26670000D02*
X15320200Y27845400D01*
X22860000Y30480000D02*
X21339000Y27845400D01*
X35601000Y23901000D02*
X34290000Y25400000D01*
X35601000Y23519000D02*
X35601000Y23901000D01*
D27*
X35560000Y22336000D02*
X35560000Y23384000D01*
D28*
X4953000Y15143500D02*
X4953000Y3144500D01*
X42494000Y28390800D02*
X40945000Y24967000D01*
X38854000Y24105000D02*
X36830000Y22860000D01*
X39886000Y24105000D02*
X38854000Y24105000D01*
X40615000Y23376000D02*
X39886000Y24105000D01*
X43178000Y18308000D02*
X40615000Y23376000D01*
X43180000Y18304000D02*
X43178000Y18308000D01*
X43180000Y15764000D02*
X43180000Y18304000D01*
X43180000Y14716000D02*
X43180000Y15764000D01*
X42788000Y9422000D02*
X43180000Y14716000D01*
X42286000Y6739000D02*
X42788000Y9422000D01*
X41293000Y5550000D02*
X42286000Y6739000D01*
X40640000Y18304000D02*
X39370000Y22860000D01*
X40640000Y15764000D02*
X40640000Y18304000D01*
X40640000Y14716000D02*
X40640000Y15764000D01*
X39198000Y10678000D02*
X40640000Y14716000D01*
X39070000Y8374000D02*
X39198000Y10678000D01*
X39070000Y7526000D02*
X39070000Y8374000D01*
X40093000Y6350000D02*
X39070000Y7526000D01*
X40993000Y2650000D02*
X45743000Y2650000D01*
X45743000Y2650000D02*
X45743000Y10050000D01*
X17780000Y22860000D02*
X7653000Y10414000D01*
X20320000Y22860000D02*
X9652000Y10414000D01*
X39370000Y25400000D02*
X39370000Y30480000D01*
X36830000Y30480000D02*
X36830000Y25400000D01*
D26*
X5080000Y38100000D02*
X20320000Y33020000D01*
X22260000Y33620000D02*
X22860000Y33020000D01*
X22010000Y33620000D02*
X22260000Y33620000D01*
X21906400Y33620000D02*
X22010000Y33620000D01*
X20921300Y34398800D02*
X21906400Y33620000D01*
X6433600Y42100000D02*
X20921300Y34398800D01*
X6330000Y42100000D02*
X6433600Y42100000D01*
X6080000Y42100000D02*
X6330000Y42100000D01*
X5080000Y43100000D02*
X6080000Y42100000D01*
X31433600Y33620000D02*
X41910000Y41910000D01*
X31330000Y33620000D02*
X31433600Y33620000D01*
X31080000Y33620000D02*
X31330000Y33620000D01*
X30480000Y33020000D02*
X31080000Y33620000D01*
X27940000Y33020000D02*
X22860000Y41910000D01*
D27*
X34940000Y22210000D02*
X34290000Y22860000D01*
X34940000Y22010000D02*
X34940000Y22210000D01*
X34940000Y21927000D02*
X34940000Y22010000D01*
X35510000Y14195000D02*
X34940000Y21927000D01*
X39025000Y5908000D02*
X35510000Y14195000D01*
X40093000Y4750000D02*
X39025000Y5908000D01*
D26*
X22860000Y22860000D02*
X9652000Y7874000D01*
X26561200Y23461000D02*
X21590000Y12827100D01*
X27340000Y24446000D02*
X26561200Y23461000D01*
X27340000Y24550000D02*
X27340000Y24446000D01*
X27340000Y24800000D02*
X27340000Y24550000D01*
X27940000Y25400000D02*
X27340000Y24800000D01*
D28*
X19300000Y3705000D02*
X19300000Y2730000D01*
X18034000Y10160100D02*
X19300000Y3705000D01*
X31000000Y1755000D02*
X31000000Y2730000D01*
X28003800Y1309900D02*
X31000000Y1755000D01*
X26896200Y1309900D02*
X28003800Y1309900D01*
X22296200Y1309900D02*
X26896200Y1309900D01*
X19300000Y1755000D02*
X22296200Y1309900D01*
X19300000Y2730000D02*
X19300000Y1755000D01*
X31000000Y3705000D02*
X31750000Y10160100D01*
X31000000Y2730000D02*
X31000000Y3705000D01*
X24150000Y4860000D02*
X26162000Y12827100D01*
X27940000Y20320000D02*
X26162000Y12827100D01*
X26694900Y20836000D02*
X24130000Y12827100D01*
X27940000Y22860000D02*
X26694900Y20836000D01*
D29*
G36*
X48845000Y685000D02*
X46316276Y685000D01*
X46894229Y923805D01*
X47467183Y1495760D01*
X47777646Y2243438D01*
X47778352Y3053011D01*
X47469195Y3801229D01*
X46897240Y4374183D01*
X46503000Y4537886D01*
X46503000Y8162153D01*
X46894229Y8323805D01*
X47467183Y8895760D01*
X47777646Y9643438D01*
X47778352Y10453011D01*
X47469195Y11201229D01*
X46897240Y11774183D01*
X46149562Y12084646D01*
X45339989Y12085352D01*
X44591771Y11776195D01*
X44018817Y11204240D01*
X43708354Y10456562D01*
X43707648Y9646989D01*
X44016805Y8898771D01*
X44588760Y8325817D01*
X44983000Y8162114D01*
X44983000Y4537847D01*
X44591771Y4376195D01*
X44018817Y3804240D01*
X43855114Y3410000D01*
X42880847Y3410000D01*
X42719195Y3801229D01*
X42147240Y4374183D01*
X41911595Y4472031D01*
X41990243Y4504528D01*
X42337253Y4850933D01*
X42525285Y5303765D01*
X42525713Y5794084D01*
X42512910Y5825069D01*
X42869325Y6251833D01*
X42891020Y6291597D01*
X42922682Y6323988D01*
X42961453Y6420688D01*
X43011352Y6512145D01*
X43016179Y6557183D01*
X43033036Y6599227D01*
X43535036Y9282226D01*
X43534551Y9324824D01*
X43545925Y9365879D01*
X43880661Y13886518D01*
X44093110Y13798524D01*
X44323000Y13919845D01*
X44323000Y15113000D01*
X44577000Y15113000D01*
X44577000Y13919845D01*
X44806890Y13798524D01*
X45216924Y13968355D01*
X45645183Y14358642D01*
X45891486Y14883108D01*
X45770819Y15113000D01*
X44577000Y15113000D01*
X44323000Y15113000D01*
X44303000Y15113000D01*
X44303000Y15367000D01*
X44323000Y15367000D01*
X44323000Y15387000D01*
X44577000Y15387000D01*
X44577000Y15367000D01*
X45770819Y15367000D01*
X45891486Y15596892D01*
X45645183Y16121358D01*
X45216924Y16511645D01*
X45216899Y16511655D01*
X45500054Y16700853D01*
X45821961Y17182622D01*
X45935000Y17750907D01*
X45935000Y17809093D01*
X45821961Y18377378D01*
X45500054Y18859147D01*
X45018285Y19181054D01*
X44450000Y19294093D01*
X43881715Y19181054D01*
X43662285Y19034436D01*
X41293205Y23718983D01*
X41219130Y23813533D01*
X41152401Y23913401D01*
X41133967Y23931835D01*
X41149971Y23931821D01*
X41530515Y24089058D01*
X41821919Y24379954D01*
X41979820Y24760223D01*
X41980179Y25171971D01*
X41928491Y25297066D01*
X42896807Y27437365D01*
X43079515Y27512858D01*
X43370919Y27803754D01*
X43528820Y28184023D01*
X43529179Y28595771D01*
X43371942Y28976315D01*
X43081046Y29267719D01*
X42700777Y29425620D01*
X42289029Y29425979D01*
X41908485Y29268742D01*
X41617081Y28977846D01*
X41459180Y28597577D01*
X41458821Y28185829D01*
X41510509Y28060734D01*
X40643602Y26144584D01*
X40420054Y26479147D01*
X40130000Y26672954D01*
X40130000Y29207046D01*
X40420054Y29400853D01*
X40741961Y29882622D01*
X40855000Y30450907D01*
X40855000Y30509093D01*
X40741961Y31077378D01*
X40420054Y31559147D01*
X40134422Y31750000D01*
X40420054Y31940853D01*
X40741961Y32422622D01*
X40855000Y32990907D01*
X40855000Y33049093D01*
X40741961Y33617378D01*
X40420054Y34099147D01*
X39938285Y34421054D01*
X39370000Y34534093D01*
X38801715Y34421054D01*
X38319946Y34099147D01*
X38100000Y33769974D01*
X37880054Y34099147D01*
X37398285Y34421054D01*
X36830000Y34534093D01*
X36261715Y34421054D01*
X35779946Y34099147D01*
X35560000Y33769974D01*
X35340054Y34099147D01*
X34858285Y34421054D01*
X34290000Y34534093D01*
X33922637Y34461020D01*
X38027936Y37709553D01*
X38668486Y37067884D01*
X40768229Y36195995D01*
X43041796Y36194011D01*
X45143058Y37062234D01*
X46752116Y38668486D01*
X47624005Y40768229D01*
X47625989Y43041796D01*
X46757766Y45143058D01*
X45151514Y46752116D01*
X43051771Y47624005D01*
X40778204Y47625989D01*
X38676942Y46757766D01*
X37067884Y45151514D01*
X36195995Y43051771D01*
X36194011Y40778204D01*
X36898581Y39073013D01*
X31141523Y34517440D01*
X29630000Y34517440D01*
X29382235Y34468157D01*
X29172191Y34327809D01*
X29031843Y34117765D01*
X29019403Y34055223D01*
X28990054Y34099147D01*
X28508285Y34421054D01*
X28113866Y34499509D01*
X26447351Y37415909D01*
X27702116Y38668486D01*
X28574005Y40768229D01*
X28575989Y43041796D01*
X27707766Y45143058D01*
X26101514Y46752116D01*
X24001771Y47624005D01*
X21728204Y47625989D01*
X19626942Y46757766D01*
X18017884Y45151514D01*
X17145995Y43051771D01*
X17144011Y40778204D01*
X18012234Y38676942D01*
X19618486Y37067884D01*
X21718229Y36195995D01*
X23991796Y36194011D01*
X24893969Y36566781D01*
X26574131Y33626496D01*
X26568039Y33617378D01*
X26455000Y33049093D01*
X26455000Y32990907D01*
X26568039Y32422622D01*
X26889946Y31940853D01*
X27175578Y31750000D01*
X26889946Y31559147D01*
X26760221Y31365000D01*
X24039779Y31365000D01*
X23910054Y31559147D01*
X23906357Y31561617D01*
X23957765Y31571843D01*
X24167809Y31712191D01*
X24308157Y31922235D01*
X24357440Y32170000D01*
X24357440Y33870000D01*
X24308157Y34117765D01*
X24167809Y34327809D01*
X23957765Y34468157D01*
X23710000Y34517440D01*
X22198242Y34517440D01*
X21470158Y35093048D01*
X21398781Y35129541D01*
X21336696Y35180255D01*
X6977440Y42813177D01*
X6977440Y44350000D01*
X6928157Y44597765D01*
X6787809Y44807809D01*
X6577765Y44948157D01*
X6330000Y44997440D01*
X3830000Y44997440D01*
X3582235Y44948157D01*
X3372191Y44807809D01*
X3231843Y44597765D01*
X3182560Y44350000D01*
X3182560Y41850000D01*
X3231843Y41602235D01*
X3372191Y41392191D01*
X3582235Y41251843D01*
X3830000Y41202560D01*
X6236400Y41202560D01*
X19125930Y34350896D01*
X6965266Y38404450D01*
X6965326Y38473305D01*
X6678957Y39166372D01*
X6149161Y39697093D01*
X5456595Y39984672D01*
X4706695Y39985326D01*
X4013628Y39698957D01*
X3482907Y39169161D01*
X3195328Y38476595D01*
X3194674Y37726695D01*
X3481043Y37033628D01*
X4010839Y36502907D01*
X4703405Y36215328D01*
X5453305Y36214674D01*
X6146372Y36501043D01*
X6379647Y36733912D01*
X18922085Y32553100D01*
X18948039Y32422622D01*
X19269946Y31940853D01*
X19553101Y31751655D01*
X19553076Y31751645D01*
X19124817Y31361358D01*
X18878514Y30836892D01*
X18999181Y30607000D01*
X20193000Y30607000D01*
X20193000Y30627000D01*
X20447000Y30627000D01*
X20447000Y30607000D01*
X20467000Y30607000D01*
X20467000Y30353000D01*
X20447000Y30353000D01*
X20447000Y29159845D01*
X20676890Y29038524D01*
X21086924Y29208355D01*
X21122880Y29241123D01*
X20828031Y28730400D01*
X16126545Y28730400D01*
X16028009Y28877869D01*
X15817965Y29018217D01*
X15570200Y29067500D01*
X12070080Y29067500D01*
X11822315Y29018217D01*
X11612271Y28877869D01*
X11471923Y28667825D01*
X11422640Y28420060D01*
X11422640Y24919940D01*
X11471923Y24672175D01*
X11612271Y24462131D01*
X11771016Y24356060D01*
X11106150Y24356060D01*
X10947400Y24197310D01*
X10947400Y22098000D01*
X13046710Y22098000D01*
X13205460Y22256750D01*
X13205460Y23847370D01*
X13108787Y24080759D01*
X12930158Y24259387D01*
X12898500Y24272500D01*
X15570200Y24272500D01*
X15817965Y24321783D01*
X16028009Y24462131D01*
X16168357Y24672175D01*
X16217640Y24919940D01*
X16217640Y26960400D01*
X20845303Y26960400D01*
X20982576Y26738051D01*
X20888285Y26801054D01*
X20320000Y26914093D01*
X19751715Y26801054D01*
X19269946Y26479147D01*
X19050000Y26149974D01*
X18830054Y26479147D01*
X18348285Y26801054D01*
X17780000Y26914093D01*
X17211715Y26801054D01*
X16729946Y26479147D01*
X16408039Y25997378D01*
X16295000Y25429093D01*
X16295000Y25370907D01*
X16408039Y24802622D01*
X16729946Y24320853D01*
X17015578Y24130000D01*
X16729946Y23939147D01*
X16408039Y23457378D01*
X16295000Y22889093D01*
X16295000Y22830907D01*
X16389591Y22355366D01*
X7809792Y11810864D01*
X7376359Y11811242D01*
X6862717Y11599010D01*
X6469391Y11206370D01*
X6256263Y10693100D01*
X6255778Y10137339D01*
X6468010Y9623697D01*
X6860650Y9230371D01*
X7052747Y9150605D01*
X6921877Y9096397D01*
X6852412Y8854213D01*
X7653020Y8053605D01*
X8453628Y8854213D01*
X8384163Y9096397D01*
X8243702Y9146509D01*
X8443323Y9228990D01*
X8652530Y9437832D01*
X8859630Y9230371D01*
X9067512Y9144051D01*
X8861697Y9059010D01*
X8468371Y8666370D01*
X8357154Y8398529D01*
X7832625Y7874000D01*
X8357189Y7349436D01*
X8466990Y7083697D01*
X8859630Y6690371D01*
X9372900Y6477243D01*
X9928661Y6476758D01*
X10442303Y6688990D01*
X10835629Y7081630D01*
X11048757Y7594900D01*
X11049216Y8120829D01*
X22728305Y21372103D01*
X22860000Y21345907D01*
X23428285Y21458946D01*
X23910054Y21780853D01*
X24231961Y22262622D01*
X24345000Y22830907D01*
X24345000Y22889093D01*
X24231961Y23457378D01*
X23910054Y23939147D01*
X23906357Y23941617D01*
X23957765Y23951843D01*
X24167809Y24092191D01*
X24308157Y24302235D01*
X24357440Y24550000D01*
X24357440Y26250000D01*
X24308157Y26497765D01*
X24167809Y26707809D01*
X23957765Y26848157D01*
X23710000Y26897440D01*
X22964320Y26897440D01*
X22369680Y27860616D01*
X23026956Y28999117D01*
X23428285Y29078946D01*
X23910054Y29400853D01*
X24039779Y29595000D01*
X26760221Y29595000D01*
X26889946Y29400853D01*
X27371715Y29078946D01*
X27940000Y28965907D01*
X28410381Y29059472D01*
X29365779Y28379994D01*
X29457156Y28338985D01*
X29540459Y28283387D01*
X29591959Y28262087D01*
X29657441Y28249098D01*
X29680817Y28238607D01*
X29715416Y28237598D01*
X29761479Y28228461D01*
X29930200Y28194900D01*
X31029800Y28194900D01*
X31174097Y28223603D01*
X31319831Y28243774D01*
X33405000Y28967065D01*
X33405000Y26589432D01*
X33239946Y26479147D01*
X33110221Y26285000D01*
X31669432Y26285000D01*
X31559147Y26450054D01*
X31077378Y26771961D01*
X30509093Y26885000D01*
X30450907Y26885000D01*
X29882622Y26771961D01*
X29400853Y26450054D01*
X29398383Y26446357D01*
X29388157Y26497765D01*
X29247809Y26707809D01*
X29037765Y26848157D01*
X28790000Y26897440D01*
X27090000Y26897440D01*
X26842235Y26848157D01*
X26632191Y26707809D01*
X26491843Y26497765D01*
X26442560Y26250000D01*
X26442560Y24737867D01*
X25866979Y24009892D01*
X25820251Y23918506D01*
X25759480Y23835793D01*
X21247845Y14184950D01*
X20806123Y14002434D01*
X20416016Y13613007D01*
X20204631Y13103936D01*
X20204150Y12552722D01*
X20414646Y12043283D01*
X20804073Y11653176D01*
X21313144Y11441791D01*
X21864358Y11441310D01*
X22373797Y11651806D01*
X22763904Y12041233D01*
X22859935Y12272501D01*
X22954646Y12043283D01*
X23344073Y11653176D01*
X23853144Y11441791D01*
X24404358Y11441310D01*
X24913797Y11651806D01*
X25137805Y11875423D01*
X23704150Y6198450D01*
X23338200Y6047243D01*
X22934176Y5643923D01*
X22906577Y5577456D01*
X22903864Y5584005D01*
X22657745Y5658139D01*
X21829605Y4830000D01*
X21843748Y4815858D01*
X21664142Y4636252D01*
X21650000Y4650395D01*
X21635858Y4636252D01*
X21456252Y4815858D01*
X21470395Y4830000D01*
X20642255Y5658139D01*
X20396136Y5584005D01*
X20242107Y5155478D01*
X20075687Y5266676D01*
X19755714Y5330323D01*
X19656197Y5837745D01*
X20821861Y5837745D01*
X21650000Y5009605D01*
X22478139Y5837745D01*
X22404005Y6083864D01*
X21866777Y6276965D01*
X21296546Y6249778D01*
X20895995Y6083864D01*
X20821861Y5837745D01*
X19656197Y5837745D01*
X19169488Y8319378D01*
X19241687Y8349210D01*
X19842760Y8949234D01*
X20168459Y9733605D01*
X20169200Y10582909D01*
X19844870Y11367847D01*
X19244846Y11968920D01*
X18460475Y12294619D01*
X17611171Y12295360D01*
X16826233Y11971030D01*
X16225160Y11371006D01*
X15899461Y10586635D01*
X15898720Y9737331D01*
X16223050Y8952393D01*
X16823074Y8351320D01*
X17607445Y8025621D01*
X17678156Y8025559D01*
X18289914Y4906318D01*
X17939457Y4381820D01*
X17815000Y3756133D01*
X17815000Y1703867D01*
X17939457Y1078180D01*
X18202171Y685000D01*
X685000Y685000D01*
X685000Y14750369D01*
X2967646Y14750369D01*
X3269209Y14020531D01*
X3827114Y13461651D01*
X4193000Y13309722D01*
X4193000Y4978279D01*
X3830051Y4828311D01*
X3271171Y4270406D01*
X2968335Y3541095D01*
X2967646Y2751409D01*
X3269209Y2021571D01*
X3827114Y1462691D01*
X4556425Y1159855D01*
X5346111Y1159166D01*
X6075949Y1460729D01*
X6634829Y2018634D01*
X6937665Y2747945D01*
X6938354Y3537631D01*
X6636791Y4267469D01*
X6078886Y4826349D01*
X5713000Y4978278D01*
X5713000Y6893787D01*
X6852412Y6893787D01*
X6921877Y6651603D01*
X7445322Y6464856D01*
X8000388Y6492638D01*
X8384163Y6651603D01*
X8453628Y6893787D01*
X7653020Y7694395D01*
X6852412Y6893787D01*
X5713000Y6893787D01*
X5713000Y8081698D01*
X6243876Y8081698D01*
X6271658Y7526632D01*
X6430623Y7142857D01*
X6672807Y7073392D01*
X7473415Y7874000D01*
X6672807Y8674608D01*
X6430623Y8605143D01*
X6243876Y8081698D01*
X5713000Y8081698D01*
X5713000Y13309721D01*
X6075949Y13459689D01*
X6634829Y14017594D01*
X6937665Y14746905D01*
X6938354Y15536591D01*
X6636791Y16266429D01*
X6078886Y16825309D01*
X5349575Y17128145D01*
X4559889Y17128834D01*
X3830051Y16827271D01*
X3271171Y16269366D01*
X2968335Y15540055D01*
X2967646Y14750369D01*
X685000Y14750369D01*
X685000Y21685250D01*
X8435340Y21685250D01*
X8435340Y20094630D01*
X8532013Y19861241D01*
X8710642Y19682613D01*
X8944031Y19585940D01*
X10534650Y19585940D01*
X10693400Y19744690D01*
X10693400Y21844000D01*
X10947400Y21844000D01*
X10947400Y19744690D01*
X11106150Y19585940D01*
X12696769Y19585940D01*
X12930158Y19682613D01*
X13108787Y19861241D01*
X13205460Y20094630D01*
X13205460Y21685250D01*
X13046710Y21844000D01*
X10947400Y21844000D01*
X10693400Y21844000D01*
X8594090Y21844000D01*
X8435340Y21685250D01*
X685000Y21685250D01*
X685000Y26384250D01*
X5435600Y26384250D01*
X5435600Y24793630D01*
X5532273Y24560241D01*
X5710902Y24381613D01*
X5944291Y24284940D01*
X7534910Y24284940D01*
X7693660Y24443690D01*
X7693660Y26543000D01*
X7947660Y26543000D01*
X7947660Y24443690D01*
X8106410Y24284940D01*
X8772332Y24284940D01*
X8710642Y24259387D01*
X8532013Y24080759D01*
X8435340Y23847370D01*
X8435340Y22256750D01*
X8594090Y22098000D01*
X10693400Y22098000D01*
X10693400Y24197310D01*
X10534650Y24356060D01*
X9868728Y24356060D01*
X9930418Y24381613D01*
X10109047Y24560241D01*
X10205720Y24793630D01*
X10205720Y26384250D01*
X10046970Y26543000D01*
X7947660Y26543000D01*
X7693660Y26543000D01*
X5594350Y26543000D01*
X5435600Y26384250D01*
X685000Y26384250D01*
X685000Y28546370D01*
X5435600Y28546370D01*
X5435600Y26955750D01*
X5594350Y26797000D01*
X7693660Y26797000D01*
X7693660Y28896310D01*
X7947660Y28896310D01*
X7947660Y26797000D01*
X10046970Y26797000D01*
X10205720Y26955750D01*
X10205720Y28546370D01*
X10109047Y28779759D01*
X9930418Y28958387D01*
X9697029Y29055060D01*
X8106410Y29055060D01*
X7947660Y28896310D01*
X7693660Y28896310D01*
X7534910Y29055060D01*
X5944291Y29055060D01*
X5710902Y28958387D01*
X5532273Y28779759D01*
X5435600Y28546370D01*
X685000Y28546370D01*
X685000Y30123108D01*
X18878514Y30123108D01*
X19124817Y29598642D01*
X19553076Y29208355D01*
X19963110Y29038524D01*
X20193000Y29159845D01*
X20193000Y30353000D01*
X18999181Y30353000D01*
X18878514Y30123108D01*
X685000Y30123108D01*
X685000Y48845000D01*
X48845000Y48845000D01*
X48845000Y685000D01*
X48845000Y685000D01*
G37*
X48845000Y685000D02*
X46316276Y685000D01*
X46894229Y923805D01*
X47467183Y1495760D01*
X47777646Y2243438D01*
X47778352Y3053011D01*
X47469195Y3801229D01*
X46897240Y4374183D01*
X46503000Y4537886D01*
X46503000Y8162153D01*
X46894229Y8323805D01*
X47467183Y8895760D01*
X47777646Y9643438D01*
X47778352Y10453011D01*
X47469195Y11201229D01*
X46897240Y11774183D01*
X46149562Y12084646D01*
X45339989Y12085352D01*
X44591771Y11776195D01*
X44018817Y11204240D01*
X43708354Y10456562D01*
X43707648Y9646989D01*
X44016805Y8898771D01*
X44588760Y8325817D01*
X44983000Y8162114D01*
X44983000Y4537847D01*
X44591771Y4376195D01*
X44018817Y3804240D01*
X43855114Y3410000D01*
X42880847Y3410000D01*
X42719195Y3801229D01*
X42147240Y4374183D01*
X41911595Y4472031D01*
X41990243Y4504528D01*
X42337253Y4850933D01*
X42525285Y5303765D01*
X42525713Y5794084D01*
X42512910Y5825069D01*
X42869325Y6251833D01*
X42891020Y6291597D01*
X42922682Y6323988D01*
X42961453Y6420688D01*
X43011352Y6512145D01*
X43016179Y6557183D01*
X43033036Y6599227D01*
X43535036Y9282226D01*
X43534551Y9324824D01*
X43545925Y9365879D01*
X43880661Y13886518D01*
X44093110Y13798524D01*
X44323000Y13919845D01*
X44323000Y15113000D01*
X44577000Y15113000D01*
X44577000Y13919845D01*
X44806890Y13798524D01*
X45216924Y13968355D01*
X45645183Y14358642D01*
X45891486Y14883108D01*
X45770819Y15113000D01*
X44577000Y15113000D01*
X44323000Y15113000D01*
X44303000Y15113000D01*
X44303000Y15367000D01*
X44323000Y15367000D01*
X44323000Y15387000D01*
X44577000Y15387000D01*
X44577000Y15367000D01*
X45770819Y15367000D01*
X45891486Y15596892D01*
X45645183Y16121358D01*
X45216924Y16511645D01*
X45216899Y16511655D01*
X45500054Y16700853D01*
X45821961Y17182622D01*
X45935000Y17750907D01*
X45935000Y17809093D01*
X45821961Y18377378D01*
X45500054Y18859147D01*
X45018285Y19181054D01*
X44450000Y19294093D01*
X43881715Y19181054D01*
X43662285Y19034436D01*
X41293205Y23718983D01*
X41219130Y23813533D01*
X41152401Y23913401D01*
X41133967Y23931835D01*
X41149971Y23931821D01*
X41530515Y24089058D01*
X41821919Y24379954D01*
X41979820Y24760223D01*
X41980179Y25171971D01*
X41928491Y25297066D01*
X42896807Y27437365D01*
X43079515Y27512858D01*
X43370919Y27803754D01*
X43528820Y28184023D01*
X43529179Y28595771D01*
X43371942Y28976315D01*
X43081046Y29267719D01*
X42700777Y29425620D01*
X42289029Y29425979D01*
X41908485Y29268742D01*
X41617081Y28977846D01*
X41459180Y28597577D01*
X41458821Y28185829D01*
X41510509Y28060734D01*
X40643602Y26144584D01*
X40420054Y26479147D01*
X40130000Y26672954D01*
X40130000Y29207046D01*
X40420054Y29400853D01*
X40741961Y29882622D01*
X40855000Y30450907D01*
X40855000Y30509093D01*
X40741961Y31077378D01*
X40420054Y31559147D01*
X40134422Y31750000D01*
X40420054Y31940853D01*
X40741961Y32422622D01*
X40855000Y32990907D01*
X40855000Y33049093D01*
X40741961Y33617378D01*
X40420054Y34099147D01*
X39938285Y34421054D01*
X39370000Y34534093D01*
X38801715Y34421054D01*
X38319946Y34099147D01*
X38100000Y33769974D01*
X37880054Y34099147D01*
X37398285Y34421054D01*
X36830000Y34534093D01*
X36261715Y34421054D01*
X35779946Y34099147D01*
X35560000Y33769974D01*
X35340054Y34099147D01*
X34858285Y34421054D01*
X34290000Y34534093D01*
X33922637Y34461020D01*
X38027936Y37709553D01*
X38668486Y37067884D01*
X40768229Y36195995D01*
X43041796Y36194011D01*
X45143058Y37062234D01*
X46752116Y38668486D01*
X47624005Y40768229D01*
X47625989Y43041796D01*
X46757766Y45143058D01*
X45151514Y46752116D01*
X43051771Y47624005D01*
X40778204Y47625989D01*
X38676942Y46757766D01*
X37067884Y45151514D01*
X36195995Y43051771D01*
X36194011Y40778204D01*
X36898581Y39073013D01*
X31141523Y34517440D01*
X29630000Y34517440D01*
X29382235Y34468157D01*
X29172191Y34327809D01*
X29031843Y34117765D01*
X29019403Y34055223D01*
X28990054Y34099147D01*
X28508285Y34421054D01*
X28113866Y34499509D01*
X26447351Y37415909D01*
X27702116Y38668486D01*
X28574005Y40768229D01*
X28575989Y43041796D01*
X27707766Y45143058D01*
X26101514Y46752116D01*
X24001771Y47624005D01*
X21728204Y47625989D01*
X19626942Y46757766D01*
X18017884Y45151514D01*
X17145995Y43051771D01*
X17144011Y40778204D01*
X18012234Y38676942D01*
X19618486Y37067884D01*
X21718229Y36195995D01*
X23991796Y36194011D01*
X24893969Y36566781D01*
X26574131Y33626496D01*
X26568039Y33617378D01*
X26455000Y33049093D01*
X26455000Y32990907D01*
X26568039Y32422622D01*
X26889946Y31940853D01*
X27175578Y31750000D01*
X26889946Y31559147D01*
X26760221Y31365000D01*
X24039779Y31365000D01*
X23910054Y31559147D01*
X23906357Y31561617D01*
X23957765Y31571843D01*
X24167809Y31712191D01*
X24308157Y31922235D01*
X24357440Y32170000D01*
X24357440Y33870000D01*
X24308157Y34117765D01*
X24167809Y34327809D01*
X23957765Y34468157D01*
X23710000Y34517440D01*
X22198242Y34517440D01*
X21470158Y35093048D01*
X21398781Y35129541D01*
X21336696Y35180255D01*
X6977440Y42813177D01*
X6977440Y44350000D01*
X6928157Y44597765D01*
X6787809Y44807809D01*
X6577765Y44948157D01*
X6330000Y44997440D01*
X3830000Y44997440D01*
X3582235Y44948157D01*
X3372191Y44807809D01*
X3231843Y44597765D01*
X3182560Y44350000D01*
X3182560Y41850000D01*
X3231843Y41602235D01*
X3372191Y41392191D01*
X3582235Y41251843D01*
X3830000Y41202560D01*
X6236400Y41202560D01*
X19125930Y34350896D01*
X6965266Y38404450D01*
X6965326Y38473305D01*
X6678957Y39166372D01*
X6149161Y39697093D01*
X5456595Y39984672D01*
X4706695Y39985326D01*
X4013628Y39698957D01*
X3482907Y39169161D01*
X3195328Y38476595D01*
X3194674Y37726695D01*
X3481043Y37033628D01*
X4010839Y36502907D01*
X4703405Y36215328D01*
X5453305Y36214674D01*
X6146372Y36501043D01*
X6379647Y36733912D01*
X18922085Y32553100D01*
X18948039Y32422622D01*
X19269946Y31940853D01*
X19553101Y31751655D01*
X19553076Y31751645D01*
X19124817Y31361358D01*
X18878514Y30836892D01*
X18999181Y30607000D01*
X20193000Y30607000D01*
X20193000Y30627000D01*
X20447000Y30627000D01*
X20447000Y30607000D01*
X20467000Y30607000D01*
X20467000Y30353000D01*
X20447000Y30353000D01*
X20447000Y29159845D01*
X20676890Y29038524D01*
X21086924Y29208355D01*
X21122880Y29241123D01*
X20828031Y28730400D01*
X16126545Y28730400D01*
X16028009Y28877869D01*
X15817965Y29018217D01*
X15570200Y29067500D01*
X12070080Y29067500D01*
X11822315Y29018217D01*
X11612271Y28877869D01*
X11471923Y28667825D01*
X11422640Y28420060D01*
X11422640Y24919940D01*
X11471923Y24672175D01*
X11612271Y24462131D01*
X11771016Y24356060D01*
X11106150Y24356060D01*
X10947400Y24197310D01*
X10947400Y22098000D01*
X13046710Y22098000D01*
X13205460Y22256750D01*
X13205460Y23847370D01*
X13108787Y24080759D01*
X12930158Y24259387D01*
X12898500Y24272500D01*
X15570200Y24272500D01*
X15817965Y24321783D01*
X16028009Y24462131D01*
X16168357Y24672175D01*
X16217640Y24919940D01*
X16217640Y26960400D01*
X20845303Y26960400D01*
X20982576Y26738051D01*
X20888285Y26801054D01*
X20320000Y26914093D01*
X19751715Y26801054D01*
X19269946Y26479147D01*
X19050000Y26149974D01*
X18830054Y26479147D01*
X18348285Y26801054D01*
X17780000Y26914093D01*
X17211715Y26801054D01*
X16729946Y26479147D01*
X16408039Y25997378D01*
X16295000Y25429093D01*
X16295000Y25370907D01*
X16408039Y24802622D01*
X16729946Y24320853D01*
X17015578Y24130000D01*
X16729946Y23939147D01*
X16408039Y23457378D01*
X16295000Y22889093D01*
X16295000Y22830907D01*
X16389591Y22355366D01*
X7809792Y11810864D01*
X7376359Y11811242D01*
X6862717Y11599010D01*
X6469391Y11206370D01*
X6256263Y10693100D01*
X6255778Y10137339D01*
X6468010Y9623697D01*
X6860650Y9230371D01*
X7052747Y9150605D01*
X6921877Y9096397D01*
X6852412Y8854213D01*
X7653020Y8053605D01*
X8453628Y8854213D01*
X8384163Y9096397D01*
X8243702Y9146509D01*
X8443323Y9228990D01*
X8652530Y9437832D01*
X8859630Y9230371D01*
X9067512Y9144051D01*
X8861697Y9059010D01*
X8468371Y8666370D01*
X8357154Y8398529D01*
X7832625Y7874000D01*
X8357189Y7349436D01*
X8466990Y7083697D01*
X8859630Y6690371D01*
X9372900Y6477243D01*
X9928661Y6476758D01*
X10442303Y6688990D01*
X10835629Y7081630D01*
X11048757Y7594900D01*
X11049216Y8120829D01*
X22728305Y21372103D01*
X22860000Y21345907D01*
X23428285Y21458946D01*
X23910054Y21780853D01*
X24231961Y22262622D01*
X24345000Y22830907D01*
X24345000Y22889093D01*
X24231961Y23457378D01*
X23910054Y23939147D01*
X23906357Y23941617D01*
X23957765Y23951843D01*
X24167809Y24092191D01*
X24308157Y24302235D01*
X24357440Y24550000D01*
X24357440Y26250000D01*
X24308157Y26497765D01*
X24167809Y26707809D01*
X23957765Y26848157D01*
X23710000Y26897440D01*
X22964320Y26897440D01*
X22369680Y27860616D01*
X23026956Y28999117D01*
X23428285Y29078946D01*
X23910054Y29400853D01*
X24039779Y29595000D01*
X26760221Y29595000D01*
X26889946Y29400853D01*
X27371715Y29078946D01*
X27940000Y28965907D01*
X28410381Y29059472D01*
X29365779Y28379994D01*
X29457156Y28338985D01*
X29540459Y28283387D01*
X29591959Y28262087D01*
X29657441Y28249098D01*
X29680817Y28238607D01*
X29715416Y28237598D01*
X29761479Y28228461D01*
X29930200Y28194900D01*
X31029800Y28194900D01*
X31174097Y28223603D01*
X31319831Y28243774D01*
X33405000Y28967065D01*
X33405000Y26589432D01*
X33239946Y26479147D01*
X33110221Y26285000D01*
X31669432Y26285000D01*
X31559147Y26450054D01*
X31077378Y26771961D01*
X30509093Y26885000D01*
X30450907Y26885000D01*
X29882622Y26771961D01*
X29400853Y26450054D01*
X29398383Y26446357D01*
X29388157Y26497765D01*
X29247809Y26707809D01*
X29037765Y26848157D01*
X28790000Y26897440D01*
X27090000Y26897440D01*
X26842235Y26848157D01*
X26632191Y26707809D01*
X26491843Y26497765D01*
X26442560Y26250000D01*
X26442560Y24737867D01*
X25866979Y24009892D01*
X25820251Y23918506D01*
X25759480Y23835793D01*
X21247845Y14184950D01*
X20806123Y14002434D01*
X20416016Y13613007D01*
X20204631Y13103936D01*
X20204150Y12552722D01*
X20414646Y12043283D01*
X20804073Y11653176D01*
X21313144Y11441791D01*
X21864358Y11441310D01*
X22373797Y11651806D01*
X22763904Y12041233D01*
X22859935Y12272501D01*
X22954646Y12043283D01*
X23344073Y11653176D01*
X23853144Y11441791D01*
X24404358Y11441310D01*
X24913797Y11651806D01*
X25137805Y11875423D01*
X23704150Y6198450D01*
X23338200Y6047243D01*
X22934176Y5643923D01*
X22906577Y5577456D01*
X22903864Y5584005D01*
X22657745Y5658139D01*
X21829605Y4830000D01*
X21843748Y4815858D01*
X21664142Y4636252D01*
X21650000Y4650395D01*
X21635858Y4636252D01*
X21456252Y4815858D01*
X21470395Y4830000D01*
X20642255Y5658139D01*
X20396136Y5584005D01*
X20242107Y5155478D01*
X20075687Y5266676D01*
X19755714Y5330323D01*
X19656197Y5837745D01*
X20821861Y5837745D01*
X21650000Y5009605D01*
X22478139Y5837745D01*
X22404005Y6083864D01*
X21866777Y6276965D01*
X21296546Y6249778D01*
X20895995Y6083864D01*
X20821861Y5837745D01*
X19656197Y5837745D01*
X19169488Y8319378D01*
X19241687Y8349210D01*
X19842760Y8949234D01*
X20168459Y9733605D01*
X20169200Y10582909D01*
X19844870Y11367847D01*
X19244846Y11968920D01*
X18460475Y12294619D01*
X17611171Y12295360D01*
X16826233Y11971030D01*
X16225160Y11371006D01*
X15899461Y10586635D01*
X15898720Y9737331D01*
X16223050Y8952393D01*
X16823074Y8351320D01*
X17607445Y8025621D01*
X17678156Y8025559D01*
X18289914Y4906318D01*
X17939457Y4381820D01*
X17815000Y3756133D01*
X17815000Y1703867D01*
X17939457Y1078180D01*
X18202171Y685000D01*
X685000Y685000D01*
X685000Y14750369D01*
X2967646Y14750369D01*
X3269209Y14020531D01*
X3827114Y13461651D01*
X4193000Y13309722D01*
X4193000Y4978279D01*
X3830051Y4828311D01*
X3271171Y4270406D01*
X2968335Y3541095D01*
X2967646Y2751409D01*
X3269209Y2021571D01*
X3827114Y1462691D01*
X4556425Y1159855D01*
X5346111Y1159166D01*
X6075949Y1460729D01*
X6634829Y2018634D01*
X6937665Y2747945D01*
X6938354Y3537631D01*
X6636791Y4267469D01*
X6078886Y4826349D01*
X5713000Y4978278D01*
X5713000Y6893787D01*
X6852412Y6893787D01*
X6921877Y6651603D01*
X7445322Y6464856D01*
X8000388Y6492638D01*
X8384163Y6651603D01*
X8453628Y6893787D01*
X7653020Y7694395D01*
X6852412Y6893787D01*
X5713000Y6893787D01*
X5713000Y8081698D01*
X6243876Y8081698D01*
X6271658Y7526632D01*
X6430623Y7142857D01*
X6672807Y7073392D01*
X7473415Y7874000D01*
X6672807Y8674608D01*
X6430623Y8605143D01*
X6243876Y8081698D01*
X5713000Y8081698D01*
X5713000Y13309721D01*
X6075949Y13459689D01*
X6634829Y14017594D01*
X6937665Y14746905D01*
X6938354Y15536591D01*
X6636791Y16266429D01*
X6078886Y16825309D01*
X5349575Y17128145D01*
X4559889Y17128834D01*
X3830051Y16827271D01*
X3271171Y16269366D01*
X2968335Y15540055D01*
X2967646Y14750369D01*
X685000Y14750369D01*
X685000Y21685250D01*
X8435340Y21685250D01*
X8435340Y20094630D01*
X8532013Y19861241D01*
X8710642Y19682613D01*
X8944031Y19585940D01*
X10534650Y19585940D01*
X10693400Y19744690D01*
X10693400Y21844000D01*
X10947400Y21844000D01*
X10947400Y19744690D01*
X11106150Y19585940D01*
X12696769Y19585940D01*
X12930158Y19682613D01*
X13108787Y19861241D01*
X13205460Y20094630D01*
X13205460Y21685250D01*
X13046710Y21844000D01*
X10947400Y21844000D01*
X10693400Y21844000D01*
X8594090Y21844000D01*
X8435340Y21685250D01*
X685000Y21685250D01*
X685000Y26384250D01*
X5435600Y26384250D01*
X5435600Y24793630D01*
X5532273Y24560241D01*
X5710902Y24381613D01*
X5944291Y24284940D01*
X7534910Y24284940D01*
X7693660Y24443690D01*
X7693660Y26543000D01*
X7947660Y26543000D01*
X7947660Y24443690D01*
X8106410Y24284940D01*
X8772332Y24284940D01*
X8710642Y24259387D01*
X8532013Y24080759D01*
X8435340Y23847370D01*
X8435340Y22256750D01*
X8594090Y22098000D01*
X10693400Y22098000D01*
X10693400Y24197310D01*
X10534650Y24356060D01*
X9868728Y24356060D01*
X9930418Y24381613D01*
X10109047Y24560241D01*
X10205720Y24793630D01*
X10205720Y26384250D01*
X10046970Y26543000D01*
X7947660Y26543000D01*
X7693660Y26543000D01*
X5594350Y26543000D01*
X5435600Y26384250D01*
X685000Y26384250D01*
X685000Y28546370D01*
X5435600Y28546370D01*
X5435600Y26955750D01*
X5594350Y26797000D01*
X7693660Y26797000D01*
X7693660Y28896310D01*
X7947660Y28896310D01*
X7947660Y26797000D01*
X10046970Y26797000D01*
X10205720Y26955750D01*
X10205720Y28546370D01*
X10109047Y28779759D01*
X9930418Y28958387D01*
X9697029Y29055060D01*
X8106410Y29055060D01*
X7947660Y28896310D01*
X7693660Y28896310D01*
X7534910Y29055060D01*
X5944291Y29055060D01*
X5710902Y28958387D01*
X5532273Y28779759D01*
X5435600Y28546370D01*
X685000Y28546370D01*
X685000Y30123108D01*
X18878514Y30123108D01*
X19124817Y29598642D01*
X19553076Y29208355D01*
X19963110Y29038524D01*
X20193000Y29159845D01*
X20193000Y30353000D01*
X18999181Y30353000D01*
X18878514Y30123108D01*
X685000Y30123108D01*
X685000Y48845000D01*
X48845000Y48845000D01*
X48845000Y685000D01*
G36*
X33239946Y24320853D02*
X33243643Y24318383D01*
X33192235Y24308157D01*
X32982191Y24167809D01*
X32841843Y23957765D01*
X32792560Y23710000D01*
X32792560Y22010000D01*
X32841843Y21762235D01*
X32982191Y21552191D01*
X33192235Y21411843D01*
X33440000Y21362560D01*
X34144345Y21362560D01*
X34677260Y14133610D01*
X34713587Y14002318D01*
X34741291Y13868946D01*
X38256291Y5581946D01*
X38336673Y5463822D01*
X38411195Y5341900D01*
X38860591Y4854634D01*
X38860287Y4505916D01*
X39047528Y4052757D01*
X39282238Y3817637D01*
X39268817Y3804240D01*
X38958354Y3056562D01*
X38957648Y2246989D01*
X39266805Y1498771D01*
X39838760Y925817D01*
X40418712Y685000D01*
X32097829Y685000D01*
X32360543Y1078180D01*
X32485000Y1703867D01*
X32485000Y3756133D01*
X32360543Y4381820D01*
X32006120Y4912253D01*
X31912638Y4974716D01*
X32271782Y8065800D01*
X32957687Y8349210D01*
X33558760Y8949234D01*
X33884459Y9733605D01*
X33885200Y10582909D01*
X33560870Y11367847D01*
X32960846Y11968920D01*
X32176475Y12294619D01*
X31327171Y12295360D01*
X30542233Y11971030D01*
X29941160Y11371006D01*
X29615461Y10586635D01*
X29614720Y9737331D01*
X29939050Y8952393D01*
X30539074Y8351320D01*
X30763884Y8257971D01*
X30420877Y5305775D01*
X30224313Y5266676D01*
X30065960Y5160868D01*
X29867243Y5641800D01*
X29463923Y6045824D01*
X28936691Y6264750D01*
X28365813Y6265248D01*
X27838200Y6047243D01*
X27434176Y5643923D01*
X27400187Y5562069D01*
X27367243Y5641800D01*
X26963923Y6045824D01*
X26436691Y6264750D01*
X25865813Y6265248D01*
X25338200Y6047243D01*
X25198455Y5907742D01*
X26614482Y11514909D01*
X26945797Y11651806D01*
X27149536Y11855190D01*
X27909635Y11855190D01*
X27977695Y11614189D01*
X28496994Y11429353D01*
X29047498Y11457315D01*
X29426225Y11614189D01*
X29494285Y11855190D01*
X28701960Y12647515D01*
X27909635Y11855190D01*
X27149536Y11855190D01*
X27335904Y12041233D01*
X27425339Y12256616D01*
X27489029Y12102855D01*
X27730030Y12034795D01*
X28522355Y12827120D01*
X28881565Y12827120D01*
X29673890Y12034795D01*
X29914891Y12102855D01*
X30099727Y12622154D01*
X30071765Y13172658D01*
X29914891Y13551385D01*
X29673890Y13619445D01*
X28881565Y12827120D01*
X28522355Y12827120D01*
X27730030Y13619445D01*
X27489029Y13551385D01*
X27430191Y13386080D01*
X27337274Y13610957D01*
X27169085Y13779440D01*
X27173738Y13799050D01*
X27909635Y13799050D01*
X28701960Y13006725D01*
X29494285Y13799050D01*
X29426225Y14040051D01*
X28906926Y14224887D01*
X28356422Y14196925D01*
X27977695Y14040051D01*
X27909635Y13799050D01*
X27173738Y13799050D01*
X28388523Y18918430D01*
X28537378Y18948039D01*
X29019147Y19269946D01*
X29210000Y19555578D01*
X29400853Y19269946D01*
X29882622Y18948039D01*
X30450907Y18835000D01*
X30509093Y18835000D01*
X31077378Y18948039D01*
X31559147Y19269946D01*
X31881054Y19751715D01*
X31994093Y20320000D01*
X31881054Y20888285D01*
X31559147Y21370054D01*
X31229974Y21590000D01*
X31559147Y21809946D01*
X31881054Y22291715D01*
X31994093Y22860000D01*
X31881054Y23428285D01*
X31559147Y23910054D01*
X31229974Y24130000D01*
X31559147Y24349946D01*
X31669432Y24515000D01*
X33110221Y24515000D01*
X33239946Y24320853D01*
X33239946Y24320853D01*
G37*
X33239946Y24320853D02*
X33243643Y24318383D01*
X33192235Y24308157D01*
X32982191Y24167809D01*
X32841843Y23957765D01*
X32792560Y23710000D01*
X32792560Y22010000D01*
X32841843Y21762235D01*
X32982191Y21552191D01*
X33192235Y21411843D01*
X33440000Y21362560D01*
X34144345Y21362560D01*
X34677260Y14133610D01*
X34713587Y14002318D01*
X34741291Y13868946D01*
X38256291Y5581946D01*
X38336673Y5463822D01*
X38411195Y5341900D01*
X38860591Y4854634D01*
X38860287Y4505916D01*
X39047528Y4052757D01*
X39282238Y3817637D01*
X39268817Y3804240D01*
X38958354Y3056562D01*
X38957648Y2246989D01*
X39266805Y1498771D01*
X39838760Y925817D01*
X40418712Y685000D01*
X32097829Y685000D01*
X32360543Y1078180D01*
X32485000Y1703867D01*
X32485000Y3756133D01*
X32360543Y4381820D01*
X32006120Y4912253D01*
X31912638Y4974716D01*
X32271782Y8065800D01*
X32957687Y8349210D01*
X33558760Y8949234D01*
X33884459Y9733605D01*
X33885200Y10582909D01*
X33560870Y11367847D01*
X32960846Y11968920D01*
X32176475Y12294619D01*
X31327171Y12295360D01*
X30542233Y11971030D01*
X29941160Y11371006D01*
X29615461Y10586635D01*
X29614720Y9737331D01*
X29939050Y8952393D01*
X30539074Y8351320D01*
X30763884Y8257971D01*
X30420877Y5305775D01*
X30224313Y5266676D01*
X30065960Y5160868D01*
X29867243Y5641800D01*
X29463923Y6045824D01*
X28936691Y6264750D01*
X28365813Y6265248D01*
X27838200Y6047243D01*
X27434176Y5643923D01*
X27400187Y5562069D01*
X27367243Y5641800D01*
X26963923Y6045824D01*
X26436691Y6264750D01*
X25865813Y6265248D01*
X25338200Y6047243D01*
X25198455Y5907742D01*
X26614482Y11514909D01*
X26945797Y11651806D01*
X27149536Y11855190D01*
X27909635Y11855190D01*
X27977695Y11614189D01*
X28496994Y11429353D01*
X29047498Y11457315D01*
X29426225Y11614189D01*
X29494285Y11855190D01*
X28701960Y12647515D01*
X27909635Y11855190D01*
X27149536Y11855190D01*
X27335904Y12041233D01*
X27425339Y12256616D01*
X27489029Y12102855D01*
X27730030Y12034795D01*
X28522355Y12827120D01*
X28881565Y12827120D01*
X29673890Y12034795D01*
X29914891Y12102855D01*
X30099727Y12622154D01*
X30071765Y13172658D01*
X29914891Y13551385D01*
X29673890Y13619445D01*
X28881565Y12827120D01*
X28522355Y12827120D01*
X27730030Y13619445D01*
X27489029Y13551385D01*
X27430191Y13386080D01*
X27337274Y13610957D01*
X27169085Y13779440D01*
X27173738Y13799050D01*
X27909635Y13799050D01*
X28701960Y13006725D01*
X29494285Y13799050D01*
X29426225Y14040051D01*
X28906926Y14224887D01*
X28356422Y14196925D01*
X27977695Y14040051D01*
X27909635Y13799050D01*
X27173738Y13799050D01*
X28388523Y18918430D01*
X28537378Y18948039D01*
X29019147Y19269946D01*
X29210000Y19555578D01*
X29400853Y19269946D01*
X29882622Y18948039D01*
X30450907Y18835000D01*
X30509093Y18835000D01*
X31077378Y18948039D01*
X31559147Y19269946D01*
X31881054Y19751715D01*
X31994093Y20320000D01*
X31881054Y20888285D01*
X31559147Y21370054D01*
X31229974Y21590000D01*
X31559147Y21809946D01*
X31881054Y22291715D01*
X31994093Y22860000D01*
X31881054Y23428285D01*
X31559147Y23910054D01*
X31229974Y24130000D01*
X31559147Y24349946D01*
X31669432Y24515000D01*
X33110221Y24515000D01*
X33239946Y24320853D01*
G36*
X40286748Y7964142D02*
X40272605Y7950000D01*
X40286748Y7935857D01*
X40107143Y7756252D01*
X40093000Y7770395D01*
X40078858Y7756252D01*
X39899253Y7935857D01*
X39913395Y7950000D01*
X39899253Y7964142D01*
X40078858Y8143747D01*
X40093000Y8129605D01*
X40107143Y8143747D01*
X40286748Y7964142D01*
X40286748Y7964142D01*
G37*
X40286748Y7964142D02*
X40272605Y7950000D01*
X40286748Y7935857D01*
X40107143Y7756252D01*
X40093000Y7770395D01*
X40078858Y7756252D01*
X39899253Y7935857D01*
X39913395Y7950000D01*
X39899253Y7964142D01*
X40078858Y8143747D01*
X40093000Y8129605D01*
X40107143Y8143747D01*
X40286748Y7964142D01*
G36*
X36957000Y15367000D02*
X39243000Y15367000D01*
X39243000Y15387000D01*
X39497000Y15387000D01*
X39497000Y15367000D01*
X39517000Y15367000D01*
X39517000Y15113000D01*
X39497000Y15113000D01*
X39497000Y13919845D01*
X39540486Y13896896D01*
X38482268Y10933593D01*
X38466338Y10825740D01*
X38439170Y10720157D01*
X38375674Y9577228D01*
X36585950Y13796700D01*
X36703000Y13913750D01*
X36703000Y15113000D01*
X36957000Y15113000D01*
X36957000Y13913750D01*
X37115750Y13755000D01*
X37806310Y13755000D01*
X38039699Y13851673D01*
X38218327Y14030302D01*
X38305136Y14239878D01*
X38603076Y13968355D01*
X39013110Y13798524D01*
X39243000Y13919845D01*
X39243000Y15113000D01*
X36957000Y15113000D01*
X36703000Y15113000D01*
X36683000Y15113000D01*
X36683000Y15367000D01*
X36703000Y15367000D01*
X36703000Y15387000D01*
X36957000Y15387000D01*
X36957000Y15367000D01*
X36957000Y15367000D01*
G37*
X36957000Y15367000D02*
X39243000Y15367000D01*
X39243000Y15387000D01*
X39497000Y15387000D01*
X39497000Y15367000D01*
X39517000Y15367000D01*
X39517000Y15113000D01*
X39497000Y15113000D01*
X39497000Y13919845D01*
X39540486Y13896896D01*
X38482268Y10933593D01*
X38466338Y10825740D01*
X38439170Y10720157D01*
X38375674Y9577228D01*
X36585950Y13796700D01*
X36703000Y13913750D01*
X36703000Y15113000D01*
X36957000Y15113000D01*
X36957000Y13913750D01*
X37115750Y13755000D01*
X37806310Y13755000D01*
X38039699Y13851673D01*
X38218327Y14030302D01*
X38305136Y14239878D01*
X38603076Y13968355D01*
X39013110Y13798524D01*
X39243000Y13919845D01*
X39243000Y15113000D01*
X36957000Y15113000D01*
X36703000Y15113000D01*
X36683000Y15113000D01*
X36683000Y15367000D01*
X36703000Y15367000D01*
X36703000Y15387000D01*
X36957000Y15387000D01*
X36957000Y15367000D01*
G36*
X42037000Y15367000D02*
X42057000Y15367000D01*
X42057000Y15113000D01*
X42037000Y15113000D01*
X42037000Y13919845D01*
X42266890Y13798524D01*
X42352613Y13834029D01*
X42196440Y11724897D01*
X42147240Y11774183D01*
X41399562Y12084646D01*
X40589989Y12085352D01*
X40493318Y12045408D01*
X41175257Y13955026D01*
X41553110Y13798524D01*
X41783000Y13919845D01*
X41783000Y15113000D01*
X41763000Y15113000D01*
X41763000Y15367000D01*
X41783000Y15367000D01*
X41783000Y15387000D01*
X42037000Y15387000D01*
X42037000Y15367000D01*
X42037000Y15367000D01*
G37*
X42037000Y15367000D02*
X42057000Y15367000D01*
X42057000Y15113000D01*
X42037000Y15113000D01*
X42037000Y13919845D01*
X42266890Y13798524D01*
X42352613Y13834029D01*
X42196440Y11724897D01*
X42147240Y11774183D01*
X41399562Y12084646D01*
X40589989Y12085352D01*
X40493318Y12045408D01*
X41175257Y13955026D01*
X41553110Y13798524D01*
X41783000Y13919845D01*
X41783000Y15113000D01*
X41763000Y15113000D01*
X41763000Y15367000D01*
X41783000Y15367000D01*
X41783000Y15387000D01*
X42037000Y15387000D01*
X42037000Y15367000D01*
G36*
X32918039Y33617378D02*
X32805000Y33049093D01*
X32805000Y32990907D01*
X32918039Y32422622D01*
X33239946Y31940853D01*
X33243643Y31938383D01*
X33192235Y31928157D01*
X32982191Y31787809D01*
X32841843Y31577765D01*
X32792560Y31330000D01*
X32792560Y30628086D01*
X31831424Y30294693D01*
X31800819Y30353000D01*
X30607000Y30353000D01*
X30607000Y30333000D01*
X30353000Y30333000D01*
X30353000Y30353000D01*
X30333000Y30353000D01*
X30333000Y30607000D01*
X30353000Y30607000D01*
X30353000Y30627000D01*
X30607000Y30627000D01*
X30607000Y30607000D01*
X31800819Y30607000D01*
X31921486Y30836892D01*
X31675183Y31361358D01*
X31468145Y31550039D01*
X31577765Y31571843D01*
X31787809Y31712191D01*
X31928157Y31922235D01*
X31977440Y32170000D01*
X31977440Y32923270D01*
X31982767Y32925996D01*
X32987088Y33720718D01*
X32918039Y33617378D01*
X32918039Y33617378D01*
G37*
X32918039Y33617378D02*
X32805000Y33049093D01*
X32805000Y32990907D01*
X32918039Y32422622D01*
X33239946Y31940853D01*
X33243643Y31938383D01*
X33192235Y31928157D01*
X32982191Y31787809D01*
X32841843Y31577765D01*
X32792560Y31330000D01*
X32792560Y30628086D01*
X31831424Y30294693D01*
X31800819Y30353000D01*
X30607000Y30353000D01*
X30607000Y30333000D01*
X30353000Y30333000D01*
X30353000Y30353000D01*
X30333000Y30353000D01*
X30333000Y30607000D01*
X30353000Y30607000D01*
X30353000Y30627000D01*
X30607000Y30627000D01*
X30607000Y30607000D01*
X31800819Y30607000D01*
X31921486Y30836892D01*
X31675183Y31361358D01*
X31468145Y31550039D01*
X31577765Y31571843D01*
X31787809Y31712191D01*
X31928157Y31922235D01*
X31977440Y32170000D01*
X31977440Y32923270D01*
X31982767Y32925996D01*
X32987088Y33720718D01*
X32918039Y33617378D01*
M02*
