M48
;DRILL file {KiCad (2017-04-12 revision 02abf1804)-makepkg} date 04/26/17 22:12:47
;FORMAT={2:4/ absolute / inch / suppress leading zeros}
FMAT,2
INCH,TZ
T1C0.016
T2C0.031
T3C0.032
T4C0.039
T5C0.039
T6C0.045
T7C0.051
T8C0.055
T9C0.079
T10C0.091
T11C0.240
T12C0.049
%
G90
G05
M72
T1
X16120Y9830
X16730Y11177
X16945Y10787
T2
X15785Y3130
X15785Y2500
X15785Y1870
X16257Y2815
X16257Y2185
T3
X3013Y4100
X3013Y3100
X3800Y4100
X3800Y3100
T4
X7000Y10000
X7000Y9000
X8000Y13000
X8000Y12000
X8000Y10000
X8000Y9000
X9000Y13000
X9000Y12000
X9000Y10000
X9000Y9000
X11000Y13000
X11000Y12000
X11000Y10000
X11000Y9000
X11000Y8000
X12000Y13000
X12000Y12000
X12000Y10000
X12000Y9000
X12000Y8000
X13500Y13000
X13500Y12000
X13500Y10000
X13500Y9000
X14500Y13000
X14500Y12000
X14500Y10000
X14500Y9000
X14500Y7000
X14500Y6000
X15500Y13000
X15500Y12000
X15500Y10000
X15500Y9000
X15500Y7000
X15500Y6000
X16500Y7000
X16500Y6000
X17500Y7000
X17500Y6000
T5
X8500Y5050
X9500Y5050
X10300Y5050
X11300Y5050
T6
X8524Y1902
X9508Y1902
X10295Y1902
X11280Y1902
T7
X2000Y16969
X2000Y15000
T9
X16139Y3957
X16139Y1043
X18009Y3957
X18009Y1043
T10
X1950Y5962
X1950Y1238
X7100Y4000
X12500Y4000
T11
X9000Y16500
X16500Y16500
T12
X9016Y1075
X10787Y1075
T5
X3079Y10894G85X3079Y10107
G05
X3867Y8650G85X4654Y8650
G05
X5441Y10894G85X5441Y10107
G05
T8
X7657Y1459G85X7657Y691
G05
X12146Y1459G85X12146Y691
G05
T0
M30
